<?xml version="1.0" standalone="no"?><!DOCTYPE svg PUBLIC "-//W3C//DTD SVG 1.1//EN" "http://www.w3.org/Graphics/SVG/1.1/DTD/svg11.dtd"><svg t="1768660283815" class="icon" viewBox="0 0 1024 1024" version="1.1" xmlns="http://www.w3.org/2000/svg" p-id="6745" xmlns:xlink="http://www.w3.org/1999/xlink" width="256" height="256"><path d="M947.328 162.4576c-1.2544 1.3056-4.864 1.092267-6.493867 2.5856-12.509867 11.434667-28.424533 26.752-41.224533 36.846933-7.901867 6.229333-12.305067 9.8304-22.101333 5.725867-1.655467-8.2176 1.109333-9.659733 5.538133-14.865067 14.830933-17.399467 37.2736-30.2848 53.691733-46.472533 6.289067-4.002133 10.760533-1.8944 14.941867 3.950933 0.375467 1.4336-3.456 11.298133-4.352 12.2368z" fill="#EA4A41" p-id="6746"></path><path d="M116.778667 256.042667l0.187733 14.634666c-12.2112 3.259733-19.182933-3.8144-28.6208-6.613333-9.924267-2.944-60.398933-14.762667-60.066133-24.891733l3.345066-9.2928 85.154134 26.171733z" fill="#E95145" p-id="6747"></path><path d="M78.037333 137.1136c2.824533-0.776533 13.098667 7.125333 16.512 9.437867 13.559467 9.156267 33.425067 24.866133 45.9776 35.643733 11.067733 9.4976 7.099733 18.432-6.5536 17.6896-8.9344-11.5712-58.325333-40.5248-61.2096-50.0992-1.902933-6.2976 0.785067-8.977067 5.2736-12.663467z" fill="#E94539" p-id="6748"></path><path d="M992.503467 237.294933l-0.187734 14.634667c-12.586667 3.976533-25.5488 7.586133-37.973333 12.125867-8.576 3.131733-42.9056 23.022933-47.163733 8.4736-1.3824-4.718933 6.016-10.299733 9.9584-12.288 12.2624-6.186667 49.595733-19.336533 63.069866-22.263467 4.130133-0.896 8.149333-0.896 12.296534-0.674133z" fill="#EA5248" p-id="6749"></path><path d="M27.9296 352.290133c-0.085333-5.0432-1.399467-9.915733 3.6352-13.047466 13.764267-8.576 34.491733-4.352 50.082133-5.572267 5.973333-0.469333 24.584533-9.693867 27.886934 1.937067 4.386133 15.4368-12.910933 11.690667-20.317867 13.056-5.0432 0.930133-8.925867 3.362133-14.754133 3.7888-15.018667 1.1008-31.351467-1.117867-46.532267-0.162134z" fill="#E94740" p-id="6750"></path><path d="M990.651733 341.162667c6.980267 1.834667 8.1408 15.701333-0.324266 18.2272-20.906667 6.229333-53.7088-6.306133-75.733334-3.387734V341.162667h76.0576z" fill="#E74A42" p-id="6751"></path><path d="M502.792533 5.418667c2.389333-8.712533 18.551467-5.563733 18.551467 0v77.909333c0 6.971733-18.551467 6.971733-18.551467 0V5.418667z" fill="#EA5145" p-id="6752"></path><path d="M632.6272 96.315733l-11.153067-1.826133-3.729066-11.101867c7.808-14.890667 8.900267-37.435733 15.470933-51.421866 2.8672-6.101333 5.9392-7.022933 12.398933-6.126934 5.102933 3.8144 6.186667 6.5024 5.632 12.919467-1.390933 16.017067-16.8448 40.064-18.619733 57.565867z" fill="#EC4D42" p-id="6753"></path><path d="M343.2704 912.4864c53.367467-6.237867 110.045867-75.844267 122.606933-125.960533l90.4704-0.341334c9.489067 15.581867 15.419733 34.1248 24.9344 49.664 18.1248 29.6192 64.093867 72.6272 99.584 76.629334 10.7776 36.078933 6.724267 74.0864 7.424 111.300266-117.418667 0.4096-235.025067 0.119467-352.443733 0-1.9968-37.7088 4.181333-74.026667 7.424-111.300266z" fill="#FAF0DE" p-id="6754"></path><path d="M680.874667 912.4864c16.221867 1.834667 32.426667-0.8192 48.2304-3.720533 6.126933 38.357333 17.322667 75.963733 18.551466 115.0208-19.7376 0.1792-39.620267-0.068267-59.357866 0-0.6912-37.213867 3.3536-75.2128-7.424-111.300267z" fill="#F5C17E" p-id="6755"></path><path d="M343.2704 912.4864c-3.234133 37.265067-9.4208 73.591467-7.424 111.300267-19.7376-0.017067-39.6288 0.247467-59.357867 0l22.272-114.9952c14.7456 2.568533 29.354667 5.469867 44.509867 3.703466z" fill="#F5C07D" p-id="6756"></path><path d="M406.331733 92.5952c-5.572267-0.213333-13.218133 1.860267-16.8192-3.575467-4.189867-6.331733-12.347733-38.340267-14.8736-48.187733-1.3056-5.085867-2.577067-9.710933-1.681066-15.018667l11.1104-2.0224c8.8064 5.7088 25.557333 65.476267 22.263466 68.804267z" fill="#EC4C42" p-id="6757"></path><path d="M684.578133 752.964267c0.4352 0.5888 3.584 1.058133 5.410134 3.712 9.949867 14.498133 18.901333 31.2576 24.516266 47.991466 20.445867 4.5568 19.054933-9.685333 11.690667-24.695466-2.884267-5.879467-9.6-11.989333-11.912533-17.7664-3.3536-8.3968 9.924267-4.352 13.038933-8.661334 25.728 33.365333 43.255467 99.7888 3.703467 129.339734-48.7168 36.394667-101.358933-14.1568-128.068267-52.010667 34.773333-15.906133 70.6304-38.9632 81.621333-77.909333z" fill="#F4C17F" p-id="6758"></path><path d="M421.179733 830.8736c-0.5376 0.725333-0.093867 5.1968-3.524266 9.344-26.368 31.931733-73.7792 71.2704-116.573867 45.832533-43.229867-25.693867-27.298133-91.630933-5.5808-127.061333 4.1728-6.8096 6.801067-6.7584 14.370133-6.024533 2.466133 14.805333-19.5584 32.145067-13.098666 44.612266 12.8512 24.8064 26.8288-21.905067 32.2304-31.0528 4.3008-7.296 10.5216-12.288 14.2592-17.271466 7.1936 39.850667 42.9824 66.0736 77.909333 81.621333z" fill="#F5C27F" p-id="6759"></path><path d="M684.578133 752.964267c-10.990933 38.946133-46.848 62.0032-81.621333 77.909333-21.623467-30.651733-45.815467-80.904533-26.769067-117.6576 15.9744-30.8224 58.018133-12.7744 78.7968 4.420267 13.508267 11.178667 19.908267 22.331733 29.5936 35.328z" fill="#F9F0DD" p-id="6760"></path><path d="M421.179733 830.8736c-34.9184-15.547733-70.715733-41.770667-77.909333-81.621333 15.7184-20.974933 36.360533-48.162133 64.981333-51.874134 66.363733-8.610133 47.5648 76.629333 28.5696 113.885867-4.309333 8.439467-11.3408 13.7984-15.6416 19.601067z" fill="#F8F0DF" p-id="6761"></path><path d="M276.488533 1023.786667c-6.161067-0.0768-12.398933 0.068267-18.56 0l22.306134-124.3392c-18.56-29.0048-29.525333-49.314133-26.1632-85.4272 2.491733-26.752 18.1248-48.256 26.129066-72.183467-59.716267-24.362667-113.092267-78.370133-131.797333-140.9024-15.854933-53.009067-11.374933-114.952533 2.8416-167.9872 6.340267-23.645867 26.129067-62.3616 28.714667-82.577067 2.338133-18.244267-1.1776-40.516267-0.1024-59.460266 2.6112-45.815467 10.0352-115.729067 26.9312-158.5664 17.1264-43.4176 43.4944-67.4304 91.997866-49.083734 43.4944 16.452267 79.624533 48.9472 116.744534 74.9312l29.815466-6.1696c57.719467-5.4272 116.974933-7.031467 173.730134 6.826667 26.8288-18.2784 50.474667-41.821867 79.0528-58.257067 60.6976-34.9184 99.1232-35.592533 128.145066 33.928534 13.815467 33.083733 23.2448 91.050667 25.3952 126.711466 1.629867 26.990933-3.4816 59.5456-0.1024 85.4272 2.705067 20.7104 21.1968 56.4992 27.861334 79.7184 22.647467 78.882133 26.948267 151.534933-17.373867 223.9744-22.912 37.435733-72.644267 78.114133-114.414933 91.4944-2.491733 10.8032 6.715733 16.750933 10.359466 24.8576 15.5136 34.4832 23.688533 72.4224 5.2736 107.630934-4.599467 8.7808-14.506667 14.327467-15.837866 25.275733l22.4512 124.168533c-7.389867 0.059733-14.865067-0.059733-22.254934 0-1.2288-39.057067-12.424533-76.663467-18.551466-115.0208-15.803733 2.901333-32.008533 5.5552-48.2304 3.720534-35.498667-4.010667-81.4592-47.010133-99.584-76.629334-9.506133-15.5392-15.445333-34.082133-24.9344-49.664l-90.4704 0.341334c-12.5696 50.107733-69.239467 119.722667-122.606934 125.960533-15.1552 1.774933-29.764267-1.134933-44.509866-3.703467l-22.272 114.9952z m-115.003733-460.032c0.059733 21.521067 9.489067 40.669867 18.551467 59.357866 21.930667 45.218133 57.557333 76.2624 102.775466 99.413334 8.9344 4.573867 35.566933 16.887467 43.605334 15.752533 26.0608-37.538133 68.258133-72.302933 117.0176-55.816533 3.370667-3.498667-8.098133-35.1232-7.543467-42.478934 0.273067-3.618133 3.3536-17.6896 4.488533-21.794133 1.2032-4.3264 3.8656-8.3456 6.6816-11.8016-23.569067-13.7472-33.365333-33.646933-29.499733-61.1328l9.207467-3.396267c17.6896 13.218133 0.512 29.525333 22.084266 44.305067 10.359467 7.099733 24.3712 8.721067 36.539734 6.536533 10.2144-1.826133 20.343467-10.692267 30.395733-10.6752 16.3072 0.0256 24.849067 16.725333 51.328 10.794667 1.826133-0.4096 19.490133-10.333867 20.317867-11.204267 6.493867-6.792533 9.4464-26.9312 8.1152-36.4288l14.634666 0.2048c14.984533 43.0592-30.865067 74.88-71.534933 65.979734-9.821867-2.1504-20.846933-17.058133-30.318933-6.843734-4.3264 4.667733-12.680533 28.5696-12.219734 34.577067 1.160533 15.018667 15.658667 44.9792 13.550934 59.178667-1.706667 11.502933-8.576 24.3712-10.6752 36.027733-8.448 2.6368-10.9568-1.706667-14.728534-3.626667 2.090667-8.823467 9.941333-19.677867 11.118934-27.810133 2.8672-19.7632-9.5232-33.834667-11.272534-51.797333-1.450667-14.9504 0.631467-29.550933 7.569067-42.811734-18.0224 1.527467-20.4032 27.861333-17.834667 41.949867 6.749867 37.000533 16.887467 33.314133 2.9952 76.757333-0.1024 0.3072-3.106133 0.375467-3.7888 5.3248-1.339733 9.770667 1.0496 21.614933 0.093867 31.744 26.564267 5.0688 51.310933 5.0688 77.8752 0-4.181333-46.848 10.427733-90.7008 65.092267-85.4528 29.371733 2.824533 61.192533 32.221867 79.778133 53.845334 2.3808 2.773333 3.712 5.614933 3.694933 9.301333 85.597867-26.146133 156.6976-84.974933 174.1312-176.256 1.024-5.3504-0.571733-11.264 0.085334-16.580267 5.845333-47.3856-2.551467-80.477867-16.5888-126.242133-6.0928-19.8656-21.8112-50.628267-24.157867-68.590933-2.935467-22.468267 1.3312-50.798933 0.1024-74.299734-1.681067-32.128-7.620267-75.0848-15.8976-106.5216-6.724267-25.531733-22.306133-73.5232-52.949333-77.047466-21.521067-2.474667-79.1552 36.258133-98.0992 50.338133-7.1936 5.341867-30.5408 29.346133-35.8656 30.907733-13.7472 4.010667-37.026133-5.1968-51.549867-6.877866-41.088-4.736-84.846933-4.898133-125.986133 0-12.253867 1.4592-28.791467 8.123733-40.9344 7.560533-11.9808-0.554667-28.501333-20.087467-39.0656-27.886933-21.521067-15.8976-80.401067-55.236267-105.634134-54.186667-32.085333 1.339733-46.907733 58.5472-52.881066 84.5568-5.4528 23.748267-10.4192 57.173333-11.912534 80.836267-1.706667 27.042133 3.2256 59.434667-0.136533 85.188266-3.345067 25.608533-25.0112 68.0192-32.426667 97.416534-8.849067 35.054933-12.458667 62.976-12.014933 99.242666 0.085333 6.673067-2.645333 16.119467 3.694933 20.4288z m307.9168 144.6912c6.382933-19.396267-1.416533-35.165867-7.3472-53.853867l1.800533-46.3104c-7.876267 8.2176-13.704533 23.970133-13.226666 35.3024 0.494933 11.613867 8.832 23.424 10.658133 34.039467 1.8432 10.769067-3.831467 26.0352 8.123733 30.8224z m-126.1312 40.8064c-3.7376 4.983467-9.9584 9.975467-14.2592 17.271466-5.393067 9.147733-19.370667 55.8592-32.2304 31.0528-6.459733-12.4672 15.5648-29.806933 13.098667-44.612266-7.569067-0.7424-10.197333-0.785067-14.370134 6.024533-21.717333 35.4304-37.649067 101.358933 5.5808 127.061333 42.794667 25.437867 90.205867-13.9008 116.573867-45.832533 3.4304-4.155733 2.986667-8.618667 3.524267-9.344 4.3008-5.8112 11.332267-11.1616 15.6416-19.601067 19.003733-37.256533 37.794133-122.496-28.5696-113.885866-28.6208 3.712-49.2544 30.8992-64.981334 51.874133z m259.694933 81.621333c26.7008 37.853867 79.342933 88.413867 128.068267 52.010667 39.552-29.550933 22.016-95.9744-3.703467-129.339734-3.106133 4.309333-16.392533 0.264533-13.038933 8.661334 2.304 5.777067 9.028267 11.886933 11.912533 17.7664 7.364267 15.0016 8.7552 29.252267-11.690666 24.695466-5.623467-16.733867-14.5664-33.4848-24.516267-47.991466-1.826133-2.653867-4.9664-3.131733-5.410133-3.712-9.685333-12.996267-16.085333-24.149333-29.5936-35.328-20.778667-17.194667-62.8224-35.242667-78.7968-4.420267-19.0464 36.753067 5.1456 87.005867 26.769066 117.6576z" fill="#502E25" p-id="6762"></path><path d="M873.787733 548.9152c-6.647467-9.591467-10.120533-23.031467-18.4064-31.675733-6.212267-6.485333-14.6176-9.693867-22.408533-12.842667-0.2816-0.110933-0.512-2.705067-2.5088-3.1744-4.411733-1.032533-8.226133-0.2816-12.330667-0.5376-3.0464-6.365867-14.3872-3.746133-20.411733-3.694933-30.660267 0.221867-38.144 5.384533-64.913067 14.830933-3.9936 1.408-6.6816 3.447467-7.424 3.712-9.710933 3.396267-20.8896 8.277333-29.678933 11.127467-7.125333 2.312533-23.022933 6.664533-29.678933 7.424-49.792 5.649067-68.770133-31.240533-107.537067-46.429867-30.037333-11.767467-52.4032-12.194133-82.7136-0.989867-36.48 13.482667-50.756267 46.395733-95.4112 47.419734-9.326933 0.213333-20.8384-1.194667-29.678933-3.712-10.862933-3.089067-28.509867-10.496-40.8064-14.839467-4.4544-1.570133-13.960533-8.4736-22.263467-11.127467-17.826133-5.700267-31.325867-7.492267-50.0736-7.406933-6.075733 0.0256-17.3312-2.722133-20.411733 3.694933-29.696 2.449067-55.739733 33.3056-55.645867 63.069867-6.340267-4.3008-3.618133-13.755733-3.694933-20.4288-0.443733-36.2752 3.165867-64.187733 12.014933-99.242667 7.424-29.397333 29.090133-71.808 32.426667-97.416533 3.362133-25.762133-1.570133-58.146133 0.136533-85.188267 1.493333-23.671467 6.459733-57.088 11.912533-80.836266 5.973333-26.018133 20.7872-83.2256 52.881067-84.5568 25.224533-1.0496 84.113067 38.289067 105.634133 54.186666 10.564267 7.799467 27.0848 27.332267 39.0656 27.886934 12.1344 0.5632 28.680533-6.101333 40.9344-7.560534 41.1392-4.898133 84.898133-4.736 125.986134 0 14.532267 1.672533 37.8112 10.888533 51.549866 6.877867 5.3248-1.553067 28.672-25.557333 35.8656-30.907733 18.944-14.08 76.578133-52.804267 98.0992-50.338134 30.6432 3.515733 46.225067 51.5072 52.949334 77.047467 8.277333 31.445333 14.216533 74.3936 15.8976 106.5216 1.2288 23.5008-3.037867 51.831467-0.1024 74.299733 2.346667 17.962667 18.065067 48.725333 24.157866 68.590934 14.037333 45.7728 22.434133 78.856533 16.5888 126.242133zM246.8096 205.755733c-3.1744 21.725867 2.321067 49.809067 0 72.3456 14.728533-1.390933 20.4288-19.217067 29.568-27.938133 11.298133-10.7776 27.989333-19.857067 39.560533-30.933333l31.061334-17.2032c-0.110933-3.6608-8.251733-15.496533-11.0848-18.594134-6.3744-6.971733-36.514133-30.865067-44.381867-33.518933-14.523733-4.898133-21.546667-0.213333-29.371733 11.835733-4.829867 7.4496-14.08 35.259733-15.351467 44.0064z m537.9328 68.625067c0.238933-6.724267-0.520533-13.559467 0.0768-20.3008 1.902933-21.666133 1.408-47.325867-4.565333-69.802667-2.7904-10.504533-13.021867-32.401067-23.748267-35.6608-18.3552-5.563733-63.522133 33.911467-68.1472 53.205334 20.616533 14.011733 42.171733 26.6496 61.218133 42.811733 8.3712 7.099733 15.573333 17.143467 24.0384 24.183467 3.754667 3.1232 4.7616 7.099733 11.127467 5.563733z m-406.212267-55.637333c-5.111467 1.553067-20.701867 39.586133-20.693333 46.370133 0.059733 33.732267 44.996267 30.779733 45.064533 0 0.017067-6.8608-10.3168-30.7456-14.3872-37.828267-2.048-3.549867-4.548267-10.205867-9.984-8.5504z m202.018134 14.916266h-10.837334c-1.169067 12.219733-13.320533 23.714133-14.967466 35.157334-4.5824 31.735467 27.665067 42.914133 39.031466 20.497066 8.405333-16.5888-9.898667-38.843733-13.226666-55.6544z m117.034666 14.762667c-6.0416 1.902933-15.633067 40.9856-22.331733 48.170667-20.872533 39.2704 18.013867 71.8592 48.375467 37.248 8.9344-25.864533-6.9632-44.2368-15.104-66.696534-1.792-4.949333-1.655467-21.649067-10.939734-18.722133z m-211.4816 18.56c-6.912 0.0768-24.362667 41.1904-24.405333 50.065067-0.145067 31.6416 45.243733 31.633067 45.098667 0-0.034133-7.441067-16.426667-50.107733-20.693334-50.065067z m-187.374933 14.805333h-11.0848c-2.2528 26.9568-34.082133 59.4176-16.6144 85.239467 11.844267 17.5104 38.7584 15.069867 48.213333-3.515733 11.511467-22.6304-19.3792-58.274133-20.522666-81.723734z m140.322133 106.914134c0.5376-0.512 7.3472-12.1088 7.560534-12.8256 5.828267-19.4816-10.862933-41.224533-28.0576-48.776534-13.1584-5.777067-44.962133-8.746667-54.894934 2.9184-11.4176 13.397333-9.873067 27.707733-1.3568 42.2144 9.710933 16.554667 41.7792 28.16 60.142934 23.9872 1.749333-0.401067 15.9488-6.8864 16.605866-7.517866z m181.213867-65.4848c-9.0624 1.979733-26.973867 15.650133-32.298667 23.355733-20.224 29.2864 7.808 54.843733 38.408534 49.518933 25.335467-4.411733 59.008-33.066667 41.403733-58.530133-11.434667-16.546133-28.177067-18.568533-47.5136-14.336z m155.221333 3.114666c-3.3536 1.024-9.437867 17.476267-11.178666 22.2208-8.046933 21.947733-15.2576 44.672 14.8736 50.730667 35.0208-5.521067 18.210133-43.409067 6.2976-64.4096-2.0224-3.5584-4.5824-10.197333-9.992534-8.541867z m-539.810133 51.933867c-5.597867-1.024-8.2432 1.237333-10.5216 6.1696-5.000533 10.8288-20.616533 49.220267-18.653867 58.146133 5.896533 26.8288 44.501333 27.9808 47.8208 4.411734 4.087467-28.962133-13.201067-42.496-18.645333-68.718934z m81.774933 114.858667l12.074667 3.182933c29.184-9.540267 63.9232-10.368 92.842667-18.551467 7.722667-2.184533 19.8656-10.001067 17.109333-19.3792-2.235733-7.6032-32.7424-23.9104-41.6768-28.893866-13.201067-7.364267-41.344-23.150933-54.314667-27.2896-16.256-5.1968-27.067733 5.1968-18.2016 20.061866 19.882667 9.3952 42.504533 18.432 61.371734 29.508267 3.362133 1.9712 8.2432 3.4304 8.567466 8.1152-6.673067 0.426667-13.6704-0.785067-20.317866 0.093867-10.257067 1.348267-43.588267 7.773867-51.456 11.613866-2.628267 1.28-4.855467 2.269867-5.794134 5.3248l-0.187733 16.221867z m389.2992-88.797867l-15.931733-3.4048c-23.7056 13.6704-50.824533 23.611733-74.299733 37.265067-3.959467 2.304-22.254933 12.962133-23.0144 14.08-8.541867 12.561067 2.184533 24.482133 15.829333 25.352533l99.037867 19.089067 8.7296-12.7232-3.285334-8.840534-73.762133-15.266133c-1.2032-8.448-0.093867-5.896533 4.821333-8.055467 10.001067-4.4032 57.156267-26.606933 60.202667-32.648533 2.474667-4.9152 2.116267-9.6512 1.664-14.848z m102.126934 14.754133c-13.610667 24.439467-37.000533 55.978667 0.571733 69.998934 36.693333-5.495467 22.4768-38.442667 9.4208-61.457067-2.0224-3.5584-4.590933-10.205867-9.992533-8.541867z" fill="#F6C180" p-id="6763"></path><path d="M666.0352 534.075733c3.456 10.496-3.6864 24.132267-3.677867 31.530667 0 3.575467 3.012267 7.236267 3.5584 11.272533 3.0976 22.9888 4.394667 38.9376 20.6848 57.198934 3.7632 4.224 22.784 20.872533 26.308267 21.922133 11.357867 3.396267 22.877867 6.254933 34.6624 9.864533 24.413867 7.466667 27.793067 6.0672 49.5872-6.229333 31.7184-17.8944 54.101333-32.776533 58.001067-71.850667 3.524267-35.370667-11.810133-45.9776-26.5216-73.480533-3.7888-7.082667-6.826667-11.195733 4.343466-9.9072 7.7824 3.140267 16.187733 6.3488 22.408534 12.842667 8.285867 8.644267 11.7504 22.084267 18.4064 31.675733-0.657067 5.316267 0.938667 11.229867-0.085334 16.580267-17.442133 91.281067-88.533333 150.109867-174.1312 176.256 0.0256-3.6864-1.3056-6.528-3.694933-9.301334-18.577067-21.623467-50.4064-51.0208-79.778133-53.845333-54.664533-5.256533-69.2736 38.596267-65.092267 85.4528-26.564267 5.0688-51.310933 5.0688-77.8752 0 0.955733-10.129067-1.4336-21.973333-0.093867-31.744 0.682667-4.949333 3.6864-5.0176 3.7888-5.3248 2.56 1.058133 4.957867 2.4576 7.424 3.712 3.771733 1.92 6.289067 6.263467 14.728534 3.626667 2.0992-11.665067 8.968533-24.5248 10.6752-36.027734 2.107733-14.199467-12.381867-44.168533-13.550934-59.178666-0.469333-6.007467 7.893333-29.909333 12.219734-34.577067 9.472-10.2144 20.497067 4.693333 30.318933 6.843733 40.669867 8.900267 86.528-22.920533 71.534933-65.979733l-14.634666-0.2048c1.3312 9.4976-1.621333 29.636267-8.1152 36.4288-0.827733 0.861867-18.491733 10.794667-20.317867 11.204267-26.478933 5.930667-35.0208-10.769067-51.328-10.794667-10.052267-0.017067-20.181333 8.849067-30.395733 10.6752-12.168533 2.176-26.180267 0.5632-36.539734-6.536533-21.563733-14.779733-4.386133-31.086933-22.084266-44.305067l-9.207467 3.396267c-3.857067 27.485867 5.930667 47.394133 29.499733 61.1328-2.816 3.456-5.4784 7.4752-6.6816 11.8016-1.134933 4.104533-4.215467 18.167467-4.488533 21.794133-0.554667 7.3472 10.914133 38.971733 7.543467 42.478933-48.759467-16.494933-90.9568 18.2784-117.0176 55.816534-8.0384 1.134933-34.670933-11.178667-43.605334-15.752534-45.218133-23.150933-80.8448-54.1952-102.775466-99.413333-0.810667-12.117333 2.005333-7.918933 6.8352-1.262933 4.898133 6.749867 11.016533 21.589333 15.402666 25.412266 6.306133 5.495467 14.557867 3.857067 19.7376 6.237867 10.103467 4.650667 22.493867 16.3072 34.090667 17.860267 6.801067 0.913067 28.689067-2.7648 36.369067-4.445867 8.7552-1.911467 13.9264-7.458133 19.985066-9.693867 12.791467-4.7104 19.575467-1.032533 30.8736-13.6448 3.217067-3.592533 14.788267-17.4336 16.605867-20.488533 7.765333-13.056 17.988267-46.208 16.64-61.115733-0.896-9.9072-11.0848-20.7616 3.797333-27.895467 44.654933-1.024 58.9312-33.937067 95.4112-47.419733 30.3104-11.204267 52.676267-10.7776 82.7136 0.989866 38.766933 15.1808 57.745067 52.078933 107.537067 46.429867z m-156.893867-36.283733c-27.989333 3.191467-59.008 18.6624-36.104533 49.348267 19.165867 25.685333 60.544 26.487467 83.6864 5.623466 4.010667-3.6096 12.970667-19.473067 12.962133-24.251733-0.017067-22.8608-42.427733-32.785067-60.544-30.72z" fill="#FAF1DF" p-id="6764"></path><path d="M217.130667 500.693333l22.254933 1.851734c-6.1696 8.8576-16.349867 10.5472-24.183467 16.622933-14.506667 11.255467-22.033067 28.680533-24.285866 46.3872 4.283733 16.366933 1.7152 41.284267 13.218133 53.9648 2.517333 2.781867 6.510933 2.628267 8.516267 4.548267 1.169067 1.1264 0.426667 4.548267 1.536 5.521066 17.7152 15.5136 36.778667 21.367467 60.373333 19.421867 3.618133-0.298667 7.287467-2.816 11.298133-3.541333 4.5056-0.8192 9.685333 0.759467 14.301867-0.5376 8.96-10.624 23.68-13.064533 32.0512-23.594667 5.0944-6.4 17.4336-36.445867 18.440533-44.6464 1.7664-14.395733-5.376-21.4528-7.313066-33.390933-1.083733-6.690133-3.080533-15.189333 7.364266-12.919467 8.849067 2.517333 20.352 3.925333 29.678934 3.712-14.882133 7.133867-4.693333 17.988267-3.797334 27.895467 1.3568 14.907733-8.874667 48.059733-16.64 61.115733-1.8176 3.063467-13.3888 16.896-16.605866 20.488533-11.298133 12.603733-18.090667 8.925867-30.8736 13.6448-6.0672 2.235733-11.2384 7.7824-19.985067 9.693867-7.688533 1.672533-29.568 5.3504-36.369067 4.445867-11.5968-1.553067-23.9872-13.2096-34.090666-17.860267-5.179733-2.3808-13.431467-0.7424-19.7376-6.237867-4.3776-3.822933-10.504533-18.6624-15.402667-25.412266-4.829867-6.647467-7.645867-10.8544-6.8352 1.262933-9.0624-18.688-18.4832-37.845333-18.551467-59.357867-0.085333-29.755733 25.9584-60.6208 55.645867-63.069866z" fill="#FAE6D1" p-id="6765"></path><path d="M476.8256 726.997333c13.892267-43.4432 3.754667-39.7568-2.9952-76.757333-2.568533-14.088533-0.187733-40.4224 17.834667-41.949867-6.9376 13.2608-9.028267 27.861333-7.569067 42.811734 1.749333 17.962667 14.1312 32.034133 11.272533 51.797333-1.1776 8.132267-9.028267 18.986667-11.118933 27.810133-2.466133-1.2544-4.864-2.645333-7.424-3.712z" fill="#DEBF86" p-id="6766"></path><path d="M469.4016 708.445867c-11.9552-4.7872-6.272-20.053333-8.123733-30.8224-1.8176-10.615467-10.1632-22.4256-10.658134-34.039467-0.4864-11.332267 5.3504-27.0848 13.226667-35.3024l-1.800533 46.3104c5.9392 18.688 13.730133 34.4576 7.3472 53.853867z" fill="#E0BF88" p-id="6767"></path><path d="M818.141867 500.693333c4.104533 0.256 7.918933-0.494933 12.330666 0.5376 2.005333 0.469333 2.2272 3.054933 2.5088 3.1744-11.170133-1.288533-8.132267 2.833067-4.343466 9.9072 14.711467 27.502933 30.045867 38.109867 26.5216 73.480534-3.899733 39.074133-26.282667 53.947733-58.001067 71.850666-21.802667 12.296533-25.173333 13.696-49.5872 6.229334-11.776-3.601067-23.296-6.468267-34.6624-9.864534-3.524267-1.0496-22.536533-17.706667-26.308267-21.922133-16.290133-18.2528-17.5872-34.210133-20.6848-57.198933-0.546133-4.036267-3.549867-7.697067-3.5584-11.272534-0.008533-7.3984 7.133867-21.034667 3.677867-31.530666 6.656-0.750933 22.5536-5.102933 29.678933-7.424-0.9472 9.0112-6.3488 19.336533-7.330133 27.912533-1.373867 11.989333 1.399467 35.438933 4.215467 47.5392 7.620267 32.7424 52.7872 47.069867 82.816 43.204267 4.701867-0.605867 39.4752-16.708267 42.052266-19.1744 2.176-2.082133 17.834667-31.581867 18.619734-35.165867 4.718933-21.504-4.693333-42.743467-16.187734-60.509867-11.605333-17.954133-23.0144-30.0288-46.276266-26.077866-0.8704-6.459733 8.490667-3.6096 12.9792-3.703467 10.2656-0.2048 21.410133-0.622933 31.5392 0z" fill="#FAE4CD" p-id="6768"></path><path d="M287.624533 504.3968c2.005333 11.426133-5.691733 6.971733-12.9536 7.432533-4.898133 0.315733-9.9072-0.5888-14.805333 0.0512-35.601067 4.667733-61.943467 55.68-47.214933 87.901867 3.5072 7.688533 25.378133 28.066133 32.8448 30.216533 6.161067 1.783467 21.930667 1.152 29.064533 0.452267 4.113067-0.4096 18.295467-3.0464 21.8368-4.138667 0.955733-0.290133 15.7184-10.692267 16.426667-11.392 0.622933-0.622933 8.2944-13.431467 9.0112-15.112533 1.962667-4.650667 6.493867-19.003733 6.749866-23.2448 0.315733-5.2736-2.858667-8.516267-3.1232-11.630933-0.3328-3.899733 2.8928-7.082667 2.909867-10.478934 0.059733-10.7008-12.4672-29.678933-18.4832-38.929066 12.296533 4.343467 29.943467 11.7504 40.8064 14.839466-10.436267-2.261333-8.448 6.237867-7.364267 12.919467 1.9456 11.938133 9.088 18.986667 7.313067 33.390933-1.006933 8.200533-13.346133 38.2464-18.440533 44.6464-8.379733 10.530133-23.0912 12.970667-32.0512 23.594667-4.608 1.3056-9.787733-0.2816-14.301867 0.5376-4.002133 0.733867-7.68 3.242667-11.298133 3.541333-23.594667 1.9456-42.658133-3.899733-60.373334-19.421866-1.109333-0.9728-0.366933-4.4032-1.536-5.521067-1.9968-1.92-5.9904-1.7664-8.516266-4.548267-11.502933-12.680533-8.9344-37.597867-13.218134-53.9648 2.2528-17.706667 9.787733-35.131733 24.285867-46.3872 7.8336-6.075733 18.013867-7.765333 24.183467-16.622933l-22.254934-1.851733c3.089067-6.417067 14.336-3.669333 20.411734-3.694934 18.747733-0.085333 32.247467 1.706667 50.0736 7.406934z" fill="#FAD9C0" p-id="6769"></path><path d="M309.879467 515.5328c6.016 9.250133 18.542933 28.228267 18.4832 38.929067-0.017067 3.396267-3.242667 6.5792-2.909867 10.478933 0.264533 3.114667 3.438933 6.357333 3.1232 11.630933-0.256 4.2496-4.7872 18.594133-6.749867 23.2448-0.7168 1.6896-8.379733 14.498133-9.0112 15.112534-0.708267 0.708267-15.470933 11.101867-16.426666 11.392-3.541333 1.083733-17.723733 3.729067-21.8368 4.138666-7.1424 0.708267-22.903467 1.3312-29.064534-0.452266-7.466667-2.158933-29.3376-22.536533-32.8448-30.216534-14.72-32.2304 11.6224-83.234133 47.214934-87.901866 4.898133-0.64 9.9072 0.264533 14.805333-0.0512 7.261867-0.4608 14.958933 3.9936 12.9536-7.432534 8.2944 2.653867 17.809067 9.557333 22.263467 11.127467z m-45.704534 15.232c-27.0592 7.620267-48.2304 52.0192-22.408533 69.5808 14.276267 9.710933 34.3552 11.323733 49.527467 2.338133 14.1056-8.3456 9.8048-16.904533 11.221333-29.559466 0.4352-3.908267 3.618133-7.543467 3.643733-11.2384 0.042667-6.920533-8.362667-22.912-14.737066-26.043734l-27.246934-5.077333z" fill="#F9CBAF" p-id="6770"></path><path d="M246.8096 205.755733c1.28-8.746667 10.5216-36.5568 15.351467-44.0064 7.825067-12.049067 14.848-16.733867 29.371733-11.835733 7.8592 2.653867 38.007467 26.5472 44.381867 33.518933 2.833067 3.0976 10.973867 14.933333 11.0848 18.594134l-31.061334 17.2032c-11.5712 11.076267-28.253867 20.155733-39.560533 30.933333-9.1392 8.721067-14.839467 26.5472-29.568 27.938133 2.321067-22.536533-3.1744-50.619733 0-72.3456z" fill="#FAC4B5" p-id="6771"></path><path d="M784.7424 274.3808c-6.365867 1.536-7.3728-2.440533-11.127467-5.563733-8.465067-7.048533-15.6672-17.083733-24.0384-24.183467-19.054933-16.162133-40.6016-28.8-61.218133-42.811733 4.625067-19.3024 49.800533-58.7776 68.1472-53.205334 10.7264 3.2512 20.9664 25.156267 23.748267 35.6608 5.973333 22.4768 6.468267 48.136533 4.565333 69.802667-0.597333 6.741333 0.162133 13.585067-0.0768 20.3008z" fill="#F9C4B5" p-id="6772"></path><path d="M818.141867 500.693333c-10.120533-0.622933-21.2736-0.2048-31.5392 0-4.488533 0.085333-13.8496-2.756267-12.9792 3.703467 23.261867-3.959467 34.6624 8.1152 46.276266 26.077867 11.485867 17.7664 20.898133 39.005867 16.187734 60.509866-0.785067 3.584-16.443733 33.083733-18.619734 35.165867-2.577067 2.466133-37.3504 18.568533-42.052266 19.1744-30.0288 3.8656-75.195733-10.461867-82.816-43.204267-2.816-12.1088-5.597867-35.549867-4.215467-47.5392 0.981333-8.576 6.382933-18.901333 7.330133-27.912533 8.789333-2.858667 19.968-7.7312 29.678934-11.127467 0.196267 9.864533-9.838933 13.3632-14.318934 20.923734-8.064 13.585067-5.154133 55.9616 3.6096 69.5552 3.421867 5.2992 25.531733 18.8672 31.7184 20.215466 23.022933 5.026133 37.486933-2.551467 56.866134-12.416 13.5936-12.8 18.3296-36.027733 13.201066-53.9392-1.041067-3.643733-12.8-26.939733-15.0016-29.5168-1.809067-2.116267-23.364267-14.532267-25.9072-14.8992-8.3456-1.2032-20.727467 0-29.7472 0.1792-5.316267 0.110933-9.736533 7.150933-12.996266-3.805866 26.769067-9.437867 34.2528-14.609067 64.913066-14.830934 6.024533-0.042667 17.365333-2.670933 20.411734 3.694934z" fill="#F9D7BE" p-id="6773"></path><path d="M732.808533 511.8208c3.259733 10.9568 7.68 3.9168 12.996267 3.805867 9.019733-0.187733 21.4016-1.390933 29.7472-0.1792 2.542933 0.366933 24.098133 12.782933 25.9072 14.8992 2.210133 2.577067 13.960533 25.873067 15.0016 29.5168 5.128533 17.92 0.392533 41.147733-13.201067 53.9392-19.370667 9.864533-33.834667 17.442133-56.866133 12.416-6.186667-1.348267-28.305067-14.916267-31.7184-20.215467-8.772267-13.5936-11.6736-55.970133-3.6096-69.5552 4.488533-7.552 14.5152-11.0592 14.318933-20.923733 0.7424-0.256 3.421867-2.304 7.424-3.712z m13.448534 22.724267c-2.773333 0.802133-15.889067 13.9264-16.699734 16.6912-2.030933 6.954667-1.169067 27.6224 1.211734 34.961066 3.601067 11.127467 14.549333 14.8736 22.954666 21.666134 20.6592 0.8448 37.367467-8.430933 45.3376-27.972267-3.182933-8.507733-2.372267-17.8432-6.101333-26.205867-7.4752-16.768-29.5936-24.123733-46.702933-19.140266z" fill="#F9CAAE" p-id="6774"></path><path d="M706.747733 404.3264c0.452267 5.1968 0.810667 9.9328-1.664 14.848-3.0464 6.0416-50.2016 28.245333-60.202666 32.648533-4.9152 2.158933-6.024533-0.392533-4.821334 8.055467l73.762134 15.266133 3.285333 8.840534-8.7296 12.7232-99.037867-19.089067c-13.6448-0.8704-24.3712-12.791467-15.829333-25.352533 0.759467-1.117867 19.054933-11.776 23.0144-14.08 23.4752-13.653333 50.594133-23.594667 74.299733-37.265067l15.931734 3.4048z" fill="#513026" p-id="6775"></path><path d="M317.448533 493.124267l0.187734-16.221867c0.938667-3.054933 3.165867-4.0448 5.794133-5.3248 7.867733-3.84 41.198933-10.2656 51.456-11.613867 6.647467-0.8704 13.6448 0.3328 20.317867-0.093866-0.324267-4.6848-5.205333-6.144-8.567467-8.1152-18.8672-11.067733-41.489067-20.104533-61.371733-29.508267-8.866133-14.865067 1.9456-25.258667 18.2016-20.061867 12.970667 4.1472 41.1136 19.933867 54.314666 27.2896 8.942933 4.983467 39.441067 21.2992 41.6768 28.893867 2.7648 9.378133-9.386667 17.194667-17.109333 19.3792-28.919467 8.183467-63.650133 9.0112-92.842667 18.551467l-12.074666-3.182934z" fill="#523128" p-id="6776"></path><path d="M439.048533 388.701867c-0.657067 0.631467-14.856533 7.1168-16.605866 7.517866-18.363733 4.1728-50.432-7.441067-60.142934-23.9872-8.507733-14.506667-10.0608-28.808533 1.3568-42.2144 9.941333-11.665067 41.736533-8.695467 54.894934-2.9184 17.194667 7.552 33.885867 29.303467 28.0576 48.776534-0.213333 0.7168-7.022933 12.305067-7.560534 12.8256z" fill="#F9F0DE" p-id="6777"></path><path d="M620.2624 323.217067c19.336533-4.232533 36.078933-2.210133 47.5136 14.336 17.604267 25.463467-16.0768 54.1184-41.403733 58.530133-30.600533 5.333333-58.632533-20.224-38.408534-49.518933 5.316267-7.7056 23.236267-21.367467 32.298667-23.355734z" fill="#F9EFDB" p-id="6778"></path><path d="M697.582933 248.4224c9.284267-2.926933 9.147733 13.7728 10.939734 18.722133 8.1408 22.459733 24.046933 40.832 15.104 66.696534-30.3616 34.6112-69.248 2.0224-48.375467-37.248 6.698667-7.185067 16.290133-46.2592 22.331733-48.170667z m-1.860266 29.6704c-2.474667 14.327467-23.1424 43.426133-7.620267 53.981867 39.893333 10.4448 26.743467-38.075733 7.620267-53.981867z" fill="#1EB5E1" p-id="6779"></path><path d="M298.7264 281.787733c1.143467 23.4496 32.034133 59.101867 20.522667 81.723734-9.454933 18.577067-36.3776 21.0176-48.213334 3.515733-17.467733-25.821867 14.3616-58.282667 16.6144-85.239467h11.0848z m-7.389867 29.696c-5.640533 19.8144-25.728 49.041067 5.154134 55.441067 22.007467-13.824 11.1872-27.409067 2.372266-46.2848-1.681067-3.6096-2.039467-8.7552-7.5264-9.156267z" fill="#18B2E3" p-id="6780"></path><path d="M235.6736 378.2656c5.4528 26.231467 22.7328 39.765333 18.645333 68.718933-3.328 23.5776-41.924267 22.4256-47.8208-4.411733-1.962667-8.925867 13.653333-47.317333 18.653867-58.146133 2.2784-4.923733 4.9152-7.1936 10.5216-6.1696z m-14.336 69.9904c0.597333 0.5888 10.615467 4.241067 12.032 3.950933 18.304-10.4192 7.338667-35.0208-3.259733-47.9744l-12.3904 32.213334c-0.170667 2.048 2.824533 11.016533 3.618133 11.810133z" fill="#15B1E1" p-id="6781"></path><path d="M486.101333 266.9824c4.266667-0.042667 20.6592 42.624 20.693334 50.065067 0.145067 31.633067-45.243733 31.6416-45.098667 0 0.042667-8.866133 17.493333-49.988267 24.405333-50.065067z m1.8432 25.949867c-9.454933-0.904533-5.981867-0.290133-7.509333 5.358933-1.860267 6.877867-12.014933 25.079467-1.6128 27.886933 4.164267-0.469333 10.794667 2.568533 12.8256-1.9712 5.9392-13.277867-1.578667-18.082133-3.712-31.274666z" fill="#26B5E3" p-id="6782"></path><path d="M808.874667 419.080533c5.4016-1.664 7.970133 4.983467 9.992533 8.541867 13.056 23.005867 27.272533 55.9616-9.4208 61.457067-37.572267-14.011733-14.1824-45.559467-0.571733-69.998934z m5.546666 25.949867c-8.123733-0.9984-5.9904-0.494933-8.072533 4.8128-3.447467 8.772267-3.822933 15.36-3.0464 24.8832h14.830933l-3.712-29.696z" fill="#2EB5E3" p-id="6783"></path><path d="M775.483733 326.331733c5.410133-1.655467 7.970133 4.983467 9.992534 8.541867 11.921067 21.000533 28.731733 58.888533-6.2976 64.4096-30.1312-6.058667-22.920533-28.782933-14.8736-50.730667 1.7408-4.744533 7.825067-21.1968 11.178666-22.2208z m5.546667 25.966934c-11.025067 2.6112-16.2048 30.421333-5.546667 33.3824 20.718933 5.742933 9.9584-24.482133 5.546667-33.3824z" fill="#26B6E2" p-id="6784"></path><path d="M378.530133 218.743467c5.435733-1.655467 7.944533 4.992 9.984 8.5504 4.078933 7.082667 14.404267 30.967467 14.3872 37.828266-0.068267 30.7712-45.013333 33.732267-45.064533 0-0.008533-6.792533 15.581867-44.817067 20.693333-46.370133z m5.546667 22.237866c-9.463467-0.887467-5.9904-0.290133-7.517867 5.367467-1.860267 6.877867-12.014933 25.079467-1.6128 27.886933 26.308267 3.157333 10.734933-18.397867 9.130667-33.2544z" fill="#1BB1DE" p-id="6785"></path><path d="M580.548267 233.659733c3.328 16.810667 21.632 39.0656 13.226666 55.6544-11.357867 22.417067-43.605333 11.229867-39.031466-20.497066 1.646933-11.4432 13.7984-22.9376 14.967466-35.165867h10.837334z m-5.410134 22.1952c-17.314133 17.2544-6.766933 51.524267 9.437867 20.445867l-9.437867-20.445867z" fill="#24B5E1" p-id="6786"></path><path d="M509.141333 497.792c18.116267-2.065067 60.526933 7.8592 60.544 30.72 0 4.778667-8.96 20.642133-12.962133 24.251733-23.133867 20.864-64.512 20.061867-83.6864-5.623466-22.903467-30.685867 8.1152-46.1568 36.104533-49.348267z" fill="#523229" p-id="6787"></path><path d="M264.174933 530.7648l27.246934 5.077333c6.3744 3.131733 14.779733 19.1232 14.737066 26.043734-0.0256 3.694933-3.208533 7.3216-3.643733 11.2384-1.416533 12.654933 2.884267 21.213867-11.221333 29.559466-15.1808 8.9856-35.2512 7.364267-49.527467-2.338133-25.821867-17.553067-4.642133-61.952 22.408533-69.5808z" fill="#F9BB9C" p-id="6788"></path><path d="M746.257067 534.545067c17.109333-4.983467 39.227733 2.372267 46.702933 19.140266 3.729067 8.362667 2.9184 17.698133 6.101333 26.205867-7.978667 19.541333-24.686933 28.817067-45.3376 27.972267-8.405333-6.784-19.3536-10.538667-22.954666-21.666134-2.3808-7.3472-3.242667-28.0064-1.211734-34.961066 0.810667-2.773333 13.9264-15.889067 16.699734-16.6912z" fill="#F9BD9E" p-id="6789"></path><path d="M695.722667 278.0928c19.114667 15.906133 32.273067 64.4352-7.620267 53.981867-15.5136-10.555733 5.1456-39.6544 7.620267-53.981867z" fill="#BBE5F4" p-id="6790"></path><path d="M291.336533 311.483733c5.486933 0.4096 5.8368 5.5552 7.5264 9.156267 8.814933 18.875733 19.6352 32.4608-2.372266 46.2848-30.8736-6.4-10.794667-35.6352-5.154134-55.441067z" fill="#B9E6F5" p-id="6791"></path><path d="M221.3376 448.256c-0.7936-0.785067-3.7888-9.762133-3.618133-11.810133l12.3904-32.213334c10.589867 12.9536 21.5552 37.5552 3.259733 47.9744-1.408 0.298667-11.426133-3.3536-12.032-3.950933z" fill="#ABE1F3" p-id="6792"></path><path d="M487.944533 292.932267c2.1248 13.192533 9.642667 17.9968 3.712 31.274666-2.030933 4.539733-8.661333 1.5104-12.8256 1.9712-10.410667-2.807467-0.247467-21.009067 1.6128-27.886933 1.527467-5.6576-1.9456-6.263467 7.509334-5.358933z" fill="#B9E6F4" p-id="6793"></path><path d="M814.421333 445.0304l3.712 29.687467h-14.830933c-0.776533-9.514667-0.392533-16.1024 3.0464-24.874667 2.082133-5.307733-0.0512-5.8112 8.072533-4.8128z" fill="#C5EAF6" p-id="6794"></path><path d="M781.0304 352.298667c4.411733 8.891733 15.172267 39.125333-5.546667 33.3824-10.658133-2.952533-5.4784-30.762667 5.546667-33.3824z" fill="#C0EDFA" p-id="6795"></path><path d="M384.0768 240.981333c1.6128 14.856533 17.1776 36.420267-9.130667 33.2544-10.410667-2.807467-0.247467-21.009067 1.6128-27.886933 1.527467-5.666133-1.9456-6.254933 7.517867-5.367467z" fill="#A9E2F5" p-id="6796"></path><path d="M575.138133 255.854933l9.437867 20.445867c-16.196267 31.0784-26.752-3.191467-9.437867-20.445867z" fill="#B5E3F0" p-id="6797"></path></svg>