<?xml version="1.0" standalone="no"?><!DOCTYPE svg PUBLIC "-//W3C//DTD SVG 1.1//EN" "http://www.w3.org/Graphics/SVG/1.1/DTD/svg11.dtd"><svg t="1768660203014" class="icon" viewBox="0 0 1024 1024" version="1.1" xmlns="http://www.w3.org/2000/svg" p-id="2012" width="256" height="256" xmlns:xlink="http://www.w3.org/1999/xlink"><path d="M335.108548 1023.441696c-6.911918-0.068266-13.900635 0.051199-20.812552 0l13.687304-79.597987c-8.567365-1.493316-16.887266-7.347113-23.952782-12.484118-39.76486-28.867923-76.022563-66.892005-107.629654-103.994496-18.602445-21.83654-62.394991-73.232196-65.927749-100.598271-6.007395-46.608512 21.01735-79.700386 65.688819-88.58348-1.211719-31.496159 0.716791-60.347016 7.910306-90.955718 6.596188-28.057266 27.255143-67.241867 30.361239-91.058117 3.157296-24.13198-1.510382-54.663883-0.093866-79.888117 2.278373-40.532851 12.390253-105.308614 31.880155-141.583383 23.696785-44.108275 68.325587-33.962263 104.762487-12.100123l59.502226 41.087512 77.686543-161.790076 0.383995-4.718878c-21.734142-2.918365-26.444486-22.834928-14.139565-39.440597-16.144875-21.921873-1.672513-46.130651 24.541575-36.897695l1.561581-14.062766C535.033638-6.271925 561.077061 0.136532 560.607733 20.863752c14.856357-10.146013 34.431591 9.651085 30.762301 25.454631-2.918365 12.552384-3.899687 5.759932-3.123163 21.426945 0.469328 9.420688 0.426662 16.887266-3.85702 25.45463l-16.853133 3.967953 79.811317 173.463537c5.273537 1.297051 5.657533-1.13492 8.678297-3.455958 21.691475-16.656869 42.068833-35.088649 66.43121-48.050629 33.074807-17.604057 64.127237-28.611926 91.467712 4.607945 21.614676 26.273821 34.115861 87.465627 38.024082 121.555888 4.155684 36.232102-1.151986 80.818239 3.541291 114.413573 1.851711 13.226509 17.66379 43.877878 22.647197 60.611546 37.349956 125.233711 13.20091 232.359904-104.711288 297.920723-5.33327 2.961031-32.47748 13.866502-32.409215 16.144875 20.48829 18.969374 37.179291 42.452828 51.480988 66.45681 15.556082 26.120223 31.052431 58.887833 40.575518 87.781356 2.329572 7.074049 7.756708 23.304256 8.618564 29.567648 1.331184 9.668152-11.297999 4.104485-17.339527 5.188205 0.29013-8.823362-4.181284-16.307006-7.02285-24.208778-15.718213-43.664547-33.731866-83.233144-60.85901-121.274292l-15.470749-14.0201 16.545937 58.03451 18.150184 91.134917v10.419076c-5.751398 0.051199-11.579596-0.093866-17.348061-0.008534-8.763629-61.260072-22.519199-121.624154-41.633638-180.409587l-42.486961 11.17c-1.817578 0.443728-2.329572 2.645302-2.611169 2.713568-84.077934 19.609367-176.288037 17.740589-260.195306-3.473026-8.3711-2.116242-17.95392-7.611643-26.674883-9.753484-6.186593-1.527449-12.518251 0.716791-18.525646-2.286906-6.169527-3.08903-28.56926-24.814638-34.661988-31.248695-12.33052-13.030245-31.231629-35.796908-41.565373-50.371668-16.904332-23.858916-45.712523-97.705505-71.68768-103.499569-17.254195-3.848488-47.717833 5.725799-58.316107 20.334692-26.538351 36.590498-4.625012 68.64985 17.407793 100.35934 11.297999 16.26434 24.285578 27.886602 36.274769 41.787236 29.166586 33.825731 59.237696 68.846115 97.287376 95.247934 11.536929 8.004171 39.406465 17.143263 38.10088 31.257228-1.203186 13.004645-7.679909 31.572958-10.256944 45.456527-2.005309 10.794538-4.710344 21.580543-3.711956 32.71641zM574.499835 69.409308c-10.077747 1.655447-14.532094-5.845264-20.812553-12.151322l24.251445-17.348061c-10.700673-13.695837-19.37897 4.531146-29.473782 8.652698-13.269176-10.973736 7.509244-24.285578-10.40201-34.653455-9.429221 7.509244-3.857021 21.01735-5.205272 31.206029-13.883568 3.242628-18.53418-20.428557-31.206028-5.196738l20.795486 12.176921-1.587182 10.504409-15.743812 6.826585 5.196738 13.832369c10.726272-10.623874 16.819-21.88774 34.201193-16.827533 10.973736 3.191429 28.577793 32.929742 29.99431 2.969565z m-58.998765 58.964632c-8.174836 16.093675-16.477671 32.050819-24.285578 48.571156-7.509244 15.888878-16.366739 31.351094-20.812553 48.571156l-4.121551 4.41168c-6.860718 11.827059-11.118801 24.865838-16.699534 37.213425-4.061818 9.00256-8.968427 17.749122-13.601972 26.504218-2.53437 14.625959 51.404189 33.32227 64.007772 35.865173 4.966341 0.998388 10.538541-0.52906 15.504883 0.085333 23.159191 2.833033 28.0658 3.635157 52.035647 0 19.6435-2.978098 30.438038-5.171139 48.571156-13.875035 10.547075-5.060206 20.804019-9.21589 27.562339-19.447236 0.614393-2.781834-8.4479-18.960841-10.709206-23.534653-2.056509-4.147151-6.271925-5.196738-6.44259-5.589267-17.655257-39.338199-36.940361-78.923861-55.508673-117.954864-6.135394-12.88518-9.147625-23.329856-17.348061-38.160613-0.853323-1.553048-0.691192-5.896463-2.662368-9.360955-3.575424-6.271925-8.319901-12.808381-12.944913-18.380582-2.901299-0.034133-17.97952 32.272683-20.974684 38.12648-1.322651 2.585569-0.947189 5.700199-1.578647 6.954584zM217.153684 638.354009c4.420214 3.259695 12.731582 4.241016 18.576846 7.440978 6.843652 3.737556 11.204133 8.115103 16.110742 13.371574 3.293827 3.532758 7.722575 9.642552 10.410543 13.875035 4.761543 7.517777 9.454821 16.443538 13.875035 24.285578 3.40476 6.024462 6.032995 13.286242 10.410543 20.812553 10.948136 18.841376 17.749122 28.219398 31.223095 45.09813 13.209443 16.55447 30.984165 41.147244 48.665021 53.682562 21.529344 15.265952 95.734328 29.746846 123.134536 32.980941C605.560799 863.563064 794.896147 830.28346 852.026135 714.675235c1.13492-2.295439 4.812743-5.555134 6.937517-10.410543 6.186593-14.113965 13.405707-33.074807 13.875035-48.571156 5.930596-4.027685 3.37916-12.85958 3.455959-19.105906 0.494927-40.549918-3.575424-67.933059-14.694225-106.690998-6.41699-22.357067-24.277045-57.420117-26.862614-77.217215-3.720489-28.483928 2.184507-64.18697 0.093865-93.763152-2.338106-33.049207-14.719825-89.027208-31.914287-117.263672-10.649473-17.484592-17.262728-22.408267-39.304066-19.558167-17.143263 2.21864-52.41111 25.753294-67.549063 36.513699-4.590879 3.268228-32.102018 23.952782-33.296671 25.685028-3.635157 5.256471 0.366929 14.054233-3.191428 21.094149-0.972788 1.919977-11.238266 11.656395-13.909168 13.849435-48.306626 39.594196-161.124484 40.669383-209.798039 1.518915-5.990329-4.812743-17.740589-16.324073-17.544325-24.072247 0.127998-4.966341 6.587655-10.291078 1.911444-15.752346-17.160329-14.190765-36.863562-29.985777-56.174265-41.010712-24.618374-14.054233-57.070255-31.479092-77.038017-1.800512-17.612591 26.179955-29.627381 85.78458-31.854555 117.323405-1.774912 25.070635 0.102399 52.615908 0.034133 76.551623-0.093866 34.661988-13.636105 55.431874-23.338389 87.482693-11.1956 36.983027-21.085616 74.819377-18.278183 113.82478-1.049588 3.899687 2.073575 3.925287 3.566891 5.026073z" fill="#4E2C24" p-id="2013"></path><path d="M671.616547 856.915677c9.164691-0.776524 9.173224 4.701811 11.280932 11.263866 10.589741 32.921209 20.377358 91.570111 23.338389 125.83957 0.836257 9.719351-0.409595 19.694699 0.068266 29.41405-107.467522 0.486394-215.173975 0.520527-322.641496 0l6.99725-71.056222 20.75282-98.93429c83.907269 21.205081 176.117372 23.082392 260.195305 3.473026z" fill="#F9F0DE" p-id="2014"></path><path d="M411.429774 853.451184l-20.75282 98.934291-6.99725 71.056221c-16.153408-0.076799-32.417748 0.153598-48.571156 0-1.006921-11.144401 1.706646-21.921873 3.711956-32.716411 2.577036-13.892101 9.053759-32.451881 10.256945-45.456526 1.305584-14.113965-26.555418-23.253057-38.10088-31.257228-38.058214-26.401819-68.12079-61.422203-97.287377-95.247934 21.230681-7.611643 48.622355-21.674409 62.514457-39.824593 5.01754-6.553522 5.904996-15.829145 13.806769-19.148573 10.325211 14.57476 29.234852 37.341423 41.565372 50.371668 6.092728 6.44259 28.492461 28.159665 34.661988 31.248695 6.007395 3.003698 12.339053 0.767991 18.525647 2.286906 8.720963 2.150374 18.303782 7.637243 26.674882 9.753484z" fill="#F7C17C" p-id="2015"></path><path d="M671.616547 856.915677c0.281597-0.068266 0.793591-2.26984 2.611169-2.713568l42.486961-11.170001c19.114439 58.785434 32.870009 119.149516 41.633638 180.409588-17.296861 0.247464-34.738787-0.076799-52.035648 0-0.477861-9.719351 0.767991-19.694699-0.068265-29.41405-2.961031-34.269459-12.748648-92.918362-23.33839-125.83957-2.107708-6.570589-2.116242-12.04039-11.280932-11.263866z" fill="#F5C27D" p-id="2016"></path><path d="M775.696376 1013.031153l-18.150184-91.134916-16.545937-58.03451 15.470749 14.0201c27.127144 38.041148 45.140797 77.601211 60.85901 121.274291l-39.645395 10.760406-1.97971 3.114629z" fill="#F4BF7B" p-id="2017"></path><path d="M872.838687 655.702069c0.836257-27.323408-23.26159-58.179575-52.035648-58.973165l-2.167441-3.08903c-2.713568-0.904523-5.512468-0.273063-8.243102-0.383995-3.430359-0.136532-6.97165-0.110932-10.410542 0-32.409215 1.023988-44.901866 10.274011-72.856734 20.812552-9.890016 3.729022-26.777282 11.852659-34.696121 13.875035-1.826112 0.469328-4.676211-0.170665-6.937517 0-9.130558 0.691192-18.593912-0.469328-27.75007 0-28.680192-7.645776-32.050819-17.05793-54.314021-30.676968-24.643974-15.078221-50.064471-21.068549-79.171325-17.808855-45.65279 5.119939-65.577887 56.182799-123.236935 48.485823-6.101261-0.810657-23.26159-7.278847-31.223095-10.410543-29.388451-11.536929-46.514647-23.28719-81.526497-24.259978-5.546601-0.153598-16.28994-2.431971-19.080307 3.447426-22.94586 1.817578-43.493883 20.846685-52.035648 41.633638-1.493316-1.100787-4.616478-1.126387-3.566891-5.026074-2.807433-39.005403 7.082582-76.841753 18.278183-113.824779 9.702285-32.050819 23.244524-52.820705 23.338389-87.482693 0.068266-23.935715-1.809045-51.489521-0.034133-76.551623 2.227174-31.538825 14.241964-91.143449 31.854555-117.323405 19.967763-29.67858 52.419643-12.262254 77.038017 1.800512 19.310704 11.024936 39.022469 26.819948 56.174265 41.010712 4.676211 5.461268-1.783445 10.786005-1.911444 15.752346-0.196264 7.748175 11.553996 19.259504 17.544325 24.072247 48.682088 39.141935 161.499946 38.075281 209.798039-1.518915 2.670902-2.193041 12.936379-11.929458 13.909168-13.849436 3.558358-7.039916-0.443728-15.837678 3.191428-21.094149 1.194652-1.732246 28.705792-22.4168 33.296671-25.685028 15.137953-10.768939 50.414334-34.295059 67.549063-36.513699 22.041338-2.858633 28.654593 2.073575 39.304066 19.558168 17.194462 28.236464 29.576182 84.214465 31.914287 117.263672 2.090642 29.576182-3.814355 65.279224-0.093865 93.763152 2.585569 19.788565 20.445624 54.860148 26.862614 77.217215 11.118801 38.757939 15.189153 66.14108 14.694225 106.690998-0.076799 6.237792 2.474637 15.078221-3.455959 19.105906zM293.47491 388.569246c5.964729 1.42505 6.894851-2.278373 10.410543-5.205272 11.519863-9.591353 21.461078-23.363989 32.887076-33.023607 12.424386-10.504408 29.072721-18.141651 41.172843-28.210864 2.7733-2.312506 6.698587-3.071963 5.88793-8.15777-0.051199-5.119939-25.82156-30.216174-31.530291-34.525456-23.304256-17.586991-39.449131-17.39926-50.277803 11.869725-1.97971 5.350336-8.550298 33.458802-8.550298 36.547832v60.713945z m499.569526 0v-74.58898c0-0.827723-4.061818-12.944913-5.077273-15.743813-1.791979-4.983407-7.568977-16.443538-10.623874-20.599221-17.825921-24.234378-56.34493 16.213141-69.298376 31.137763-2.141841 2.466104-6.425524 4.386081-5.205271 8.652697l43.43415 29.43965 46.770644 41.701904z m-391.376679 49.202615c-0.588793 0.614393-6.792453 14.0201-7.142315 15.539015-4.863942 21.205081 23.415188 43.681614 42.973355 46.207451 27.408741 3.549824 51.139659-14.165165 38.17768-41.642172-10.06068-21.33308-33.049207-29.934577-55.739071-27.818336-4.454347 0.418128-15.513416 4.846876-18.269649 7.722575z m279.804672-0.076799c-2.295439-2.295439-17.34806-7.210581-21.845073-7.620176-28.006067-2.551436-69.690905 24.405043-53.426565 53.400965 21.264814 37.921682 90.051196 3.566891 82.320088-30.164975-0.349863-1.535982-6.434057-15.018488-7.039916-15.624347zM466.511786 565.292478c0-28.535127-23.133592-51.677252-51.677252-51.677252s-51.677252 23.133592-51.677253 51.677252 23.133592 51.677252 51.677253 51.677252 51.677252-23.133592 51.677252-51.677252z m193.636097-51.156725c-45.038398 8.072437-57.462783 72.216741-17.569924 96.015925 22.73253 13.559305 53.392432 8.13217 68.854648-13.525173 26.862614-37.614486-4.445814-90.887453-51.284724-82.499285z" fill="#F7C27D" p-id="2018"></path><path d="M657.741512 627.943466c7.278847 1.937044 15.009955 6.195126 25.702094 3.08903l2.047976-3.08903c2.261306-0.170665 5.111406 0.469328 6.937517 0l-10.342277 29.533516c-2.568503 37.452355 18.21845 71.081821 51.967382 86.689102 1.544515 0.716791 27.374608 8.379634 29.49085 8.669764 24.498909 3.421826 45.669857-7.304446 64.144303-22.587465 3.174362-2.628235 3.771688-7.244714 7.005784-10.342277 1.177586-1.126387 15.837678-12.825447 17.313927-5.239405C794.879081 830.274927 605.552266 863.563064 489.542979 849.892827c-27.408741-3.225562-101.613725-17.714989-123.134536-32.980941-17.680856-12.535318-35.447045-37.128092-48.665021-53.682562 9.838816-7.517777 23.218924-14.182231 34.559589-19.216838 5.666066-2.517303 11.869726-1.706646 18.74751-5.538068 5.102873-2.841566 23.031193-20.855219 26.043424-25.992224 9.608419-16.409405 13.482506-39.747794 10.85427-58.53797-0.733858-5.265004-3.88262-8.004171-5.28207-12.057457-1.032521-2.978098-6.775386-13.124111-1.655447-13.960367 57.659048 7.696975 77.592677-43.365884 123.236934-48.485824 29.098321-3.259695 54.518818 2.722101 79.171326 17.808855 22.263202 13.619038 25.642362 23.039726 54.31402 30.676969z m-129.432061-30.557503c-8.891628 1.527449-30.514837 9.79615-33.211339 18.824309-5.085806 25.79596 26.606617 47.6581 49.945007 46.651179 19.6179-0.84479 51.148192-21.196548 46.292782-43.024555-4.659145-20.932018-45.311461-25.488764-63.034983-22.450933z m73.931921 61.780598c-3.097563 22.94586-17.05793 33.518535-39.184601 23.568787-7.210581-3.242628-11.861192-10.751872-21.529344-9.898549-5.30767 0.469328-9.804683 6.655921-15.470749 9.028159-10.37641 4.334882-26.973546 6.263392-35.020384-3.430359-4.334882-5.230871-5.794064-20.812553-11.972124-22.723996-7.705508-2.389305-9.488954 9.762017-8.68683 15.624347 4.795676 35.208115 49.706076 36.471033 74.204984 19.250971 18.721911 16.50327 57.16412 17.322461 68.794915-8.13217 2.884232-6.306058 5.734332-17.416326-0.682658-21.589076l-10.444676-1.698114z" fill="#FAF0DD" p-id="2019"></path><path d="M290.001885 759.781898c-7.901773 3.319427-8.797762 12.59505-13.806769 19.148573-13.892101 18.158717-41.283776 32.221483-62.514457 39.824593-11.980658-13.900635-24.968236-25.514363-36.274769-41.787237-22.032805-31.70949-43.946144-63.777375-17.407793-100.35934 10.589741-14.60036 41.061912-24.183179 58.316107-20.334691 25.975158 5.794064 54.783349 79.640653 71.687681 103.499569zM210.378298 666.274744c-14.472361 34.48279 28.791124 34.849719 20.411491 5.265004-2.047976-7.227647-14.241964-5.742865-20.411491-5.265004z m-14.429695 34.132927c0.477861-0.469328 3.660756-9.651085 3.430359-11.178534-10.35081-32.614012-41.48004-6.271925-20.343224 9.779084 2.50877 1.902911 5.768465 3.157296 8.627097 4.471413 2.073575-1.95411 7.304446-2.107708 8.285768-3.071963z m-35.609176 4.130084c-2.030909 0.588793-8.524699 6.963117-8.925761 8.772163l4.940741 11.869725c32.716411 16.631269 25.949558-27.041812 3.98502-20.641888z m38.169146 3.635157c-14.625959 4.215417-16.733668 50.602065 6.527922 48.315159 6.101261-0.597326 36.641698-22.254669 36.590498-29.644448-0.127998-18.866976-29.064188-22.715463-43.109887-18.670711z" fill="#F6ECDC" p-id="2020"></path><path d="M810.392496 593.255879c0.017066 2.389305 2.850099 2.696501 3.473026 3.473025 6.766853 8.413767 17.552858 16.998198 22.467999 24.362377 5.512468 8.260168 16.699535 43.826679 18.500047 54.356687 1.612781 9.480421-2.594102 21.981605 4.130084 28.825257-2.124775 4.846876-5.802598 8.115103-6.937517 10.410543-1.476249-7.586043-16.136341 4.104485-17.313928 5.239404-3.234095 3.08903-3.831421 7.714042-7.005783 10.342277-18.474447 15.291551-39.653928 26.009291-64.144304 22.587465-2.116242-0.298663-27.946334-7.961505-29.490849-8.669764-33.748932-15.607281-54.535885-49.236748-51.967382-86.689102l10.342277-29.533515c7.910306-2.022376 24.797572-10.146013 34.69612-13.875036 6.911918 1.390917-3.635157 8.797762-5.205271 10.410543-17.040864 17.527258-21.990139 24.174646-19.003507 50.21807 2.261306 19.703232 15.206219 41.462974 33.527068 49.731675 2.227174 1.006921 21.418412 7.270314 23.619985 7.586043 26.982079 3.899687 57.710247-12.740115 72.771402-34.781453 7.039916-10.299611 6.749786-26.939413 4.616478-39.116335-0.964255-5.486868-10.444676-25.941025-13.636104-31.470559-3.976486-6.877785-16.853133-15.880344-23.730918-21.367212-3.276761-2.611169-5.742865-5.606333-10.512942-5.102873l10.40201-6.928984c3.438892-0.110932 6.97165-0.136532 10.410543 0z" fill="#F9E1CA" p-id="2021"></path><path d="M369.796136 617.541456c-8.541765 5.717265 6.775386 13.764103 9.753484 19.728832 4.966341 9.949748 5.495401 29.823645 4.061818 40.92538-4.215417 32.716411-45.362661 60.287283-77.422012 53.2559l-19.652033-13.303308c-4.377548-7.52631-7.005783-14.788091-10.410543-20.812552l33.015074 13.815302c30.463638 5.845264 51.165258-10.837204 56.541194-40.490185 2.952498-16.255807-8.695363-39.867259-22.3912-49.168482-22.920261-15.573148-48.221293-5.5978-65.330423 13.491039l-15.70968 38.066748c-2.679435-4.232483-7.108182-10.342277-10.410543-13.875035l8.541765-31.351094c11.340665-17.90272 23.696785-32.511613 46.958375-27.630605 0.810657-6.041528-7.935906-3.37916-12.134256-3.464492-8.379634-0.170665-17.860054-0.648526-26.026357 0 2.790367-5.879397 13.533706-3.601024 19.080306-3.447426 35.01185 0.972788 52.138047 12.723049 81.526498 24.259978z" fill="#F9D3B8" p-id="2022"></path><path d="M276.12685 697.335708c-4.420214-7.84204-9.113492-16.767801-13.875035-24.285578l15.70968-38.066748c17.10913-19.08884 42.410162-29.064188 65.330423-13.491039 13.70437 9.309756 25.343699 32.912675 22.3912 49.168482-5.384469 29.652981-26.077557 46.326916-56.541194 40.490185l-33.015074-13.815302z m29.908977-65.484022c-10.222812 3.020764-21.435478 24.789039-19.046173 35.421446 6.519389 29.004455 39.338199 41.812836 56.754525 12.680382 15.120887-25.283966-13.17531-55.355075-37.708352-48.101828z" fill="#FAC7AA" p-id="2023"></path><path d="M401.019231 627.943466c-5.119939 0.827723 0.631459 10.982269 1.655447 13.960367 1.39945 4.053285 4.539679 6.792453 5.282071 12.057457 2.628235 18.790177-1.237319 42.128566-10.854271 58.537971-3.012231 5.137006-20.940551 23.159191-26.043424 25.992224-6.877785 3.831421-13.081444 3.020764-18.74751 5.538067-11.340665 5.034607-24.720773 11.690528-34.559589 19.216838-13.473973-16.878733-20.274959-26.256754-31.223096-45.09813l19.652033 13.303308c32.067885 7.031383 73.206596-20.539489 77.422013-53.2559 1.433583-11.093201 0.904523-30.967098-4.061818-40.92538-2.978098-5.964729-18.295249-14.011567-9.753484-19.728832 7.961505 3.123163 25.121835 9.591353 31.223095 10.410543z" fill="#FBE3CB" p-id="2024"></path><path d="M820.794506 596.720371c28.774058 0.793591 52.871905 31.649757 52.035648 58.973165-0.469328 15.487816-7.688442 34.45719-13.875035 48.571156-6.73272-6.843652-2.517303-19.344837-4.130084-28.825257-1.791979-10.530008-12.987579-46.087985-18.500047-54.356687-4.915142-7.364179-15.70968-15.94861-22.467999-24.362377 2.312506 0.042666 4.625012-0.068266 6.937517 0z" fill="#F7EAD8" p-id="2025"></path><path d="M269.189332 596.720371c8.166303-0.648526 17.646723-0.170665 26.026357 0 4.19835 0.085332 12.944913-2.585569 12.134256 3.464492-23.26159-4.881009-35.61771 9.736418-46.958375 27.630605l-8.541765 31.351093c-4.906608-5.256471-9.26709-9.634019-16.110742-13.371574-5.845264-3.199962-14.156632-4.181284-18.576845-7.440978 8.541765-20.786953 29.089787-39.81606 52.035647-41.633638z" fill="#F8E8D5" p-id="2026"></path><path d="M660.147883 514.135753c46.83891-8.3967 78.138804 44.876266 51.284724 82.499285-15.462216 21.657342-46.122118 27.084478-68.854648 13.525173-39.892859-23.799184-27.468473-87.943488 17.569924-96.015925z m1.95411 29.192186c0-8.720963-7.065516-15.786479-15.786479-15.786479s-15.786479 7.065516-15.786479 15.786479 7.065516 15.786479 15.786479 15.786479 15.786479-7.065516 15.786479-15.786479z" fill="#533129" p-id="2027"></path><path d="M466.511786 565.292478c0 28.535127-23.133592 51.677252-51.677252 51.677252s-51.677252-23.133592-51.677253-51.677252 23.133592-51.677252 51.677253-51.677252 51.677252 23.133592 51.677252 51.677252z m-13.960368-21.717075c0-8.618564-6.988717-15.607281-15.607281-15.607281s-15.607281 6.988717-15.607281 15.607281 6.988717 15.607281 15.607281 15.607281 15.607281-6.988717 15.607281-15.607281z" fill="#543129" p-id="2028"></path><path d="M293.47491 388.569246v-60.713945c0-3.08903 6.570589-31.197496 8.550298-36.547832 10.820138-29.268985 26.973546-29.456716 50.277803-11.869725 5.708732 4.309282 31.479092 29.405517 31.530291 34.525456 0.802124 5.094339-3.11463 5.853797-5.88793 8.157769-12.100123 10.077747-28.748458 17.706456-41.172843 28.210865-11.425997 9.659618-21.367213 23.440788-32.887076 33.023607-3.515692 2.926899-4.445814 6.630321-10.410543 5.205272z" fill="#FAC5B6" p-id="2029"></path><path d="M793.044436 388.569246l-46.770644-41.701904-43.43415-29.43965c-1.220252-4.266616 3.06343-6.186593 5.205271-8.652697 12.953446-14.924623 51.480988-55.372142 69.298376-31.137763 3.054897 4.155684 8.831895 15.615814 10.623874 20.599221 1.006921 2.7989 5.077273 14.916089 5.077273 15.743813v74.58898z" fill="#F9C6B8" p-id="2030"></path><path d="M799.981954 593.255879l-10.40201 6.928984c4.770077-0.503461 7.236181 2.491704 10.512942 5.102872 6.886318 5.486868 19.762965 14.480894 23.730917 21.367213 3.191429 5.529534 12.671849 25.983691 13.636105 31.470559 2.141841 12.176922 2.423438 28.816724-4.616479 39.116335-15.052621 22.041338-45.789322 38.68114-72.771401 34.781453-2.201574-0.31573-21.392812-6.579122-23.619986-7.586043-18.320849-8.277235-31.265762-30.028443-33.527068-49.731675-2.995164-26.043424 1.95411-32.690811 19.003508-50.21807 1.570115-1.612781 12.117189-9.011093 5.205271-10.410543 27.954868-10.547075 40.438986-19.788565 72.856734-20.812552z m-35.771308 18.022185c-21.981605 3.865554-49.211148 34.039062-47.623967 56.421729 2.039442 28.603393 32.375082 54.535885 60.841943 50.448467 16.221674-2.329572 42.580827-20.283492 46.267183-36.99156 5.111406-23.167724-8.729496-48.519956-27.280742-61.789132-10.035081-7.176448-19.848297-10.256945-32.212951-8.089504z" fill="#F9D6BB" p-id="2031"></path><path d="M681.472429 437.695062c0.605859 0.605859 6.690054 14.088366 7.039917 15.624347 7.731108 33.731866-61.055274 68.086657-82.320088 30.164975-16.26434-29.004455 25.420498-55.960935 53.426565-53.400965 4.497013 0.409595 19.549634 5.324737 21.845073 7.620176zM401.667757 437.771861c2.764767-2.875699 13.815302-7.304446 18.269649-7.722575 22.68133-2.107708 45.67839 6.485256 55.739071 27.818336 12.961979 27.48554-10.768939 45.191996-38.17768 41.642171-19.558167-2.53437-47.837298-25.002369-42.973355-46.20745 0.349863-1.510382 6.544989-14.924623 7.142315-15.539015z" fill="#F8EEDB" p-id="2032"></path><path d="M685.500115 627.943466l-2.047976 3.08903c-10.69214 3.106096-18.423248-1.151986-25.702094-3.08903 9.164691-0.469328 18.628045 0.691192 27.75007 0z" fill="#F9E1CA" p-id="2033"></path><path d="M820.794506 596.720371c-2.312506-0.068266-4.625012 0.042666-6.937517 0-0.622926-0.767991-3.447426-1.08372-3.473026-3.473026 2.730634 0.110932 5.529534-0.520527 8.243102 0.383996l2.167441 3.08903z" fill="#F9D6BB" p-id="2034"></path><path d="M528.309451 597.385963c17.723523-3.037831 58.367306 1.518915 63.034984 22.450933 4.855409 21.828007-26.66635 42.179765-46.292783 43.024555-23.338389 1.006921-55.039345-20.855219-49.945006-46.651179 2.696501-9.028159 24.319711-17.296861 33.211338-18.824309z" fill="#533129" p-id="2035"></path><path d="M602.241372 659.166561l10.444675 1.698114c6.41699 4.17275 3.566891 15.274485 0.682659 21.589076-11.630795 25.454631-50.064471 24.63544-68.794915 8.13217-24.498909 17.220062-69.409308 15.957144-74.204984-19.250971-0.802124-5.86233 0.989855-18.013652 8.68683-15.624347 6.17806 1.919977 7.637243 17.501659 11.972124 22.723996 8.038304 9.693751 24.63544 7.765241 35.020383 3.430359 5.666066-2.363705 10.163079-8.558832 15.47075-9.028159 9.676685-0.861856 14.327296 6.655921 21.529344 9.898549 22.12667 9.949748 36.087038-0.622926 39.1846-23.568787z" fill="#4F2D26" p-id="2036"></path><path d="M553.670216 111.034413h-1.809045l-1.228786 25.582629 20.385891 12.577984c18.568313 39.031003 37.853417 78.616665 55.508674 117.954864-22.758129 12.961979-19.677633 27.16981-10.410543 48.571156-18.133118 8.703896-28.927656 10.896937-48.571156 13.875035 7.295913-46.83891-63.180049-47.487435-52.035648 0-4.966341-0.605859-10.538541 0.921589-15.504882-0.085333-12.603583-2.542903-66.542142-21.239214-64.007772-35.865173 4.633545-8.755096 9.53162-17.501659 13.601971-26.504218 5.683132 11.238266 25.010903 13.70437 34.77292 8.755095 20.385891-10.325211 10.572674-49.851141-13.960367-50.388734 4.445814-17.220062 13.303308-32.682278 20.812552-48.571155 6.527922-1.151986 10.794538 4.113018 17.382193 2.030909 28.108466-8.874561 24.13198-32.289749 6.903385-50.593532 0.639992-1.254385 0.255997-4.369015 1.578648-6.954584 2.995164-5.853797 18.073385-38.160613 20.974684-38.12648 4.633545 5.5722 9.369489 12.108656 12.944913 18.380582 1.971177 3.464492 1.809045 7.807907 2.662368 9.360955z m34.141461 90.750921c-0.733858-0.725325-16.682468-7.500711-18.610979-7.645776-27.323408-2.090642-38.44221 44.54347-6.297525 51.719918 12.85958 2.875699 32.47748-13.141177 32.511613-25.539963 0-1.604248-6.886318-17.825921-7.594576-18.534179z" fill="#4A8FC3" p-id="2037"></path><path d="M574.499835 69.409308c-1.416516 29.951644-19.020574 0.221864-29.99431-2.969565-17.382193-5.060206-23.474921 6.20366-34.201193 16.827533l-5.196739-13.832368 15.743813-6.826586 1.587181-10.504408-20.795486-12.176922c12.671849-15.223286 17.313927 8.4479 31.206029 5.196738 1.348251-10.188679-4.22395-23.696785 5.205272-31.206029 17.911254 10.367877-2.867166 23.679718 10.402009 34.653455 10.103347-4.121551 18.781643-22.348534 29.473783-8.652697l-24.251445 17.34806c6.280459 6.297525 10.743339 13.806769 20.812553 12.151322z" fill="#F0CC53" p-id="2038"></path><path d="M567.545251 329.596081c-23.978382 3.635157-28.876457 2.833033-52.035648 0-11.135868-47.487435 59.331561-46.83891 52.035648 0z" fill="#F4D74D" p-id="2039"></path><path d="M470.402939 225.516252c24.533042 0.546127 34.346258 40.063524 13.960368 50.388734-9.77055 4.949274-29.098321 2.48317-34.77292-8.755096 5.580734-12.347586 9.830283-25.386365 16.699535-37.213424l4.121551-4.411681z" fill="#EED24C" p-id="2040"></path><path d="M491.224025 176.945096c7.807907-16.520337 16.110742-32.47748 24.285578-48.571156 17.228595 18.312316 21.205081 41.718971-6.903385 50.593532-6.596188 2.082109-10.862804-3.182895-17.382193-2.030909z" fill="#EBD753" p-id="2041"></path><path d="M616.116407 315.712512c-9.26709-21.401346-12.347586-35.609177 10.410543-48.571155 0.170665 0.392529 4.386081 1.442116 6.44259 5.589266 2.26984 4.573812 11.323599 20.75282 10.709206 23.534654-6.75832 10.231345-17.023798 14.387029-27.562339 19.447235z" fill="#F4DF53" p-id="2042"></path><path d="M571.009743 149.195026l-20.385891-12.577984 1.228786-25.591162h1.809045c8.200436 14.83929 11.212667 25.275433 17.34806 38.160613z" fill="#F3E551" p-id="2043"></path><path d="M587.811677 201.785334c0.708258 0.708258 7.60311 16.929932 7.594576 18.534179-0.034133 12.398786-19.652033 28.407129-32.511613 25.539963-32.144684-7.176448-21.025883-53.81056 6.297525-51.719918 1.92851 0.145065 17.885654 6.920451 18.610978 7.645776z" fill="#EED352" p-id="2044"></path><path d="M198.508573 708.172912c14.054233-4.044752 42.981889-0.196264 43.109887 18.670711 0.051199 7.389779-30.489237 29.047121-36.590498 29.644448-23.26159 2.278373-21.153882-44.108275-6.527922-48.315159z" fill="#4C2C25" p-id="2045"></path><path d="M195.948603 700.407671c-0.981322 0.964255-6.212193 1.117853-8.285768 3.071963-2.858633-1.314118-6.118327-2.568503-8.627097-4.471413-21.136815-16.051009 9.992415-42.393096 20.343224-9.779084 0.230397 1.527449-2.961031 10.709206-3.430359 11.178534z" fill="#4E3028" p-id="2046"></path><path d="M210.378298 666.274744c6.169527-0.477861 18.363515-1.962643 20.411491 5.265004 8.379634 29.584715-34.883852 29.226319-20.411491-5.265004z" fill="#55372D" p-id="2047"></path><path d="M160.339427 704.537755c21.964539-6.399924 28.722858 37.273157-3.98502 20.641888l-4.940741-11.869725c0.401062-1.817578 6.894851-8.183369 8.925761-8.772163z" fill="#4F3129" p-id="2048"></path><path d="M306.035827 631.851686c24.533042-7.253247 52.829238 22.817862 37.708352 48.101828-17.416326 29.12392-50.235136 16.324073-56.754525-12.680382-2.389305-10.623874 8.823362-32.400681 19.046173-35.421446z" fill="#FBBB9C" p-id="2049"></path><path d="M646.315514 543.327939m-15.786479 0a15.786479 15.786479 0 1 0 31.572958 0 15.786479 15.786479 0 1 0-31.572958 0Z" fill="#F2F0EE" p-id="2050"></path><path d="M436.944137 543.575403m-15.607281 0a15.607281 15.607281 0 1 0 31.214562 0 15.607281 15.607281 0 1 0-31.214562 0Z" fill="#EBE7E0" p-id="2051"></path><path d="M764.210646 611.278064c12.35612-2.175974 22.17787 0.913056 32.21295 8.089504 18.551246 13.269176 32.392148 38.621407 27.280742 61.789132-3.686356 16.708068-30.045509 34.653455-46.267183 36.99156-28.466861 4.095951-58.811034-21.83654-60.841943-50.448467-1.595714-22.382667 25.642362-52.556175 47.623967-56.421729z m-0.093866 17.245662c-27.203943 6.092728-37.896083 49.723142-12.603583 66.968803 11.77586 8.029771 31.846021 7.005783 41.667771-3.234094 6.476723-6.75832 14.685692-18.679245 13.721437-27.809803-2.286906-21.717075-19.276571-41.198443-42.785625-35.933439z" fill="#F9CAAD" p-id="2052"></path><path d="M764.11678 628.523726c23.509054-5.265004 40.498718 14.207831 42.785625 35.933439 0.964255 9.130558-7.244714 21.051483-13.721437 27.809803-9.82175 10.239878-29.891911 11.263866-41.667771 3.234095-25.292499-17.254195-14.60036-60.876076 12.603583-66.968804z" fill="#F9BD9D" p-id="2053"></path></svg>