<?xml version="1.0" standalone="no"?><!DOCTYPE svg PUBLIC "-//W3C//DTD SVG 1.1//EN" "http://www.w3.org/Graphics/SVG/1.1/DTD/svg11.dtd"><svg t="1768660281755" class="icon" viewBox="0 0 1024 1024" version="1.1" xmlns="http://www.w3.org/2000/svg" p-id="6518" xmlns:xlink="http://www.w3.org/1999/xlink" width="256" height="256"><path d="M963.47618 299.908073l-14.045787-3.865578c-2.218654-21.111348-15.095382-39.756576-37.674455-39.935776V244.228386c29.397168-0.196266 35.771532-18.210031 39.799243-43.775754 14.267653-1.075194 10.75194 13.175393 15.035649 22.741206 9.002616 20.095887 25.164658 12.791395 36.65046 26.973715-7.176493 9.599946-20.095887 7.551958-27.972109 15.760978-7.005827 7.295959-11.059138 23.7908-11.784467 33.971009z m-3.985044-67.63482l-19.856955 17.902833 17.885766 17.877233 13.670323-17.877233c-4.659174-5.538102-12.287931-9.463413-11.699134-17.911366z" fill="#B9ACA4" p-id="6519"></path><path d="M60.552193 327.74365l-9.915678-31.854754-26.017987-9.787679-3.865578-14.045787c8.627151-0.170666 18.952427-2.841584 26.02652-7.807956 11.443136-8.029821 8.840484-16.162042 11.775934-28.031843 0.861862-3.48158 1.706657-10.734873 7.944489-7.910355 8.388219 3.797312 6.54503 28.663305 21.930543 37.742721 7.185026 4.241043 18.269764 3.53278 23.807866 11.972199-8.90875 13.422858-24.968393 6.792495-33.757677 21.913477-5.529569 9.523146-2.969583 28.697439-17.928432 27.801443z m5.964766-63.37671l-13.832455 17.390835 13.832455 14.148187 17.877233-17.877233-17.877233-13.653256z" fill="#B5A69C" p-id="6520"></path><path d="M959.491136 232.273253c-0.59733 8.447952 7.03996 12.373264 11.699134 17.911366l-13.670323 17.877233-17.885766-17.877233 19.856955-17.902832z" fill="#F0EFE9" p-id="6521"></path><path d="M66.516959 264.36694l17.877233 13.653256-17.885766 17.877233-13.832456-14.139654 13.840989-17.390835z" fill="#EDECE5" p-id="6522"></path><path d="M255.45243 649.934904c-4.326376 3.276782-17.561501 12.339131-15.829245 17.689501l10.342342 9.821811 17.254303-3.498647 8.123688 19.728956-27.366246 18.440429c-0.887462 1.74079-0.230399 3.669313-0.486397 5.444236-0.187732 1.279993 0.068266 2.670918 0 3.976511l-3.541314 2.346654a142.629598 142.629598 0 0 0 0 27.127314l3.541314 2.346653c0.255999 3.942378-0.315732 8.004222 0 11.929533l0.435197 13.499658 3.541313 2.406386c0.042666 3.549847 1.809056 11.178604-1.979722 11.929533-61.627387-37.759788-122.375845-124.509166-95.615462-199.021814 2.022389-5.640502 10.734873-23.500668 14.062854-27.699044 3.925311-4.949305 17.962566-15.018582 23.867599-19.891088 0.0512 38.177919 16.67404 68.10415 45.66161 91.562152 6.041566 4.889572 14.045788 5.631968 17.979632 11.852733z" fill="#F5C17D" p-id="6523"></path><path d="M156.005522 538.558464c5.27357 6.143965-3.592513 16.930038-7.953021 23.867599-2.099188 3.336515-3.985044 8.780751-7.944489 7.953022l-7.961555-35.788599 23.859065 3.976511z" fill="#E2D5C8" p-id="6524"></path><path d="M148.052501 439.12009c27.681978 14.719917 54.962891 31.40249 82.158471 47.120802 6.382897 3.686379 13.849522 7.876222 21.264947 8.584485 3.959444 14.114054-17.493235 6.698629-23.876133 3.959444-41.975231-17.996699-82.474203-45.081346-124.483566-64.451904-4.889572-2.252787-10.982338-2.653852-14.822317-5.068772-8.26022-5.188237-3.148782-19.242558 5.734368-17.7151 7.76529 1.331193 29.525167 16.887372 38.254718 21.444146 4.957839 2.585585 10.555674 3.362114 15.760978 6.126899z" fill="#E1AB70" p-id="6525"></path><path d="M179.873122 514.690865c0.460797 0.162132 1.945589 5.708768 7.953021 3.985044-6.280498 13.235126-8.994083 10.171676-19.891088 7.944489-2.474653-0.503464-5.751434 0.657063-9.207415-0.580264-3.473047-1.237326-5.862367-5.316237-9.497546-6.579163-29.286235-10.222876-59.127134-19.370558-88.694968-28.646238l3.976511-19.882555c36.846726 10.538607 70.536137 29.6617 106.273536 43.058957 3.327981 1.24586 7.210626 0.0512 9.079415 0.69973z" fill="#DCA56D" p-id="6526"></path><path d="M203.740721 502.761332l-2.41492 3.345048c-1.774923 1.041061-4.522641-0.0768-5.538102 0.631463-18.90976-10.64954-41.599766-15.573246-61.03859-24.481996-7.73969-3.549847-7.159426-7.867689-6.579163-15.291647l42.538427 19.106026c9.463413 9.036749 21.904943 11.775934 33.032348 16.682573z" fill="#D8C0A9" p-id="6527"></path><path d="M406.602513 693.702125c-8.447952 0.307198-7.577557 1.809056-7.953022-5.9477-0.375465-7.850623 0.861862-16.144976-0.093866-23.799333-1.015461-8.115154-7.807956-21.188147-7.850623-27.955043-0.0512-9.301281 11.724734-26.768916 11.929533-37.759787 6.434097-1.22026 4.607974 10.299675 4.138644 14.07992-1.604258 12.816995-5.734368 20.855349-4.044778 35.541134 0.921595 8.021288 7.876222 21.35028 7.825023 27.946509-0.042666 5.179704-5.836767 11.263937-3.959444 17.902833z" fill="#DEBA7A" p-id="6528"></path><path d="M418.540579 693.685058c-2.065055-6.775429 3.959444-12.637796 3.942378-17.868699-0.034133-10.444741-9.139149-27.32358-7.987155-39.679777 0.54613-5.836767 4.881039-20.10442 11.980732-21.99881 0.802129 12.475663-1.015461 25.523056-0.162132 37.964587 0.861862 12.578063 14.412719 39.782176-7.773823 41.591232z" fill="#D8B373" p-id="6529"></path><path d="M446.376156 626.075838l3.976511 75.570775c-19.950821-1.433592-8.251687-14.600451-7.679957-25.779055 0.460797-8.823417-3.55838-13.695923-4.172777-20.044687-0.708263-7.415425-0.460797-16.281508-0.085332-23.816399 0.324265-6.485297 3.438914-11.27247 7.953022-5.930634z" fill="#F0CF87" p-id="6530"></path><path d="M382.734914 566.402574v3.976511c-21.956143-8.123688-47.581599-18.44043-63.641242-35.788599l63.641242 31.812088z" fill="#C79868" p-id="6531"></path><path d="M378.74987 590.278706c0.494931 7.825023-7.901822 3.345048-12.100199 2.150388-10.547141-2.995183-20.966282-8.430886-31.649955-12.219664-6.801028-2.406386-9.591413-0.452264-7.944489-9.830345l51.694643 19.899621z" fill="#B2865C" p-id="6532"></path><path d="M382.734914 566.402574c12.040466 7.253293 29.209436 10.333809 35.797132 23.859066l-35.797132-19.882555v-3.976511z" fill="#976547" p-id="6533"></path><path d="M136.122968 347.626205l0.204798 11.707667 15.701246 4.20691c-5.358903 16.409508-6.963161 34.33794-15.539113 49.79172-0.034133 1.390926 15.92311 11.707667 19.515623 13.858055 0.657063 5.794101-2.184521 10.692207-7.953021 11.929533-5.205304-2.764784-10.803139-3.541313-15.760978-6.126899-8.729551-4.556774-30.489428-20.112954-38.254719-21.444146-8.88315-1.527458-13.994588 12.526863-5.734367 17.7151 3.839978 2.41492 9.932744 2.815984 14.822316 5.068772 42.009364 19.370558 82.516869 46.455205 124.483567 64.451904l-10.214343 11.852733c-4.377575 1.288526-8.772217-5.725834-13.653256-7.876222-11.135937-4.906639-23.577467-7.654357-33.032348-16.682573l-42.538427-19.106026c-0.588797 7.423958-1.16906 11.741801 6.579163 15.291648 19.438824 8.900217 42.12883 13.832456 61.03859 24.481995-3.157316 2.193054-4.77864 11.537002-15.914577 7.953022-1.868789-0.639996-5.759968 0.54613-9.079416-0.699729-35.737399-13.397258-69.418276-32.52035-106.273536-43.058958l-3.976511 19.882555c29.567834 9.275681 59.408732 18.423363 88.694968 28.646239 3.63518 1.27146 6.024499 5.341837 9.497547 6.579163 3.455981 1.228793 6.724229 0.0768 9.207415 0.580263l-11.929533 11.929533-23.859066-3.976511 7.961555 35.788599c3.959444 0.827729 5.8453-4.607974 7.944489-7.953022 6.638896 0.964261 11.613801 5.154104 18.005232 1.06666l1.885856 2.909851c-3.327981 4.198376-12.040466 22.058543-14.062854 27.699044-26.768916 74.512648 33.988075 161.262026 95.615462 199.021814 3.788779-0.750929 2.022389-8.379686 1.979722-11.929533-0.119466-10.197276-3.908245-15.027115-3.976511-15.914577-0.315732-3.933845 0.255999-7.987155 0-11.929533-0.64853-9.907144-0.54613-21.87081 0-31.820621 0.068266-1.314126-0.187732-2.696518 0-3.976511h2.073588l2.150388 35.541133 11.690601 4.23251c0.221865 11.153004 4.67624 21.435613 7.953022 31.820621 2.764784 8.738084 4.300776 14.566318 7.953022 23.867599 32.042486 81.612341 86.203248 122.418511 171.041171 139.22055 52.095707 10.316742 106.469801 11.016471 159.111639-7.953022l6.109832 3.899712c-1.305593 4.548241 1.629857 9.386614 1.84319 12.014865 0.853329 10.444741-0.588797 21.333213 0 31.820621-5.478369 1.954122-10.495941 6.246365-15.914578 7.953022-6.749829 2.133321-13.388725 2.653852-19.891088 3.976511-6.647429 1.356792-11.24687 3.899711-11.929533 3.976511-3.814379 0.443731-8.012755-0.238932-11.929532 0-13.141259 0.802129-27.477179-2.175988-39.782177 1.911456v2.073588c-5.282104 0.042666-10.62394 0.153599-15.906044 0v-2.073588c-10.965272-4.138643-23.995598-1.023994-35.797132-1.911456-20.394552-3.626646-40.533105-5.546635-59.809796-13.772722l-5.623435-34.158742c-23.611601-13.840989-53.077035-25.540123-73.787319-43.553888-7.381292-6.417031-20.599351-21.640412-27.920909-29.755566-5.102905-5.657568-7.150893-15.641512-15.820711-17.979632l-27.852644 155.126594-23.893199-2.013855c0.119466-4.437308 3.225582-7.517824 3.933845-11.9722 4.420242-27.622245 6.860761-55.833286 12.142865-83.318998 4.403175-22.894805 21.904943-72.268393 19.746022-91.604818-0.452264-4.07891-2.995183-7.560491-3.814378-11.519935-49.484522-24.874527-96.699189-68.23215-120.28519-118.988131-16.093776-34.628072-15.035649-55.159156-15.291648-92.466679-0.162132-24.695328-4.437308-22.664406-10.948205-44.390151-4.309309-14.395652-5.538102-30.028631-9.079415-44.612016-2.798918-0.733863-5.956233-0.085333-8.721018-1.06666-10.862872-3.865578-39.381112-12.663395-46.651471-17.151904-15.163648-9.361014-11.374869-26.12892-3.48158-39.253112 14.796717-24.601462 38.527783 0.878928 59.152734 1.467725-0.639996-4.522641 2.466119-10.035144-2.36372-12.014866-8.524752-3.490114-31.863287-12.535396-35.532601-19.694822-14.771117-28.868104 19.600956-54.49356 43.86962-31.957154 5.478369-0.0768 14.600451-41.275501 17.715101-50.039185 1.297059-3.652246 4.044777-5.290637 4.15571-5.614902z m465.379782 616.546932c-58.435938 17.24577-124.526233 17.663901-182.962171 0l1.79199 16.102309c54.911691 18.628162 120.788654 15.120982 177.364336 1.971189l3.805845-18.064965z" fill="#533027" p-id="6534"></path><path d="M466.267244 1007.92329c13.388725 2.380787 20.462818 3.53278 35.797132 3.976511 5.282104 0.153599 10.62394 0.042666 15.914577 0 13.11566-0.102399 27.536912 1.681057 39.782176-1.911456v-2.073588c3.916778-0.238932 8.115154 0.443731 11.929533 0l9.45488-0.435197 2.483186-3.541314c6.49383-1.322659 13.141259-1.84319 19.891088-3.976511l2.269854 3.618113 15.317248 0.034133 6.186631-11.502868-7.859155-0.110933c-0.588797-10.495941 0.853329-21.37588 0-31.820621h3.976511v27.835577c7.295959 0.452264 2.423453-9.233015 5.8709-15.99991 3.268248-6.425564 14.344453-11.349269 19.993487-15.786578 5.572235 4.23251 6.673029 6.852228 6.0245 13.926322-1.587191 17.228703-28.168375 40.848837-39.841909 53.674364-98.055982 0.0768-196.299696 0.324265-294.347145 0l7.953022-107.399929c20.710284 18.013765 50.175718 29.7129 73.787319 43.553888l5.623435 34.158742c19.285225 8.226087 39.415245 10.146076 59.809796 13.772722z" fill="#F7EEDD" p-id="6535"></path><path d="M327.046694 916.437938l-7.953022 107.39993c-21.162548-0.068266-42.478694 0.0512-63.641242 0L283.305073 868.711273c8.669818 2.33812 10.72634 12.322064 15.820711 17.979633 7.321559 8.115154 20.539618 23.338535 27.92091 29.755566z" fill="#F6C281" p-id="6536"></path><path d="M712.887723 944.282048c-0.810662 26.794516 6.758362 52.368772 3.976511 79.55582-34.423273 0.119466-69.000145-0.0256-103.423418 0 11.665001-12.825528 38.254718-36.445662 39.841909-53.674365 0.64853-7.074094-0.452264-9.693812-6.024499-13.926322-5.640502 4.445842-16.716706 9.361014-19.993488 15.786578-3.447447 6.775429 1.425059 16.460707-5.862367 15.99991v-27.835577l49.646654-31.095291c11.417536 5.538102 29.747033 13.644723 41.830165 15.189247z" fill="#F7EFDF" p-id="6537"></path><path d="M768.575943 936.329026l11.929533 87.508842c-21.162548 0.187732-42.478694-0.0768-63.641242 0 2.781851-27.187047-4.787173-52.761303-3.976511-79.55582 18.423363 2.355187 37.708588-4.317842 55.68822-7.953022z" fill="#F6C17F" p-id="6538"></path><path d="M231.584831 466.9642c44.688815 24.277197 91.118421 47.598666 135.244039 71.602797 35.174202 19.131626 68.539348 44.185351 107.203664 55.884486l0.392531 33.322479c-8.294353 5.512502-14.557785 5.333303-12.125799 18.184431 28.330507 1.049594 57.104745-1.459192 85.435253 0.085333 38.229118 2.082122 80.468881 8.28582 118.4932 16.750839 38.058453 8.473552 76.500903 20.821216 106.324735 46.813603-1.006928 0.955728-0.204799 4.479975-5.785567 4.061844l-8.294353-3.131715-5.811168 7.022893c-47.530399-34.133141-134.842975-48.392261-192.741316-51.882374-30.515028-1.84319-62.941513 1.71519-93.652806 0.162132v23.867599c2.568519 2.722118 21.333213-9.386614 26.683583-11.238337 4.539708-1.570125 9.437814 0.034133 13.098593-0.691196 11.861267 0.409598 23.952932-0.59733 35.797132 0 2.628252 0.127999 5.35037-0.255999 7.953022 0l-11.903933 11.921-35.822732 3.985044c-12.834061 1.442125-23.406802 9.50608-35.805665 11.946599-1.254393 4.334909 2.568519 10.931139 6.024499 11.886867 5.521036 1.527458 37.008858-16.921505 47.752265-15.769511 18.815894-2.739185 35.063269 8.33702 53.623165 7.850622 1.527458-0.042666 3.882645-2.781851 5.964767-3.293848l5.964766 7.270359c-16.62284 19.60949-19.899621 53.836497 11.929533 51.703176 1.015461-0.853329-6.46823-10.521541-7.338625-14.515118-6.852228-31.37689 36.624861-40.823237 53.000235-17.228703 7.79089 11.229803 3.916778 12.543929-1.902923 23.782266 38.314451 4.855439 24.90866-29.499567 10.811673-50.738915-0.913062-1.373859-5.444236-0.964261-6.835162-4.940772-0.639996-1.84319 0.750929-5.341837-0.085333-7.807956l-31.735288 1.757857v2.073588c-1.305593 0.127999-2.653852-0.093866-3.976511 0l-1.996789-3.967978h-5.956233v7.944489c-2.508786 1.262926-5.879434 2.491719-7.953022 3.976511l-7.944488-5.981833-0.017067-5.9477c6.971694 2.372253 9.318348-2.679452 11.946599-3.985044 31.914487-15.837778 61.311655-7.697023 75.468376 25.966787 27.809977 5.094371 67.626286 49.706387 83.643263 5.853834 1.723724 0.938661 7.074094-0.802129 10.137543 3.754645l1.809056 20.104421 7.944489-11.929533-7.944489 55.645553c7.995688-2.244254 30.28463 9.497547 27.827044 17.928433-8.755151 12.629262-20.053221 0.878928-30.617428-1.211727-6.050099-1.19466-11.27247-0.57173-17.109237-0.767995-21.776944-0.733863-42.034964 3.967978-59.485532 18.082031-33.203013 26.837182-35.327801 79.470486 7.63729 95.419197 19.430291 7.210626 28.697439 6.058633 47.871731 1.851723 4.77864-1.049594 11.665001-2.278387 15.914577-3.976511l7.953022 19.891088c-17.979632 3.63518-37.264857 10.308209-55.68822 7.953022-12.083132-1.544525-30.412629-9.651146-41.830165-15.189248l-49.655187 31.095292h-3.976511c-0.213332-2.628252-3.157316-7.466625-1.84319-12.014866l-6.109832-3.899711c6.681562-2.406386 18.397763-8.823417 25.232925-12.552463 4.241043-2.31252 26.470251-15.701245 26.453184-17.279903-14.318853-13.542324-18.824427-38.689916-15.89751-57.676476 0.392531-2.559986 6.698629-21.384413 7.953022-23.867599 2.005322-3.950911 15.957244-20.061754 19.891088-23.867599 1.356792-1.314126 3.046383-3.174382 3.976511-3.976511 0.366931-0.315732 4.735973-2.013855 7.953022-3.976511 0.366931-0.221865 0.793596-2.380787 3.976511-3.976511 18.406296-9.250081 43.093091-13.892189 63.607108-15.94871l4.010645-27.801443-91.485353 23.859065c-36.897926-0.486397-72.686524 10.05221-109.217519 12.108732-67.054556 3.763179-226.823257-3.140249-284.482666-34.081941-5.683168-3.054916-8.669818-12.646329-8.055421 2.090654l-11.690601-4.232509-2.150388-35.541133h-2.073588c0.255999-1.76639-0.401064-3.703446 0.486397-5.435703l27.366246-18.44043-8.123688-19.728956-17.254303 3.498647-10.342342-9.821811c-1.74079-5.35037 11.502869-14.412719 15.829245-17.6895 21.683078-16.443641 34.491539-23.714 45.798142-51.66051 16.938571-41.872831-4.394642-83.737129-51.942108-79.752085-24.115064 2.022389-40.533105 13.986055-57.497276 27.989176-5.905033 4.872506-19.942288 14.941783-23.867599 19.891088l-1.885856-2.90985c-6.399964 4.087444-11.366336-0.102399-18.005232-1.066661 4.360509-6.929028 13.226592-17.723634 7.953021-23.867599l11.929533-11.929533c10.888472 2.227187 13.602057 5.290637 19.891088-7.944488-6.015966 1.723724-7.492225-3.831445-7.953021-3.985044 11.135937 3.58398 12.748728-5.759968 15.914577-7.953022 1.015461-0.708263 3.763179 0.409598 5.538102-0.631463l2.41492-3.345048c4.881039 2.150388 9.267148 9.164748 13.653256 7.876222l10.214343-11.852733c6.374364 2.730651 27.827043 10.15461 23.876132-3.959445-7.415425-0.708263-14.890583-4.898106-21.264947-8.584485-27.19558-15.718312-54.476494-32.400884-82.158471-47.120801 5.777034-1.237326 8.610085-6.143965 7.953022-11.929533 23.056937 13.815389 51.302111 26.589717 75.579308 39.773643z m151.150083 103.414885l35.797132 19.882555c-6.587696-13.516724-23.7652-16.605773-35.797132-23.859066l-63.641242-31.812088c16.059643 17.348169 41.685099 27.664911 63.641242 35.788599z m-3.985044 19.899621l-51.694643-19.899621c-1.646924 9.378081 1.14346 7.423958 7.944489 9.830345 10.692207 3.788779 21.102815 9.215948 31.649955 12.219664 4.198376 1.19466 12.595129 5.674635 12.100199-2.150388z m-0.008534 67.575087l2.227188-43.767221-57.830075-19.788688c-4.343442 16.162042-13.909255 32.460617-23.867599 45.764009-4.548241 6.084232-16.298575 12.219665-16.230309 19.822822l10.419142 18.107631 85.27312-20.138553z m27.861177 35.848332c-1.877323-6.638896 3.916778-12.723128 3.959444-17.902833 0.0512-6.59623-6.903428-19.925221-7.825022-27.94651-1.68959-14.694317 2.44052-22.724139 4.044777-35.541133 0.469331-3.780245 2.303987-15.308714-4.138644-14.079921-0.204799 10.990872-11.980733 28.458507-11.929532 37.759788 0.042666 6.775429 6.835162 19.848422 7.850622 27.955043 0.955728 7.654357-0.281598 15.957244 0.093866 23.799332 0.375465 7.756756-0.494931 6.254898 7.953022 5.9477z m11.938066-0.017067c22.186542-1.800523 8.644218-29.01317 7.773823-41.591233-0.853329-12.44153 0.964261-25.48039 0.162132-37.964586-7.099693 1.894389-11.443136 16.162042-11.980732 21.998809-1.151994 12.347664 7.953022 29.235036 7.987155 39.679777 0.017067 5.230904-6.015966 11.101804-3.942378 17.8687z m27.835577-67.60922c-4.514108-5.341837-7.628757-0.563197-7.953022 5.930634-0.375465 7.534891-0.631463 16.409508 0.085333 23.816399 0.605863 6.340231 4.625041 11.22127 4.172776 20.044687-0.580263 11.178604-12.279398 24.345463 7.679957 25.779055l-3.976511-75.570775z m-65.612431 47.760798c-27.861177 9.787678-58.444471 13.951922-85.588852 25.770522-12.484196 5.435703-27.118781 14.028721-31.769421 27.878243 32.238752 31.197691 50.081852-1.237326 78.190493-17.262836 15.359914-8.755151 37.196591-11.460202 43.144291-28.49264 1.749323-5.017572-1.314126-4.949305-3.967978-7.893289z m113.347629 95.42773L474.194666 735.489623c-18.167364-12.688995-38.920314-27.451579-61.704186-29.755566-33.587011-3.396248-72.532925 20.394552-93.388275 45.644543 2.568519 4.497041 12.083132 2.056522 16.008443 0.093866 4.223976-2.107721 10.478874-12.023399 15.914577-15.906044 45.695743-32.716616 84.820856-19.020693 119.312396 19.703356 7.748223 8.703951 5.700235 17.578568 23.782266 13.994588z m71.602797-39.782176c-8.567418-15.709778-37.97312-13.58499-53.87063-12.091665-6.050099 0.563197-28.398774 4.770107-25.676656 14.07992 2.815984 9.634079 9.335414 2.210121 13.03886 1.126394 24.089464-7.048494 41.522966-10.299675 66.508426-3.114649z m46.199207 0.477864c-5.674635 1.681057-16.238842 13.806856-14.131121 21.060148 1.962656 6.783962 17.629767 15.146581 24.900127 13.806856 25.582789-4.72744 15.266047-42.581094-10.760473-34.867004z m-149.622625 39.295779c-6.289031-12.859661-27.647844-33.868609-41.770432-35.788599-27.067581-3.677846-54.954358 0.827729-73.573986 21.879344 2.636785 4.67624 11.912466 1.604258 16.110843 0.196265 24.36253-8.183421 39.082447-25.096392 67.353221-4.121576 11.468735 8.507685 8.601552 23.483601 31.880354 17.826033z m35.805665-27.827044c-3.191449 2.926917 6.417031 14.719917 10.419142 15.55618 3.421847 0.716796 7.551958-3.285315 11.554068-3.541314 8.328486-0.529064 34.730471 3.310915 37.691521-6.067166 4.13011-13.09006-30.293163-10.589807-37.691521-9.847411-6.724229 0.67413-13.798322 6.161032-21.964677 3.891178z m202.853259 7.935956c3.020783-2.44052-16.793506-15.010049-19.882555-11.921v9.932744l5.9221 5.725835 13.968988-3.737579z m-278.4411 19.899621c-3.891178-22.553473-28.791305-14.796717-43.758687-11.929533-0.315732 8.473552-1.800523 7.560491 5.947699 7.953022 12.680462 0.631463 26.214253-2.781851 37.810988 3.976511z m143.205594 0c-0.639996-18.602562-13.422858-9.275681-21.879343-9.497546-12.023399-0.315732-25.45479-7.09116-33.808877 9.497546h55.68822z" fill="#58352A" p-id="6539"></path><path d="M760.622921 916.437938c-4.249576 1.698124-11.127404 2.926917-15.914577 3.976511 12.808461-39.602977 15.504979-75.041711 3.976511-115.352951 5.828234 0.196266 11.059138-0.426664 17.109237 0.767996 10.564207 2.090655 21.862277 13.840989 30.617428 1.211726 2.449053-8.430886-19.831355-20.172687-27.827043-17.928432l7.944488-55.645554c49.535721 52.189573 63.42791 151.295149-15.914577 182.970704z" fill="#F4C07D" p-id="6540"></path><path d="M752.661366 717.552657c0.554664 0.401064 0.844795 2.278387 3.976511 3.976511-16.016977 43.852553-55.833286-0.759462-83.643263-5.853834-14.15672-33.663811-43.545355-41.804565-75.468375-25.966787-17.655367 0.435198-29.260635-10.10341-47.735198-11.929533-2.602652-0.255999-5.32477 0.127999-7.953022 0l-2.346654-3.541313c-12.296464-3.822912-24.191864 1.71519-33.450478 3.541313-3.660779 0.725329-8.558885-0.878928-13.098593 0.691196-5.35037 1.851723-24.115064 13.968988-26.67505 11.238337v-23.867599c30.702761 1.544525 63.129245-2.005322 93.644273-0.162132 57.906874 3.490114 145.210917 17.749233 192.741316 51.882374z" fill="#E0453E" p-id="6541"></path><path d="M653.222992 832.905608c-1.262926 2.474653-7.560491 21.307613-7.953022 23.867599-15.248981 10.222876-25.941187 26.00092-39.944308 37.614722-41.198702 34.167274-101.682628 55.491955-154.964462 57.847141-84.837923-16.802039-138.998685-57.608209-171.041171-139.22055 20.949215 3.097583 41.053636 11.673534 61.798052 15.769511 80.57128 15.897511 192.399984 17.006838 274.242724 8.021289 11.579668-1.27146 24.243064-6.860761 37.870721-3.899712z" fill="#E6443F" p-id="6542"></path><path d="M665.152525 777.217388c6.604763 0.085333 13.286325-0.068266 19.882555 0l-3.839978 11.682068 7.253292 0.674129 0.563197 7.526358c-3.182915 1.604258-3.618113 3.754646-3.976511 3.976511h-15.906044v3.967978h7.953022c-0.938661 0.810662-2.619719 2.670918-3.976511 3.985044-12.629262 0.0256-25.147592 2.483186-37.657388 4.10451-90.691757 11.784467-204.158852 13.491124-294.338611-4.249576-23.654267-4.650641-46.583205-13.491124-69.751074-19.746022-3.285315-10.385008-7.731157-20.667617-7.953022-31.820621-0.62293-14.736984 2.36372-5.137038 8.055421-2.090655 57.659409 30.933159 217.42811 37.84512 284.482666 34.081941 36.530995-2.047988 72.319593-12.595129 109.217519-12.108731z" fill="#E64944" p-id="6543"></path><path d="M673.105547 809.038009c-3.925311 3.805845-17.885766 19.916688-19.891088 23.867599-13.627657-2.96105-26.291052 2.628252-37.87072 3.899712-81.84274 8.985549-193.662911 7.884756-274.242724-8.021289-20.744417-4.095977-40.848837-12.671929-61.798053-15.769511-3.652246-9.301281-5.196771-15.129515-7.953022-23.867599 23.176403 6.263431 46.096807 15.095382 69.751075 19.746022 90.171226 17.7407 203.646854 16.034043 294.338611 4.249576 12.509796-1.629857 25.036659-4.07891 37.657388-4.10451z" fill="#F8F9F9" p-id="6544"></path><path d="M609.464305 944.282048c-52.633304 18.969493-107.015931 18.269764-159.111638 7.953022 53.281834-2.355187 113.76576-23.679867 154.964461-57.847141 14.003121-11.613801 24.695328-27.400379 39.944309-37.614722-2.93545 18.98656 1.570125 44.125618 15.897511 57.676476 0.017067 1.578658-22.220675 14.975916-26.453185 17.279903-6.835162 3.720512-18.551362 10.146076-25.232925 12.552462z" fill="#D33330" p-id="6545"></path><path d="M601.50275 964.173137l-3.805845 18.064965c-56.575682 13.149793-122.461178 16.656973-177.364336-1.971189l-1.79199-16.10231c58.435938 17.663901 124.526233 17.24577 182.962171 0z" fill="#CC342F" p-id="6546"></path><path d="M617.42586 992.017247l7.859156 0.110932-6.186632 11.502869-15.317247-0.034133-2.269854-3.618113c5.418636-1.706657 10.427675-5.9989 15.914577-7.953022z" fill="#F7EFDF" p-id="6547"></path><path d="M557.752596 1007.92329v2.073589c-12.236731 3.58398-26.666517 1.800523-39.773643 1.911456v-2.073589c12.296464-4.087444 26.640917-1.109327 39.773643-1.911456zM502.064376 1011.908335c-15.334314-0.443731-22.408407-1.595724-35.797132-3.976511 11.801534 0.878928 24.83186-2.227187 35.805665 1.911456v2.073588z" fill="#EDEAE2" p-id="6548"></path><path d="M247.499408 753.358322l-3.541314-2.346653a142.629598 142.629598 0 0 1 0-27.127314l3.541314-2.346654c-0.54613 9.949811-0.64853 21.913477 0 31.820621zM251.475919 781.193899l-3.541314-2.406386-0.435197-13.499658c0.068266 0.887462 3.865578 5.708768 3.976511 15.914577z" fill="#58352A" p-id="6549"></path><path d="M581.620195 1003.946779l-2.483186 3.541314-9.45488 0.435197c0.682663-0.0768 5.282104-2.619719 11.929533-3.976511z" fill="#EDEAE2" p-id="6550"></path><path d="M748.684855 805.061498c11.528468 40.31124 8.83195 75.749974-3.976511 115.352951-19.174292 4.20691-28.44144 5.358903-47.87173-1.851723-42.965092-15.94871-40.840304-68.582014-7.637291-95.419196 17.450569-14.105521 37.708588-18.807361 59.485532-18.082032z" fill="#F7F0E1" p-id="6551"></path><path d="M380.763725 673.836636c2.653852 2.943983 5.725834 2.867184 3.967978 7.893289-5.9477 17.032438-27.784377 19.737489-43.144291 28.49264-28.108642 16.016977-45.951742 48.460527-78.190494 17.262836 4.642107-13.849522 19.285225-22.451074 31.769422-27.878243 27.152914-11.810067 57.727675-15.982843 85.588852-25.770522z" fill="#DF3736" p-id="6552"></path><path d="M645.261437 701.646613c1.390926 3.976511 5.930633 3.566913 6.835162 4.940772 14.088454 21.230814 27.502779 55.585821-10.811673 50.738915 5.828234-11.238337 9.693812-12.552463 1.902923-23.782266-16.375375-23.594534-59.852463-14.148187-53.000235 17.228703 0.870395 3.993578 8.354086 13.66179 7.338625 14.515118-31.837688 2.133321-28.552373-32.093686-11.929533-51.703176 0.64853-0.767996 7.500758-7.628757 7.953022-7.953022 2.073588-1.484792 5.444236-2.713585 7.953022-3.97651 1.902923-0.955728 6.630363 0.750929 7.953022-3.976511 1.322659-0.093866 2.662385 0.127999 3.976511 0 11.460202-1.100794 21.034548 0.62293 31.820621 3.976511z" fill="#F6F6F5" p-id="6553"></path><path d="M494.111354 769.264366c-18.082032 3.575447-16.034043-5.29917-23.782266-13.994588-34.483006-38.732582-73.608119-52.428505-119.312396-19.703356-5.435703 3.891178-11.682068 13.806856-15.914577 15.906044-3.925311 1.954122-13.439924 4.403175-16.008443-0.093866 20.863883-25.241458 59.801264-49.040791 93.388274-45.644543 22.783872 2.303987 43.536822 17.066571 61.704187 29.755566l19.916688 33.774743z" fill="#E9BA75" p-id="6554"></path><path d="M665.152525 777.217388l91.485352-23.859066-4.010644 27.801444c-20.514018 2.047988-45.200812 6.698629-63.607109 15.94871l-0.563197-7.526357-7.253292-0.67413 3.839978-11.682068c-6.59623-0.0768-13.277792 0.0768-19.882555 0z" fill="#DF3636" p-id="6555"></path><path d="M462.290733 769.255833c-23.278802 5.657568-20.420152-9.318348-31.880354-17.826033-28.270774-20.974815-42.990692-4.061844-67.353221 4.121577-4.198376 1.407992-13.474058 4.479975-16.110843-0.196266 18.628162-21.043082 46.506405-25.548656 73.573986-21.879343 14.122587 1.919989 35.4814 22.928938 41.770432 35.788598z" fill="#E7B972" p-id="6556"></path><path d="M502.064376 693.685058c18.073498-2.022389 43.826953-1.24586 60.714325 4.974905 6.732762 2.474653 12.979127 1.203193 10.879939 10.939672-18.559896 0.486397-34.807271-10.589807-53.623165-7.850622-10.743406-1.151994-42.239762 17.296969-47.752265 15.769511-3.455981-0.955728-7.278892-7.560491-6.024499-11.886867 12.39033-2.44052 22.971604-10.504474 35.805665-11.946599z" fill="#E7BA7A" p-id="6557"></path><path d="M597.534772 689.708547c-2.628252 1.305593-4.966372 6.357298-11.946599 3.985044l0.017066 5.9477 7.944489 5.981833c-0.460797 0.324265-7.304492 7.185026-7.953022 7.953022l-5.964766-7.270359c-2.082122 0.503464-4.437308 3.251182-5.964767 3.293848 2.090655-9.736479-4.147177-8.456486-10.879939-10.939672-16.887372-6.220765-42.640827-6.997294-60.714325-4.974905l35.822732-3.985044 11.903933-11.921c18.474563 1.826123 30.071298 12.36473 47.735198 11.929533z" fill="#6E3E31" p-id="6558"></path><path d="M498.096398 741.428789c8.166354 2.261321 15.240448-3.217049 21.964677-3.891178 7.398358-0.742396 41.821631-3.242648 37.691521 9.847412-2.96105 9.378081-29.354502 5.538102-37.691521 6.067165-4.002111 0.255999-8.132221 4.258109-11.554069 3.541314-3.993578-0.836262-13.602057-12.629262-10.419141-15.556179z" fill="#DAAE71" p-id="6559"></path><path d="M611.913358 729.960054c26.02652-7.705557 36.343262 30.148097 10.760473 34.867004-7.270359 1.339726-22.937471-7.022894-24.900127-13.806856-2.099188-7.261826 8.456486-19.387624 14.131121-21.060148z m16.486307 15.45378c0-4.966372-4.027711-8.985549-8.985549-8.98555s-8.985549 4.027711-8.98555 8.98555 4.027711 8.985549 8.98555 8.985549 8.985549-4.027711 8.985549-8.985549z" fill="#DDD7C3" p-id="6560"></path><path d="M565.714151 729.48219c-24.985459-7.185026-42.418961-3.933845-66.508426 3.114649-3.703446 1.083727-10.222876 8.507685-13.03886-1.126394-2.722118-9.309814 19.626556-13.508191 25.676656-14.07992 15.897511-1.493325 45.303212-3.618113 53.87063 12.091665z" fill="#DCAE70" p-id="6561"></path><path d="M565.714151 769.264366h-55.68822c8.354086-16.588707 21.794011-9.821811 33.808877-9.497546 8.456486 0.221865 21.230814-9.105015 21.879343 9.497546z" fill="#E2B671" p-id="6562"></path><path d="M422.508557 769.264366c-11.596735-6.766895-25.130525-3.345048-37.810988-3.976511-7.748223-0.383998-6.263431 0.52053-5.947699-7.953022 14.967382-2.867184 39.867509-10.62394 43.758687 11.929533z" fill="#CCA45E" p-id="6563"></path><path d="M700.949657 749.364745l-13.968988 3.737579-5.913567-5.725835v-9.932744c3.080516-3.089049 22.903338 9.48048 19.882555 11.921z" fill="#E4CF81" p-id="6564"></path><path d="M613.440816 697.670102v-2.073588l31.735288-1.757857c0.836262 2.457586-0.554664 5.964766 0.085333 7.807956-10.786073-3.353581-20.360419-5.077305-31.820621-3.976511zM541.846552 677.779014c-11.8442-0.59733-23.935865 0.409598-35.797132 0 9.258615-1.834656 21.154014-7.364225 33.450479-3.541313l2.346653 3.541313z" fill="#6E3E31" p-id="6565"></path><path d="M685.043613 801.084987c-3.225582 1.962656-7.586091 3.660779-7.953022 3.976511h-7.953022v-3.967977h15.906044z" fill="#DF3636" p-id="6566"></path><path d="M609.464305 697.670102c-1.322659 4.72744-6.050099 3.020783-7.953022 3.976511v-7.953022h5.956233l1.996789 3.967978z" fill="#6E3E31" p-id="6567"></path><path d="M619.414116 745.413834m-8.98555 0a8.985549 8.985549 0 1 0 17.971099 0 8.985549 8.985549 0 1 0-17.971099 0Z" fill="#C24F35" p-id="6568"></path><path d="M136.122968 347.626205c3.729046-11.127404 14.736984-37.32459 15.914577-45.746943 3.268248-23.466535-1.339726-54.834892-0.170666-79.726485 2.039455-43.400289 9.113549-103.227153 21.964677-145.099984 17.706567-57.710609 45.516544-93.371208 109.53325-69.580408 24.021198 8.925816 54.083962 29.030237 75.340376 43.989086 13.840989 9.736479 34.022209 32.580083 49.74052 33.817409 10.854339 0.853329 16.068176-3.157316 24.089465-4.087443 52.402905-6.067166 114.636155-6.971694 166.919594 0 8.328486 1.109327 19.114559 5.27357 27.989176 6.613296 35.447267-23.099603 68.948945-55.415155 108.142325-73.50572C793.52727-12.43577 829.367068-1.444899 854.164795 57.178772c16.016977 37.87072 27.494245 100.411169 29.943299 141.097873 1.877323 31.112358-4.283709 70.143605-0.170666 99.617573 2.636785 18.90976 23.236136 58.691937 29.943298 81.433142 37.094191 125.729426 18.93536 264.105181-104.106081 333.651456-4.18131 2.36372-8.328486 4.80424-13.354592 4.565308-0.426664 9.821811 8.33702 16.733773 12.714596 25.070792 34.551272 65.757497 45.277612 130.158201-18.790295 181.639512l-2.150388 6.118365 16.179109 93.439475c-7.918889 0.059733-15.940177-0.068266-23.859065 0l-11.929533-87.508841-7.953022-19.891088c79.342487-31.684088 65.450299-130.789664 15.914577-182.970705l-7.944489 11.929533-1.809056-20.10442c-3.063449-4.556774-8.405286-2.824517-10.137543-3.754646-3.131716-1.698124-3.421847-3.575447-3.976511-3.97651l5.811167-7.022894 8.294354 3.131715c5.580769 0.426664 4.77864-3.106116 5.785567-4.061843 12.46713-11.8186 38.194985-22.54494 53.776764-35.720333 10.973805-9.284214 20.437218-21.026015 29.755566-31.89742 36.829659-42.965092 45.226412-66.755891 51.711709-123.305973 0.042666-0.409598 3.054916 1.672524 4.087444-5.819701 4.991972-36.385929-9.634079-98.747178-20.812683-134.56991-6.306098-20.198286-24.567328-53.793831-26.965182-72.481725-2.943983-22.971604 1.279993-51.694643 0.110933-75.681708-2.329587-47.683998-13.960455-136.319233-36.548061-178.243264-25.326791-47.001336-58.02634-31.436623-96.263992-9.907144-20.872416 11.750334-47.163468 30.378496-66.073228 45.303212-6.178099 4.872506-15.214848 17.399369-19.959355 19.822821-13.755656 7.005827-42.290962-4.147177-57.855674-5.990366-46.88187-5.538102-96.238392-5.734368-143.034929 0-13.832456 1.698124-38.817915 11.076204-51.310645 7.372759-26.905449-24.669728-59.280733-50.064785-91.19522-67.890819-49.825853-27.827043-78.361159-30.83076-101.341297 27.485713-13.158326 33.390746-22.749739 90.691757-24.900126 126.258489-1.971189 32.656883 4.189843 72.242794 0.110932 103.525818-2.517319 19.276692-17.459102 46.276006-23.799332 65.697764l-15.701245-4.20691-0.204799-11.707667z" fill="#4E2C23" p-id="6569"></path><path d="M907.796494 518.667376c-6.44263-7.961555-7.918889-19.088959-14.028721-27.741711-10.043677-14.224987-31.854754-27.639311-49.612521-27.946509-3.123182-6.655963-15.632979-4.241043-21.879344-3.950911-22.911871 1.041061-32.742216 5.171171-53.699965 11.912466-15.803644 5.085838-25.215858 10.180209-39.773643 15.914577-24.840394 9.770612-48.579993 14.634584-75.579308 11.929533-29.670233-8.755151-32.67395-14.540718-55.858886-29.6617-34.483006-22.49374-62.762314-31.504889-105.172741-25.958254-45.414145 5.930633-69.008678 51.890908-113.432962 55.619954-49.996519 4.20691-82.320604-27.059048-126.053691-35.029136-5.862367-1.066661-18.099098-3.763179-21.119881 3.208515-24.268663-13.183926-52.522371-25.958254-75.579309-39.773643-3.592513-2.150388-19.549757-12.46713-19.515623-13.858055 8.575952-15.45378 10.180209-33.382212 15.539113-49.79172 6.340231-19.421757 21.282014-46.421072 23.799332-65.697764 4.07891-31.283024-2.073588-70.868935-0.110932-103.525818 2.141855-35.566733 11.741801-92.867744 24.900126-126.258489 22.988671-58.316472 51.523977-55.312756 101.341297-27.485713 31.914487 17.826033 64.289772 43.22109 91.19522 67.890819 12.484196 3.703446 37.478189-5.674635 51.310645-7.372759 46.796537-5.734368 96.153059-5.538102 143.034929 0 15.564712 1.84319 44.100019 12.98766 57.855674 5.990366 4.744507-2.41492 13.781256-14.941783 19.959355-19.822821 18.90976-14.924716 45.200812-33.552878 66.073228-45.303212 38.237652-21.529479 70.937201-37.094191 96.263992 9.907144 22.59614 41.924031 34.218474 130.559266 36.548061 178.243264 1.16906 23.995598-3.046383 52.710104-0.110933 75.681708 2.397853 18.687895 20.659084 52.283439 26.965182 72.481725 11.178604 35.822732 25.804655 98.192514 20.812683 134.56991-1.032528 7.492225-4.036244 5.410103-4.087444 5.819701zM223.631809 138.799646c-3.396248 23.295869 2.491719 53.4013 0 77.567564 21.367346-3.592513 33.885676-26.521451 49.646654-39.850443 12.279398-10.385008 38.194985-28.902237 52.582104-35.046203 4.095977-1.749323 6.44263 1.297059 5.265037-6.698629-0.913062-6.178099-2.824517-6.186632-6.033033-9.915677-11.511402-13.371658-46.523472-47.846131-63.675375-47.829065-7.722623 0-17.092171 8.33702-21.316147 14.600452-5.077305 7.534891-15.146581 38.109652-16.46924 47.180534z m588.694288 77.567564v-65.629498c0-5.410103-7.057027-38.450984-9.804745-45.883475-20.15562-54.476494-68.795346-6.220765-91.630417 20.019087-2.636785 3.029316-6.971694 4.80424-5.905034 9.770612 1.510392 5.034638 48.503194 34.679272 57.702076 41.872831 12.501263 9.779145 25.446257 23.671334 37.708587 33.885676 4.027711 3.353581 5.094371 7.603157 11.929533 5.964767z m-442.860442 52.368772c-9.582879 2.133321-23.799333 16.196176-25.881454 25.821721-12.740195 58.785803 114.38869 85.034188 98.158381 11.963666-5.384503-24.243064-49.27119-42.905359-72.268394-37.776854z m270.599011 0.110932c-29.550767 5.077305-65.638031 35.464334-44.407217 66.730292 16.093776 23.696933 49.808786 17.16897 70.928668 3.541313 41.4547-26.768916 24.720928-79.069422-26.521451-70.271605zM311.311316 470.761512c6.988761 0.682663 13.892189 0.452264 20.872415-0.67413 19.652156-3.182915 64.195906-16.699639 82.423004-24.968392 3.942378-1.79199 10.333809-3.959444 11.605268-8.285821l-0.128-11.22127c-7.236226-13.439924-94.002671-58.819936-100.411168-57.608209-2.747718 0.52053-6.033033 4.479975-10.385008 3.652246l1.621324 19.942288 61.857785 35.5838-67.020423 20.471351c-5.111438 9.284214-3.60958 13.653257-0.426664 23.11667z m405.390786-99.105576l-13.098593-3.643713c-16.614307 10.453275-93.149343 42.495761-97.71465 57.60821-4.983439 21.939077 26.495851 26.094787 43.238156 31.513422 16.665506 5.393036 38.971514 12.680462 55.756487 15.914577 4.036244 0.776529 7.586091 4.07891 12.074598 0.017067 8.004222-5.964766 12.194065-16.221775 3.942378-24.055331-12.595129-11.955133-52.880769-11.784467-67.677486-23.807866l61.857786-33.595545 1.621324-19.942288z" fill="#F6C17E" p-id="6570"></path><path d="M653.222992 498.784821c0.341331 0.102399 0.273065 2.867184 5.742901 4.061844 4.249576 0.921595 9.55728-0.716796 14.088454-0.0256 0.955728 3.490114-0.964261 9.40368 0.059733 11.8698-8.644218-0.691196-15.829244 8.661285-18.099098 15.718311-14.216453 44.193885 43.186957 65.1687 14.148187 105.616473 11.989266 13.71299 19.225492 2.636785 23.842-9.949811 18.244164-2.44052 24.191864 19.063359 33.646744 27.99771 3.746112 3.541313 9.45488 5.529569 14.088454 7.799422 0.298665 0.145066 0.255999 3.182915 2.346653 3.737579h3.046383c4.334909-1.79199 7.560491-4.061844 10.521541-7.71409 11.989266 3.379181 20.326286-6.681562 29.832365-7.961555 17.092171-2.28692 38.450984-1.612791 55.79062-3.874111 6.630363-0.861862 11.8698-11.443136 13.823922-4.078911-9.318348 10.871406-18.781761 22.621739-29.755566 31.897421-15.581779 13.175393-41.309634 23.901732-53.776764 35.720332-29.823832-26.00092-68.266283-38.340051-106.324735-46.813603-38.024319-8.465019-80.264082-14.660184-118.4932-16.750839-28.330507-1.544525-57.104745 0.964261-85.435253-0.085333-2.431986-12.851128 3.831445-12.671929 12.125798-18.184431l-0.392531-33.322479c-38.664316-11.699134-72.029462-36.75286-107.203664-55.884486 11.349269-10.350875 1.646924-19.575357 3.780246-33.476078l8.149287-6.297565c44.424283-3.737579 68.018817-49.68932 113.432962-55.619954 42.418961-5.546635 70.689736 3.464514 105.172742 25.958254 23.176403 15.120982 26.180119 20.906549 55.858886 29.6617z m-156.355387-35.03767c-30.80516 5.222371-51.105846 26.009454-28.535306 54.843425 31.035559 39.645644 115.63455 20.599351 103.449018-35.831265-19.387624-20.13002-47.97413-23.568934-74.913712-19.01216zM486.141265 586.319262c-5.418636 61.217789 68.411349 57.650876 59.673265-5.981833-1.902923-13.849522-19.58389-30.677161-33.288346-33.510212-14.028721 11.827133-36.906459 30.822227-54.348495 13.755656-6.835162-6.690096-4.872506-30.139564-23.748133-12.031932 5.555169 24.737994 27.27238 38.160852 51.711709 37.785388z" fill="#F8F0E1" p-id="6571"></path><path d="M844.146718 462.979156c17.757767 0.307198 39.568844 13.730056 49.612521 27.946509 6.109832 8.652751 7.586091 19.780155 14.028721 27.741711-6.485297 56.558615-14.88205 80.340881-51.711709 123.305973-1.954122-7.364225-7.19356 3.217049-13.823922 4.07891-17.339636 2.261321-38.698449 1.587191-55.79062 3.874112-9.50608 1.27146-17.8431 11.332203-29.832365 7.961555 4.497041-5.555169 5.666101-13.456991 7.953022-19.891088 1.032528-2.901317 7.159426-7.551958 3.985044-15.92311 1.16906-1.331193 27.357713 7.73969 33.126214 7.261825 5.341837-0.443731 29.175303-9.830345 34.397673-13.311925 5.085838-3.404781 20.565218-19.216959 23.210536-24.516129 2.525852-5.068771 8.473552-29.601967 8.849017-35.242468 0.290132-4.403175-3.191449-30.045698-4.377575-35.387534-2.107721-9.50608-14.335919-36.67606-21.418547-42.197096-7.68849-5.9989-19.959354-2.124788-26.060653-13.71299l27.835577-1.988255z" fill="#F8E7D2" p-id="6572"></path><path d="M223.631809 138.799646c1.322659-9.062349 11.391936-39.63711 16.46924-47.180535 4.223976-6.263431 13.58499-14.591918 21.316147-14.600451 17.14337-0.008533 52.163973 34.457406 63.675375 47.829064 3.208515 3.729046 5.119971 3.737579 6.033033 9.915678 1.186127 7.995688-1.16906 4.949305-5.265037 6.698629-14.387119 6.135432-40.31124 24.652661-52.582104 35.046203-15.760978 13.328992-28.279308 36.257929-49.646654 39.850442 2.491719-24.166264-3.396248-54.271695 0-77.567563z" fill="#FAC5B8" p-id="6573"></path><path d="M812.326097 216.36721c-6.835162 1.629857-7.910356-2.611185-11.929533-5.964767-12.262331-10.214343-25.207325-24.106531-37.708587-33.885676-9.198882-7.19356-56.191684-36.838193-57.702076-41.872831-1.066661-4.966372 3.268248-6.741295 5.905034-9.770612 22.835072-26.239852 71.474798-74.495581 91.630417-20.019087 2.747718 7.432492 9.804745 40.473372 9.804745 45.883475v65.629498z" fill="#F9C5B8" p-id="6574"></path><path d="M768.575943 470.940711c7.970089 8.029821 20.744417 1.962656 32.033954 5.759968 2.858651 0.964261 20.377485 10.197276 23.594534 12.202598 4.326376 2.705051 18.201498 20.121487 19.387624 24.362529 1.757857 6.263431-0.324265 12.953527 0.631463 19.259625 2.969583 19.60949 10.069277 33.083547-3.959444 51.856775-10.188743 13.63619-28.765705 23.184936-45.985875 21.97321-10.197276-0.716796-28.859571-13.11566-33.655278-0.170666-2.508786-5.751434-11.852733-15.991377-15.30018-22.49374-8.021288-15.155115-16.912972-31.086758 3.362114-41.156035l8.524752 35.233935c17.834566 5.085838 33.757677 14.276186 51.03758 2.449053 15.581779-10.666607 21.742811-20.872416 20.15562-39.850443-2.252787-26.896915-22.766805-44.654682-49.86852-41.557099-19.618023 2.244254-22.050009 24.848927-29.840898 39.73951l-5.990367-11.938067c-3.131716-0.836262-10.70074 5.196771-13.892188 7.961556-7.628757-13.789789-5.265037-29.951832 3.566913-42.282429l-3.566913-5.452769c14.566318-5.725834 23.969999-10.828739 39.773643-15.914578z" fill="#F8CBB1" p-id="6575"></path><path d="M728.793767 486.846755l3.566913 5.452769c-8.83195 12.330597-11.19567 28.49264-3.566913 42.282429-1.84319 1.595724-6.860761 1.809056-7.347158 6.527963-1.109327 10.990872-5.9477 19.618023-4.539708 31.189158 2.824517 23.295869 27.408912 37.461123 31.231824 60.552193 1.749323 10.581274-9.599946 17.407902-7.406892 29.01317-4.633574-2.278387-10.333809-4.258109-14.088454-7.799423-9.45488-8.93435-15.40258-30.438229-33.646744-27.997709 3.114649-8.516219 4.846906-15.99991 3.225582-25.096392-4.770107-26.75185-46.352806-49.057857-15.266047-76.637436l-1.715191-5.8965c-1.527458-2.355187-5.905033-3.182915-6.135432-3.737579-1.023994-2.466119 0.895995-8.388219-0.059733-11.8698-4.531175-0.699729-9.838878 0.947195-14.088454 0.0256-5.469836-1.186127-5.40157-3.959444-5.742901-4.061844 26.999315 2.705051 50.738915-2.158921 75.579308-11.929533z" fill="#F8E0CC" p-id="6576"></path><path d="M640.064666 268.846914c51.242378-8.797817 67.984684 43.502689 26.521451 70.271605-21.119881 13.63619-54.843425 20.164153-70.928668-3.541313-21.230814-31.265957 14.847916-61.652987 44.407217-66.730292z" fill="#F8EFDD" p-id="6577"></path><path d="M369.465655 268.735982c22.997204-5.128504 66.88389 13.533791 72.268394 37.776854 16.238842 73.070522-110.890043 46.822137-98.158382-11.963666 2.082122-9.617013 16.298575-23.679867 25.881455-25.821722z" fill="#F9F0DE" p-id="6578"></path><path d="M716.702102 371.655936l-1.621324 19.942288-61.857786 33.595544c14.788183 12.031932 55.082357 11.852733 67.677486 23.807866 8.251687 7.833556 4.053311 18.099098-3.942378 24.055332-4.488508 4.061844-8.038355 0.759462-12.074598-0.017067-16.776439-3.225582-39.082447-10.521541-55.756487-15.914577-16.742306-5.418636-48.213062-9.574346-43.238156-31.513423 4.565308-15.103915 81.100344-47.154935 97.71465-57.608209l13.098593 3.643713z" fill="#523028" p-id="6579"></path><path d="M311.311316 470.761512c-3.174382-9.463413-4.684774-13.832456 0.426664-23.11667l67.020423-20.471352-61.857786-35.583799-1.621324-19.942288c4.351976 0.827729 7.63729-3.131716 10.385008-3.652246 6.408497-1.211727 93.183476 44.168285 100.411169 57.608209l0.127999 11.22127c-1.279993 4.326376-7.66289 6.502363-11.605268 8.28582-18.227097 8.268753-62.770847 21.785477-82.423003 24.968393-6.980227 1.126394-13.875122 1.356792-20.872416 0.67413z" fill="#512F27" p-id="6580"></path><path d="M844.146718 462.979156l-27.835576 1.988255c6.101299 11.588201 18.380697 7.705557 26.060653 13.71299 7.082627 5.529569 19.310825 32.691016 21.418546 42.197096 1.186127 5.341837 4.667707 30.992892 4.377576 35.387534-0.375465 5.640502-6.323164 30.173697-8.849017 35.242468-2.645318 5.307703-18.124698 21.119881-23.210536 24.516129-5.213837 3.48158-29.047303 12.868194-34.397674 13.311925-5.777034 0.477864-31.957154-8.593018-33.126213-7.261825 3.182915 8.371153-2.952517 13.021793-3.985045 15.92311 0.469331-10.547141 0.281598-22.041476-3.976511-31.820621 4.795706-12.944994 23.449468-0.54613 33.655278 0.170666 17.211637 1.211727 35.788599-8.33702 45.985875-21.97321 14.037254-18.773228 6.929028-32.255819 3.959444-51.856775-0.955728-6.306098 1.126394-12.996194-0.631463-19.259625-1.186127-4.241043-15.061249-21.657478-19.387624-24.36253-3.217049-2.013855-20.735883-11.238337-23.594534-12.202598-11.289536-3.797312-24.063865 2.269854-32.033954-5.759967 20.957749-6.741295 30.788093-10.862872 53.699965-11.912467 6.246365-0.281598 18.747628-2.705051 21.879344 3.950911z" fill="#F9D7BF" p-id="6581"></path><path d="M378.758403 498.784821l-8.149288 6.297565c-2.133321 13.900722 7.569024 23.125203-3.780245 33.476078-44.125618-23.995598-90.555224-47.317067-135.244039-71.602797 3.020783-6.971694 15.257514-4.275176 21.119881-3.208516 43.733087 7.970089 76.057172 39.236046 126.053691 35.029137z" fill="#F5DFCA" p-id="6582"></path><path d="M255.45243 649.934904c-3.933845-6.229298-11.938066-6.963161-17.979632-11.852733-28.996104-23.466535-45.61041-53.392766-45.66161-91.562152 16.964171-14.003121 33.390746-25.975321 57.497276-27.989176 47.547466-3.976511 68.880679 37.879254 51.942108 79.752085-11.306603 27.946509-24.115064 35.216869-45.798142 51.660509z" fill="#F8F0E1" p-id="6583"></path><path d="M378.741336 657.853793l-85.27312 20.138553-10.419141-18.107631c-0.068266-7.603157 11.682068-13.738589 16.230308-19.822822 9.949811-13.303392 19.515624-29.601967 23.867599-45.764009l57.830075 19.788688-2.227187 43.767221z" fill="#F7ECDF" p-id="6584"></path><path d="M496.867605 463.747151c26.939582-4.565308 55.526088-1.11786 74.913712 19.01216 12.176998 56.439149-72.413459 75.476909-103.449018 35.831265-22.57054-28.833971-2.269854-49.621054 28.535306-54.843425z" fill="#533229" p-id="6585"></path><path d="M486.141265 586.319262c-24.439329 0.383998-46.15654-13.047393-51.711709-37.785388 18.875627-18.107631 16.912972 5.341837 23.748133 12.031933 17.442035 17.066571 40.31124-1.919989 54.348495-13.755656 13.704456 2.833051 31.385423 19.669223 33.288346 33.510211 8.738084 63.641242-65.091901 67.199622-59.673265 5.981833z m26.171587-15.650045c-17.015371 5.077305-12.168465 36.053131 3.677846 43.451489 13.619123-9.983944 17.066571-25.40359 8.046888-39.850443-2.696518-4.317842-7.150893-4.966372-11.724734-3.601046z" fill="#58362D" p-id="6586"></path><path d="M748.684855 538.558464v3.976511c-20.275086 10.069277-11.383403 25.992387-3.362114 41.156035 3.438914 6.502363 12.791395 16.733773 15.30018 22.49374 4.258109 9.779145 4.445842 21.27348 3.976511 31.820621-2.28692 6.425564-3.455981 14.327386-7.953021 19.891088-2.952517 3.652246-6.186632 5.9221-10.521541 7.705557h-3.046383c-2.099188-0.554664-2.056522-3.58398-2.346654-3.729046-2.184521-11.605268 9.164748-18.431896 7.406892-29.01317-3.822912-23.09107-28.407307-37.256324-31.231824-60.552193-1.399459-11.571135 3.430381-20.20682 4.539708-31.189157 0.486397-4.718907 5.503969-4.932239 7.347158-6.527964 3.191449-2.764784 10.769006-8.797817 13.892189-7.961555l5.990366 11.938066z" fill="#BDAAA0" p-id="6587"></path><path d="M673.105547 514.690865c0.230399 0.554664 4.607974 1.390926 6.135432 3.737579l1.715191 5.8965c-31.086758 27.579578 10.504474 49.885586 15.266047 76.637436 1.621324 9.096482-0.110933 16.580173-3.225582 25.096392-4.607974 12.595129-11.852733 23.671334-23.841999 9.94981 29.03877-40.447772-28.356107-61.414055-14.148187-105.616472 2.269854-7.057027 9.45488-16.409508 18.099098-15.718312z" fill="#C1B2A8" p-id="6588"></path><path d="M748.684855 538.558464c7.799423-14.899116 10.222876-37.495256 29.840899-39.73951 27.101714-3.106116 47.615732 14.660184 49.86852 41.5571 1.587191 18.978027-4.573841 29.183836-20.15562 39.850442-17.279903 11.835667-33.203013 2.645318-51.03758-2.449053l-8.524752-35.233935v-3.976511z" fill="#F8BA9D" p-id="6589"></path><path d="M512.312852 570.669217c4.573841-1.365326 9.028216-0.716796 11.724734 3.601046 9.019683 14.446852 5.572235 29.857965-8.046888 39.850443-15.846311-7.398358-20.693217-38.374184-3.677846-43.451489z" fill="#E74F40" p-id="6590"></path></svg>