<?xml version="1.0" standalone="no"?><!DOCTYPE svg PUBLIC "-//W3C//DTD SVG 1.1//EN" "http://www.w3.org/Graphics/SVG/1.1/DTD/svg11.dtd"><svg t="1768660229584" class="icon" viewBox="0 0 1024 1024" version="1.1" xmlns="http://www.w3.org/2000/svg" p-id="3277" xmlns:xlink="http://www.w3.org/1999/xlink" width="256" height="256"><path d="M336.128 776.9344c10.973867 4.497067 17.7152 22.929067 25.352533 31.863467 30.2592 35.3792 80.708267 63.146667 125.969067 73.198933 26.4448 5.879467 51.336533 3.720533 77.405867 9.472 1.425067 15.7952-1.493333 33.2544-0.068267 48.7936 1.0496 11.434667 7.3472 23.355733 8.5504 33.826133 1.4336 12.535467-2.141867 28.996267 0.1024 40.157867 2.304 12.868267-6.493867 8.200533-14.813867 8.4736-76.945067 2.56-156.014933-0.4864-233.258666-0.196267-8.610133 0.034133-11.554133 0.6144-18.901334 0.196267-0.162133-57.301333 22.152533-110.8992 36.2496-165.111467 3.712-14.267733-11.332267-18.3552-18.816-6.024533-8.277333 13.6448-11.357867 36.9408-17.646933 52.283733-13.013333-2.440533-23.978667 3.575467-35.618133 4.608-20.565333 1.826133-75.264-7.543467-96.648534-13.9008-4.266667-1.271467-12.663467-1.800533-11.605333-7.441066 42.581333-9.472 64.776533-45.0048 67.968-86.690134 1.152-15.112533-4.48-26.0864-4.4032-40.448 11.4688-2.6368 21.1712 3.729067 31.5904 4.420267 32.7168 2.1504 36.846933-1.7664 68.9152 11.784533 3.4304 1.450667 7.936 0.034133 9.668267 0.7424z m220.526933 144.546133c0-9.1904-7.4496-16.648533-16.648533-16.648533s-16.648533 7.4496-16.648533 16.648533 7.4496 16.648533 16.648533 16.648534 16.648533-7.4496 16.648533-16.648534z m0.7168 70.2208c0-9.4464-7.6544-17.1008-17.1008-17.1008s-17.1008 7.6544-17.1008 17.1008 7.6544 17.1008 17.1008 17.1008 17.1008-7.6544 17.1008-17.1008z" fill="#FBFBFB" p-id="3278"></path><path d="M747.1872 759.978667l4.4032 16.853333 8.311467 0.1024c-5.051733 1.3312-15.556267 10.538667-24.814934 9.096533l-38.741333 48.119467 44.680533 2.304 20.795734-4.352c17.902933 20.5056-1.109333 18.7904-15.880534 21.845333-2.030933 0.418133-2.679467 3.464533-2.986666 3.498667-21.205333 2.781867-46.839467-0.580267-67.805867-4.241067-2.397867-5.7856-7.773867-10.077867-10.683733-16.8704-4.8384-11.272533-5.461333-34.244267-17.297067-37.802666-9.463467-2.850133-15.223467 0.810667-20.642133 8.1664-14.062933 19.0976 0.477867 46.506667-7.0144 54.468266-1.0752 1.143467-11.451733 3.618133-16.3072 6.971734-24.584533 16.989867-21.674667 76.347733-6.3488 99.3792 2.798933 4.206933 10.606933 11.6224 14.830933 14.8224 2.048 1.553067 15.8976 10.410667 16.853333 10.7008l-16.9472 12.714666c-4.241067-2.2528-11.579733-2.8416-16.938666-8.4736-0.196267 4.1984 0.247467 8.516267-0.008534 12.714667s0.196267 8.516267 0 12.7232l-16.657066-0.3072c1.220267-5.4016-4.437333-7.714133-4.5312-8.174933-2.244267-11.1616 1.339733-27.6224-0.1024-40.157867-1.2032-10.4704-7.5008-22.391467-8.5504-33.826133-1.425067-15.5392 1.493333-32.9984 0.068266-48.7936-26.069333-5.751467-50.9696-3.601067-77.405866-9.472-45.2608-10.0608-95.709867-37.819733-125.969067-73.198934-7.637333-8.925867-14.378667-27.3664-25.352533-31.863466l-3.541334-6.357334 7.773867-10.5984c63.778133 23.876267 194.210133 43.281067 260.727467 34.005334 13.585067-1.8944 14.984533-20.241067 46.4384-16.955734 38.007467 3.968 63.121067-3.8912 99.652266-17.0496z m-216.123733 105.9328l-62.0288-54.493867-90.530134-17.527467c36.010667 45.371733 95.428267 68.5312 152.558934 72.021334z m173.7472-72.021334c-7.202133 2.261333-19.848533 3.114667-25.5488 6.2208-7.3984 4.036267 1.8176 8.925867 0.128 14.9504 4.1728 4.608 23.842133-15.9488 25.4208-21.1712z m-127.1296 21.179734h-72.0384c8.174933 14.958933 25.838933 20.4544 36.2752 33.809066 5.870933 1.6896 31.163733-26.837333 35.7632-33.809066z m-16.9472 50.850133c20.232533-1.792 39.159467-16.3328 33.885866-38.135467-9.0624 5.956267-18.2528 15.163733-25.412266 23.304534-4.189867 4.770133-10.146133 6.9888-8.4736 14.8224z" fill="#512F27" p-id="3279"></path><path d="M611.584 1005.7728c10.487467 5.5808 8.866133 5.1968 21.188267 8.4736 0.955733 0.256 3.182933 3.5072 12.714666 4.241067 26.8032 2.065067 64.733867-0.059733 91.025067-4.317867 18.602667-3.012267 36.241067-11.178667 55.168-12.637867l2.1248 21.1968c-7.3472 0.4096-10.2912-0.170667-18.901333-0.196266-41.685333-0.1536-82.449067 2.030933-122.871467 0.017066-15.5392-0.776533-31.428267 1.134933-46.976 0.238934-11.9296-0.6912-2.269867-9.156267-10.4192-12.765867 0.256-4.1984-0.187733-8.516267 0.008533-12.714667 5.358933 5.632 12.6976 6.2208 16.938667 8.4736z" fill="#F6F6F5" p-id="3280"></path><path d="M120.004267 726.084267c1.399467-4.4032 5.137067-8.3456 6.519466-12.5184 7.074133-21.333333 6.7072-41.344 6.3744-63.5904 26.948267-11.0592 44.066133 15.0784 46.472534 40.2432 1.211733 12.731733-8.157867 25.949867-3.874134 39.7056 44.0576 16.785067 43.383467 99.4304 7.9616 125.2864-13.917867 10.1632-33.749333 15.36-50.730666 14.9504-24.8832-27.204267-29.405867-67.899733-25.326934-103.722667 1.467733-12.885333 8.695467-28.0064 12.612267-40.362667z" fill="#F7F0E1" p-id="3281"></path><path d="M776.849067 776.9344c4.420267 0.955733 33.553067 30.148267 38.212266 35.9424 28.3904 35.2768 42.4192 94.404267 14.6432 133.4528-16.3584 23.005867-51.345067 36.616533-78.293333 42.487467-0.247467-7.714133 5.9904-11.6224 8.644267-18.909867 14.839467-40.7552 7.68-77.576533-17.117867-112.4608 0.3072-0.042667 0.955733-3.080533 2.986667-3.498667 14.7712-3.054933 33.783467-1.339733 15.880533-21.845333l-20.795733 4.352-44.680534-2.304 38.741334-48.119467c9.258667 1.442133 19.7632-7.765333 24.814933-9.096533 1.2288-0.324267 2.7904 0.2048 4.241067 0 3.114667-0.4352 9.915733-0.605867 12.714666 0z" fill="#FBFCFB" p-id="3282"></path><path d="M675.1488 853.213867c18.628267 44.9024 23.0912 94.020267 4.027733 139.639466-11.136 0.085333-22.562133 0.725333-33.6896 0.2048-5.0432-0.238933-13.2864 1.117867-16.9472 0-0.955733-0.290133-14.805333-9.147733-16.853333-10.7008-4.224-3.2-12.032-10.615467-14.830933-14.8224-15.325867-23.04-18.2272-82.389333 6.3488-99.3792 4.864-3.362133 15.240533-5.8368 16.3072-6.971733 7.492267-7.9616-7.048533-35.370667 7.0144-54.468267 5.418667-7.355733 11.178667-11.016533 20.642133-8.1664 11.8272 3.5584 12.450133 26.538667 17.297067 37.802667 2.9184 6.792533 8.285867 11.076267 10.683733 16.8704z" fill="#F8F0DF" p-id="3283"></path><path d="M742.946133 857.4464c24.797867 34.884267 31.957333 71.7056 17.117867 112.4608-2.653867 7.287467-8.8832 11.195733-8.644267 18.909867-26.734933 5.819733-55.304533 8.704-82.619733 8.465066-6.9632-0.059733-19.780267 3.1232-23.3216-4.224 11.127467 0.520533 22.5536-0.119467 33.6896-0.2048 19.072-45.6192 14.600533-94.737067-4.027733-139.639466 20.9664 3.652267 46.600533 7.0144 67.805866 4.241066z" fill="#F4C07C" p-id="3284"></path><path d="M120.004267 726.084267c-3.9168 12.347733-11.144533 27.477333-12.612267 40.362666-4.078933 35.822933 0.443733 76.5184 25.326933 103.722667-57.1648-1.3824-71.927467-68.462933-51.771733-113.211733 7.048533-15.650133 21.5552-27.630933 39.057067-30.8736z" fill="#F4C282" p-id="3285"></path><path d="M247.133867 738.781867c-29.303467 5.060267-32.955733-5.725867-48.981334-25.386667l2.3808-16.9728c6.587733-1.015467 3.677867 6.254933 8.388267 10.658133 10.555733 9.856 30.3616 18.082133 38.212267 31.701334z" fill="#F1EEEC" p-id="3286"></path><path d="M776.849067 776.9344c-2.798933-0.605867-9.6-0.4352-12.714667 0l2.184533-4.1728 4.1728-0.213333 4.1728 0.213333 2.184534 4.1728z" fill="#512F27" p-id="3287"></path><path d="M645.4784 1018.478933c-9.5232-0.733867-11.7504-3.985067-12.714667-4.241066l10.069334 0.4608 2.645333 3.771733z" fill="#EDEAE2" p-id="3288"></path><path d="M540.270933 991.701333m-17.1008 0a17.1008 17.1008 0 1 0 34.2016 0 17.1008 17.1008 0 1 0-34.2016 0Z" fill="#54342B" p-id="3289"></path><path d="M540.0064 921.480533m-16.648533 0a16.648533 16.648533 0 1 0 33.297066 0 16.648533 16.648533 0 1 0-33.297066 0Z" fill="#5C3F39" p-id="3290"></path><path d="M531.063467 865.911467c-57.130667-3.490133-116.539733-26.6496-152.558934-72.021334l90.530134 17.527467 62.0288 54.493867z" fill="#5082B3" p-id="3291"></path><path d="M577.681067 815.069867c-4.599467 6.971733-29.892267 35.498667-35.7632 33.809066-10.436267-13.354667-28.100267-18.850133-36.2752-33.809066h72.0384z" fill="#ECC28C" p-id="3292"></path><path d="M560.733867 865.92c-1.681067-7.8336 4.283733-10.0608 8.4736-14.8224 7.159467-8.149333 16.349867-17.348267 25.412266-23.304533 5.2736 21.802667-13.653333 36.334933-33.885866 38.135466z" fill="#5188B2" p-id="3293"></path><path d="M704.810667 793.890133c-1.578667 5.230933-21.248 25.7792-25.4208 21.1712 1.681067-6.024533-7.534933-10.914133-0.128-14.9504 5.7088-3.106133 18.3552-3.959467 25.5488-6.2208z" fill="#4F81B0" p-id="3294"></path><path d="M306.466133 1022.72c-7.005867-0.392533-14.1824 0.2816-21.1968 0-3.601067-3.515733 10.615467-85.751467 16.955734-97.476267h-86.869334c-0.938667 0-2.4832-3.2-4.949333-3.524266-43.630933-5.7088-68.420267-19.421867-107.400533-36.676267-57.480533-25.4464-66.193067-107.221333-31.607467-154.615467 10.205867-13.986133 33.467733-19.3536 38.1952-33.851733 8.772267-26.922667-12.859733-70.237867 35.8656-67.976533 1.646933-13.2864-8.635733-25.326933-11.844267-36.898134-18.048-65.032533-10.410667-137.5488 8.618667-201.514666 6.4768-21.768533 26.103467-59.101867 28.6464-77.294934 4.5568-32.6144-2.261333-75.921067-0.187733-110.3616 2.551467-42.3168 14.813867-111.146667 31.906133-150.314666C252.586667-62.3104 365.943467 45.166933 427.912533 90.052267c76.458667-15.837867 156.194133-17.6384 232.516267 0.529066l6.365867-2.116266c32.503467-26.8544 68.770133-57.105067 107.118933-75.1616 66.824533-31.479467 102.024533-3.950933 123.904 59.997866 20.667733 60.416 28.347733 143.4624 23.227733 205.781334-3.84 46.677333 46.199467 137.1648 50.952534 198.903466 9.9584 129.4848-53.051733 235.3152-173.934934 282.001067-1.604267 6.485333 1.442133 6.920533 4.232534 10.589867 7.313067 9.634133 19.6608 17.757867 27.374933 27.716266 47.8976 61.824 53.512533 147.524267-18.1504 192.503467l3.5072 31.9232c-7.0144 0.273067-14.190933-0.401067-21.1968 0l-2.1248-21.1968c-18.926933 1.4592-36.565333 9.6256-55.168 12.637867-26.299733 4.258133-64.2304 6.382933-91.025067 4.317866l-2.645333-3.771733-10.069333-0.4608c-12.322133-3.2768-10.7008-2.901333-21.188267-8.4736l16.9472-12.714667c3.6608 1.117867 11.912533-0.238933 16.9472 0 3.541333 7.355733 16.3584 4.164267 23.3216 4.224 27.3152 0.238933 55.893333-2.645333 82.619733-8.465066 26.939733-5.870933 61.9264-19.4816 78.293334-42.487467 27.776-39.057067 13.738667-98.184533-14.6432-133.4528-4.667733-5.794133-33.800533-34.986667-38.212267-35.9424l-2.184533-4.1728-4.1728-0.213333-4.1728 0.213333-2.184534 4.1728c-1.450667 0.2048-3.012267-0.324267-4.241066 0l-8.311467-0.1024-4.4032-16.853333c23.458133-8.448 51.771733-21.717333 73.4976-34.56 27.374933-16.187733 50.0736-35.729067 70.587733-58.666667 37.2224-41.6256 47.095467-67.464533 55.0912-122.897067 0.0512-0.366933 3.831467-1.066667 4.3008-6.1184 3.712-39.4496-4.471467-87.168-14.779733-125.371733-8.226133-30.472533-32.5376-76.740267-36.0704-103.773867-7.04-53.853867 1.2288-110.609067-8.695467-169.2928-6.519467-38.5536-24.977067-120.2688-74.180266-116.864-28.552533 1.9712-94.6432 48.733867-118.570667 67.899734-9.821867 7.867733-16.298667 20.898133-29.508267 24.1664l-55.253333-11.281067c-55.150933-4.736-110.557867-4.599467-165.0944 4.241067-9.344 1.5104-19.7376 6.229333-29.252267 8.0384C389.0688 87.5264 306.9952 20.650667 266.154667 22.3488c-36.4544 1.518933-53.819733 66.909867-60.398934 96.5888-6.570667 29.6448-11.8528 70.954667-13.602133 100.8128-1.809067 30.916267 3.618133 67.857067-0.1536 97.314133-2.1248 16.580267-18.4576 49.544533-24.337067 68.8896-14.1568 46.600533-22.6304 85.4784-22.1952 134.5792 0.059733 6.9632-3.131733 19.780267 4.224 23.3216-2.312533 30.1312 18.9952 76.6976 36.036267 101.777067 2.210133 3.259733 6.075733 3.805867 6.340267 4.164267 37.12 50.705067 89.361067 88.106667 148.317866 110.1824l-7.773866 10.5984 3.541333 6.357333c-1.732267-0.708267-6.237867 0.708267-9.668267-0.7424-32.068267-13.5424-36.189867-9.634133-68.9152-11.784533-10.427733-0.682667-20.1216-7.057067-31.5904-4.420267-0.0768 14.370133 5.5552 25.335467 4.4032 40.448-3.191467 41.685333-25.378133 77.218133-67.968 86.690133-1.066667 5.640533 7.338667 6.178133 11.605334 7.441067 21.384533 6.357333 76.0832 15.726933 96.648533 13.9008 11.639467-1.032533 22.6048-7.048533 35.618133-4.608 6.280533-15.3344 9.3696-38.6304 17.646934-52.283733 7.4752-12.330667 22.519467-8.2432 18.816 6.024533-14.1056 54.212267-36.420267 107.810133-36.2496 165.111467z m-173.7472-152.558933c16.981333 0.4096 36.8128-4.7872 50.730667-14.9504 35.421867-25.856 36.096-108.509867-7.9616-125.2864-4.2752-13.755733 5.0944-26.965333 3.874133-39.7056-2.4064-25.1648-19.524267-51.3024-46.472533-40.2432 0.3328 22.2464 0.699733 42.257067-6.3744 63.5904-1.3824 4.1728-5.12 8.106667-6.519467 12.5184-17.501867 3.242667-32.008533 15.223467-39.057066 30.8736-20.155733 44.7488-5.384533 111.829333 51.771733 113.211733z m114.414934-131.3792c-7.850667-13.627733-27.656533-21.845333-38.212267-31.701334-4.7104-4.4032-1.800533-11.6736-8.388267-10.658133l-2.3808 16.9728c16.0256 19.6608 19.677867 30.446933 48.981334 25.386667z" fill="#4D2B22" p-id="3295"></path><path d="M946.3552 543.863467c-8.4992-49.8176-41.821867-67.1232-88.994133-67.805867-50.0224-0.725333-68.642133 18.321067-110.1824 33.902933-4.864 1.826133-23.313067 8.123733-25.429334 8.4736-22.826667 3.771733-49.4848-1.518933-69.341866-13.294933-43.656533-25.890133-59.7504-51.677867-119.415467-46.208-54.459733 4.992-81.083733 57.361067-133.307733 59.502933-21.649067 0.887467-40.0896-3.780267-59.323734-12.714666-29.5424-13.713067-67.3792-32.273067-101.7088-29.661867-2.7904 0.213333-5.700267-0.273067-8.4736 0l-18.688 0.4608-2.500266 3.780267c-31.709867 4.855467-56.832 30.967467-59.323734 63.5648-7.355733-3.5328-4.164267-16.349867-4.224-23.3216-0.4352-49.092267 8.0384-87.970133 22.1952-134.5792 5.879467-19.345067 22.212267-52.309333 24.337067-68.8896 3.771733-29.457067-1.655467-66.397867 0.1536-97.314134 1.749333-29.866667 7.031467-71.168 13.602133-100.8128 6.5792-29.678933 23.953067-95.069867 60.398934-96.5888 40.832-1.706667 122.914133 65.1776 153.130666 93.149867 9.514667-1.809067 19.908267-6.528 29.252267-8.0384 54.536533-8.832 109.943467-8.977067 165.0944-4.241067l55.253333 11.281067c13.2096-3.268267 19.677867-16.298667 29.508267-24.1664 23.927467-19.165867 90.026667-65.928533 118.570667-67.899733 49.2032-3.4048 67.6608 78.3104 74.180266 116.864 9.924267 58.683733 1.655467 115.438933 8.695467 169.2928 3.5328 27.0336 27.844267 73.301333 36.0704 103.773866 10.308267 38.203733 18.491733 85.9136 14.779733 125.371734-0.477867 5.051733-4.2496 5.751467-4.3008 6.1184zM242.901333 147.6352c-2.944 24.337067 2.1504 53.4528 0 78.395733 7.278933 1.7408 8.4224-2.781867 12.714667-6.357333 29.815467-24.8064 53.7088-57.122133 91.9552-73.437867 4.360533-1.860267 6.869333 1.3824 5.6064-7.133866-0.9728-6.5792-3.012267-6.587733-6.434133-10.564267-23.594667-27.4176-72.669867-77.917867-93.397334-21.307733-2.952533 8.072533-9.591467 33.322667-10.4448 40.405333z m605.994667 78.395733v-78.395733c0-0.8448-3.0464-2.423467-3.4304-5.0432-2.858667-19.131733-5.307733-38.8352-17.732267-54.314667-21.137067-15.146667-41.6-1.1264-59.170133 12.919467-7.108267 5.691733-31.940267 29.320533-29.7728 37.700267 40.8832 24.567467 72.849067 58.453333 110.1056 87.125333zM462.583467 352.4864c2.449067-2.440533 9.6512-22.272 9.301333-26.717867-3.712-46.9248-95.1296-70.749867-105.386667-24.900266-9.105067 40.721067 41.856 67.968 77.0048 60.0832 1.988267-0.443733 18.338133-7.739733 19.080534-8.4736z m207.0272-74.786133c-35.2 6.084267-70.4512 51.5328-32.477867 77.457066 35.1232 23.978667 106.9568-20.9664 82.4832-61.294933-10.4448-17.211733-31.726933-19.310933-49.9968-16.162133zM456.209067 440.8064c0-34.466133-27.938133-62.404267-62.404267-62.404267s-62.404267 27.938133-62.404267 62.404267 27.938133 62.404267 62.404267 62.404267 62.404267-27.938133 62.404267-62.404267z m305.442133 0.068267c0-34.432-27.912533-62.353067-62.353067-62.353067s-62.353067 27.912533-62.353066 62.353067 27.912533 62.353067 62.353066 62.353066 62.353067-27.912533 62.353067-62.353066z" fill="#F7C27E" p-id="3296"></path><path d="M721.757867 518.434133l-8.6272 57.002667c4.701867 8.942933 3.319467 19.080533 6.289066 27.972267 16.836267 50.4064 82.9952 73.787733 131.396267 58.9312l40.439467 4.420266c-20.514133 22.9376-43.204267 42.478933-70.587734 58.666667-21.725867 12.842667-50.039467 26.112-73.4976 34.56-36.539733 13.1584-61.6448 21.0176-99.652266 17.0496-31.453867-3.285333-32.861867 15.061333-46.4384 16.955733-66.517333 9.275733-196.9408-10.129067-260.727467-34.005333-58.965333-22.0672-111.197867-59.477333-148.317867-110.1824 6.5792-6.9376 13.184 10.4192 19.592534 12.194133s13.294933-0.315733 20.010666 1.1776c5.614933 1.245867 10.129067 6.775467 17.604267 7.825067 24.0128 3.3536 47.872-2.986667 71.355733-4.932267 12.2624-2.705067 53.2736-43.5968 58.8288-55.594666 11.784533-25.463467 5.9392-54.638933 7.5008-81.621334 0.682667-11.9296 9.1648-2.269867 12.765867-10.4192 52.224-2.141867 78.848-54.510933 133.307733-59.502933 59.665067-5.469867 75.758933 20.317867 119.415467 46.208 19.857067 11.776 46.506667 17.066667 69.341867 13.294933zM529.7664 481.109333c-23.560533 3.9936-51.336533 25.719467-34.602667 49.92 12.270933 17.732267 37.162667 32.4352 59.136 29.730134 20.445867-2.517333 59.392-30.122667 52.625067-52.445867-17.4848-25.591467-47.5392-32.2304-77.1584-27.204267z m103.005867 58.504534c4.189867 35.908267-24.3968 48.725333-56.5248 41.693866-7.901867-1.732267-18.3552-12.151467-26.120534-12.151466-7.765333 0-18.210133 10.4192-26.112 12.151466-16.7424 3.669333-43.3152 2.7904-54.314666-12.1088-6.272-8.4992-5.896533-27.400533-12.817067-29.568-14.993067-4.701867-11.4176 29.380267-5.751467 39.662934 17.706667 32.110933 70.647467 28.859733 98.363734 11.648 40.4992 25.898667 108.450133 13.44 99.857066-44.603734l-3.8144-4.6592-12.7744-2.056533z" fill="#FAF0DE" p-id="3297"></path><path d="M238.660267 476.0576l-27.511467 29.696c-20.1728 45.422933-39.68 114.491733 22.058667 134.673067 47.624533 15.5648 108.8256-0.9728 123.374933-52.804267 1.877333-6.698667 5.512533-26.683733 5.256533-33.2288-0.349867-8.823467-6.272-32.273067-16.170666-32.5632l-5.290667-16.110933c19.234133 8.9344 37.674667 13.602133 59.323733 12.714666-3.6096 8.149333-12.0832-1.5104-12.765866 10.4192-1.553067 26.9824 4.292267 56.157867-7.5008 81.621334-5.5552 11.997867-46.5664 52.8896-58.8288 55.594666-23.4752 1.937067-47.342933 8.285867-71.355734 4.932267-7.4752-1.041067-11.9808-6.5792-17.604266-7.825067-6.715733-1.493333-13.909333 0.512-20.010667-1.1776-6.408533-1.774933-13.013333-19.1232-19.592533-12.194133-0.264533-0.3584-4.1216-0.904533-6.340267-4.164267-17.041067-25.088-38.3488-71.6544-36.036267-101.777066 2.500267-32.605867 27.6224-58.709333 59.323734-63.5648 6.7328-1.032533 18.935467-4.0192 21.188266-4.241067 2.781867-0.273067 5.6832 0.213333 8.4736 0z" fill="#FAE6D0" p-id="3298"></path><path d="M946.3552 543.863467c-7.995733 55.432533-17.8688 81.271467-55.0912 122.897066l-40.439467-4.420266c-48.4096 14.856533-114.568533-8.5248-131.396266-58.9312-2.9696-8.891733-1.5872-19.029333-6.289067-27.972267l8.6272-57.002667c2.116267-0.349867 20.5568-6.647467 25.429333-8.4736l-8.763733 36.078934 5.12 50.193066c8.7552 12.194133 20.5312 31.061333 34.500267 37.546667 7.057067 3.2768 35.848533 11.093333 43.460266 11.818667 12.3392 1.1776 27.5968-7.4496 41.7024-4.778667 10.112-8.413867 24.021333-17.348267 30.148267-29.184 4.616533-8.917333 15.069867-43.5456 15.1808-52.9152 0.068267-5.742933-7.8848-26.359467-10.9568-31.7696-2.909867-5.137067-22.314667-34.688-25.361067-38.1952-4.232533-4.881067-13.303467-5.000533-14.865066-12.689067 47.163733 0.682667 80.494933 17.988267 88.994133 67.805867z" fill="#F9E5CF" p-id="3299"></path><path d="M340.369067 505.719467l5.290666 16.110933c9.898667 0.298667 15.829333 23.739733 16.170667 32.5632 0.256 6.545067-3.370667 26.530133-5.256533 33.2288-14.549333 51.84-75.7504 68.3776-123.374934 52.804267-61.738667-20.181333-42.231467-89.250133-22.058666-134.673067l27.511466-29.696c34.321067-2.6112 72.1664 15.9488 101.7088 29.661867z m-77.704534-3.5328c-8.507733 1.8944-22.7328 15.402667-28.322133 22.519466-3.490133 4.437333-12.552533 18.6368-14.754133 23.381334-1.28 2.756267-6.493867 33.655467-5.981867 35.3792 2.295467 7.8336 20.462933 27.707733 29.090133 30.523733 14.2592 4.6592 50.5856 3.370667 63.744-4.48 52.027733-31.0528 16.221867-120.695467-43.767466-107.323733z" fill="#F9D5BA" p-id="3300"></path><path d="M761.6512 440.874667c0 34.432-27.912533 62.353067-62.353067 62.353066s-62.353067-27.912533-62.353066-62.353066 27.912533-62.353067 62.353066-62.353067 62.353067 27.912533 62.353067 62.353067z m-70.6048-25.770667c0-10.589867-8.584533-19.1744-19.1744-19.1744s-19.1744 8.584533-19.1744 19.1744 8.584533 19.1744 19.1744 19.1744 19.1744-8.584533 19.1744-19.1744z" fill="#523028" p-id="3301"></path><path d="M456.209067 440.8064c0 34.466133-27.938133 62.404267-62.404267 62.404267s-62.404267-27.938133-62.404267-62.404267 27.938133-62.404267 62.404267-62.404267 62.404267 27.938133 62.404267 62.404267z m-17.672534-25.796267c0-10.7008-8.6784-19.3792-19.3792-19.3792s-19.3792 8.6784-19.3792 19.3792 8.6784 19.3792 19.3792 19.3792 19.3792-8.6784 19.3792-19.3792z" fill="#512F27" p-id="3302"></path><path d="M857.3696 476.0576c1.5616 7.688533 10.632533 7.808 14.865067 12.689067 3.0464 3.515733 22.4512 33.058133 25.361066 38.1952 3.063467 5.410133 11.025067 26.018133 10.9568 31.7696-0.110933 9.3696-10.564267 43.997867-15.1808 52.9152-6.135467 11.844267-20.0448 20.770133-30.148266 29.184-14.1056-2.670933-29.3632 5.956267-41.7024 4.778666-7.620267-0.725333-36.411733-8.541867-43.460267-11.818666-13.969067-6.485333-25.745067-25.352533-34.500267-37.546667l-5.12-50.193067 8.763734-36.078933c41.540267-15.581867 60.16-34.628267 110.1824-33.902933z m-79.752533 130.5856c1.092267 1.0496 25.002667 12.2368 27.460266 12.817067 9.770667 2.304 22.4768 0.904533 33.092267 5.137066 10.5984-3.84 25.514667-9.847467 32.0768-19.1232 3.310933-4.676267 15.394133-33.783467 15.3856-38.306133-0.017067-11.076267-17.220267-48.938667-25.984-57.378133-6.493867-6.254933-29.576533-17.390933-37.666133-16.187734-7.0912 1.058133-57.173333 31.786667-60.091734 37.4272-6.997333 13.533867-0.7168 44.270933 5.5552 58.24 1.024 2.286933 9.437867 16.682667 10.1632 17.373867z" fill="#F9D7BC" p-id="3303"></path><path d="M242.901333 147.6352c0.853333-7.082667 7.492267-32.3328 10.4448-40.405333 20.736-56.6016 69.802667-6.101333 93.397334 21.307733 3.421867 3.976533 5.461333 3.985067 6.434133 10.564267 1.262933 8.516267-1.245867 5.2736-5.6064 7.133866-38.2464 16.315733-62.148267 48.631467-91.9552 73.437867-4.292267 3.566933-5.4272 8.098133-12.714667 6.357333 2.1504-24.942933-2.944-54.058667 0-78.395733z" fill="#F9C6B6" p-id="3304"></path><path d="M848.896 226.030933c-37.256533-28.672-69.2224-62.557867-110.1056-87.125333-2.167467-8.388267 22.656-32.017067 29.7728-37.700267 17.570133-14.0544 38.033067-28.066133 59.170133-12.919466 12.424533 15.479467 14.8736 35.1744 17.732267 54.314666 0.392533 2.6112 3.4304 4.1984 3.4304 5.0432v78.395734z" fill="#F8C6B7" p-id="3305"></path><path d="M462.583467 352.4864c-0.7424 0.733867-17.092267 8.029867-19.080534 8.4736-35.1488 7.8848-86.109867-19.370667-77.0048-60.0832 10.257067-45.858133 101.666133-22.033067 105.386667 24.900267 0.349867 4.445867-6.852267 24.2688-9.301333 26.717866z" fill="#F9EFDD" p-id="3306"></path><path d="M669.610667 277.700267c18.269867-3.157333 39.552-1.058133 49.9968 16.162133 24.4736 40.337067-47.36 85.282133-82.4832 61.294933-37.973333-25.924267-2.722133-71.3728 32.477866-77.457066z" fill="#F9EFDC" p-id="3307"></path><path d="M230.186667 476.0576c-2.2528 0.221867-14.455467 3.208533-21.188267 4.241067l2.500267-3.780267 18.688-0.4608z" fill="#F9D5BA" p-id="3308"></path><path d="M529.7664 481.109333c29.6192-5.026133 59.665067 1.6128 77.1584 27.204267 6.775467 22.314667-32.170667 49.928533-52.625067 52.445867-21.973333 2.705067-46.865067-11.997867-59.136-29.730134-16.7424-24.200533 11.042133-45.917867 34.602667-49.92z" fill="#513028" p-id="3309"></path><path d="M632.772267 539.613867l12.7744 2.056533 3.8144 4.6592c8.593067 58.0352-59.357867 70.5024-99.857067 44.603733-27.716267 17.211733-80.6656 20.462933-98.363733-11.648-5.666133-10.282667-9.2416-44.356267 5.751466-39.662933 6.929067 2.167467 6.545067 21.0688 12.817067 29.568 10.999467 14.907733 37.563733 15.778133 54.314667 12.1088 7.901867-1.732267 18.3552-12.151467 26.112-12.151467 7.765333 0 18.210133 10.4192 26.120533 12.151467 32.128 7.031467 60.714667-5.7856 56.5248-41.693867z" fill="#502D23" p-id="3310"></path><path d="M262.664533 502.186667c59.989333-13.371733 95.7952 76.270933 43.767467 107.323733-13.149867 7.850667-49.4848 9.1392-63.744 4.48-8.6272-2.816-26.794667-22.690133-29.090133-30.523733-0.503467-1.723733 4.701867-32.622933 5.981866-35.3792 2.210133-4.744533 11.272533-18.944 14.754134-23.381334 5.589333-7.108267 19.822933-20.616533 28.322133-22.519466z" fill="#FAC2A3" p-id="3311"></path><path d="M671.863467 415.104m-19.1744 0a19.1744 19.1744 0 1 0 38.3488 0 19.1744 19.1744 0 1 0-38.3488 0Z" fill="#EEEBE6" p-id="3312"></path><path d="M419.165867 415.010133m-19.3792 0a19.3792 19.3792 0 1 0 38.7584 0 19.3792 19.3792 0 1 0-38.7584 0Z" fill="#F3F0E9" p-id="3313"></path><path d="M777.617067 606.6432c-0.725333-0.6912-9.1392-15.086933-10.1632-17.373867-6.272-13.969067-12.552533-44.706133-5.5552-58.24 2.9184-5.640533 52.992-36.369067 60.091733-37.4272 8.081067-1.2032 31.172267 9.9328 37.666133 16.187734 8.763733 8.439467 25.966933 46.301867 25.984 57.378133 0 4.5312-12.0832 33.629867-15.3856 38.306133-6.562133 9.275733-21.4784 15.2832-32.0768 19.1232-10.615467-4.232533-23.330133-2.833067-33.092266-5.137066-2.449067-0.580267-26.359467-11.767467-27.460267-12.817067z m43.733333-86.792533c-39.995733 10.410667-57.3184 45.226667-18.961067 72.635733 44.168533 31.5648 73.8304-17.7664 50.9184-50.9184-5.623467-8.1408-22.016-21.7088-31.957333-21.717333z" fill="#F9CAAC" p-id="3314"></path><path d="M821.3504 519.850667c9.949867 0 26.333867 13.576533 31.957333 21.717333 22.912 33.152-6.749867 82.4832-50.9184 50.9184-38.357333-27.409067-21.0432-62.225067 18.961067-72.635733z" fill="#FABD9D" p-id="3315"></path></svg>