<?xml version="1.0" standalone="no"?><!DOCTYPE svg PUBLIC "-//W3C//DTD SVG 1.1//EN" "http://www.w3.org/Graphics/SVG/1.1/DTD/svg11.dtd"><svg t="1768660221604" class="icon" viewBox="0 0 1024 1024" version="1.1" xmlns="http://www.w3.org/2000/svg" p-id="2519" xmlns:xlink="http://www.w3.org/1999/xlink" width="256" height="256"><path d="M357.529216 994.602667c-7.0912-0.085333-14.2592 0.068267-21.3504 0l4.258133-25.617067c-37.828267 13.986133-85.8624 16.657067-126.1568 12.987733-49.2032-4.48-106.871467-38.912-121.2928-87.970133-44.288-3.447467-85.111467 5.956267-90.112-50.824533-3.319467-37.691733-4.411733-126.0288 0.256-162.397867 0.878933-6.869333 6.570667-22.152533 10.683734-27.7504 2.466133-3.3536 14.848-12.893867 17.006933-12.893867h151.611733c-4.189867-13.952-10.4192-30.788267-12.714666-44.945066-8.968533-55.458133 2.3296-115.746133 18.005333-169.7024 6.690133-23.0144 26.282667-62.626133 28.8-82.244267 3.976533-31.0528-1.902933-69.8112 0.162133-102.340267 1.834667-28.962133 7.5776-68.343467 13.713067-97.3312 9.813333-46.3872 32.145067-119.338667 91.025067-114.321066 47.496533 4.0448 113.160533 60.014933 149.819733 89.309866 15.863467 4.625067 49.595733-6.920533 67.6096-8.192 55.483733-3.9168 117.486933 0.170667 171.170133 11.8016 41.480533-30.225067 105.053867-88.4224 157.6704-92.919466 57.0112-4.872533 80.401067 64.8704 91.025067 110.045866 17.314133 73.6512 5.188267 131.8656 13.866667 199.662934 3.9936 31.2064 33.058133 87.4496 41.6512 124.910933 26.4192 115.106133 1.015467 227.1744-97.425067 297.7792-25.352533 18.184533-54.766933 29.7216-80.546133 47.095467l15.6416 43.818666 30.916266 139.912534-25.608533 2.116266c-7.022933-59.579733-21.265067-118.493867-40.456533-175.214933l-8.081067-3.771733-42.2144 13.354666c-2.235733 0.580267-2.850133 3.2512-3.208533 3.345067-79.684267 19.7888-164.411733 23.901867-245.4784 16.9984l-74.820267-12.7232-51.242667-17.0752c-1.416533 13.841067 2.321067 30.9248-0.674133 44.168533-1.066667 4.7104-5.640533 8.96-6.9888 14.3616-9.6512 38.647467-18.414933 77.585067-26.504533 116.565334zM195.242283 588.885333c0 13.585067 3.5328 37.7856 12.808533 46.976 1.271467 1.2544-0.426667 3.575467 6.161067 4.394667l151.850666-0.119467c1.416533 5.7856 9.915733 5.777067 12.808534 8.541867 4.215467 4.027733 6.9376 13.713067 12.808533 17.083733l0.093867 132.283734c19.7376 2.039467 39.509333 11.938133 58.4448 16.298666 107.118933 24.695467 216.4736 21.307733 321.664-9.668266 50.705067-14.933333 99.831467-37.794133 140.817066-70.587734 58.129067-46.498133 77.2352-89.796267 85.410134-162.286933 0.0512-0.4352 3.2768 1.800533 4.386133-6.2464 5.6576-41.147733-13.457067-112.622933-26.658133-152.9856-6.050133-18.4832-22.4-47.6416-24.6272-65.058133-3.9936-31.197867 2.0736-70.135467 0.110933-102.613334-2.7904-46.1824-15.701333-121.762133-37.794133-162.926933-24.917333-46.429867-58.103467-30.8992-96.247467-9.181867-33.501867 19.072-66.218667 46.0032-95.138133 71.3984-13.371733 3.968-40.251733-6.0672-55.074134-7.927466-48.9216-6.144-104.644267-6.877867-153.582933 0-13.9264 1.962667-36.974933 12.791467-49.322667 6.434133-34.440533-29.397333-76.194133-65.186133-118.237866-82.466133-21.640533-8.891733-36.48-14.370133-56.644267 1.297066-17.7664 13.815467-32.6656 71.748267-37.538133 94.848-10.325333 48.955733-13.44 108.125867-9.617067 157.115734 3.003733 38.528-21.0944 79.6928-32.068267 117.239466-14.011733 47.9488-19.456 84.445867-19.080533 134.638934 0.0512 7.0144-3.140267 19.9424 4.258133 23.5008z m175.104 271.189334V672.162133l-23.492267-14.941866-290.5856-0.187734c-19.899733 2.705067-30.088533 6.5024-32.0256 27.758934-4.7104 51.549867 3.848533 110.08 0.187733 162.4576l15.470934 22.9632 52.744533 0.426666c14.856533-95.1296 159.1296-84.113067 184.004267-0.1536 16.597333-1.681067 88.951467 7.108267 93.696-10.427733z m-247.7056 44.842666c28.7488 54.024533 113.621333 61.7472 168.593066 55.415467 16.426667-1.8944 35.7632-11.861333 53.026134-13.1584l13.277866-59.332267c-17.211733 1.271467-36.386133-1.8432-53.290666 0.093867-10.8288 1.245867-28.603733 11.050667-38.331734 8.2688l-4.642133-3.925333c-0.597333-7.876267-3.950933-12.245333-6.237867-17.2544-11.511467-25.207467-21.879467-36.9408-50.0224-46.071467-51.908267-16.8448-113.160533 18.107733-82.372266 75.963733z" fill="#4E2B22" p-id="2520"></path><path d="M763.246549 832.315733c11.392-2.321067 8.32 4.949333 10.5984 12.834134 12.245333 42.3424 14.574933 78.933333 19.3792 121.608533 0.9472 8.413867 7.04 17.5104 4.181334 27.844267-126.609067 0.290133-253.482667 0.674133-380.091734 0l4.343467-53.307734 21.282133-104.704 74.820267 12.7232c81.066667 6.903467 165.794133 2.7904 245.4784-16.9984z" fill="#F8F0DF" p-id="2521"></path><path d="M857.207083 994.602667c-19.882667 0.034133-39.9104-0.042667-59.793067 0 2.858667-10.3424-3.234133-19.438933-4.181333-27.844267-4.8128-42.6752-7.133867-79.266133-19.3792-121.608533-2.2784-7.8848 0.7936-15.1552-10.5984-12.834134 0.349867-0.085333 0.964267-2.756267 3.208533-3.345066l42.2144-13.354667 8.081067 3.771733c19.182933 56.721067 33.4336 115.6352 40.456533 175.214934z" fill="#F6C27F" p-id="2522"></path><path d="M442.947883 836.590933l-21.282134 104.704-4.343466 53.307734c-19.874133-0.1024-39.918933 0.247467-59.793067 0 8.0896-38.980267 16.853333-77.917867 26.504533-116.565334 1.348267-5.410133 5.922133-9.6512 6.9888-14.3616 2.9952-13.243733-0.7424-30.318933 0.674134-44.168533l51.242666 17.0752z" fill="#F7C17E" p-id="2523"></path><path d="M998.135083 571.8016c-6.3744-11.912533-13.661867-29.277867-23.3216-38.6048-11.195733-10.820267-26.274133-13.3632-40.738134-16.913067-0.366933-0.085333-0.392533-3.575467-6.126933-4.360533-8.465067-1.160533-23.3216-0.605867-32.3072 0.093867-18.9184 1.4592-30.6432 7.168-46.976 12.808533-21.981867 7.6032-40.277333 18.722133-59.793067 25.6256-6.894933 2.440533-13.986133 3.652267-21.3504 4.266667-9.813333 0.827733-20.036267-0.554667-29.892266 0-43.776-9.642667-49.928533-29.2608-84.155734-46.097067-19.345067-9.514667-50.1248-15.7952-71.6288-13.5936-55.978667 5.717333-74.871467 46.114133-126.08 59.690667-27.1104 2.500267-48.375467-2.7648-72.6016-12.808534-34.013867-14.097067-61.3888-28.782933-100.360533-29.866666-6.826667-0.187733-20.061867-2.986667-23.483733 4.241066-37.026133 5.0432-64.0768 35.054933-64.059734 72.6016-7.406933-3.5584-4.206933-16.4864-4.258133-23.5008-0.375467-50.193067 5.0688-86.6816 19.080533-134.638933 10.973867-37.546667 35.072-78.702933 32.068267-117.239467-3.822933-48.989867-0.7168-108.168533 9.617067-157.115733 4.872533-23.108267 19.771733-81.032533 37.538133-94.848 20.155733-15.675733 35.003733-10.197333 56.644267-1.297067 42.043733 17.28 83.805867 53.0688 118.237866 82.466134 12.347733 6.357333 35.396267-4.471467 49.322667-6.434134 48.9472-6.8864 104.661333-6.152533 153.582933 0 14.8224 1.860267 41.7024 11.895467 55.074134 7.927467 28.919467-25.386667 61.636267-52.3264 95.138133-71.3984 38.144-21.717333 71.338667-37.248 96.247467 9.181867 22.0928 41.1648 35.012267 116.744533 37.794133 162.926933 1.962667 32.469333-4.113067 71.415467-0.110933 102.613333 2.2272 17.408 18.5856 46.574933 24.6272 65.058134 13.201067 40.362667 32.315733 111.829333 26.658133 152.9856-1.109333 8.046933-4.334933 5.8112-4.386133 6.2464zM404.513749 174.609067c1.6128-6.536533-1.467733-6.971733-4.266666-10.6752-9.412267-12.433067-48.7168-49.544533-62.592-52.701867-16-3.6352-25.181867 3.9936-32.298667 17.621333-8.183467 15.684267-15.061333 55.406933-16.341333 73.335467-1.237333 17.3056 1.271467 36.0704 0.187733 53.563733 7.441067 7.842133 42.4192-32.9984 49.024-38.510933 19.106133-15.9488 43.52-32.853333 66.286933-42.641067z m495.394134 85.435733v-79.010133c0-0.853333-3.072-2.449067-3.464534-5.077334-4.642133-31.0784-15.010133-83.5072-56.209066-58.862933-20.445867 12.228267-37.922133 35.0976-55.620267 51.131733 0 4.309333 57.762133 41.847467 66.261333 49.032534 12.5952 10.641067 23.509333 25.813333 36.215467 36.386133 4.3264 3.601067 5.469867 8.157867 12.808533 6.408533z m-462.660267 51.950933c-12.842667 2.798933-21.597867 15.5392-23.5008 27.912534-6.715733 43.665067 72.234667 77.892267 99.771733 39.825066 15.505067-46.455467-34.705067-76.791467-76.270933-67.729066z m277.589333-0.008533c-29.704533 6.510933-60.305067 41.378133-37.077333 69.845333 23.671467 29.013333 89.309867 8.106667 94.020267-25.7024 5.256533-37.76-22.519467-51.694933-56.942934-44.142933zM506.922283 499.131733c2.978133-30.404267-39.586133-60.509867-66.176-63.906133-33.527467-4.2752-83.857067 15.556267-78.856534 55.3728 19.319467 9.591467 25.070933-11.246933 39.552-17.9456 39.338667-18.2016 65.314133 2.210133 91.1616 30.523733l14.318934-4.036266z m320.366933-8.4736c-0.725333-51.626667-72.456533-67.5328-110.984533-44.808533-10.8544 6.4-51.720533 51.080533-27.776 57.608533 11.946667 3.259733 23.048533-16.887467 32.128-23.3728 18.2528-13.038933 53.154133-15.991467 72.456533-4.352 11.264 6.801067 15.675733 23.953067 34.176 14.907734z" fill="#F7C27F" p-id="2524"></path><path d="M737.620949 554.717867c0.366933 0.0768 0.7168 3.5584 6.144 4.334933 7.458133 1.066667 16.0512-0.733867 23.748267-0.068267-1.211733 11.861333-13.7472 20.7616-16.384 32.733867-6.741333 30.677333 16.093867 84.181333 42.103467 101.700267 24.311467 16.366933 50.8416 17.928533 77.8752 24.618666 12.6208 3.1232 31.9488 7.4752 41.608533 16.0512-40.9856 32.7936-90.112 55.6544-140.817067 70.587734-105.1904 30.984533-214.545067 34.363733-321.664 9.668266-18.935467-4.369067-38.7072-14.2592-58.4448-16.298666l-0.093866-132.283734 15.035733-4.087466c4.983467-3.797333 26.094933-39.773867 27.2128-45.806934 0.392533-2.116267-3.5328-28.5696-4.48-32.725333-1.7408-7.620267-10.862933-14.08-7.876267-24.1408 9.028267-0.878933 19.293867 1.297067 28.032 0.085333 5.7088-0.7936 5.76-4.266667 6.126934-4.360533 51.208533-13.576533 70.101333-53.973333 126.08-59.690667 21.495467-2.193067 52.2752 4.078933 71.6288 13.5936 34.2272 16.836267 40.388267 36.4544 84.155733 46.097067zM582.647083 517.205333c-86.340267 12.356267-36.8384 90.282667 23.901866 79.394134 27.963733-5.009067 60.3904-34.5344 39.278934-63.249067-17.8944-12.689067-41.378133-19.259733-63.1808-16.136533z m-62.839467 71.68c-3.643733-3.8912-18.2272 8.541867-17.288533 14.907734 0.017067 4.3776 9.3952 22.152533 12.842666 25.847466 4.8896 5.239467 11.298133 5.367467 12.612267 6.6048 1.416533 1.339733-0.384 28.654933 2.321067 38.254934 15.965867 56.610133 106.6752 59.195733 128.477866-0.059734 4.1472-11.272533 4.189867-30.472533 8.277334-38.698666 2.56-5.1456 14.660267-11.656533 17.3056-16.861867 4.002133-7.876267 1.476267-17.237333 2.0224-25.736533l-16.9216 0.128c0.2048 25.693867-20.983467 34.2784-44.305067 29.073066-7.2704-1.621333-15.6928-9.924267-22.724267-11.528533-13.550933-3.089067-25.173333 9.0368-38.562133 11.392-26.171733 4.608-40.9344-7.534933-44.040533-33.3312z" fill="#F9F0DE" p-id="2525"></path><path d="M934.075349 516.283733c14.464 3.549867 29.5424 6.0928 40.738134 16.913067 9.6512 9.335467 16.9472 26.692267 23.3216 38.6048-8.183467 72.490667-27.2896 115.7888-85.410134 162.286933-9.659733-8.567467-28.987733-12.919467-41.608533-16.0512-27.0336-6.690133-53.572267-8.251733-77.8752-24.618666-26.0096-17.518933-48.8448-71.022933-42.103467-101.700267 2.628267-11.972267 15.172267-20.872533 16.384-32.733867v-4.266666c7.3728-0.622933 14.455467-1.834667 21.3504-4.266667-0.913067 14.190933-15.2576 27.374933-17.0752 40.576-3.7376 27.0848 7.031467 60.680533 27.682134 79.069867 17.2544 15.368533 49.954133 27.639467 72.832 29.8496 6.109867 0.5888 49.536-10.7264 52.488533-13.5936 1.578667-1.536 1.774933-6.801067 4.8128-9.984 6.3744-6.690133 19.677867-16.768 23.6544-23.4496 1.885867-3.165867 13.6704-29.883733 14.2848-32.699734 7.8336-35.754667-13.141333-74.436267-36.6848-99.6864l3.217067-4.2496z" fill="#F9EBD7" p-id="2526"></path><path d="M383.154816 541.909333c-11.229867 7.7056 10.973867 21.265067 16.452267 21.973334 10.3936 27.067733 15.616 52.9152-6.997334 75.050666l-13.730133 9.745067c-2.8928-2.7648-11.392-2.756267-12.808533-8.541867l12.177066-9.1648c2.0736-15.863467 13.576533-26.513067 8.558934-43.6224-0.392533-1.339733-12.561067-21.4784-14.4384-23.978666-6.152533-8.209067-25.403733-27.221333-34.7648-29.294934-22.7584-5.051733-36.189867-2.082133-54.903467 12.032-7.509333 5.6576-25.130667 24.183467-26.973867 32.8192-1.749333 8.2176-0.0768 16.554667-0.776533 24.823467-0.802133 9.489067-7.159467 14.933333 0.2816 27.648l21.1456 4.471467c-9.924267 0.0768-19.959467-0.068267-29.892267 0.008533-3.6352-8.209067-12.177067 1.518933-12.868266-10.496-0.887467-15.4112-1.6384-40.2176 0.896-54.852267 4.4288-25.634133 31.8976-37.5552 50.397866-52.096l-25.617066-2.133333c3.4304-7.236267 16.6656-4.437333 23.483733-4.241067 38.971733 1.083733 66.3552 15.7696 100.360533 29.866667z" fill="#FAD8BE" p-id="2527"></path><path d="M246.493483 635.861333c9.924267-0.0768 19.959467 0.059733 29.892266-0.008533l-21.1456-4.471467c-7.441067-12.714667-1.0752-18.158933-0.2816-27.648 0.699733-8.2688-0.981333-16.605867 0.776534-24.823466 1.8432-8.6272 19.464533-27.153067 26.973866-32.8192 18.7136-14.114133 32.145067-17.083733 54.903467-12.032 9.361067 2.082133 28.603733 21.0944 34.7648 29.294933 1.877333 2.500267 14.045867 22.638933 14.4384 23.978667 5.0176 17.117867-6.485333 27.758933-8.558933 43.6224l-12.177067 9.1648-151.850667 0.119466c-6.587733-0.8192-4.8896-3.140267-6.161066-4.394666 12.7744-0.068267 25.659733 0.1024 38.434133 0z m66.901333-80.426666c-14.890667 3.2768-43.426133 30.9504-40.695467 47.522133 1.28 7.7568 7.483733 20.002133 12.014934 26.7264 4.215467 2.833067 59.0336 3.524267 65.9712 1.4848 5.597867-1.6384 14.2592-22.5024 14.762666-28.066133 0.6656-7.432533-20.8896-45.9776-27.554133-47.940267-7.9872-0.631467-16.631467-1.442133-24.4992 0.2816z" fill="#F8C8AC" p-id="2528"></path><path d="M259.310549 516.283733l25.617067 2.133334c-18.5088 14.5408-45.969067 26.461867-50.397867 52.096-2.5344 14.6432-1.783467 39.441067-0.896 54.852266 0.6912 12.023467 9.233067 2.286933 12.868267 10.496-12.7744 0.1024-25.659733-0.068267-38.434133 0-9.275733-9.1904-12.808533-33.399467-12.808534-46.976-0.017067-37.546667 27.0336-67.5584 64.059734-72.6016z" fill="#FAEBD8" p-id="2529"></path><path d="M455.756416 554.717867c-0.366933 0.093867-0.418133 3.575467-6.126933 4.360533-8.738133 1.211733-19.003733-0.9728-28.032-0.085333-2.986667 10.0608 6.135467 16.520533 7.876266 24.1408 0.9472 4.1472 4.872533 30.609067 4.48 32.725333-1.117867 6.033067-22.237867 42.0096-27.2128 45.806933l-15.035733 4.087467c-5.870933-3.370667-8.593067-13.056-12.808533-17.083733l13.730133-9.745067c22.613333-22.144 17.390933-47.982933 6.997333-75.050667-5.486933-0.708267-27.682133-14.267733-16.452266-21.973333 24.226133 10.043733 45.4912 15.3088 72.6016 12.808533z" fill="#FAE5CD" p-id="2530"></path><path d="M934.075349 516.283733l-3.217066 4.2496c23.543467 25.250133 44.5184 63.931733 36.6848 99.6864-0.6144 2.807467-12.398933 29.533867-14.2848 32.699734-3.976533 6.6816-17.28 16.768-23.6544 23.4496-3.029333 3.182933-3.234133 8.448-4.8128 9.984-2.952533 2.875733-46.378667 14.190933-52.488534 13.5936-22.869333-2.210133-55.5776-14.481067-72.832-29.8496-20.650667-18.389333-31.428267-51.985067-27.682133-79.069867 1.826133-13.201067 16.170667-26.385067 17.0752-40.576 19.515733-6.903467 37.802667-18.0224 59.793067-25.6256 9.4464 3.601067-6.203733 9.762133-8.490667 10.7264-6.570667 2.7648-16.093867 3.8144-21.435733 8.456533-2.013867 1.757867-18.944 23.1424-20.770134 26.205867-18.6368 31.240533 1.476267 70.6816 27.127467 91.349333 18.5088 14.907733 21.2992 10.999467 42.683733 12.808534 4.411733 0.375467 8.584533 4.138667 12.910934 4.155733 4.7616 0.017067 28.4672-7.338667 32.068266-10.5984 3.575467-3.234133 4.0448-8.379733 6.4256-10.7776 3.345067-3.362133 8.405333-3.575467 9.685334-5.111467 1.954133-2.338133 16.955733-25.898667 17.408-27.460266 2.4832-8.610133 1.467733-35.566933-1.314134-44.4416-8.738133-27.8272-33.066667-53.589333-62.1312-59.588267l12.808534-8.533333c8.9856-0.6912 23.842133-1.2544 32.3072-0.093867 5.7344 0.785067 5.76 4.2752 6.126933 4.360533z" fill="#F9DFC6" p-id="2531"></path><path d="M899.907883 260.0448c-7.338667 1.757867-8.490667-2.807467-12.808534-6.408533-12.706133-10.5728-23.6288-25.745067-36.215466-36.386134-8.490667-7.176533-66.261333-44.714667-66.261334-49.032533 17.698133-16.034133 35.1744-38.894933 55.620267-51.131733 41.198933-24.644267 51.566933 27.784533 56.209067 58.862933 0.392533 2.6368 3.464533 4.232533 3.464533 5.077333v79.010134z" fill="#F8C6B6" p-id="2532"></path><path d="M404.513749 174.609067c-22.766933 9.787733-47.1808 26.692267-66.286933 42.641066-6.6048 5.512533-41.591467 46.353067-49.024 38.510934 1.0752-17.493333-1.4336-36.258133-0.187733-53.563734 1.28-17.937067 8.157867-57.659733 16.341333-73.335466 7.1168-13.627733 16.290133-21.256533 32.298667-17.621334 13.8752 3.1488 53.179733 40.2688 62.592 52.701867 2.798933 3.694933 5.879467 4.138667 4.266666 10.6752z" fill="#F9C9BA" p-id="2533"></path><path d="M895.641216 512.017067l-12.808533 8.533333c29.064533 6.007467 53.393067 31.761067 62.1312 59.588267 2.781867 8.874667 3.797333 35.831467 1.314133 44.4416-0.452267 1.5616-15.453867 25.122133-17.408 27.460266-1.28 1.536-6.3488 1.749333-9.685333 5.111467-2.3808 2.397867-2.858667 7.543467-6.4256 10.7776-3.601067 3.259733-27.306667 10.615467-32.068267 10.5984-4.334933-0.008533-8.507733-3.780267-12.910933-4.155733-21.384533-1.809067-24.174933 2.107733-42.683734-12.808534-25.659733-20.676267-45.764267-60.1088-27.127466-91.349333 1.826133-3.063467 18.756267-24.448 20.770133-26.205867 5.333333-4.650667 14.856533-5.691733 21.435733-8.456533 2.286933-0.964267 17.937067-7.125333 8.490667-10.7264 16.3328-5.649067 28.066133-11.349333 46.976-12.808533z m16.298667 43.477333c-25.540267-19.157333-57.5488-25.028267-82.670934-0.938667-26.948267 25.847467-23.4752 70.340267 6.6816 91.8784 35.4048 25.284267 82.517333 6.894933 94.071467-34.176-2.901333-20.736-8.661333-38.263467-18.090667-56.763733z" fill="#F9D2B6" p-id="2534"></path><path d="M714.836949 311.9872c34.432-7.552 62.208 6.382933 56.942934 44.142933-4.7104 33.809067-70.3488 54.715733-94.020267 25.7024-23.227733-28.4672 7.364267-63.3344 37.077333-69.845333z" fill="#F8EFDD" p-id="2535"></path><path d="M437.247616 311.995733c41.565867-9.0624 91.776 21.2736 76.270933 67.729067-27.537067 38.0672-106.487467 3.848533-99.771733-39.825067 1.902933-12.373333 10.658133-25.1136 23.5008-27.912533z" fill="#F9F0DD" p-id="2536"></path><path d="M827.289216 490.658133c-18.5088 9.045333-22.912-8.1152-34.176-14.907733-19.3024-11.648-54.212267-8.686933-72.456533 4.352-9.070933 6.485333-20.1728 26.632533-32.128 23.3728-23.944533-6.536533 16.9216-51.208533 27.776-57.608533 38.528-22.7328 110.2592-6.818133 110.984533 44.808533z" fill="#533028" p-id="2537"></path><path d="M506.922283 499.131733l-14.318934 4.036267c-25.856-28.3136-51.831467-48.725333-91.1616-30.523733-14.481067 6.7072-20.232533 27.537067-39.552 17.9456-5.000533-39.816533 45.3376-59.648 78.856534-55.3728 26.589867 3.387733 69.154133 33.501867 66.176 63.906133z" fill="#56322A" p-id="2538"></path><path d="M767.521749 554.717867v4.266666c-7.697067-0.674133-16.290133 1.134933-23.748266 0.068267-5.4272-0.776533-5.777067-4.258133-6.144-4.334933 9.856-0.554667 20.087467 0.827733 29.892266 0z" fill="#F9DFC6" p-id="2539"></path><path d="M519.807616 588.885333c3.106133 25.796267 17.8688 37.9392 44.040533 33.3312 13.3888-2.3552 25.019733-14.481067 38.562134-11.392 7.04 1.604267 15.453867 9.9072 22.724266 11.528534 23.3216 5.1968 44.509867-3.3792 44.305067-29.073067l16.9216-0.128c-0.5376 8.507733 1.988267 17.860267-2.0224 25.736533-2.645333 5.205333-14.7456 11.716267-17.3056 16.861867-4.087467 8.2176-4.130133 27.426133-8.277333 38.698667-21.794133 59.255467-112.512 56.661333-128.477867 0.059733-2.705067-9.6-0.904533-36.9152-2.321067-38.254933-1.3056-1.245867-7.722667-1.365333-12.612266-6.6048-3.447467-3.694933-12.8256-21.4784-12.842667-25.847467-0.938667-6.365867 13.653333-18.798933 17.288533-14.907733z m123.869867 55.5264c-15.761067 6.4-38.6304-12.945067-49.117867-12.9536-2.030933 0-31.368533 10.7776-38.4 12.9792-4.4288 1.3824-7.7568 1.211733-10.436267 6.314667 5.691733 12.4672 4.471467 21.3248 14.574934 32.187733 31.889067 34.295467 83.805867 6.2208 83.387733-38.536533z" fill="#533128" p-id="2540"></path><path d="M582.647083 517.205333c21.8112-3.1232 45.2864 3.447467 63.1808 16.136534 21.102933 28.7232-11.3152 58.24-39.278934 63.249066-60.740267 10.888533-110.242133-67.037867-23.901866-79.394133z" fill="#54322B" p-id="2541"></path><path d="M313.394816 555.434667c7.867733-1.732267 16.512-0.913067 24.4992-0.2816 6.673067 1.9712 28.228267 40.507733 27.554133 47.940266-0.503467 5.563733-9.173333 26.427733-14.762666 28.066134-6.9376 2.039467-61.755733 1.348267-65.9712-1.4848-4.5312-6.715733-10.734933-18.9696-12.014934-26.7264-2.7392-16.5632 25.8048-44.245333 40.695467-47.522134z" fill="#FBB99D" p-id="2542"></path><path d="M911.939883 555.4944c9.4208 18.500267 15.189333 36.0192 18.090666 56.763733-11.554133 41.070933-58.658133 59.4688-94.071466 34.176-30.1568-21.538133-33.6384-66.030933-6.6816-91.8784 25.122133-24.0896 57.130667-18.218667 82.670933 0.938667z m-51.822934-0.315733c-40.337067 14.6176-37.521067 70.587733 4.1728 79.9744 15.5904 3.5072 37.102933-4.829867 42.1888-20.48 11.3152-34.807467-13.3888-57.591467-46.370133-59.502934z" fill="#F9C6A9" p-id="2543"></path><path d="M643.677483 644.411733c0.418133 44.757333-51.498667 72.832-83.387734 38.536534-10.094933-10.862933-8.874667-19.720533-14.574933-32.187734 2.688-5.111467 6.016-4.932267 10.436267-6.314666 7.031467-2.2016 36.3776-12.9792 38.4-12.9792 10.487467 0 33.3568 19.3536 49.117866 12.9536z" fill="#F08776" p-id="2544"></path><path d="M370.346283 860.074667c-4.744533 17.536-77.098667 8.746667-93.696 10.427733-24.8832-83.959467-169.156267-94.976-184.004267 0.1536l-52.744533-0.426667-15.470934-22.9632c3.669333-52.3776-4.898133-110.907733-0.187733-162.4576 1.9456-21.256533 12.1344-25.0624 32.0256-27.758933l290.5856 0.187733 23.492267 14.941867v187.912533zM283.323349 674.833067c-21.922133 12.970667-17.194667 38.5536 8.0128 42.171733 33.902933 4.864 84.676267-6.306133 46.4384-42.171733H283.314816z m-98.048 42.743466c-46.1056 10.402133-49.9712 74.299733-0.648533 80.494934 38.869333 4.881067 68.667733-30.1056 42.555733-63.889067-7.406933-9.582933-30.276267-19.234133-41.915733-16.605867z" fill="#D1D1D2" p-id="2545"></path><path d="M255.035349 875.025067c2.286933 5.009067 5.640533 9.378133 6.237867 17.2544l4.642133 3.925333c9.728 2.781867 27.502933-7.022933 38.331734-8.2688 16.896-1.9456 36.078933 1.1776 53.290666-0.093867l-13.277866 59.332267c-17.262933 1.297067-36.599467 11.264-53.026134 13.1584-54.9632 6.331733-139.844267-1.390933-168.593066-55.415467 30.839467 8.576 55.364267 10.461867 86.562133 3.285334 16.853333-3.874133 47.7184-10.436267 45.832533-33.1776z" fill="#F5C07E" p-id="2546"></path><path d="M255.035349 875.025067c1.885867 22.741333-28.9792 29.303467-45.832533 33.1776-31.197867 7.176533-55.722667 5.290667-86.562133-3.285334-30.788267-57.856 30.464-92.808533 82.372266-75.963733 28.1344 9.130667 38.510933 20.855467 50.0224 46.071467z" fill="#F8EFDC" p-id="2547"></path><path d="M185.275349 717.576533c11.639467-2.628267 34.5088 7.022933 41.915734 16.605867 26.103467 33.774933-3.694933 68.7616-42.555734 63.889067-49.322667-6.186667-45.457067-70.0928 0.648534-80.494934z" fill="#EDEDEC" p-id="2548"></path><path d="M283.323349 674.833067h54.459734c38.237867 35.8656-12.535467 47.035733-46.4384 42.171733-25.207467-3.618133-29.934933-29.201067-8.0128-42.171733z m54.272 19.822933c0-4.949333-4.010667-8.96-8.96-8.96s-8.96 4.010667-8.96 8.96 4.010667 8.96 8.96 8.96 8.96-4.010667 8.96-8.96z" fill="#523027" p-id="2549"></path><path d="M328.635349 694.656m-8.96 0a8.96 8.96 0 1 0 17.92 0 8.96 8.96 0 1 0-17.92 0Z" fill="#D6D5D6" p-id="2550"></path><path d="M860.116949 555.178667c32.9728 1.911467 57.685333 24.695467 46.370134 59.502933-5.085867 15.650133-26.606933 23.9872-42.1888 20.48-41.7024-9.386667-44.5184-65.3568-4.1728-79.9744z" fill="#FABB9B" p-id="2551"></path></svg>