<?xml version="1.0" standalone="no"?><!DOCTYPE svg PUBLIC "-//W3C//DTD SVG 1.1//EN" "http://www.w3.org/Graphics/SVG/1.1/DTD/svg11.dtd"><svg t="1768660273325" class="icon" viewBox="0 0 1024 1024" version="1.1" xmlns="http://www.w3.org/2000/svg" p-id="5752" xmlns:xlink="http://www.w3.org/1999/xlink" width="256" height="256"><path d="M188.8256 1015.168c-6.8096-0.085333-13.696 0.068267-20.497067 0-5.034667-5.034667 13.841067-100.625067 17.348267-115.8656 6.7072-29.1584 16.964267-57.4208 23.441067-86.6304-2.235733-7.978667-38.212267-17.3056-47.812267-22.0416C11.938133 716.919467-23.3216 588.381867 13.448533 431.991467c9.506133-40.439467 26.641067-67.003733 23.6544-111.428267-4.770133-70.894933-6.152533-172.535467 23.867734-238.600533 47.9232-105.4464 166.280533-1.518933 228.241066 35.822933l102.314667-16.750933c28.7232 1.3824 57.736533-1.2032 86.4256 0 14.395733 0.605867 27.178667 6.6816 44.893867 4.2752 14.216533-1.928533 43.118933-34.363733 57.301333-45.1584 18.952533-14.4384 58.026667-39.936 79.7952-47.2576 69.521067-23.389867 98.602667 49.595733 113.9712 103.662933 15.223467 53.589333 17.006933 96.512 21.572267 150.562133 4.053333 48.059733 10.0352 57.949867 26.632533 100.420267 38.792533 99.3024 59.025067 199.68 1.3312 296.576-26.666667 44.791467-67.054933 75.093333-109.986133 103.0912 27.972267 38.656 36.9408 90.999467 0.477866 127.556267l19.976534 120.405333c-6.801067 0.068267-13.687467-0.0768-20.488534 0l-22.4256-102.596267-4.1472-3.6096c-12.817067 5.009067-37.3504 5.8112-51.3024 3.746134-17.544533-2.602667-28.919467-15.104-40.9856-24.593067l12.296534-12.296533c35.2768 27.869867 100.565333 24.32 109.858133-27.426134 4.727467-26.333867-14.045867-62.481067-30.114133-83.054933-5.674667-7.261867-13.124267-11.2128-18.269867-16.571733-2.645333-2.756267-5.597867-9.813333-8.200533-12.296534l6.144-8.174933 28.458666 24.439467c2.1248-0.554667 2.005333-3.822933 2.286934-3.968 66.602667-33.425067 119.1424-97.0496 135.150933-170.3168 0.9984-4.573867-0.5888-9.864533 0.1024-14.114134 0.110933-0.699733 3.336533-2.645333 4.096-12.296533 0.213333-2.705067-0.128-5.4784 0-8.200533 2.517333-54.801067-11.8272-104.900267-30.6688-155.810134-7.790933-21.060267-28.091733-55.1424-30.737067-75.8272-2.2784-17.7664 1.245867-39.125333 0.110934-57.489066-3.012267-48.836267-17.937067-137.361067-40.277334-181.034667-9.565867-18.696533-25.472-41.454933-47.957333-42.402133-41.352533-1.749333-119.313067 72.251733-152.2176 98.0992-14.805333 4.292267-27.630933-3.063467-40.2944-3.7632-69.504-3.822933-141.781333-0.128-209.169067 16.8704-11.758933 0.2048-24.96-15.786667-35.054933-22.664534-28.398933-19.336533-70.016-47.496533-102.1184-57.719466-19.421867-6.186667-31.9488-9.1136-49.2544 4.343466-16.1792 12.578133-28.817067 61.294933-32.725333 82.030934-11.741867 62.2848-11.042133 129.8432-4.309334 192.5632 1.962667 18.321067-10.487467 40.106667-15.3344 58.2912-18.5088 69.444267-31.598933 123.6736-17.390933 193.681066 10.8032 53.1968 28.0832 90.871467 69.674667 127.0528 89.3696 77.7472 225.8432 105.9072 342.4 98.542934 12.023467-0.759467 24.746667-7.330133 38.570666-4.462934 4.189867-10.0352 3.089067-21.504 7.509334-31.419733 7.176533-16.1024 23.074133-29.525333 33.664-42.1632l14.481066 3.84 9.719467 31.061333c-2.7392 4.224-7.313067 7.048533-12.0576 8.3456-3.959467 1.083733-3.720533-2.304-3.950933-2.261333v-20.488533l-16.0256 18.9952-0.3328 3.413333c0.605867 2.730667 3.771733 1.902933 4.0704 2.184533 5.828267 5.461333 11.810133 3.754667 16.366933 10.24l-8.1664 14.353067-24.584533-12.288-4.104534 45.0816c-2.7904-5.051733-8.712533-10.922667-14.4896-11.776-1.322667-0.196267-1.314133 3.191467-1.911466 3.575467-10.001067 6.493867-57.7792 4.701867-76.689067 7.5008-4.650667 0.6912-6.784-3.4048-7.330133-3.4048h-65.578667c-5.896533 0-41.770667-6.306133-51.234133-8.200534-0.315733-0.059733-0.887467-2.9184-2.935467-3.345066-7.082667-1.476267-44.706133-10.7776-46.208-8.9344-15.940267 65.058133-33.749333 129.800533-41.028267 196.718933z" fill="#502F25" p-id="5753"></path><path d="M479.8208 834.833067l-4.096 57.386666c6.749867 7.0144 77.354667-28.091733 91.8272-28.509866 6.331733 3.771733 7.1936 11.4176 12.4928 16.375466 4.343467 4.061867 10.837333 5.128533 14.523733 8.029867 12.066133 9.489067 23.441067 21.9904 40.9856 24.593067 7.287467 26.282667 7.483733 52.949333 8.174934 79.931733 0.213333 8.0896-1.194667 15.419733 4.113066 22.528-132.4288 0.503467-265.130667 0.6656-397.550933 0 5.307733-7.108267 3.908267-14.4384 4.113067-22.528 0.580267-22.314667 0.9728-43.648 4.155733-65.5104 4.718933-32.469333 16.008533-63.889067 20.420267-96.384 9.463467 1.8944 45.3376 8.200533 51.234133 8.200533h65.578667c0.554667 0 2.679467 4.096 7.330133 3.4048 18.909867-2.807467 66.688-1.015467 76.689067-7.5008z" fill="#F9F0DE" p-id="5754"></path><path d="M278.997333 830.737067c-4.4032 32.494933-15.701333 63.9232-20.420266 96.384-3.182933 21.8624-3.575467 43.195733-4.155734 65.5104-0.213333 8.0896 1.194667 15.419733-4.113066 22.528-20.437333-0.1024-41.045333 0.264533-61.474134 0 7.278933-66.9184 25.088-131.6608 41.028267-196.718934 1.501867-1.8432 39.125333 7.458133 46.208 8.9344 2.048 0.426667 2.619733 3.285333 2.935467 3.345067z" fill="#F6C27F" p-id="5755"></path><path d="M844.586667 289.732267c-4.0192-15.266133 8.413867-29.422933 8.4992-43.016534 0.0768-11.400533-10.9056-24.439467-12.535467-36.9664-3.780267-28.987733 8.260267-64.981333 30.600533-84.0192 41.7024-35.549867 106.248533-26.3424 136.8064 19.080534 28.893867 42.948267 17.501867 96.674133-24.132266 126.3872-20.753067 14.805333-46.472533 17.595733-71.552 14.378666-6.8352-0.878933-14.907733-6.570667-20.5312-6.673066-9.361067-0.170667-42.410667 15.573333-47.163734 10.837333z m24.6016-24.584534c26.871467-19.601067 42.555733 9.122133 75.025066 3.3024 62.173867-11.153067 83.182933-91.767467 33.655467-130.432-34.747733-27.127467-78.6432-20.224-104.669867 14.344534-6.408533 8.516267-16.264533 31.086933-16.264533 41.0624-0.008533 14.882133 15.044267 37.1968 16.452267 49.220266 1.109333 9.472-3.746133 14.1056-4.1984 22.5024z" fill="#4C2C25" p-id="5756"></path><path d="M713.429333 1015.168c-21.802667 0.256-43.767467-0.085333-65.578666 0-5.307733-7.108267-3.908267-14.4384-4.113067-22.528-0.699733-26.9824-0.896-53.640533-8.174933-79.931733 13.952 2.065067 38.485333 1.262933 51.3024-3.746134l4.1472 3.6096 22.4256 102.596267z" fill="#F5C280" p-id="5757"></path><path d="M836.386133 543.8464c-7.3472-10.5984-11.178667-25.454933-20.334933-34.9952-11.016533-11.4944-39.790933-24.823467-55.586133-26.402133-10.5216-1.0496-20.420267 2.346667-30.6432 4.0192-43.0592 7.074133-54.8352 21.137067-90.1632 36.8896-6.024533 2.688-27.784533 11.008-32.785067 12.296533-1.169067 0.298667-2.688-0.1536-4.096 0-11.648 1.297067-24.942933-0.896-36.8896 0-33.928533-9.0112-43.588267-23.7824-70.843733-37.768533-33.9712-17.442133-73.9584-18.6112-109.550934-5.3248-42.112 15.7184-52.3264 54.9376-106.496 59.485866-8.072533 0.674133-16.477867-0.452267-24.593066 0l-40.9856-12.296533c-24.439467-11.8272-56.302933-22.4256-83.84-24.772267-7.944533-0.674133-25.386667-2.372267-30.916267 4.2752-9.1904 0.750933-10.0608 3.490133-12.296533 4.096-4.608 1.2544-8.6528 0.034133-15.197867 3.217067-24.6784 12.023467-42.197333 38.4256-42.180267 66.4576-14.216533-70.007467-1.117867-124.245333 17.390934-193.681067 4.846933-18.184533 17.297067-39.970133 15.3344-58.2912-6.7328-62.72-7.432533-130.2784 4.309333-192.5632 3.908267-20.736 16.546133-69.4528 32.725333-82.030933 17.3056-13.457067 29.832533-10.530133 49.2544-4.343467 32.1024 10.222933 73.719467 38.391467 102.1184 57.719467 10.094933 6.869333 23.287467 22.8608 35.054934 22.664533 67.387733-16.9984 139.665067-20.701867 209.169066-16.8704 12.663467 0.699733 25.480533 8.055467 40.2944 3.7632C567.552 103.543467 645.504 29.533867 686.856533 31.291733c22.485333 0.955733 38.391467 23.7056 47.957334 42.402134 22.340267 43.6736 37.265067 132.1984 40.277333 181.034666 1.134933 18.363733-2.389333 39.722667-0.110933 57.489067 2.645333 20.676267 22.946133 54.766933 30.737066 75.8272 18.8416 50.909867 33.194667 101.009067 30.6688 155.810133zM717.533867 236.458667v-67.626667c0-0.810667-2.944-2.346667-3.319467-4.872533-3.746133-24.942933-12.3904-78.0544-47.274667-70.2976-14.907733 3.310933-63.940267 48.145067-64.221866 62.7968l21.956266 10.973866 92.859734 69.034667z m-610.670934 28.689066c35.2768-32.904533 68.9152-66.9952 110.600534-92.202666-11.52-18.705067-51.575467-54.9632-72.3968-58.9824-21.239467-4.096-34.628267 31.061333-37.435734 47.4624-2.321067 13.559467-0.6144 30.020267-0.861866 44.194133-0.170667 9.915733-0.3328 14.395733 0 24.8064 0.375467 11.5712-0.085333 23.1936 0.085333 34.730667z m445.525334 29.525334c-30.882133 4.155733-65.4592 30.523733-54.331734 64.938666 13.474133 41.659733 100.599467 16.520533 100.932267-30.9248 0.162133-23.645867-25.489067-36.855467-46.600533-34.013866z m-274.4832 12.0832c-63.342933 9.480533-43.264 74.717867 12.117333 84.642133 35.1232 6.2976 55.799467-10.402133 50.5344-46.421333-2.909867-19.874133-44.8512-40.891733-62.651733-38.229334z m42.077866 130.525866c-5.358933-7.278933-7.953067-11.665067-16.392533-16.392533-17.220267-9.6512-45.303467-12.416-62.882133-3.456-38.109867 19.421867-45.994667 66.176-17.1264 97.809067 51.950933 56.917333 144.964267-11.989333 96.401066-77.960534z m327.867734 32.785067c-0.068267-38.289067-51.293867-40.4736-79.8464-36.8128-18.295467 2.346667-52.9408 25.5488-47.172267 47.035733 1.749333 6.510933 5.777067 5.230933 10.8544 2.722134 14.3872-7.099733 27.0336-18.816 44.5184-21.0688 27.460267-3.541333 45.969067 6.971733 71.6544 8.123733z" fill="#F7C17E" p-id="5758"></path><path d="M565.888 535.645867c10.103467 2.688 21.376 7.0144 34.466133 3.652266l2.414934-3.652266c1.408-0.1536 2.926933 0.298667 4.096 0l-4.130134 38.775466c3.968 14.6432 6.101333 27.357867 16.426667 39.0912-4.804267 5.717333-10.308267 17.143467-16.392533 24.593067-19.652267 24.029867-42.368 46.2848-57.378134 73.770667-12.526933 5.376-16.631467 19.191467-24.593066 28.689066-10.589867 12.637867-26.487467 26.052267-33.664 42.1632-4.420267 9.924267-3.319467 21.393067-7.509334 31.419734-13.815467-2.8672-26.5472 3.703467-38.570666 4.462933-116.5568 7.3728-253.0304-20.795733-342.4-98.542933l42.9568-4.232534 19.797333-0.776533c21.0176-2.176 29.329067-5.896533 47.735467-13.602133 5.316267-2.2272 11.451733-1.143467 16.631466-3.857067 10.359467-5.4272 30.242133-27.0592 36.3008-37.469867 9.181867-15.7696 14.583467-47.189333 12.9792-65.2288-0.989867-11.118933-7.210667-22.6304-8.448-32.605866-1.390933-11.255467 9.8816-2.594133 12.373334-10.257067 54.178133-4.548267 64.384-43.767467 106.496-59.485867 35.592533-13.2864 75.579733-12.117333 109.550933 5.3248 27.246933 13.986133 36.906667 28.757333 70.843733 37.768534zM406.050133 621.7216l-28.552533-10.402133 1.792-14.318934c15.906133-18.500267 35.310933-5.162667 56.695467-8.874666 26.538667-4.599467 71.970133-35.0976 49.885866-64.6912-25.284267-33.8688-145.834667-18.056533-104.7808 42.990933-2.346667 6.852267-12.8512 8.430933-15.2832 10.939733-1.322667 1.365333-8.686933 18.926933-9.0368 21.8368-1.698133 14.327467 8.413867 20.5824 8.413867 28.654934 0 6.237867-6.357333 11.3408-7.68 17.032533-6.749867 28.9792 23.808 50.048 50.577067 46.506667 13.696-1.809067 26.871467-13.354667 12.373333-24.251734-16.597333 8.823467-33.058133 4.881067-42.820267-10.9824-4.189867-19.498667 22.203733-15.837867 26.4448-22.0672l1.962667-12.373333z" fill="#F9EFDE" p-id="5759"></path><path d="M836.386133 543.8464c-0.128 2.7136 0.213333 5.495467 0 8.200533l-3.652266 2.56-0.452267 9.736534c-0.682667 4.2496 0.904533 9.540267-0.1024 14.114133-16.008533 73.2672-68.548267 136.891733-135.150933 170.3168 0.042667-3.0976-2.525867-3.0208-4.096-4.096 0.674133-5.9648-2.244267-11.016533-8.200534-12.296533v-16.392534l4.096-4.096c16.1024-21.051733 37.504-40.6016 53.282134-61.474133 4.053333-1.399467 18.645333-0.861867 20.48-1.9456 2.432-1.4336 17.6384-21.358933 19.933866-25.258667 4.718933-7.9872 11.630933-23.406933 12.791467-32.290133 3.7632-28.7744-8.209067-77.371733-36.881067-90.0352-9.429333-4.164267-23.936-1.928533-28.629333-14.404267 10.222933-1.681067 20.1216-5.077333 30.6432-4.0192 15.7952 1.578667 44.5696 14.907733 55.586133 26.402134 9.156267 9.5488 12.9792 24.405333 20.334934 34.9952z" fill="#F7E9D5" p-id="5760"></path><path d="M586.376533 715.9808c9.096533-0.8448 28.5952-1.4592 36.8896 0 1.536 0.273067 26.845867 11.178667 28.689067 12.296533 0.494933 0.298667 5.9392 6.0416 8.200533 8.200534 2.594133 2.4832 5.5552 9.540267 8.200534 12.296533-5.870933 35.541333-30.779733 76.526933-59.3408 98.440533-5.512533 4.224-11.255467 8.0128-18.525867 8.1152-2.6368-2.858667-8.516267-5.376-12.3648-10.1888-18.773333-23.3984-34.577067-59.2128-27.946667-89.557333 1.885867-8.610133 17.083733-29.678933 23.918934-35.5072 3.285333-2.798933 8.0128-3.703467 12.296533-4.096z" fill="#F8EEDE" p-id="5761"></path><path d="M86.365867 523.349333c13.661867-0.853333 7.543467 2.090667 2.056533 8.200534-24.448 27.229867-32.938667 67.857067-30.2336 103.995733 18.3552 16.768 46.1568 56.456533 71.2192 59.938133 25.0112 3.473067 66.1248-1.399467 88.081067-14.370133 8.2688-4.881067 24.533333-24.277333 27.844266-33.6384 10.683733-30.190933 13.252267-57.770667-1.3568-87.057067-6.1696-12.356267 4.352-8.072533 10.427734-8.379733 8.106667-0.452267 16.520533 0.674133 24.593066 0-2.491733 7.662933-13.764267-0.9984-12.373333 10.257067 1.2288 9.966933 7.458133 21.486933 8.448 32.605866 1.604267 18.048-3.805867 49.4592-12.9792 65.2288-6.058667 10.4192-25.941333 32.0512-36.3008 37.469867-5.179733 2.7136-11.323733 1.629867-16.631467 3.857067-18.4064 7.7056-26.717867 11.434667-47.735466 13.602133l-19.797334 0.776533-42.9568 4.232534c-41.591467-36.181333-58.871467-73.856-69.674666-127.0528-0.017067-28.032 17.501867-54.434133 42.180266-66.4576 6.536533-3.182933 10.589867-1.9712 15.197867-3.217067z" fill="#FAE8D4" p-id="5762"></path><path d="M750.318933 605.320533c4.974933 6.596267 5.896533 22.4256 3.592534 30.225067-0.725333 2.440533-8.712533 10.786133-11.784534 14.856533-15.7696 20.872533-37.179733 40.430933-53.282133 61.474134l-2.048-4.078934-5.794133 6.2208 3.7376 1.954134v16.392533l-2.286934 3.950933c2.8928 4.232533 6.741333 5.777067 10.487467 8.3456 1.570133 1.0752 4.138667 0.9984 4.096 4.096-0.273067 0.136533-0.162133 3.413333-2.286933 3.968l-28.458667-24.439466-6.144 8.174933c-2.2528-2.158933-7.697067-7.893333-8.200533-8.200533l3.217066-6.152534c-8.661333-6.459733-3.456-10.248533-4.283733-15.650133-0.554667-3.6096-2.8928-6.724267-3.029333-10.9824-0.110933-3.387733 0.093867-5.179733 1.928533-8.183467 3.703467-6.024533 34.926933-35.242667 34.926933-38.954666l-18.397866-14.344534c-9.0624 13.354667-20.488533 24.6016-30.762667 36.8896l-8.200533-12.296533c5.819733-7.261867 15.086933-19.5584 19.899733-27.229867 4.3264-6.903467 5.973333-8.209067-1.4592-13.730133l-30.737067 32.768-12.296533-12.296533c6.0928-7.4496 11.588267-18.875733 16.392533-24.593067 3.797333-4.514133 10.7776-9.8816 16.392534-16.392533 6.8352-7.918933 13.3888-17.041067 20.488533-24.593067 2.8928-3.080533 3.9936-6.638933 6.673067-8.4224 16.785067-11.204267 29.917867-7.4496 46.5152 2.372267 13.056 7.7312 31.8464 26.606933 41.079466 38.843733z m-71.3984-28.4928c-1.9456 0.554667-19.5328 23.773867-18.7648 26.4192l59.409067 43.0592 18.048-22.493866c-5.367467-14.097067-46.011733-50.594133-58.683733-46.984534z m22.212267 81.774934c-13.303467-0.2816-17.8944 14.830933-24.507733 22.613333-7.8336 9.224533-20.608 16.401067-20.565334 30.651733 7.5776 1.621333 9.728-4.138667 14.336-8.192 9.472-8.337067 16.4352-18.9696 24.618667-28.654933 4.872533-5.768533 7.8848-7.304533 6.1184-16.418133z" fill="#55332B" p-id="5763"></path><path d="M606.8736 875.818667c-4.155733-3.285333-11.997867-15.7184-16.392533-20.488534 7.278933-0.1024 13.021867-3.8912 18.525866-8.1152 28.561067-21.922133 53.469867-62.8992 59.3408-98.440533 5.1456 5.3504 12.5952 9.309867 18.269867 16.571733 16.068267 20.573867 34.8416 56.721067 30.114133 83.054934-9.2928 51.746133-74.589867 55.296-109.858133 27.426133z" fill="#F4BE7A" p-id="5764"></path><path d="M574.088533 720.0768c-6.843733 5.828267-22.0416 26.897067-23.918933 35.5072-6.6304 30.344533 9.173333 66.158933 27.946667 89.557333 3.857067 4.804267 9.736533 7.3216 12.3648 10.1888 4.394667 4.778667 12.2368 17.211733 16.392533 20.488534l-12.296533 12.296533c-3.6864-2.901333-10.180267-3.968-14.523734-8.029867-5.2992-4.957867-6.161067-12.603733-12.4928-16.375466-14.481067 0.426667-85.077333 35.524267-91.8272 28.509866l4.096-57.386666c0.597333-0.384 0.5888-3.771733 1.911467-3.575467 5.777067 0.853333 11.6992 6.724267 14.4896 11.776 0.64 1.160533-0.631467 5.026133 1.851733 8.226133 3.208533 4.130133 12.970667 6.8608 17.143467 11.869867l38.365867-18.048-28.672-34.833067 8.1664-14.353066c-4.5568-6.485333-10.538667-4.778667-16.366934-10.24 4.642133 0.8192 9.019733-3.541333 12.296534-4.096 0.221867-0.034133 0 3.345067 3.950933 2.261333 4.744533-1.297067 9.3184-4.1216 12.0576-8.3456l-9.719467-31.061333-14.481066-3.84c7.953067-9.4976 12.066133-23.313067 24.593066-28.689067l10.325334 3.140267 10.154666-7.2448 8.2176 12.305066z" fill="#55332B" p-id="5765"></path><path d="M524.9024 810.248533l28.672 34.833067-38.365867 18.048c-4.1728-5.0176-13.934933-7.739733-17.143466-11.869867-2.4832-3.2-1.211733-7.0656-1.851734-8.226133l4.104534-45.0816 24.584533 12.288z" fill="#F5D3A5" p-id="5766"></path><path d="M528.9984 781.550933c-3.2768 0.554667-7.6544 4.9152-12.296533 4.096-0.290133-0.273067-3.456 0.546133-4.0704-2.184533l0.3328-3.413333 16.017066-18.9952v20.488533z" fill="#CFA127" p-id="5767"></path><path d="M832.290133 564.334933l0.452267-9.736533 3.652267-2.56c-0.768 9.6512-3.985067 11.5968-4.096 12.296533z" fill="#F7C17E" p-id="5768"></path><path d="M869.188267 265.147733c0.443733-8.3968 5.307733-13.0304 4.1984-22.5024-1.408-12.032-16.4608-34.338133-16.452267-49.220266 0-9.984 9.856-32.554667 16.264533-41.0624 26.026667-34.568533 69.922133-41.472 104.669867-14.344534 49.527467 38.664533 28.5184 119.278933-33.655467 130.432-32.469333 5.819733-48.1536-22.903467-75.025066-3.3024z m73.7536-98.363733c4.4544 19.114667-7.287467 16.6912-14.370134 24.558933-5.7088 6.340267-10.513067 25.454933 0.042667 28.714667 7.3472 2.269867 11.426133-12.066133 16.2048-16.571733 7.808-7.3728 16.4096-6.314667 18.619733-22.357334 4.497067-32.699733-38.331733-48.247467-56.968533-20.096l5.751467 18.030934c13.226667 2.568533 8.362667-2.653867 12.202666-8.106667 4.5312-6.442667 11.904-3.9168 18.525867-4.1728z m-12.288 55.150933l-14.5152 14.5152 14.5152 14.5152 14.5152-14.5152-14.5152-14.5152z" fill="#F7F5EE" p-id="5769"></path><path d="M213.418667 539.741867l20.548266 55.458133c-1.7152 9.181867-2.244267 23.9872-4.718933 32.093867-1.024 3.370667-19.712 25.472-23.936 29.3376-5.077333 4.642133-21.563733 16.452267-27.383467 17.698133-33.390933 7.159467-61.3632-4.4544-83.438933-30.0032-2.4064-2.7904-15.4368-19.8144-15.803733-21.077333-5.0944-17.339733 1.262933-46.9248 9.915733-62.848 10.274133-18.901333 30.498133-31.658667 51.054933-37.0688 1.041067-6.749867-5.521067-3.9424-10.222933-4.087467-9.7792-0.3072-21.213867-0.785067-30.762667 0 5.5296-6.656 22.971733-4.957867 30.916267-4.2752 27.537067 2.346667 59.400533 12.945067 83.84 24.772267z m-71.048534 8.874666c-15.112533 3.310933-37.614933 31.761067-38.8864 47.163734-1.339733 16.187733 21.128533 43.8528 35.959467 48.674133 22.7328 7.3984 45.047467-1.0752 57.0112-21.265067 6.7584-11.400533 9.728-38.877867 2.594133-50.6368-11.835733-19.5072-34.3552-28.8256-56.6784-23.936z" fill="#F9CEB3" p-id="5770"></path><path d="M303.581867 420.8896v4.096c-22.570667-3.438933-29.482667 14.472533-22.749867 32.9984 15.8976 15.5392 38.510933 1.2544 35.0464-20.701867h4.096c48.5632 65.9712-44.458667 134.877867-96.401067 77.960534-28.868267-31.633067-20.974933-78.3872 17.1264-97.809067 17.578667-8.96 45.661867-6.1952 62.882134 3.456z" fill="#533129" p-id="5771"></path><path d="M98.6624 519.253333c9.540267-0.785067 20.983467-0.3072 30.762667 0 4.701867 0.145067 11.264-2.6624 10.222933 4.087467-20.5568 5.418667-40.7808 18.167467-51.054933 37.0688-8.6528 15.9232-15.010133 45.508267-9.915734 62.848 0.375467 1.262933 13.397333 18.295467 15.803734 21.077333 22.075733 25.5488 50.048 37.162667 83.438933 30.0032 5.819733-1.245867 22.314667-13.056 27.383467-17.698133 4.224-3.8656 22.912-25.975467 23.936-29.3376 2.474667-8.1152 3.003733-22.912 4.718933-32.093867l-20.548267-55.458133 40.9856 12.296533c-6.075733 0.3072-16.597333-3.976533-10.427733 8.379734 14.609067 29.277867 12.032 56.866133 1.3568 87.057066-3.310933 9.352533-19.575467 28.7488-27.844267 33.6384-21.956267 12.970667-63.069867 17.8432-88.081066 14.370134-25.053867-3.4816-52.855467-43.1616-71.2192-59.938134-2.7136-36.138667 5.7856-76.765867 30.2336-103.995733 5.486933-6.109867 11.613867-9.053867-2.056534-8.200533 2.235733-0.605867 3.106133-3.345067 12.296534-4.096z" fill="#FADFC7" p-id="5772"></path><path d="M106.862933 265.147733c-0.170667-11.537067 0.2816-23.159467-0.085333-34.730666-0.3328-10.410667-0.170667-14.890667 0-24.8064 0.247467-14.173867-1.4592-30.634667 0.861867-44.194134 2.798933-16.392533 16.196267-51.5584 37.435733-47.4624 20.821333 4.0192 60.8768 40.277333 72.3968 58.9824-41.693867 25.207467-75.323733 59.298133-110.600533 92.202667z" fill="#FAC5B6" p-id="5773"></path><path d="M717.533867 236.458667l-92.859734-69.034667-21.956266-10.973867c0.273067-14.6432 49.314133-59.477333 64.221866-62.7968 34.884267-7.7568 43.528533 45.354667 47.274667 70.2976 0.384 2.525867 3.319467 4.061867 3.319467 4.872534v67.626666z" fill="#F9C6B9" p-id="5774"></path><path d="M729.8304 486.468267c4.693333 12.475733 19.2 10.24 28.629333 14.404266 28.663467 12.663467 40.644267 61.2608 36.881067 90.0352-1.160533 8.8832-8.072533 24.302933-12.791467 32.290134-2.295467 3.8912-17.5104 23.816533-19.933866 25.258666-1.8432 1.092267-16.4352 0.554667-20.48 1.9456 3.072-4.0704 11.0592-12.416 11.784533-14.856533 2.312533-7.799467 1.390933-23.6288-3.592533-30.225067 15.889067-17.9712 22.971733-50.2528 6.178133-69.7088-12.117333-14.037333-63.342933-27.170133-80.068267-18.525866-9.787733 5.060267-25.472 39.125333-32.648533 49.3056l12.270933 6.135466c-7.099733 7.543467-13.661867 16.6656-20.488533 24.593067-10.1376-10.939733-10.308267-29.0816-8.285867-43.118933 0.964267-6.656 6.408533-9.821867 9.122134-15.470934 1.501867-3.114667 9.992533-14.2848 3.259733-15.1808 35.328-15.744 47.112533-29.815467 90.1632-36.8896z" fill="#F8D3BB" p-id="5775"></path><path d="M552.388267 294.673067c21.111467-2.8416 46.7712 10.368 46.600533 34.013866-0.3328 47.445333-87.458133 72.593067-100.932267 30.9248-11.127467-34.414933 23.4496-60.782933 54.331734-64.938666z" fill="#F8EEDB" p-id="5776"></path><path d="M277.905067 306.756267c17.800533-2.6624 59.741867 18.346667 62.651733 38.229333 5.265067 36.0192-15.4112 52.718933-50.5344 46.421333-55.381333-9.9328-75.460267-75.170133-12.117333-84.642133z" fill="#F8EEDC" p-id="5777"></path><path d="M647.850667 470.0672c-25.685333-1.152-44.1856-11.665067-71.6544-8.123733-17.4848 2.2528-30.1312 13.969067-44.5184 21.0688-5.077333 2.5088-9.1136 3.7888-10.8544-2.722134-5.768533-21.495467 28.8768-44.689067 47.172266-47.035733 28.552533-3.6608 79.778133-1.476267 79.8464 36.8128z" fill="#553329" p-id="5778"></path><path d="M639.658667 523.349333c6.724267 0.896-1.7664 12.066133-3.259734 15.1808-2.7136 5.649067-8.157867 8.814933-9.122133 15.470934-2.0224 14.037333-1.851733 32.1792 8.285867 43.118933-5.614933 6.510933-12.603733 11.8784-16.392534 16.392533-10.3168-11.733333-12.458667-24.448-16.426666-39.0912l4.130133-38.775466c5.000533-1.288533 26.760533-9.608533 32.785067-12.296534zM602.7776 535.645867l-2.414933 3.652266c-13.090133 3.362133-24.362667-0.964267-34.466134-3.652266 11.938133-0.896 25.233067 1.297067 36.8896 0z" fill="#F8E0CA" p-id="5779"></path><path d="M319.982933 437.282133h-4.096l-12.296533-12.296533v-4.096c8.439467 4.736 11.042133 9.122133 16.392533 16.392533z" fill="#7D5D4B" p-id="5780"></path><path d="M406.050133 621.7216l-1.962666 12.373333c-4.241067 6.229333-30.634667 2.568533-26.4448 22.0672 9.762133 15.863467 26.222933 19.805867 42.820266 10.9824 14.498133 10.897067 1.322667 22.442667-12.373333 24.251734-26.760533 3.5328-57.3184-17.527467-50.577067-46.506667 1.322667-5.6832 7.68-10.794667 7.68-17.032533 0-8.072533-10.112-14.327467-8.413866-28.654934 0.341333-2.909867 7.714133-20.471467 9.0368-21.8368 2.423467-2.5088 12.936533-4.096 15.2832-10.939733-41.053867-61.047467 79.496533-76.859733 104.7808-42.990933 22.084267 29.585067-23.3472 60.091733-49.885867 64.6912-21.393067 3.712-40.797867-9.634133-56.695467 8.874666l-1.792 14.318934 28.552534 10.402133z" fill="#53332A" p-id="5781"></path><path d="M615.0656 650.402133c-13.141333 10.274133-22.331733 28.040533-32.785067 40.9856-1.339733 1.655467-8.7808 3.106133-8.200533 8.183467 9.506133 2.184533 11.4688-1.211733 16.392533-4.087467 11.733333-6.843733 28.117333-25.949867 36.8896-36.8896l8.200534 12.296534c-3.157333 3.771733-19.9936 21.521067-16.392534 24.584533h28.689067c0.145067 4.266667 2.474667 7.3728 3.029333 10.990933 0.827733 5.410133-4.369067 9.1904 4.283734 15.650134l-3.217067 6.152533c-1.8432-1.117867-27.153067-12.023467-28.689067-12.296533l-2.414933-3.652267c-10.606933-0.853333-21.4272-0.853333-32.0512 0l-2.414933 3.652267c-4.283733 0.401067-9.0112 1.297067-12.296534 4.096l-8.2176-12.305067-10.154666 7.2448-10.325334-3.140267c15.010133-27.485867 37.725867-49.7408 57.378134-73.770666l12.296533 12.296533zM692.9408 744.669867c-3.7376-2.568533-7.594667-4.113067-10.487467-8.3456l2.286934-3.950934c5.947733 1.28 8.874667 6.3232 8.200533 12.296534zM688.8448 711.8848l-4.104533 4.096-3.7376-1.954133 5.794133-6.229334 2.048 4.087467z" fill="#502F25" p-id="5782"></path><path d="M623.266133 715.9808c-8.2944-1.4592-27.793067-0.8448-36.8896 0l2.414934-3.652267c10.632533-0.853333 21.4528-0.853333 32.0512 0l2.414933 3.652267z" fill="#55332B" p-id="5783"></path><path d="M750.318933 605.320533c-9.233067-12.228267-28.023467-31.112533-41.079466-38.843733-16.5888-9.821867-29.7216-13.576533-46.5152-2.372267-2.679467 1.792-3.780267 5.3504-6.673067 8.4224l-12.270933-6.135466c7.168-10.180267 22.8608-44.245333 32.648533-49.3056 16.725333-8.644267 67.950933 4.488533 80.068267 18.525866 16.7936 19.456 9.710933 51.7376-6.178134 69.7088z" fill="#F8C0A6" p-id="5784"></path><path d="M678.920533 576.827733c12.672-3.601067 53.316267 32.887467 58.683734 46.984534l-18.048 22.493866-59.409067-43.0592c-0.768-2.645333 16.8192-25.864533 18.7648-26.4192z" fill="#CDC8BF" p-id="5785"></path><path d="M647.8592 695.483733h-28.689067c-3.601067-3.072 13.2352-20.821333 16.392534-24.593066 10.274133-12.279467 21.700267-23.534933 30.762666-36.8896l18.397867 14.344533c0 3.712-31.232 32.930133-34.926933 38.954667-1.8432 2.9952-2.048 4.795733-1.928534 8.183466z" fill="#ECC22C" p-id="5786"></path><path d="M627.362133 658.602667c-8.763733 10.939733-25.156267 30.045867-36.8896 36.8896l-5.794133-0.4352-2.397867-3.6608c10.453333-12.936533 19.652267-30.711467 32.785067-40.9856l30.737067-32.768c7.432533 5.521067 5.7856 6.826667 1.4592 13.730133-4.8128 7.671467-14.071467 19.968-19.899734 27.229867z" fill="#E9BE32" p-id="5787"></path><path d="M701.1328 658.602667c1.7664 9.1136-1.237333 10.6496-6.1184 16.418133-8.192 9.685333-15.1552 20.317867-24.618667 28.654933-4.608 4.061867-6.7584 9.821867-14.336 8.192-0.042667-14.250667 12.740267-21.435733 20.565334-30.651733 6.6048-7.7824 11.204267-22.894933 24.507733-22.613333z" fill="#E8C137" p-id="5788"></path><path d="M942.941867 166.784c-6.613333 0.256-13.986133-2.269867-18.525867 4.1728-3.84 5.4528 1.024 10.683733-12.202667 8.106667l-5.751466-18.030934c18.6368-28.16 61.4656-12.603733 56.968533 20.096-2.210133 16.042667-10.8032 14.984533-18.619733 22.357334-4.770133 4.5056-8.8576 18.833067-16.2048 16.571733-10.5472-3.259733-5.742933-22.365867-0.042667-28.714667 7.074133-7.867733 18.824533-5.444267 14.370133-24.558933z" fill="#53332C" p-id="5789"></path><path d="M916.133547 236.460373l14.51776-14.51776 14.51776 14.51776-14.51776 14.51776z" fill="#523530" p-id="5790"></path><path d="M142.370133 548.616533c22.3232-4.8896 44.834133 4.420267 56.6784 23.936 7.133867 11.758933 4.155733 39.236267-2.594133 50.6368-11.963733 20.1984-34.2784 28.663467-57.0112 21.265067-14.830933-4.821333-37.2992-32.4864-35.959467-48.674133 1.271467-15.394133 23.773867-43.8528 38.8864-47.163734z" fill="#F9BD9E" p-id="5791"></path><path d="M303.581867 424.9856l12.296533 12.296533c3.464533 21.956267-19.1488 36.241067-35.0464 20.701867-6.7328-18.517333 0.1792-36.4288 22.749867-32.9984z" fill="#F0E9E0" p-id="5792"></path><path d="M590.481067 695.483733c-4.932267 2.875733-6.8864 6.272-16.392534 4.087467-0.580267-5.085867 6.8608-6.536533 8.200534-8.183467l2.397866 3.6608 5.794134 0.4352z" fill="#55332B" p-id="5793"></path></svg>