<?xml version="1.0" standalone="no"?><!DOCTYPE svg PUBLIC "-//W3C//DTD SVG 1.1//EN" "http://www.w3.org/Graphics/SVG/1.1/DTD/svg11.dtd"><svg t="1768660261775" class="icon" viewBox="0 0 1024 1024" version="1.1" xmlns="http://www.w3.org/2000/svg" p-id="4793" xmlns:xlink="http://www.w3.org/1999/xlink" width="256" height="256"><path d="M97.244106 462.984683c1.604238-25.147278 6.587614-49.842297 13.158161-74.085059 6.971607-25.7446 28.594682-68.325163 31.410632-90.323697 3.455937-26.998978-1.510373-60.781833 0.153597-89.129053 2.92688-49.970295 13.857882-127.485691 39.704881-171.303565C216.09422-20.223634 261.209137 0.72532 309.660526 29.413867c27.485369 16.281305 52.939841 38.979561 77.592195 59.254394 72.788015-15.29999 150.286345-16.648232 222.852498 0.648522 36.778001-31.214368 78.590577-65.68841 124.191884-82.908366 18.781527-7.091072 38.254241-9.898487 56.839504 0.085332 8.908639 4.787113 22.536125 20.07857 27.894962 28.927476 19.447115 32.118885 32.903937 96.271323 36.982797 133.450384 4.61645 42.000306-1.331176 94.641486 4.138591 133.834376 2.090629 14.967196 18.303669 45.046651 23.517441 61.703416 26.922179 86.031509 35.370026 173.78672-11.97205 254.186331-21.307347 36.189211-57.692822 72.386956-96.766247 87.891741l0.017066 2.005297c35.276161 53.323834 52.086523 117.152012 56.805371 180.60473l20.044437-0.247462c14.01148-53.17877 92.738587-62.420203 115.974434-12.014716 2.662352 5.785495 5.427102 22.638523 6.476682 23.961166 0.529057 0.665588 11.212597 3.455937 15.683983 6.647346 20.812423 14.890397 27.673099 39.491552 18.508465 62.957794-6.203621 15.880246-33.885253 38.962494-51.011343 30.395183-5.239372-2.619686-9.540094-8.516112-3.933796-14.318674 37.264392-1.459174 58.691204-46.420493 25.829933-64.382835-8.609977-4.710315-16.682365-3.174343-23.995299-8.464913-5.811095-8.388115 3.933795-26.777115-11.826986-40.925126-31.188769-28.005893-78.087119-4.548184-75.228504 36.684136-13.712818-1.092247-24.737685-9.002504-36.743868 2.423423-1.8517 9.924087-12.432842 25.04488-6.058557 34.303379 12.381642 13.26056 31.342366 4.607917 44.543193 8.200385 5.87936 1.595704 9.318231 8.865973 2.346624 13.926147-13.695752 9.93262-34.926301 7.287335-49.919096 1.186112-5.973225-2.431956-8.183318-9.497428-16.673831-7.039872-7.773726 8.755041-13.943214 11.673389-24.353692 15.888779-4.923644 1.988231-1.749302 7.662795-2.397824 12.262178 53.170237-8.29425 108.362838-2.372224 162.318128-4.05326l-6.434017 19.942039c-58.657071 0.699721-117.510405 0.255995-176.17601 0.341327l-16.37517-119.566902-36.394008-144.193655c-1.783434-1.885833-38.433437 11.135798-45.626907 13.081363-1.996764 0.53759-2.585553 3.020745-3.046345 3.148743-89.999437 23.969699-225.728179 22.416661-316.521201 0-0.341327-0.085332-0.921583-2.628219-3.046345-3.174343l-39.59395-12.927766-5.512433 6.502283c-7.54333 29.977057-16.998092 59.544522-23.952633 89.666643-6.553481 28.37282-20.692959 81.858784-17.100491 108.5591 2.167427 16.093575 14.805065 34.960434 12.134181 52.811844-0.742387 4.940711-15.009862-1.561572-16.255706 6.101223-60.380773 2.363691-120.420219 13.200828-180.408466 16.409303-12.287777 0.657055-33.467127 1.467707-44.93572-0.059732-4.80418-0.639988-7.603062-2.022363-9.685158-6.527882-3.532736-12.390176 5.828161-38.595568 7.70546-52.504649 4.898045-36.308676 4.505518-83.667818 17.194356-116.725353 8.874506-23.124915 25.531271-46.0109 51.881727-47.555406l-8.422248-48.391657c-52.880109-7.108138-73.777864-80.809203-44.432262-120.095959 5.495367-7.3556 20.027371-15.470653 20.650293-24.29396L11.980583 331.044672c12.253645-35.583356 47.964998-33.799921 56.745639 4.232457 9.258499 40.13154 14.293075 90.229833 20.402831 131.769347 1.177579 8.012655 0.520524 16.033843 4.070326 24.345159h4.036194c0.443725-9.386497-0.588789-19.037522 0.008533-28.398419z m24.353692 68.99075c1.527439 28.330154 11.468592 45.678106 24.345159 68.982218 17.399152 31.470363 33.023402 51.16494 62.812729 73.129342 141.915297 104.599706 400.658345 106.152744 551.337217 19.575113 56.182449-32.281015 121.896459-100.862174 120.34342-169.801726 6.946008-4.752981 3.933795-15.018395 4.044727-22.339862 0.622922-42.862157-6.348685-78.863639-18.133005-119.797297-7.304401-25.369141-27.528035-64.58763-30.480515-87.200554-4.343388-33.211132 2.363691-75.08344 0.110932-109.676948-1.774901-27.178175-9.58276-65.432415-17.390619-92.175397-7.594529-26.009129-23.969699-74.477585-57.684288-72.15656-17.723412 1.220245-62.97486 27.792563-79.204966 38.800364-22.211864 15.078127-41.146988 35.16523-63.563649 50.03856-12.944832 3.814331-38.032378-5.674564-52.257187-7.457998-45.379445-5.69163-92.320462-5.563633-137.819371 0.008533-14.608802 1.791968-42.307501 12.560839-54.970738 6.101223-5.5039-2.807416-15.62425-17.228488-22.135066-22.493459-18.534064-15.001328-77.319133-55.56806-98.131556-60.124778-36.778001-8.063854-49.296174 12.193913-61.362089 42.819491-20.360165 51.70253-25.992063 122.510848-29.456533 177.498653-0.91305 14.540537 4.96631 40.003542 3.703399 48.007664-4.309255 27.340305-25.761667 70.501123-34.072983 100.170986-12.014716 42.904823-14.421072 71.183778-14.079745 115.75257 0.051199 6.664413-2.986613 18.95219 4.044727 22.331329zM49.697233 322.195766l-21.640141 3.507136 46.318095 286.100419 21.640141-3.507136-46.318095-286.100419z m63.785512 286.876938c0.861851 3.14021-1.279977 7.884657 1.834633 12.279244 1.63837 2.312491 20.2407 14.156544 22.510526 12.057382l-20.291899-40.566732-12.168313-28.398419c2.525821 11.656322 1.902899 28.133891 3.976461 38.791831 1.006915 5.162573 4.036194 5.495367 4.130059 5.836694z m-41.940574 20.96602c-44.688257 9.889954-33.364729 100.66591 15.470653 100.964572 9.941153-3.566869 21.853471-8.072387 28.415486-16.503168 25.966463-33.373262 1.621304-94.530555-43.886139-84.461404z m82.515839 129.183794c22.450793 8.865973 46.104765 16.853028 71.106979 20.198035 10.862737 1.459174 22.979851-3.089011 32.460213 3.669267l18.17567-48.195394c-22.049734-7.884657-46.557024-20.087103-66.336932-33.117267-14.984262-9.872888-25.514205-20.718558-39.175824-31.845824-8.499046-6.920408-16.477568-18.243936-28.398419-16.230106 4.752981 27.280573 8.550245 52.410784-11.050466 74.92131l4.855378 22.570258c4.693248 9.531561 13.849349 6.229221 18.363401 8.012655z m604.643985 101.450963c5.452701 25.505671 9.616893 53.076372 12.236578 79.068435 3.097544 3.438871 1.66397 22.62999 10.069151 18.320735 3.251141-1.672503 15.470653-14.933063 17.757545-18.772993 11.186997-18.76446 10.68354-60.55997 8.635577-82.669437-1.459174-15.726649-8.533179-42.000306-13.158162-57.854952-8.149186-27.937627-21.571876-56.054452-37.545987-80.015618l-34.38871 18.133005c7.133737 17.134623 14.301608 35.899083 19.182586 53.76756 6.032957 22.126533 12.449908 47.734602 17.219955 70.031798zM117.536005 742.992412l-16.042376 4.24099 3.891129 44.457862h16.204507c2.713551-17.254088-5.060175-31.973821-4.05326-48.698852z m137.981501 60.867165c-38.578501-4.846846-76.602346-12.594972-113.627809-24.345159-4.019127 18.97779 9.761957 9.847288 24.541423 14.002946 34.166848 9.616893 56.609108 63.904976 64.741227 95.554536 6.143889-0.708254 6.459616-5.734296 8.004122-10.239814 7.54333-21.913203 9.693691-51.932926 16.341037-74.972509z m-73.052543 28.398419c8.533179-7.432399-28.168023-23.517441-34.559375-24.29396-9.659558-1.169045-56.293381 7.048406-65.731076 11.255263-10.717673 4.787113-21.145217 18.610863-25.505672 29.268803 7.338534-0.315728 14.881864 0.682654 22.237464-0.068265 21.844938-2.235693 46.719154-8.883039 69.135815-12.023249 11.306462-1.578638 22.672656 1.348242 34.422844-4.138592z m16.230106 16.247172c-40.839794 7.142271-82.763301 9.267032-123.637228 16.358104-5.34177 0.930116-10.111817 3.131677-16.255706 4.095926-7.449465 1.169045-12.065915-4.317788-10.248348 7.944389 44.440795-4.087393 87.80641-13.857882 131.812014-16.289838 6.46815-4.377521 21.469478 0.255995 18.320734-12.108581z m44.637058 137.964435c-7.901724-33.398862-16.178907-73.743731-31.598361-104.34371-4.838312-9.608359-8.123586-10.529943-19.054588-9.258499-28.296021 3.30234-57.078433 8.379582-85.365921 12.074448-9.77049 1.279977-50.934544 3.242608-54.919539 5.956159-10.606741 7.210536-6.459616 26.49552-7.978522 36.658536-3.165809 21.102551-9.446229 44.329864-12.014716 65.082555-0.580256 4.676182 0.051199 9.463295-0.085332 14.113877l38.766232-7.901723 9.941153-44.858921c8.635577-0.332794 7.713994-1.834633 8.10652 6.058557 0.699721 14.14801-0.503458 28.517884 0 42.648827 4.650582-0.16213 9.446229 0.494924 14.122411-0.093865 33.868187-4.258056 70.074464-9.360897 103.558658-12.091514 4.002061-0.324261 8.183318 0.383993 12.176846 0 1.331176-0.127998 2.713551 0.059732 4.061793 0 6.024424-0.273062 12.125647 0.383993 18.192737-0.085332l2.099162-3.967928z" fill="#4E2B23" p-id="4794"></path><path d="M657.251032 759.222518c6.894808 4.488452 9.121968 15.752248 11.178464 23.312645 11.826986 43.468013 22.868919 108.926028 25.522738 153.034029 1.399441 23.261445-1.382375 47.802868-0.179197 71.192311-129.746984 0.213329-259.843828-1.655437-389.565212 0 1.066647-19.404449-1.399441-39.704881-0.179197-59.015465 3.345006-52.871576 15.197591-117.928531 28.867744-169.972389 1.527439-5.819628 2.38929-15.445054 7.824925-18.551131 90.793023 22.416661 226.530298 23.969699 316.521201 0z" fill="#F9F0DE" p-id="4795"></path><path d="M953.480334 986.469603c-1.766368 0.068265-7.773726-0.136531-12.176846 0-53.95529 1.681036-109.14789-4.24099-162.318127 4.05326 0.657055-4.599383-2.517288-10.273947 2.397823-12.262178 10.410478-4.21539 16.5885-7.133737 24.353692-15.888779 8.490513-2.449022 10.692073 4.607917 16.673832 7.039873 14.992795 6.101223 36.223344 8.746508 49.919096-1.186112 6.971607-5.060175 3.524203-12.32191-2.346625-13.926148-13.192294-3.592468-32.161551 5.060175-44.543193-8.200385-6.365751-9.249966 4.206857-24.370759 6.058557-34.303378 12.006183-11.425926 23.03105-3.51567 36.743868-2.423423-2.858615-41.23232 44.031203-64.690029 75.228504-36.684136 15.752248 14.14801 6.015891 32.545544 11.826986 40.925126 7.321467 5.290571 15.385321 3.763132 23.995299 8.464913 32.861272 17.953808 11.43446 62.923661-25.829932 64.382834z" fill="#DDDCD9" p-id="4796"></path><path d="M657.251032 759.222518c0.460792-0.127998 1.049581-2.611153 3.046344-3.148743 7.202003-1.937032 43.843473-14.958662 45.626908-13.081363l36.394007 144.193656 16.37517 119.566901c-21.588942 0.034133-43.331482-0.034133-64.928957 0-1.203178-23.389443 1.578638-47.930865 0.179197-71.19231-2.653819-44.108001-13.695752-109.557483-25.522738-153.034029-2.056496-7.56893-4.275123-18.832726-11.178465-23.312645z" fill="#F6C380" p-id="4797"></path><path d="M340.72983 759.222518c-5.435635 3.106077-6.297486 12.731503-7.824925 18.551131-13.678686 52.035324-25.522738 117.100813-28.867744 169.972389-1.220245 19.319117 1.237311 39.619549 0.179197 59.015465-18.849792 0.238929-37.998245-0.733853-56.813905 0 1.254377-7.662795 15.521852-1.160512 16.255706-6.101223 2.670885-17.85141-9.975286-36.718268-12.13418-52.811844-3.592468-26.700317 10.547009-80.186281 17.10049-108.559101 6.954541-30.122121 16.409303-59.698119 23.952633-89.666643l5.512433-6.502282 39.59395 12.927766c2.124762 0.546123 2.705018 3.089011 3.046345 3.174342z" fill="#F6C17E" p-id="4798"></path><path d="M1009.449454 823.92108c0 14.165077-11.477126 25.642202-25.642202 25.642202s-25.642202-11.477126-25.642203-25.642202 11.477126-25.642202 25.642203-25.642202 25.642202 11.477126 25.642202 25.642202z m-16.358104 0.238929c0-5.060175-4.104459-9.164634-9.164634-9.164634s-9.164634 4.104459-9.164634 9.164634 4.104459 9.164634 9.164634 9.164634 9.164634-4.104459 9.164634-9.164634z" fill="#4B2B22" p-id="4799"></path><path d="M170.288116 669.948402c13.661619 11.118732 24.183029 21.964402 39.175824 31.845823 19.771375 13.030164 44.287198 25.23261 66.336932 33.117267l-18.17567 48.195394c-9.480362-6.758278-21.597476-2.218626-32.460213-3.669267-25.002214-3.353539-48.656186-11.332061-71.106979-20.198034 5.350303-3.080478 6.425484-12.791235 7.816392-18.559664 5.725763-23.739303 10.572609-46.019433 8.413714-70.714453z" fill="#F8C481" p-id="4800"></path><path d="M807.392313 856.611688c-16.537301 0.998382-31.83729 6.331619-48.698852 4.061793-4.761514-22.297196-11.178464-47.905266-17.219955-70.031798-4.872445-17.868476-12.048848-36.632937-19.182585-53.76756l34.38871-18.133005c15.974111 23.961166 29.396801 52.07799 37.545987 80.015618 4.624983 15.854646 11.698988 42.128304 13.158162 57.854952z" fill="#F4BF7B" p-id="4801"></path><path d="M807.392313 856.611688c2.047963 22.117999 2.559954 63.904976-8.635577 82.669437-2.286892 3.83993-14.506404 17.10049-17.757545 18.772993-8.405181 4.317788-6.971607-14.873331-10.069151-18.320735-2.619686-25.992063-6.783877-53.55423-12.236579-79.068435 16.861561 2.278359 32.161551-3.063411 48.698852-4.061793z" fill="#F5EFE0" p-id="4802"></path><path d="M170.288116 669.948402c2.158894 24.695019-2.687951 46.975149-8.413714 70.714452-1.390908 5.768429-2.466089 15.479186-7.816392 18.559664-4.514052-1.783434-13.670152 1.518906-18.363401-8.012654l-4.855378-22.570258c19.609245-22.510526 15.803447-47.632204 11.050466-74.92131 11.929384-2.01383 19.899373 9.301165 28.398419 16.230106z" fill="#F8F0DA" p-id="4803"></path><path d="M97.244106 462.984683c-0.597323 9.360897 0.435192 19.011922-0.008533 28.398419h-4.036194c-3.549802-8.311316-2.892748-16.332504-4.070326-24.345159l8.115053-4.061793z" fill="#99857B" p-id="4804"></path><path d="M243.332127 986.469603l-17.894076 0.443726-2.397823 3.618067c-1.348242 0.059732-2.722084-0.127998-4.061793 0l-16.23864-56.822437c-9.463295-1.604238-9.386497 1.365309-8.08092 10.12035 2.193027 14.779466 7.406799 32.391947 12.151247 46.702087-33.484194 2.730617-69.690471 7.833458-103.558658 12.091515-4.676182 0.588789-9.463295-0.068265-14.122411 0.093865-0.503458-14.130944 0.699721-28.500817 0-42.648828-0.392526-7.901724 0.529057-6.399884-8.10652-6.058557l-9.941153 44.858921-38.766232 7.901724c0.136531-4.650582-0.494924-9.437696 0.085332-14.113878 2.57702-20.761224 8.848906-43.980004 12.014716-65.082555 1.527439-10.163016-2.628219-29.448 7.978522-36.658536 3.984995-2.705018 45.149049-4.676182 54.919539-5.956159 28.278955-3.694866 57.061367-8.780641 85.365921-12.074448 10.931002-1.271444 14.207743-0.358394 19.054588 9.258499 15.419454 30.599979 23.696638 70.944849 31.598361 104.343711z" fill="#F7D386" p-id="4805"></path><path d="M71.542171 630.038724c45.507443-10.069151 69.852602 51.088142 43.886139 84.461404-6.562015 8.430781-18.474332 12.936299-28.415486 16.503168-48.835382-0.298661-60.150377-91.074617-15.470653-100.964572z" fill="#F7EEDF" p-id="4806"></path><path d="M28.080132 325.690956l21.640141-3.50543 46.336868 286.092739-21.640142 3.50543z" fill="#CAA079" p-id="4807"></path><path d="M255.517506 803.859577c-6.655879 23.048116-8.806241 53.059306-16.341037 74.972509-1.553039 4.514052-1.860233 9.531561-8.004122 10.239814-8.140653-31.64956-30.57438-85.937644-64.741227-95.554536-14.770933-4.155658-28.552016 4.974843-24.541423-14.002946 37.025463 11.750187 75.057841 19.48978 113.627809 24.345159z" fill="#EBE8DD" p-id="4808"></path><path d="M182.464963 832.257996c-11.750187 5.486834-23.116381 2.55142-34.422844 4.138592-22.425194 3.14021-47.290877 9.787556-69.135815 12.023249-7.3556 0.75092-14.89893-0.238929-22.237464 0.068265 4.360454-10.65794 14.787999-24.48169 25.505672-29.268803 9.437696-4.21539 56.071518-12.432842 65.731076-11.255263 6.391351 0.776519 43.092553 16.861561 34.559375 24.29396z" fill="#F5D586" p-id="4809"></path><path d="M198.695069 848.505168c3.14021 12.364576-11.861119 7.73106-18.320735 12.108581-44.005603 2.431956-87.371218 12.202446-131.812013 16.289838-1.817567-12.262178 2.798883-6.766811 10.248347-7.944389 6.143889-0.964249 10.913936-3.165809 16.255706-4.095926 40.873927-7.091072 82.788901-9.215833 123.637228-16.358104z" fill="#7D7C94" p-id="4810"></path><path d="M117.536005 742.992412c-1.006915 16.72503 6.775344 31.444764 4.05326 48.698852H105.384758l-3.891129-44.457862 16.042376-4.24099z" fill="#C89E78" p-id="4811"></path><path d="M206.810122 990.522863c-4.735914-14.310141-9.95822-31.922622-12.151247-46.702087-1.297043-8.763575-1.373842-11.733121 8.08092-10.12035l16.23864 56.822437c-3.993528 0.383993-8.166252-0.324261-12.176846 0z" fill="#E7B55C" p-id="4812"></path><path d="M117.536005 592.842598l20.291899 40.566732c-2.269826 2.107695-20.872155-9.74489-22.510526-12.057382-3.11461-4.394587-0.972782-9.147568-1.834633-12.279244l0.443725-13.772551 3.609535-2.457555z" fill="#E7E1DC" p-id="4813"></path><path d="M117.536005 592.842598l-3.609535 2.457555-0.443725 13.772551c-0.093865-0.341327-3.131677-0.682654-4.130059-5.836694-2.073562-10.65794-1.45064-27.135509-3.976461-38.791831l12.168313 28.398419z" fill="#A3938B" p-id="4814"></path><path d="M243.332127 986.469603l-2.099162 3.967928c-6.058557 0.469325-12.168313-0.18773-18.192737 0.085332l2.397823-3.618068 17.894076-0.443725z" fill="#E7B55C" p-id="4815"></path><path d="M983.926716 824.160009m-9.164634 0a9.164634 9.164634 0 1 0 18.329268 0 9.164634 9.164634 0 1 0-18.329268 0Z" fill="#DFDCD9" p-id="4816"></path><path d="M880.436323 523.86038c-0.435192-19.395915-15.46212-45.302646-32.502878-54.851273-5.145507-2.884214-10.060618-1.109313-12.13418-1.962631-10.111817-4.155658-12.714436-5.5039-24.345159-8.115053-0.34986-0.076799-0.836252-3.080478-2.730617-3.404738l-11.562458-0.904517c-14.096811 3.558336-28.432552 4.855379-42.52083 8.362515-19.011922 4.727381-37.102261 11.511258-54.347815 20.795357l-2.466089 3.549802c-8.789174 0.409593-17.185822 3.14021-25.846999 4.701781-3.592468 0.648522-2.346624 3.379139-2.559953 3.413272-10.820071 1.809034-25.087546-1.254377-36.522006 0-60.807432-14.668534-69.733137-64.246303-148.289581-56.984568-62.727397 5.802562-79.000169 64.954557-147.948254 56.984568-3.609535-0.418126-23.423576-5.520967-28.406953-8.115053-21.691341-11.289396-44.065335-23.056649-68.982217-28.406952-39.133158-8.405181-82.012382-7.091072-107.432721 28.50935-10.487277 14.685601-11.195531 26.990445-10.248348 44.53466-7.031339-3.379139-3.993528-15.666916-4.044727-22.331329-0.341327-44.568793 2.065029-72.847748 14.079745-115.75257 8.311316-29.669863 29.763728-72.839214 34.072983-100.170986 1.26291-8.004122-4.61645-33.467127-3.703399-48.007664 3.464471-54.987804 9.096369-125.796122 29.456533-177.498653 12.065915-30.625579 24.584088-50.883345 61.362089-42.819491 20.812423 4.565251 79.597492 45.12345 98.131556 60.124778 6.510815 5.273505 16.631166 19.686044 22.135066 22.493459 12.663237 6.459616 40.353403-4.317788 54.970738-6.101223 45.498909-5.572166 92.439926-5.700163 137.819371-0.008533 14.233342 1.783434 39.312355 11.272329 52.257187 7.457998 22.416661-14.873331 41.351785-34.960434 63.563649-50.03856 16.230106-11.016334 61.481553-37.580119 79.204965-38.800364 33.714589-2.321025 50.08976 46.147431 57.684289 72.15656 7.807859 26.734449 15.62425 64.98869 17.390619 92.175397 2.252759 34.593507-4.445786 76.465815-0.110932 109.676948 2.95248 22.612924 23.176114 61.831414 30.480515 87.200554 11.78432 40.933659 18.755927 76.93514 18.133005 119.797297-0.102398 7.321467 2.901281 17.595415-4.044727 22.339862z m-665.502615-308.414681l105.478623-83.189961c-31.239968-30.087988-78.718575-94.607353-100.589112-19.447114-5.034575 17.305287-10.717673 66.712392-8.883039 84.299273 0.614389 5.87936 5.546566 11.460059 3.984995 18.337802z m572.175239 0v-79.128167c0-0.793586-2.892748-2.312491-3.293807-4.821247-3.370606-20.786824-7.116671-49.116977-31.291167-54.211285-17.672213-1.390908-70.740052 41.513915-71.047247 58.9216 18.4146 12.125647 39.645149 22.792121 56.762706 36.812134 13.030164 10.675007 23.884367 25.684868 36.701202 36.342808 4.104459 3.421805 5.196706 7.75666 12.176846 6.084157z m-167.651364 49.449771c-17.091957 3.123143-46.821552 20.684425-50.806547 38.459037-11.716055 52.26572 63.51245 53.443299 88.685327 19.720176 22.826253-30.582913-4.181258-64.323102-37.87878-58.17068z m-267.916215 3.976461c-23.739303 5.17964-29.874659 32.741807-16.793296 51.975592 16.707964 24.558489 65.52628 40.788595 84.990461 12.168313 25.829932-37.981179-29.695462-72.540553-68.197165-64.143905z m-124.439347 56.139784c-1.971164-1.578638-5.614832-2.559954-8.115053-4.061794-0.870384-0.520524-0.37546-6.348685-8.10652-4.061793-10.222748 26.751516-22.84332 48.980446 6.579081 68.683557 32.869805-3.191409 28.586149-30.599979 17.066357-53.835826-2.807416-5.666031-4.744447-4.582317-7.423865-6.732678z m-32.460212 68.99075c-4.40312-4.351921-1.245844-6.894808-12.176846-8.115053-3.660734-0.409593-7.091072-1.698103-8.10652 2.440489-2.218626 9.036636-7.125204 20.530828-8.072387 28.057092-7.423866 59.305593 80.587341 29.243204 28.34722-22.382528z m210.75245 52.487583l-0.085332-21.699874-6.084156-6.092689c-24.276894-1.032515-48.604987 0.085332-72.890414-0.179197-10.222748-0.110931-16.810362-6.937474-26.196859 5.981758l7.389733 12.040316c-22.757988 31.188769 25.087546 28.88481 47.316477 26.358989 16.639699-1.894366 34.644706-11.451526 50.559084-16.40077z m283.82206 11.963517c5.947626-6.365751 1.800501-15.666916-2.824482-21.921737l7.321468-11.835519c-11.605123-18.653529-23.534507-6.946008-38.322506-6.169488-18.005007 0.93865-40.088874-2.568487-57.112566-0.298661-11.997649 1.604238-12.9107 15.171992-8.10652 24.584088 8.584378 16.827429 87.857609 27.613367 99.036073 15.641317z" fill="#F8C27E" p-id="4817"></path><path d="M632.905872 495.453428c0.34986 0.085332 0.742387 3.481537 5.853761 4.121526 8.439314 1.058114 17.979408-0.802119 26.614985-0.059733-2.150361 23.321178-8.388115 55.56806-3.396205 78.454046 1.979697 9.04517 31.385032 39.039293 40.012075 45.200248 16.904227 12.082981 54.271017 15.897312 75.143173 14.489338 6.485216-0.435192 10.931002-3.49007 16.136241-4.155658 21.512144-2.76475 27.348838 3.959395 41.974706-18.900991 4.838312-7.56893 19.67751-47.70047 20.786824-56.31898 1.271444-9.93262 1.45064-34.559374-0.597322-43.903205-3.165809-14.489338-22.220398-29.217604-19.626312-47.333543 2.073562 0.853318 6.98014-0.921583 12.134181 1.962631 17.040758 9.548627 32.067686 35.455358 32.502878 54.851273 1.553039 68.939552-64.160971 137.52071-120.343421 169.801726-150.678871 86.586165-409.421919 85.024594-551.337216-19.575113-29.79786-21.955869-45.422111-41.650446-62.81273-73.129342 0.682654-6.877742 10.487277 0.529057 12.356043 2.594086 0.964249 1.066647 1.10078 5.077241 3.686334 7.620129 69.494208 68.359295 177.473053 15.888779 182.243099-76.576747-3.387672-9.070769-9.830222-18.644996-13.627486-26.981911-3.549802-7.799325-5.486834-13.968814 6.075623-12.15978 68.948085 7.969989 85.220857-51.182007 147.948254-56.984568 78.556444-7.270268 87.482149 42.316034 148.289582 56.984568z m-151.395658-35.745486c-6.143889 1.049581-26.836847 9.514494-31.239968 13.397091-28.398419 25.061946 21.042819 65.850541 50.62735 62.966326 18.030607-1.757835 58.298678-25.249676 54.450214-46.002367-5.205239-28.082691-50.473753-34.337512-73.837596-30.36105z m102.70534 56.028852c-1.723702 36.735335-31.214368 43.920271-62.206873 35.822285-35.856417-9.360897-21.15375-3.242608-49.398573 0.699721-13.200828 1.843167-43.911738 2.133295-52.786244-8.080921-7.961456-9.173167-3.217008-25.411807-16.195973-32.477278-24.404891 17.834344 2.022363 53.375033 26.384589 56.813904-8.609977 22.536125-5.375903 46.889818 22.484926 48.843916 6.766811 0.477858 12.543773-4.104459 19.933506-4.403121 15.317056-0.631455 33.808454-0.767986 49.057245 0 14.01148 0.716787 26.324857 9.77049 41.821109-0.443725 7.142271-14.830665 11.349128-22.920118 0.981316-37.989712 20.795357-11.809919 42.034439-27.766964 34.243646-54.84274l-14.310141-3.942329z" fill="#F9F0DD" p-id="4818"></path><path d="M239.278867 458.931423c7.116671 10.84567 4.121525 7.910257-6.075623 8.115053-21.52921 0.426659-29.925858-2.184494-46.78742 14.088278-5.145507 4.96631-15.197591 20.198034-18.098872 26.538186-1.783434 3.882596-9.693691 26.845381-10.197149 30.38665-2.346624 16.639699 0.486391 32.921004 10.248348 46.565557 9.241433 12.919233 36.726802 31.2741 52.487583 32.733274 8.541712 0.793586 33.1514 1.28851 40.165673-0.742387 1.715169-0.494924 27.912028-15.632784 30.89864-17.800211 16.801829-12.15978 17.962341-26.14566 20.513762-44.389596 2.363691-16.946893 0.699721-26.879513-0.170664-44.72239l-4.00206-22.373995c4.983376 2.594086 24.797418 7.696927 28.406952 8.115053-11.553924-1.809034-9.625426 4.360454-6.075623 12.15978 3.805798 8.345449 10.248348 17.911142 13.627486 26.981911-4.761514 92.465526-112.748892 144.927509-182.2431 76.576747-2.585553-2.542887-2.713551-6.544948-3.686333-7.620129-1.877299-2.065029-11.681922-9.471828-12.356043-2.594086-12.8851-23.304111-22.81772-40.660597-24.345159-68.982218-0.947183-17.544216-0.230396-29.849059 10.248348-44.53466 25.42034-35.600422 68.299563-36.914532 107.432721-28.50935z" fill="#FAE4CE" p-id="4819"></path><path d="M308.261085 487.338375l4.00206 22.373995c0.870384 17.842877 2.534354 27.775497 0.170664 44.72239-2.55142 18.243936-3.711933 32.229816-20.513762 44.389596-2.986613 2.158894-29.183472 17.305287-30.89864 17.800211-7.022806 2.030897-31.632494 1.527439-40.165673 0.742387-15.760781-1.459174-43.24615-19.814041-52.487583-32.733274-9.761957-13.644553-12.594972-29.925858-10.248348-46.565557 0.494924-3.541269 8.413714-26.504053 10.197149-30.38665 2.901281-6.340152 12.961899-21.571876 18.098872-26.538186 16.861561-16.281305 25.258209-13.661619 46.78742-14.088278 10.197149-0.204796 13.192294 2.730617 6.075623-8.115053 24.916882 5.350303 47.290877 17.117557 68.982218 28.406952z m-87.328552-2.781816c-18.448733 0.102398-41.889375 50.27749-40.728863 67.855838 8.951305 20.530828 21.324414 34.25218 44.696791 36.547605 16.255706 1.595704 39.312355 2.22716 51.045475-10.17155 15.240257-16.093575 17.586882-43.80934 11.383261-64.434033-3.549802-11.809919-27.024577-28.543483-38.6553-30.651178-6.928941-1.254377-10.504343 3.336473-15.735182 3.788731-5.171106 0.452258-9.096369-2.95248-12.014716-2.935413z" fill="#FAD4BA" p-id="4820"></path><path d="M754.640201 462.984683c5.392969 12.577906 24.012365 2.525821 33.808455 4.56525 7.867591 1.63837 24.097697 17.040758 28.987208 23.952633 17.365019 24.567022 23.56864 80.297213 2.295425 103.533059-3.396205 3.711933-23.927033 18.644996-28.458151 20.2663-5.350303 1.911432-13.533622-2.099162-18.252469-1.979698-5.222305 0.136531-9.591293 4.42872-16.144775 4.019127-16.921294-1.049581-46.522891-14.557603-56.899236-28.67148-6.510815-8.865973-18.218337-39.790213-18.644996-50.550552-0.742387-18.704728 9.796089-34.474042 16.494635-50.780947l2.466089-3.549802c17.245554-9.284099 35.335893-16.067976 54.347815-20.795357z m-14.165076 25.906731c-10.205682 1.578638-31.137569 19.754309-33.953519 29.456533-3.404738 11.750187 0.247462 30.966906 5.427102 42.102704 15.018395 32.255416 63.811111 45.66104 89.47038 20.334565 5.068708-5.000443 10.359279-26.853914 10.359279-34.610573 0.017066-23.099315-21.870537-58.375476-46.94955-59.126396-7.372666-0.221863-11.673389 2.619686-17.168756 3.30234-2.918347 0.358394-5.725763-1.689569-7.19347-1.459173z" fill="#F9D4BA" p-id="4821"></path><path d="M787.108947 215.445699c-6.971607 1.66397-8.063854-2.670885-12.176846-6.084157-12.808301-10.65794-23.662505-25.667802-36.701202-36.342808-17.117557-14.020013-38.348106-24.686486-56.762706-36.812134 0.307194-17.407685 53.375033-60.312508 71.047247-58.9216 24.174496 5.094308 27.920561 33.424461 31.291167 54.211285 0.409593 2.508755 3.293807 4.02766 3.293807 4.821247v79.128167z" fill="#F9C7B7" p-id="4822"></path><path d="M214.933708 215.445699c1.561572-6.877742-3.379139-12.458441-3.984995-18.337802-1.834633-17.586882 3.83993-66.993987 8.88304-84.299273 21.870537-75.160239 69.349144-10.640874 100.589111 19.447114l-105.478623 83.189961z" fill="#F9C9B9" p-id="4823"></path><path d="M811.454106 458.931423c11.630723 2.611153 14.241875 3.959395 24.345159 8.115053-2.594086 18.107405 16.460502 32.844205 19.626311 47.333543 2.047963 9.352364 1.868766 33.979118 0.597323 43.903205-1.10078 8.618511-15.948511 48.750051-20.786824 56.31898-14.625868 22.860386-20.462563 16.136241-41.974706 18.900991-5.205239 0.665588-9.651025 3.720466-16.136241 4.155658-20.872155 1.407975-58.238945-2.406356-75.143173-14.489338-8.627044-6.169488-38.040911-36.155079-40.012076-45.200248-5.000443-22.885986 1.237311-55.132868 3.396206-78.454046-8.64411-0.742387-18.184204 1.109313-26.614985 0.059733-5.102841-0.639988-5.5039-4.036194-5.853761-4.121526 11.43446-1.254377 25.701935 1.809034 36.522006 0 8.789174 0.605856 14.506404-4.539651 10.265414 8.234518-13.499489 40.652064-5.239372 98.728879 41.181121 112.783024 18.20127 5.5039 56.890703 7.219069 75.569831 3.984995 11.903784-2.065029 24.200095-11.792853 31.316766-21.435346 3.080478-4.172724 15.709582-28.799478 16.247173-32.451679 4.872445-33.091667-9.335298-81.099331-35.480958-102.713873l2.918348-4.915111z" fill="#FAE2CB" p-id="4824"></path><path d="M619.457583 264.89547c33.697523-6.152422 60.705034 27.5963 37.87878 58.17068-25.172877 33.723123-100.401382 32.545544-88.685327-19.720176 3.984995-17.774611 33.714589-35.335893 50.806547-38.459037z" fill="#F8EFDC" p-id="4825"></path><path d="M351.541368 268.871931c38.501703-8.396648 94.027097 26.154193 68.197165 64.143905-19.464181 28.628815-68.282497 12.398709-84.990461-12.168313-13.081363-19.233785-6.946008-46.795953 16.793296-51.975592z" fill="#F9F0DD" p-id="4826"></path><path d="M811.454106 458.931423l-2.918347 4.915111c26.14566 21.614542 40.353403 69.622206 35.480957 102.713873-0.53759 3.643667-13.166695 28.278955-16.247172 32.451679-7.116671 9.642492-19.412982 19.370316-31.316766 21.435345-18.679128 3.234075-57.377094 1.518906-75.569832-3.984994-46.429026-14.045612-54.68061-72.122427-41.181121-112.783024 4.24099-12.774169-1.47624-7.628662-10.265414-8.234518 0.213329-0.034133-1.041048-2.76475 2.559954-3.413272 8.66971-1.561572 17.057824-4.300722 25.846998-4.701781-6.707079 16.306905-17.237021 32.076219-16.494634 50.780947 0.426659 10.760338 12.13418 41.693112 18.644995 50.550551 10.367812 14.113878 39.977943 27.6219 56.899237 28.671481 6.553481 0.409593 10.922469-3.882596 16.144774-4.019127 4.718848-0.119465 12.9107 3.89113 18.252469 1.979697 4.531118-1.621304 25.070479-16.554367 28.458152-20.266299 21.273215-23.235846 15.069594-78.966037-2.295425-103.533059-4.889511-6.911875-21.119618-22.314263-28.987209-23.952633-9.787556-2.03943-28.406952 8.012655-33.808454-4.56525 14.088278-3.507136 28.424019-4.80418 42.52083-8.362516l11.562457 0.904517c1.894366 0.324261 2.380757 3.319407 2.730617 3.404739z" fill="#F9E0CA" p-id="4827"></path><path d="M689.216319 458.453565c-11.178464 11.97205-90.451695 1.186112-99.036073-15.641317-4.80418-9.412096-3.89113-22.979851 8.10652-24.584088 17.023692-2.269826 39.107558 1.237311 57.112566 0.298661 14.779466-0.767986 26.70885-12.484041 38.322506 6.169488l-7.321468 11.835519c4.61645 6.25482 8.763575 15.555985 2.824483 21.921737z" fill="#512E28" p-id="4828"></path><path d="M405.394259 446.490048c-15.914378 4.949244-33.919386 14.506404-50.559084 16.40077-22.228931 2.525821-70.074464 4.838312-47.316477-26.35899l-7.389733-12.040315c9.39503-12.9107 15.974111-6.09269 26.196859-5.981758 24.285427 0.264529 48.61352-0.853318 72.890414 0.179197l6.084156 6.092689 0.085332 21.699874z" fill="#523028" p-id="4829"></path><path d="M218.986968 320.958455c-2.790349 18.619396-17.85141 39.167291 2.030896 52.735045 21.819338-13.721352-0.742387-30.779176 6.084157-48.673252 2.679418 2.150361 4.61645 1.066647 7.423865 6.732678 11.519791 23.235846 15.803447 50.635883-17.066357 53.835825-29.422401-19.70311-16.801829-41.932041-6.579081-68.683556 7.722527-2.286892 7.236136 3.541269 8.10652 4.061793z" fill="#56B4D6" p-id="4830"></path><path d="M182.464963 385.887412c3.251141 12.219512-4.087393 24.10623-4.300723 34.41431-0.315728 14.847731 11.22113 20.257766 20.368698 7.995589l-3.891129-34.294846c52.231588 51.625732-35.771086 81.679588-28.34722 22.382528 0.93865-7.526264 5.853761-19.020456 8.072387-28.057092 1.015448-4.138592 4.437253-2.850082 8.10652-2.440489z" fill="#57B7DB" p-id="4831"></path><path d="M194.641809 394.002465l3.891129 34.294846c-9.147568 12.262178-20.684425 6.852143-20.368698-7.995589 0.213329-10.299547 7.560396-22.186265 4.300723-34.41431 10.931002 1.220245 7.773726 3.763132 12.176846 8.115053z" fill="#E1E9EA" p-id="4832"></path><path d="M227.102021 325.011715c-6.826543 17.902609 15.735182 34.9519-6.084157 48.673252-19.873773-13.567754-4.812713-34.115649-2.030896-52.735046 2.500221 1.493306 6.143889 2.474622 8.115053 4.061794z" fill="#DBECF0" p-id="4833"></path><path d="M584.215554 515.736794l14.310141 3.942329c7.790792 27.067243-13.44829 43.024288-34.243647 54.84274 10.367812 15.078127 6.160955 23.159047-0.981315 37.989712-15.496253 10.214215-27.80963 1.160512-41.821109 0.443725-15.248791-0.776519-33.740189-0.639988-49.057245 0-7.389733 0.307194-13.166695 4.880978-19.933506 4.403121-27.860829-1.954098-31.094904-26.299257-22.484926-48.843916-24.362226-3.438871-50.78948-38.979561-26.384589-56.813904 12.978965 7.065472 8.234518 23.304111 16.195973 32.477278 8.874506 10.222748 39.59395 9.924087 52.786244 8.080921 28.244822-3.942329 13.542155-10.069151 49.398572-0.699721 30.992505 8.089454 60.483171 0.91305 62.206874-35.822285z m-37.119328 61.455954l-54.134486-12.705903-46.403426 12.441374-4.147125 13.917615c11.980583 13.764017 32.357814 2.850082 46.258362 1.809034 21.870537-1.629837 41.25792 6.536415 63.068725 4.232457l-4.64205-19.70311z" fill="#502D26" p-id="4834"></path><path d="M481.510214 459.707942c23.363844-3.976461 68.632357 2.278359 73.837596 30.36105 3.848464 20.752691-36.411074 44.253065-54.450214 46.002367-29.584531 2.875681-79.025769-37.90438-50.62735-62.966326 4.40312-3.882596 25.096079-12.34751 31.239968-13.397091z" fill="#502F27" p-id="4835"></path><path d="M220.932533 484.556559c2.918347-0.017066 6.852143 3.387672 12.014715 2.935413 5.230839-0.460792 8.797707-5.043109 15.735182-3.788731 11.630723 2.107695 35.096964 18.841259 38.6553 30.651178 6.203621 20.61616 3.856997 48.340458-11.38326 64.434033-11.733121 12.398709-34.78977 11.75872-51.045476 10.17155-23.372377-2.286892-35.745486-16.008243-44.696791-36.547605-1.169045-17.578348 22.28013-67.75344 40.728863-67.855838z" fill="#FBC1A3" p-id="4836"></path><path d="M740.475125 488.891414c1.467707-0.230396 4.266589 1.8261 7.193469 1.459173 5.495367-0.682654 9.796089-3.524203 17.168756-3.30234 25.079013 0.75092 46.966616 36.018548 46.94955 59.126396 0 7.75666-5.290571 29.61013-10.359279 34.610573-25.667802 25.326475-74.451985 11.920851-89.47038-20.334565-5.17964-11.135798-8.840373-30.352517-5.427102-42.102704 2.815949-9.702224 23.747837-27.877895 33.953519-29.456533z" fill="#FAC2A5" p-id="4837"></path><path d="M547.096226 577.192748l4.64205 19.70311c-21.819338 2.303958-41.198187-5.862294-63.068725-4.232457-13.900548 1.041048-34.277779 11.954984-46.258362-1.809034l4.147125-13.917614 46.403426-12.441375 54.134486 12.705903z" fill="#F3907E" p-id="4838"></path></svg>