<?xml version="1.0" standalone="no"?><!DOCTYPE svg PUBLIC "-//W3C//DTD SVG 1.1//EN" "http://www.w3.org/Graphics/SVG/1.1/DTD/svg11.dtd"><svg t="1768660239994" class="icon" viewBox="0 0 1024 1024" version="1.1" xmlns="http://www.w3.org/2000/svg" p-id="3841" xmlns:xlink="http://www.w3.org/1999/xlink" width="256" height="256"><path d="M382.250284 1019.527868c40.271884-10.370735 76.808257-57.542228 81.516024-98.385526 2.277127-19.752157-2.592684-38.242086-3.616111-57.405771 33.142004 4.40074 66.838364 6.072338 100.14241 0-6.021167 32.39149-6.089395 60.817197 6.686395 91.605317 9.441121 22.76274 19.888614 31.521576 37.073672 46.574493 1.142828 1.006371 0.392314 4.656596 1.518085 5.52651 9.98695 7.701294 17.466501 9.432593 28.911835 12.076448-4.903925 9.910193-18.114672-0.025586-24.204067-0.068228-4.289868-0.034114-6.831381 3.778154-7.317509 3.778154H432.338546c-0.793157 0-6.882552-3.92314-14.848232-3.897554-12.161734 0.034114-23.453554 7.923037-35.222973 2.123613v-1.927456z" fill="#F8EFDF" p-id="3842"></path><path d="M274.679493 1023.237794c-6.157624-0.076757-12.392005 0.068229-18.549629 0 0.085286-3.036169-0.349671-6.18321 0.034115-9.227908 2.132141-16.860973 14.822646-49.670363 14.771474-63.094324-0.017057-3.837854-3.471126-7.54778-3.599054-11.223591-1.049013-30.898991 1.739827-58.250099 12.852547-87.12782 4.289868-11.146834 14.097718-20.997327 13.048705-33.321104-5.023325 0.571414-9.313193-0.784628-13.79069-2.925298C155.330755 756.975994 116.07377 644.799778 149.335173 513.997177c9.944307-39.094942 32.937318-75.281643 32.783804-115.911727-0.213214-56.117958-0.281443-106.44502 15.564631-162.162136 5.987053-21.065556 14.490032-47.231193 28.70715-64.023937 29.372378-34.668617 68.757291-16.417488 101.489924 2.498869 26.651766 15.39406 53.687317 36.49373 76.535342 57.0561l39.111999-5.620324c14.208589 2.984998 28.22955-3.249383 40.561856-3.948726 43.02661-2.43917 87.204577 3.991368 129.412445 10.976264 23.069768-16.136045 44.092681-36.007601 67.921492-51.034933 18.336415-11.564734 48.672521-27.939579 69.976876-30.174063 43.50421-4.579839 64.765923 50.966705 74.207044 85.132136 8.511508 30.796648 14.984689 74.138816 16.750102 105.660391 1.449856 25.875666-3.283498 56.877-0.102343 81.703653 2.464755 19.266028 21.585798 57.226671 27.862822 79.707969 23.726468 84.953036 24.90341 169.317601-33.645189 241.051361-29.440606 36.07583-69.65279 56.928171-109.165632 79.887069 19.445128 37.5598 33.056718 84.483965 22.191326 126.137476 3.974311 21.722255 11.615906 45.209923 14.882346 66.710436 1.432799 9.441121-11.88882 5.552096-18.626386 5.620324l-7.42838-37.090729c-9.014693 4.639539-14.472975 14.242704-22.404541 20.238285-4.724825 3.573469-17.125359 11.41122-22.097512 13.142519-18.472872 6.422009-40.715369 4.298397-59.350283 0-11.445334-2.643855-18.924886-4.375154-28.911836-12.076449-1.125771-0.869914-0.375257-4.520139-1.518084-5.52651-17.17653-15.061446-27.632551-23.811754-37.073673-46.574493-12.77579-30.796648-12.707562-59.213827-6.686394-91.605317-33.304046 6.072338-67.008935 4.392211-100.142411 0 1.031956 19.163686 5.893238 37.653615 3.616112 57.405771-4.707768 40.834769-41.24414 88.014791-81.516025 98.385526-5.262125 1.356042-15.104089 3.488183-20.238284 3.854911-7.837751 0.571414-28.041922-1.671599-35.402074-3.854911-2.660912-0.793157-15.496403-7.360152-18.464343-9.355836-9.372893-6.311138-15.479345-18.8396-26.037709-24.024967l-7.42838 37.090729zM159.688851 622.642566c5.16831 46.412451 9.475236 63.00051 37.09073 100.150939 39.862513 53.627617 120.721838 99.596582 188.071915 110.777531 9.517879 1.577785 15.496403-8.306822 28.82655-6.942252 17.159473 1.756884 26.933208 16.059288 33.93516 18.114672 5.509453 1.620427 41.42324 3.692869 51.307847 4.332511 10.99332 0.707871 65.524965-1.867756 73.891488-4.332511 6.114981-1.799527 15.590217-15.069974 30.864876-17.492086 12.289662-1.953041 20.38327 6.788738 28.238079 6.132038 14.200061-1.193999 54.992187-16.426016 70.386247-22.353369 47.60645-18.319358 84.714236-41.798497 117.634497-80.808154 24.656081-29.218864 33.133475-47.521164 40.800655-85.311235 0.127928-0.631114 2.703555-3.496712 3.709926-11.129778 0.469071-3.539354-0.3582-7.522194 0-11.129777 7.044595-70.386247-14.524146-112.875558-36.289044-176.99331-6.814323-20.076242-4.477497-22.037812-4.34104-39.853984 0.469071-58.949441-5.321825-143.228721-29.107992-197.478923-15.09556-34.429817-33.63666-43.905053-70.087747-27.81165-36.783701 16.246916-73.089802 48.774863-103.622065 74.659058l-55.222459-10.797164-70.326547-3.709925-92.944301 13.722461c-20.084771-13.722461-37.534215-31.291305-57.516643-45.158752-21.483455-14.907932-63.751023-42.642825-90.249275-34.933002-6.00411 5.253596-14.430332 11.846177-18.916357 18.1829-18.959 26.762637-32.988489 109.583532-35.257088 142.785236-1.935984 28.221022 3.377312 61.934439-0.136457 88.884704-3.437012 26.310623-25.508938 67.827678-32.545004 97.276813-8.682079 36.306101-12.255548 64.740337-8.195951 101.234067z m267.072014 337.543546c0.324085-0.520242 4.22164-1.057542 6.720509-6.149095 15.931359-32.519418 22.88214-95.502871-19.786271-109.012118-26.754108-1.091656-19.973899 26.412966-29.560006 37.295415-2.967941 3.368783-18.686086 14.242704-24.135839 18.524043-7.812166 6.140567-27.965165 26.992908-29.798806 5.603267-1.125771-13.168104 18.8993-19.573057 28.135736-27.786064 2.925298-2.592684 3.718454-5.680024 5.364467-7.496609 5.833538-6.430538 13.338676-10.293978 11.104192-22.233969-2.31977-0.5373-5.611796 0.597-7.394266-0.017057-8.647965-2.984998-17.611487-5.355939-27.052608-8.187423-7.121352-2.132141-22.958897-12.844019-28.698622-8.707665-3.189683 2.294184-11.863234 21.594327-13.927146 26.967323-15.33436 40.050141-22.071926 102.035752 15.820488 130.947587 37.363643 28.519521 84.901865 12.272605 111.391587-22.447183 2.08097-2.729141 1.219585-6.353781 1.816585-7.300452z m226.262829-111.280716c-1.78247 0.614057-5.074496-0.520242-7.394265 0.017057-2.063913 13.927147 7.087238 18.455815 14.805588 25.943895 7.940094 7.701294 15.445231 12.212905 23.564426 19.086929 9.03175 7.650123 10.311035 18.592272-3.240855 21.824597-4.903925-0.051171-15.087032-10.87392-20.332099-14.950574-5.159782-4.008426-19.240443-13.099876-21.568741-15.51346-6.00411-6.200267-7.60748-27.760479-15.504931-34.583331-20.596485-17.807644-44.015924 10.524249-47.512636 30.42992-5.014796 28.510993 1.142828 59.427041 17.816172 82.727081 23.709411 33.133475 55.947386 51.58929 96.492185 35.291202 55.683001-22.387483 50.685262-92.799316 32.536475-140.201081-2.652384-6.916666-11.641491-29.466192-19.052814-28.272193-10.549835 1.705713-35.035345 11.385634-47.896421 15.27466-2.046856 0.622585-2.456227 2.831484-2.729141 2.925298z" fill="#4D2B22" p-id="3843"></path><path d="M515.782026 155.260147c34.156903 10.191635 18.677557 51.563704-16.076345 43.887995-21.329941-4.707768-24.596381-39.794284-2.456227-43.896524l-14.37916-17.142416c-0.213214-9.441121-1.492499-20.042128-0.614057-29.35532 0.452014-4.801582 5.714139-20.937627 8.153308-23.376797 2.822955-2.822955 23.206225-9.611693 28.860664-11.939991l0.221743-18.319358-18.737257 1.671599C494.000071 67.390341 486.861662 80.566974 473.198901 81.291902c-20.178585 1.074599-34.617445-14.686189-30.907519-34.745374 11.044492-59.657312 112.474715-62.147653 131.169329-6.439066 6.771681 20.178585 4.835696 41.764383-7.701294 59.435569-8.195951 11.556206-27.257294 18.327886-29.764692 22.165741-3.274969 4.989211-0.221743 12.494348-3.411426 18.848129-3.095869 6.166153-14.950574 7.095766-16.801273 14.720303zM460.286654 62.401131l12.383476 3.599054c8.810008-4.963625 10.925092-16.553945 18.848129-22.16574 14.362103-10.166049 27.419337-5.70561 41.056512 3.752568l5.52651 16.835388c-2.652384 23.990853-35.77733 24.698724-40.254827 45.090523-1.501027 6.848438-2.695027 24.886353 5.083025 27.069665 20.664713 5.790896 13.91009-13.500718 18.3023-22.22544 3.223798-6.396424 21.892826-13.338676 28.076036-20.144471 20.118885-22.16574 11.914405-54.599873-11.377105-70.522704-10.686292-7.30898-33.321104-7.419852-46.258937-5.662967-17.005959 2.311241-36.271987 26.498251-31.385119 44.365595z m55.495372 103.988793c-25.048395-3.616112-25.875666 21.884298 0 18.558157v-18.558157z" fill="#4F3129" p-id="3844"></path><path d="M745.754782 1023.237794c-16.809802 0.170571-36.894572 2.575627-51.930433-3.709926 4.972153-1.731299 17.364158-9.56905 22.097512-13.142519 7.931565-6.00411 13.389847-15.607274 22.404541-20.238285l7.42838 37.09073z" fill="#F5C27F" p-id="3845"></path><path d="M326.609926 1019.527868c-15.010274 6.259967-35.146216 3.92314-51.930433 3.709926l7.42838-37.09073c10.566892 5.185368 16.664816 17.722358 26.037709 24.024968 2.967941 1.995684 15.803431 8.571208 18.464344 9.355836z" fill="#F2BF79" p-id="3846"></path><path d="M864.45535 622.642566c-6.993423-5.04891-8.195951-15.249074-13.07429-22.157211-10.251335-14.524146-28.741264-24.323467-46.275994-26.063295l-2.183313-3.309083c-11.41122-0.153514-24.24671-2.225955-34.907416 1.373099v1.927455c-3.650226 0.221743-7.539251-0.409371-11.121249 0-13.500718 1.535142-20.912041 8.033908-29.670878 11.129778-12.417591 4.383682-25.287195 10.421906-37.090729 14.839703-17.602958 6.575524-36.954272 8.400637-55.640358 7.419851-52.604189-14.285346-71.512018-57.985714-135.544484-52.083946-48.544592 4.468968-64.680637 40.263355-109.267975 52.083946-9.065865-0.588471-18.771372 0.972256-27.726365-0.076757-3.991368-0.469071-17.398273-2.720612-20.494142-3.633168-34.446874-10.089292-55.725644-29.747635-98.129669-33.542847-6.217324-0.554357-20.50267-2.106556-24.272296 3.871969-17.449444 1.620427-36.092887 11.641491-46.275993 26.063295-4.878339 6.908138-6.080867 17.11683-13.074291 22.157211-4.059597-36.485201-0.486128-64.919437 8.195951-101.234066 7.036066-29.449135 29.116521-70.966189 32.545004-97.276813 3.513769-26.950265-1.799527-60.663683 0.136458-88.884704 2.277127-33.193175 16.306616-116.01407 35.257087-142.785236 4.486025-6.328195 12.912247-12.929305 18.916357-18.1829 26.489723-7.701294 68.757291 20.025071 90.249275 34.933002 19.982428 13.867447 37.431872 31.436291 57.516643 45.158752l92.944301-13.722462 70.326548 3.709926 55.222458 10.797164c30.540791-25.875666 66.838364-58.412142 103.622065-74.659059 36.451087-16.093402 54.992187-6.618166 70.087747 27.811651 23.786168 54.250202 29.577063 138.520953 29.107993 197.478923-0.144986 17.816172-2.473284 19.777742 4.341039 39.853984 21.764898 64.117752 43.342167 106.598534 36.289044 176.99331z m-619.446734-270.781939c27.299937-22.097512 54.642516-51.393133 85.456221-68.475848 4.844225-2.686498 11.121249-1.756884 14.669132-7.564837-12.238491-14.549732-25.713624-29.218864-40.945641-40.638613-16.57953-12.434648-29.756163-20.536785-43.828295 0.3582-9.44965 14.029489-10.166049 30.90752-12.272605 47.077679-0.281443 2.157727-3.087341 3.513769-3.087341 4.332511v64.910908z m534.126969 0c-0.597-14.097718 0.895499-28.476879-0.068228-42.574596-0.980785-14.370632-4.366625-36.894572-8.255651-51.094633-3.377312-12.332305-10.038121-33.176118-23.854396-35.726159-16.067816-2.967941-51.546647 31.606862-62.412039 44.084152-2.456227 2.822955-6.498767 4.477497-5.509453 9.108508 1.799527 6.00411 41.440297 28.741264 50.096791 35.333845 13.952732 10.626592 25.577166 24.24671 38.873199 35.316787 3.752569 3.121455 4.758939 7.095766 11.121249 5.560625z m-401.865983 45.124638c-26.540894 5.987053-33.568432 36.101416-15.385531 54.983658 27.717836 28.775378 93.618058 26.293566 79.179197-23.538839-5.799424-20.016542-44.365595-35.828502-63.793666-31.453348z m244.92333 0.110871c-31.837133 5.535039-67.145392 43.887996-32.127104 67.793563 24.66461 16.835387 72.407517-4.247225 77.166456-34.003388 3.906083-24.408753-23.794696-37.483043-45.047881-33.790175z m-192.967312 145.66789c0-30.267877-24.536682-54.804559-54.804559-54.804558s-54.804559 24.536682-54.804559 54.804558 24.536682 54.804559 54.804559 54.804559 54.804559-24.536682 54.804559-54.804559z m200.293349-53.056202c-47.597921 10.404849-52.476261 82.633266-7.24928 102.479237 28.272193 12.409062 70.744447-1.859227 75.264586-34.47246 5.88471-42.455197-24.36611-77.550242-68.006777-68.006777z" fill="#F8C27E" p-id="3847"></path><path d="M634.482594 607.802863c0.315557 0.085286 0.3582 3.070283 5.313296 3.795212 5.338882 0.784628 11.428277-0.562885 16.93773-0.076757-0.929614 9.739621-6.925195 17.509144-7.581894 27.675193-0.776099 12.016748 5.236539 42.02024 10.498663 52.860046 6.643752 13.679818 23.325625 30.225234 36.502259 37.687729 33.363746 18.907829 70.573875 14.472975 106.641177 11.129777l17.150944-10.669235c-32.920261 39.018185-70.028047 62.497324-117.634497 80.808154-15.402588 5.927353-56.194715 21.15937-70.386247 22.353369-7.854808 0.6567-15.948417-8.08508-28.238079-6.132039-15.27466 2.430641-24.741367 15.69256-30.864877 17.492087-8.357994 2.456227-62.889638 5.040382-73.891487 4.332511-9.884607-0.639642-45.798394-2.712084-51.307847-4.332511-7.001952-2.055384-16.775687-16.357788-33.93516-18.114672-13.330147-1.36457-19.308671 8.520036-28.82655 6.942252-67.358606-11.17242-148.217931-57.149914-188.071916-110.777531l21.108199 10.421907c20.460027 5.594739 36.766644 10.208692 58.557127 8.042436 10.234278-1.023428 41.84114-10.490135 51.393133-15.206431 4.366625-2.157727 13.79069-8.929408 17.415329-12.409062 4.682182-4.503082 6.06381-10.234278 8.247123-12.357891 1.219585-1.185471 4.545725-0.341143 5.654438-1.36457 4.119297-3.795211 14.61796-44.885838 11.880291-53.090317-5.64591-12.818433-0.375257-24.78401-11.044491-35.299731 7.84628-0.776099 16.767159 1.117242 24.349053 0.068229 4.963625-0.682285 5.006268-3.701397 5.321824-3.786683 44.587338-11.82912 60.723383-47.614978 109.267975-52.083947 64.032466-5.893238 82.931766 37.7986 135.544484 52.083947z m-134.606341-32.587647c-63.520752 9.09145-43.001025 63.529281 6.694923 69.635734 27.956636 3.437012 69.328705-26.054766 48.177864-55.614773-15.539045-11.027435-35.939373-16.724516-54.881316-14.020961z m78.974512 65.968451c-3.454069 24.024968-11.249177 38.770857-38.352957 32.775275-8.920879-1.970099-20.212699-13.841861-26.557952-14.43886-9.773736-0.921085-19.803328 12.144677-30.293463 14.43886-12.349362 2.703555-30.378749 1.995684-36.579015-10.421906-4.511611-9.040279 0.469071-34.805074-20.050656-16.545416-1.66307 33.269932 24.749896 50.881419 56.5188 45.40608 11.206534-1.935984 20.025071-9.441121 29.986435-13.944204 30.754005 29.636763 84.449851 14.635018 79.844425-31.410705l-3.351726-4.059597-11.17242-1.808056z" fill="#F9F0DE" p-id="3848"></path><path d="M367.410581 848.905396h-7.419852l3.709926 22.259555c-1.646013 1.816584-2.43917 4.895396-5.364467 7.496609-9.244964 8.20448-29.261507 14.61796-28.135736 27.786064 1.825113 21.389641 21.986641 0.5373 29.798806-5.603267 14.686189 26.856451 36.903101 49.815348 66.770135 59.350284-0.597 0.946671 0.264386 4.579839-1.816584 7.300452-26.481194 34.719788-74.027944 50.966705-111.391588 22.447183-37.883886-28.920364-31.154848-90.905974-15.820488-130.947587 2.055384-5.381525 10.737463-24.673139 13.927147-26.967323 5.739724-4.136354 21.577269 6.575524 28.698621 8.707665 9.432593 2.831484 18.404643 5.202425 27.052608 8.187422z" fill="#F5C27F" p-id="3849"></path><path d="M593.673411 963.896038c25.466295-16.144574 56.203243-33.039661 66.770135-63.060209 5.236539 4.068126 15.419646 14.899403 20.332099 14.950574 13.55189-3.232326 12.272605-14.174475 3.240855-21.824598-8.127722-6.882552-15.624331-11.385634-23.564425-19.086928v-25.978009l-7.419852 0.008528c0.272914-0.093814 0.682285-2.311241 2.729141-2.925298 12.852547-3.889026 37.338058-13.568947 47.896421-15.27466 7.411323-1.193999 16.400431 21.355527 19.052814 28.272193 18.148786 47.401764 23.146525 117.813597-32.536475 140.201081-40.53627 16.298088-72.774245-2.149198-96.492185-35.291202z" fill="#F5C17E" p-id="3850"></path><path d="M219.039135 574.42206c4.04254-0.375257 8.750308-0.1791 12.878133 0 4.298397 0.1791 10.302507-2.464755 9.372893 3.701397-10.899506-0.545828-30.029077 13.543361-35.205916 22.293669-2.123613 3.599054-12.536991 28.127207-13.006062 31.504519-2.567098 18.566686-1.654542 45.64488 9.364365 61.09864 24.374639 34.17396 72.740131 37.994757 108.278661 19.445128 25.534524-13.330147 41.824083-44.177967 38.071514-73.081273-0.904028-6.967838-4.946568-12.673448-7.351623-18.592272-1.953041-4.793054-8.997636-12.554048 0-16.69893 3.087341 0.904028 16.502773 3.164098 20.494142 3.633168 8.963522 1.049013 18.6605-0.511714 27.726365 0.076757-0.315557 0.085286-0.3582 3.104398-5.321825 3.786683-7.590423 1.049013-16.502773-0.844328-24.349053-0.068228 10.669235 10.515721 5.398582 22.481297 11.044492 35.29973 2.746198 8.195951-7.760994 49.295106-11.880291 53.090317-1.117242 1.023428-4.434854 0.1791-5.654439 1.364571-2.183313 2.123613-3.56494 7.854808-8.247122 12.357891-3.616112 3.479655-13.048704 10.259864-17.41533 12.409062-9.551993 4.716296-41.158855 14.191532-51.393133 15.206431-21.790484 2.166256-38.105628-2.447698-58.557127-8.042437l-21.108198-10.421906c-27.615494-37.150429-31.930947-53.738488-37.09073-100.150939 6.993423-5.040382 8.195951-15.249074 13.07429-22.157212 10.183107-14.421803 28.818021-24.434339 46.275994-26.063295z" fill="#F9E6D0" p-id="3851"></path><path d="M805.105066 574.42206c17.53473 1.739827 36.01613 11.53062 46.275994 26.063295 4.878339 6.908138 6.080867 17.11683 13.07429 22.157211-0.3582 3.607583 0.469071 7.581894 0 11.129778l-3.309084 2.311241-0.400842 8.818536c-7.66718 37.790072-16.144574 56.092372-40.800655 85.311236l-17.150944 10.669235c-36.067301 3.334669-73.277431 7.778051-106.641177-11.129778-13.168104-7.462494-29.858506-23.999382-36.502259-37.687728-5.262125-10.848335-11.274763-40.843298-10.498663-52.860046 0.6567-10.174578 6.652281-17.935572 7.581894-27.675194-5.509453-0.4776-11.598848 0.861385-16.93773 0.076757-4.955096-0.724928-4.997739-3.709926-5.313296-3.795211 18.686086 0.980785 38.0374-0.844328 55.640358-7.419852l-14.25976 20.988799-8.093609 18.012329c3.172626 34.122789 8.869708 57.209614 39.623713 75.401043 22.447183 13.278976 50.668205 15.462288 76.586514 10.976264 28.579221-4.946568 43.674781-46.668308 50.796133-71.580247-5.321825-13.526304-3.38584-29.270035-9.33025-42.60871-6.729038-15.104089-27.427865-21.679612-35.171802-37.158958 4.886868 0.1791 9.995478-0.4776 14.839703 0z" fill="#F8E8D4" p-id="3852"></path><path d="M593.673411 963.896038c-16.673345-23.30004-22.830969-54.224616-17.816173-82.72708 3.496712-19.905671 26.916151-48.229035 47.512636-30.42992 7.897451 6.822852 9.500821 28.383064 15.504931 34.583331 2.328298 2.405055 16.408959 11.505034 21.568741 15.51346-10.566892 30.020549-41.295312 46.915636-66.770135 63.060209z" fill="#F7EEDD" p-id="3853"></path><path d="M426.760865 960.186112c-29.867035-9.526407-52.083947-32.493833-66.770136-59.350283 5.449753-4.28134 21.167898-15.15526 24.135839-18.524044 9.586107-10.882449 2.814426-38.387071 29.560007-37.295414 42.668411 13.509247 35.726159 76.501228 19.78627 109.012118-2.49887 5.091553-6.387895 5.628853-6.720509 6.149095z" fill="#F8EFDD" p-id="3854"></path><path d="M653.023694 848.905396h7.419852v25.960952c-7.72688-7.48808-16.869502-12.016748-14.805589-25.943895 2.31977-0.5373 5.611796 0.597 7.394266-0.017057z" fill="#F3EBE2" p-id="3855"></path><path d="M367.410581 848.905396c1.78247 0.614057 5.074496-0.511714 7.394266 0.017057 2.234484 11.94852-5.270653 15.81196-11.104192 22.233969l-3.709926-22.251026h7.419852z" fill="#F3E1C6" p-id="3856"></path><path d="M860.745424 644.893593l0.400842-8.818537 3.309084-2.311241c-1.006371 7.633066-3.581997 10.498664-3.709926 11.129778z" fill="#F8C27E" p-id="3857"></path><path d="M460.286654 62.401131c-4.878339-17.867344 14.379161-42.054354 31.385119-44.365595 12.937833-1.756884 35.572645-1.646013 46.258937 5.662967 23.291511 15.922831 31.495991 48.356964 11.377105 70.522704-6.174681 6.805795-24.852238 13.748047-28.076036 20.14447-4.392211 8.724722 2.362413 28.016336-18.3023 22.225441-7.778051-2.183313-6.584052-20.212699-5.083025-27.069666 4.477497-20.391799 37.602443-21.09967 40.254827-45.090523l-5.52651-16.835387c-13.645704-9.458179-26.702937-13.927147-41.056512-3.752569-7.923037 5.611796-10.038121 17.193587-18.848129 22.165741l-12.383476-3.599055z" fill="#DE7163" p-id="3858"></path><path d="M515.782026 166.389924v18.558157c-25.875666 3.32614-25.048395-22.174269 0-18.558157z" fill="#DB6553" p-id="3859"></path><path d="M429.22562 542.764026c0 30.267877-24.536682 54.804559-54.804559 54.804559s-54.804559-24.536682-54.804559-54.804559 24.536682-54.804559 54.804559-54.804558 54.804559 24.536682 54.804559 54.804558z m-13.782161-9.338778c0.571414-10.822749 2.609741-20.929099-7.121352-27.726365-30.446977-11.05302-35.385016 34.881831-5.688553 31.666562 4.451911-0.4776 8.178894-3.965783 12.809905-3.940197z" fill="#543129" p-id="3860"></path><path d="M629.518969 489.707824c43.640667-9.543464 73.891487 25.551581 68.006778 68.006777-4.520139 32.613233-46.992393 46.881522-75.264587 34.47246-45.22698-19.854499-40.348641-92.074388 7.249281-102.479237z m56.527329 31.905361c0-9.227907-7.479552-16.707459-16.707459-16.707459s-16.707459 7.479552-16.707459 16.707459 7.479552 16.707459 16.707459 16.707459 16.707459-7.479552 16.707459-16.707459z" fill="#553229" p-id="3861"></path><path d="M341.449629 604.092938c-8.997636 4.144883-1.953041 11.905877 0 16.69893 2.405055 5.918824 6.447595 11.624434 7.351623 18.592272 3.752569 28.903307-12.536991 59.751126-38.071514 73.081273-35.53853 18.549629-83.904023 14.720303-108.278662-19.445128-11.018906-15.45376-11.931462-42.540482-9.364364-61.09864 0.469071-3.38584 10.87392-27.913993 13.006062-31.504519 5.176839-8.741779 24.30641-22.839497 35.205916-22.293669 0.929614-6.166153-5.083025-3.513769-9.372893-3.701397-4.127825-0.1791-8.835593-0.375257-12.878133 0 3.778154-5.969996 18.063501-4.426325 24.272296-3.871969 42.404025 3.795211 63.682795 23.453554 98.129669 33.542847z m-90.146932-14.106247c-10.225749 1.799527-25.108095 12.699033-30.378749 21.551684-4.093711 6.882552-4.016954 16.272502-6.294081 23.385325-1.142828 3.581997-5.270653 5.628853-6.18321 8.639436-5.987053 19.675399 17.065659 53.55086 36.37433 59.009142 19.342785 5.458282 54.719273-2.149198 68.757291-16.912145 5.500924-5.782367 16.374845-27.615494 16.886559-35.35943 0.2388-3.633169-4.068126-23.445025-5.52651-27.845765-8.588265-25.978009-49.201292-36.766644-73.644159-32.459718z" fill="#F9D9C0" p-id="3862"></path><path d="M768.014337 574.42206c7.206637-0.426428 15.018803-0.264386 22.259554 0 7.743937 15.470817 28.451293 22.054869 35.171802 37.158958 5.94441 13.338676 4.008426 29.082407 9.33025 42.60871-7.121352 24.911938-22.22544 66.633678-50.796133 71.580247-25.909781 4.486025-54.139331 2.302713-76.586514-10.976264-30.754005-18.191429-36.451087-41.278255-39.623713-75.401043l8.093609-18.012329 14.25976-20.988799c11.803534-4.409268 24.681667-10.456021 37.090729-14.839703l-16.630701 18.728729c-16.417488 7.394266-28.613336 39.606656-23.641182 56.783186 0.801685 2.771784 16.656287 25.218967 19.760685 28.451293 21.082613 21.935469 57.5337 21.33847 83.596994 9.21085 17.577372-8.178894 27.769008-36.73253 25.833023-55.597715-3.411426-33.235818-27.035551-48.391078-55.435672-59.55497-8.289765-3.257912-9.765207 0.452014-3.812269-9.142622 3.590526-0.409371 7.471023 0.221743 11.129778 0z" fill="#FADDC4" p-id="3863"></path><path d="M756.884559 574.42206c-5.952938 9.594636-4.477497 5.876181 3.812269 9.142622 28.400121 11.163892 52.024247 26.32768 55.435672 59.554969 1.935984 18.865186-8.255651 47.418821-25.833023 55.597715-26.063295 12.136148-62.514382 12.724619-83.596994-9.21085-3.104398-3.232326-18.959-25.679509-19.760685-28.451293-4.972153-17.17653 7.223695-49.397449 23.641182-56.783186l16.630701-18.728728c8.758836-3.087341 16.170159-9.586107 29.670878-11.129778zM720.476115 670.189316c6.942252 0.579942 10.055178 7.709823 14.183004 9.92725 20.963213 11.257706 51.58929 5.338882 58.642413-19.189271 6.439067-22.370426-1.381628-36.024659-19.649814-49.491263-16.75863-12.349362-38.361485-13.586004-51.930432 3.86344-13.466604 17.321516-11.624434 36.724001-1.245171 54.889844z" fill="#F9CEB3" p-id="3864"></path><path d="M779.135585 351.860627c-6.362309 1.535142-7.377209-2.43917-11.121248-5.560624-13.296033-11.070077-24.920467-24.681667-38.8732-35.316788-8.656493-6.601109-48.297264-29.329735-50.096791-35.333845-0.989314-4.631011 3.053226-6.285552 5.509453-9.108507 10.856863-12.477291 46.344222-47.052093 62.412039-44.084153 13.816275 2.550041 20.477085 23.393854 23.854396 35.726159 3.889026 14.200061 7.274866 36.724001 8.255651 51.094633 0.963728 14.097718-0.520242 28.485407 0.068229 42.574597z" fill="#F8C7B7" p-id="3865"></path><path d="M245.008616 351.860627v-64.910908c0-0.827271 2.805898-2.174784 3.08734-4.332511 2.106556-16.170159 2.822955-33.048189 12.272605-47.077679 14.080661-20.886456 27.257294-12.792848 43.828296-0.3582 15.232017 11.428277 28.70715 26.097409 40.94564 40.638613-3.547883 5.807953-9.824907 4.878339-14.669131 7.564837-30.822234 17.082716-58.164813 46.369808-85.456222 68.475848z" fill="#F9C7B8" p-id="3866"></path><path d="M377.269602 396.985265c19.428071-4.383682 57.994242 11.436806 63.793666 31.453348 14.447389 49.832405-51.461361 52.314218-79.179197 23.538839-18.191429-18.882243-11.155363-49.005135 15.385531-54.983659zM622.192932 397.096136c21.253184-3.701397 48.953963 9.381422 45.04788 33.790175-4.758939 29.756163-52.501846 50.838776-77.166456 34.003388-35.026817-23.905568 0.289971-62.249996 32.127104-67.793563z" fill="#F8EFDD" p-id="3867"></path><path d="M805.105066 574.42206c-4.835696-0.4776-9.944307 0.1791-14.839703 0-7.232223-0.264386-15.052917-0.426428-22.259555 0v-1.927456c10.660706-3.607583 23.496197-1.526613 34.907417-1.373099l2.183312 3.309083z" fill="#F9CEB3" p-id="3868"></path><path d="M499.876253 575.215216c18.941943-2.712084 39.333742 2.993526 54.881315 14.020961 21.142313 29.560006-20.221228 59.051784-48.177863 55.614773-49.704477-6.106453-70.215676-60.544283-6.694924-69.635734z" fill="#53312B" p-id="3869"></path><path d="M578.850765 641.183667l11.17242 1.808056 3.351726 4.059596c4.596897 46.045723-49.098949 61.047468-79.844426 31.410705-9.969892 4.494554-18.788429 12.00822-29.986434 13.944204-31.768905 5.483867-58.181871-12.127619-56.518801-45.40608 20.519727-18.268186 15.539045 7.505137 20.050657 16.545416 6.200267 12.417591 24.229653 13.125462 36.579015 10.421907 10.481606-2.294184 20.519727-15.359946 30.293463-14.438861 6.353781 0.597 17.637072 12.460233 26.557951 14.438861 27.095251 5.995581 34.890359-8.750308 38.352957-32.775276z" fill="#502E25" p-id="3870"></path><path d="M415.443459 533.425248c-4.622482-0.025586-8.357994 3.454069-12.809905 3.940197-29.696463 3.215269-24.758424-42.719582 5.688553-31.666562 9.731093 6.805795 7.692766 16.903616 7.121352 27.726365z" fill="#F1EFEC" p-id="3871"></path><path d="M669.330311 521.613185m-16.707459 0a16.707459 16.707459 0 1 0 33.414918 0 16.707459 16.707459 0 1 0-33.414918 0Z" fill="#F2F0ED" p-id="3872"></path><path d="M251.302697 589.986691c24.442867-4.306925 65.055894 6.481709 73.644159 32.459718 1.449856 4.40074 5.76531 24.212596 5.52651 27.845765-0.511714 7.743937-11.377106 29.568535-16.886559 35.359431-14.038018 14.762946-49.414506 22.378955-68.757291 16.912144-19.308671-5.449753-42.361382-39.333742-36.37433-59.009141 0.912556-3.010583 5.040382-5.057439 6.18321-8.639437 2.268598-7.112823 2.191841-16.502773 6.294081-23.385325 5.270653-8.861179 20.161528-19.752157 30.378748-21.551684z m-9.236436 29.71352c-3.752569 9.731093-12.272605 15.820488-12.18732 27.061137 0.221743 28.510993 32.732633 45.320794 55.827987 29.560007 16.391902-11.189477 22.396012-23.854396 18.037915-43.794182-1.253699-5.722667-12.929305-20.38327-17.875872-22.933311-20.494142-10.558363-27.393751 0.076757-43.794182 10.106349z" fill="#F9CAAE" p-id="3873"></path><path d="M720.476115 670.189316c-10.370735-18.157315-12.221434-37.568329 1.245171-54.889844 13.568947-17.449444 35.171802-16.212802 51.930432-3.86344 18.268186 13.466604 26.08888 27.112308 19.649814 49.491263-7.053123 24.519624-37.6792 30.446977-58.642413 19.189271-4.127825-2.217427-7.240752-9.347307-14.183004-9.92725z" fill="#FABD9F" p-id="3874"></path><path d="M242.066261 619.700211c16.400431-10.038121 23.308568-20.664713 43.794181-10.106349 4.946568 2.550041 16.622173 17.210644 17.875872 22.933311 4.358097 19.948314-1.646013 32.613233-18.037915 43.794182-23.095354 15.760788-55.606244-1.049013-55.827986-29.560007-0.085286-11.240649 8.443279-17.321516 12.187319-27.061137z" fill="#FABA9B" p-id="3875"></path></svg>