<?xml version="1.0" standalone="no"?><!DOCTYPE svg PUBLIC "-//W3C//DTD SVG 1.1//EN" "http://www.w3.org/Graphics/SVG/1.1/DTD/svg11.dtd"><svg t="1768660217544" class="icon" viewBox="0 0 1024 1024" version="1.1" xmlns="http://www.w3.org/2000/svg" p-id="2322" xmlns:xlink="http://www.w3.org/1999/xlink" width="256" height="256"><path d="M140.637686 363.519533l1.749331 29.721562c7.338657 6.869325 32.298625 23.176504 34.815956 31.837826 2.756263 9.463455 2.022397 34.850089-8.806389 38.417018l-9.454921-9.309855c15.880513-36.983419-30.591961-33.109291-36.113021-63.598852-2.33813-12.902383 1.800531-29.499695 17.809044-27.067699z" fill="#BAACA1" p-id="2323"></path><path d="M96.810542 414.796268c2.193064 2.244264 14.822381 7.517857 19.822908 11.596785 3.336529 2.72213 15.30878 14.353048 16.136513 17.194644 1.834664 6.306125 2.38933 32.580225-5.102927 34.705023-19.703441 5.589326-9.489054-25.932767-14.617581-33.501824-23.944503-10.973853-51.865533-34.850089-26.0949-59.059124 17.783444 2.26133 2.244264 21.299173 9.847454 29.055962z" fill="#B9AA9F" p-id="2324"></path><path d="M381.337111 1015.22643c-5.606393 10.956786-11.426119 7.330124-22.152505 7.364258l-0.128-11.059186c-12.586651-1.740798-22.613304 4.770127-35.259688 3.865595-31.726893-2.269864-75.272437-15.92318-95.965744-41.079414-12.424517-15.103981-40.174882-71.824974-42.692212-90.61535-3.455996-25.8133 9.830387-65.092183 33.442091-77.892167-6.655991-21.495439-11.605318-49.220204-26.035167-66.525781-14.583448-17.484778-37.085819-19.148775-55.449529-33.416491-51.916733-40.345548-77.9263-113.177455-44.006343-173.294711 25.7109-45.567942 86.971622-62.46392 130.892632-32.162092 4.420261-0.042667 22.954637-49.450603 23.987169-57.360993 5.23946-40.081015-2.227197-86.664422 3.848528-129.459034 4.693327-33.092224 19.652241-96.025477 44.270877-118.655848 16.409579-15.078381 34.867155-15.87198 56.763661-12.168517 24.004236 4.061861 56.234594 30.148228 76.620701 43.71621l2.065064-25.958366c-22.476771-9.361055-43.784477-18.51731-54.690063-41.745013-24.098102-51.319401 9.429321-111.061191 65.680982-117.35025 20.75304-2.321064 35.694888 5.512526 55.159396 7.074124 37.290619-47.095406 101.026004-60.535389 156.543799-37.503951 28.142897 11.673585 45.346075 31.735426 62.532187 55.952994 23.799436-2.090664 40.806348-7.406924 64.537517 2.133331 27.485831 11.050652 49.05807 41.002614 51.822867 70.544976 1.476265 15.803713-10.42772 31.20636-11.144519 46.139674 43.050611-0.793599 60.859655 56.703927 69.597777 91.494283 15.69278 62.54072 3.891195 116.061718 11.878385 173.269111 1.877331 13.457049 16.588779 41.267147 21.418639 56.345528 25.924233 80.912963 36.31782 158.08833-7.185057 235.613564-21.589306 38.476751-57.002594 64.196184-91.980682 89.446285 52.974865 46.993006 78.250566 121.514511 85.154024 190.702689h-18.525843l-3.694929-22.212239c-1.331198-35.182888-21.964772-83.157227-40.012748-113.663854-5.563726-9.403721-33.834623-45.900741-43.306611-45.798341-3.362129 1.774931-14.395715 6.647458-15.982913 8.302923-1.979731 2.065064-2.227197 8.388256-4.838394 11.827185-22.442638 29.627695-54.57913 52.462866-91.033483 64.503383-7.108258 2.346664-29.346096 3.652262-30.668761 10.214387 17.271445 43.886877-41.804746 40.379682-68.027646 23.355704-15.018647-9.745054-13.311983-21.546639-37.290619-18.175977-13.653316 25.233034-48.469271 45.380208-77.380167 40.209015-25.727967-4.599461-7.065591-40.652748 1.211732-54.83513-10.965319-1.194665-16.930112-0.170666-20.514107 10.948253-6.399992 19.831441-5.606393 42.444746-5.401593 63.103919l-3.302396 2.184531-0.4096 20.044774c-5.57226 2.892796-17.254378-3.950928-18.508776-3.703462 5.887992-22.382905 2.92693-45.397275 7.534924-68.368979 2.457597-12.245318 7.534924-23.458103 10.982386-35.302355-15.69278-5.196793-35.123155-14.003182-47.982872-24.234635-10.291187-8.191989-21.469839-30.199428-31.598893-31.479426-10.42772-1.322665-23.304503 7.244791-35.217021 3.857061 3.549862 11.374919-8.191989 33.288491-6.894925 42.052213 0.486399 3.276796 4.334928 6.399992 5.230927 9.634121 4.326394 15.675713 6.374392 23.57757-2.508797 38.570617-11.519985 19.438908-46.583407 25.011168-61.081522 6.485325l-31.010093 1.390932c18.653843 19.447442 52.582333 33.288491 79.436698 35.327954 14.463981 1.100799 26.2229-4.898127 40.524748-4.223994 9.890121-2.756263 19.268242-55.202062 25.011168-67.558314 5.299193-11.409052 19.703441-7.048524 17.382378 6.186659-4.642127 26.478899-23.108237 53.904997-21.657573 83.967892zM703.563897 89.454819c-4.531194-22.536504-23.338637-43.195678-43.238344-54.920463-43.221278-25.463434-103.304401-20.85544-140.28782 14.079982-5.657593 5.350393-11.059186 19.643708-18.781843 21.998905-11.938118 3.635195-21.836772-9.207455-32.913024-10.73492-50.705002-7.005858-95.146545 34.244223-77.9519 85.358824 5.922126 17.604244 30.233561 34.431956 48.392471 36.761553 17.459178 2.23573 49.612736-6.562125 59.152991-22.178105 2.431997-3.976528 2.252797-13.30345 7.483723-14.754115 9.625588-2.67093 13.815449 8.294389 20.420241 12.842651 31.752493 21.828239 90.120418 27.844231 125.934772 15.035714 12.731717-4.548261 22.911971-13.875182 34.542889-20.223974l9.523187 3.669328c-2.082131 12.84265 7.338657 22.365838 17.416511 28.86823 37.666085 24.294369 92.168415 12.927983 100.590805-35.362088 4.027728-23.099704-10.828786-45.465542-28.99623-58.453258-26.291166-18.798909-53.324732-5.819726-81.288429-1.988264z m-18.687976 88.959885c-12.313584 2.577063-22.749837 10.53012-35.857021 13.977582-35.037822 9.224521-78.873499 5.981859-112.213189-8.422389-8.661322-3.737595-15.351447-9.480521-23.731169-12.910917-17.425044 18.372243-40.191948 26.589833-64.98125 29.627696-3.831462 26.734899-4.846927 53.742864-3.575462 81.126296l47.897538 15.044247 3.711995-81.467629h14.805315L507.416949 300.372948c41.651147 8.251723 88.669753 14.873581 131.430231 11.460252 8.422389-0.674132 16.255979-5.282127 25.378101-4.249595l5.623459-5.478393 4.147195-79.197765 14.677315-0.110933-3.694929 81.476162 51.669267-11.289585 3.541329-75.40897c-1.860264-6.476792-18.619709-8.311456-25.642634-11.391986-12.194118-5.34186-27.084765-14.028782-29.678895-27.775964zM285.055634 596.794967c1.314132 9.932787 1.356798 34.559956 0 44.43301-0.401066 2.92693-8.678389 21.879439-7.406924 25.924233-5.230927 8.072523-7.67999 17.092245-11.110385 25.924234-1.331198 3.421862-5.614926 7.52639-6.681592 13.695982-2.23573 12.962117-0.170666 26.760499 3.711995 39.185017 0.631466 2.013864 2.841596 2.346664 2.969597 2.662396 9.164788 23.253303 24.661302 35.327955 44.595142 49.82607 120.695312 87.782287 312.831599 94.165212 448.946624 41.949812 58.000992-22.254905 103.227601-54.126864 135.952892-106.589729 0.238933-0.392533 4.232528-1.484798 6.937592-6.015993 11.963718-20.019174 19.908241-52.343399 22.690104-75.451636 5.29066-43.99781-3.541329-86.954555-16.554646-129.7065-6.058659-19.908241-21.759972-50.457535-24.115169-68.462846-3.515729-26.922632 1.791998-60.876722 0.1024-88.968419-2.124797-35.259688-13.363183-98.44894-29.055963-130.175833-25.079434-50.713535-64.938583-29.977562-100.343337-2.602663-1.561598 12.091718 0.708266 24.806368-0.2048 36.829819-0.733866 9.599988-4.215461 16.017046-3.865595 27.613831 0.034133 1.211732-0.1792 2.525863 0 3.703462-7.927456 5.614926-15.684247 10.47892-24.874635 14.003182-63.103919 24.157836-196.385881 16.998378-260.394332-4.59946-12.595184-4.249595-24.499169-11.366385-36.215421-17.459178-8.968522-14.506648-1.450665-26.666632-0.921598-41.63408-22.084238-18.039444-82.978027-62.771119-110.933191-48.529004-3.114663 1.587198-15.317314 15.249047-17.911444 19.114642-19.609575 29.226629-31.342893 104.942799-33.757823 140.279286-1.937064 28.22823 3.327996 61.712987-0.136534 88.729487-2.184531 17.049578-20.147174 43.545544-21.623439 59.955123-0.853332 9.497588 12.654917 18.28691 17.467711 25.779167 9.036788 14.079982 20.744507 45.610608 22.724238 60.586588z m-25.9157 196.257882c-6.502392-34.508756-26.077833-64.332717-13.09865-100.104405 5.640526-15.530647 18.13331-32.273025 20.437307-49.919936 5.256527-40.226082-8.03839-95.812144-40.831947-121.97531-36.42022-29.055963-97.766275-22.690104-119.125181 21.265039-26.001033 53.486865-1.843198 123.255308 47.581806 153.958203 9.719454 6.033059 22.306105 9.873054 32.247425 15.897579 29.917828 18.124777 41.036747 51.404734 46.865007 84.590825l25.924233-3.711995z m-25.924233 25.924233c-53.887931 33.348224-26.879966 130.739032 31.726892 122.265443 4.915194-0.708266 4.991994-3.669329 5.307727-3.771728 42.845812-13.567983 62.276187-61.414321 35.080488-99.882539-16.537579-23.381303-46.66874-34.355156-72.106574-18.611176z m111.08679 25.907167c2.815996-2.278397-15.633047-13.977582-18.508776-11.093319-1.305598 6.673058 4.326394 10.22292 9.241588 14.361582l9.267188-3.268263z m418.431463 14.830914c-18.397843 4.590927-36.01062 13.158383-54.468196 17.732244-24.934368 6.178125-51.438867 8.473589-76.876702 11.997852l-16.776511 7.278924c6.690125 1.612798 15.197847 3.438929 21.162639 6.613324 5.811193 3.080529 10.854386 10.393587 14.429848 11.485852 21.742905 6.630391 100.898004-30.549294 112.520389-55.108196z m-274.013515 48.127939c6.254925 0.904532 10.470387-0.162133 11.110386 0 0.196266 0.0512 0.366933 2.51733 2.585597 3.114662 6.118392 1.655465 10.316787-1.348265 8.524789 7.995723-7.202124 11.118919-24.055436 25.224501-25.9925 38.826617-1.006932 7.057058 0.264533 5.34186 5.597859 5.606393 25.011168 1.254398 37.717285-14.788248 53.486865-31.470893l-18.278376-16.657045c0.503466-1.075199-0.085333-3.165863 1.834664-3.694929l9.181855 0.042667 3.780262 7.34719 3.737595-27.741831c-6.792525-7.534924-13.670382 4.548261-18.54291 5.529593l0.017067-7.406924-44.450076-3.703462c-18.687976-3.174396-36.949286-9.207455-55.475129-13.030383-3.985062-0.819199-12.279451-4.676261-14.882114 0.068267 20.078908 20.898107 49.706603 31.12956 77.755633 35.182888z m59.238324-14.805315l7.202125 27.980764c15.701313 5.00906 20.898107 2.141864 24.379702-13.081583 5.043194-22.058638-16.324246-13.491183-31.581827-14.899181z m99.984939 59.238324c5.580793-5.427193-16.418112-31.214893-22.297572-35.089021-5.819726-3.839995-22.152505-12.305051-27.741831-5.691726-19.601042 30.557827 25.198901 44.979142 50.039403 40.780747z m-325.861982-25.9157l-33.314091 25.907167c17.151978 6.391458 36.428753-6.835191 33.314091-25.907167z" fill="#502E24" p-id="2325"></path><path d="M888.634593 1000.421116c0.2816 7.364257-0.196266 14.856514 0 22.220772H784.937659c-2.815996-2.815996 4.838394-31.957292-3.694928-37.03462-0.469333-8.661322-2.95253-13.994649-3.626662-20.44584-1.365332-12.953583 0.631466-25.8389-4.061862-38.502351l-8.994122-3.626662c-8.149323 5.990392-10.154654 8.985588-8.541855 19.242642 1.877331 11.938118 5.708793 25.7877 6.877858 37.623419 1.058132 10.786119-2.133331 25.506101-0.162134 35.336488 2.013864 11.246919-5.674659 7.159457-12.94505 7.406924-37.495419 1.245865-81.962561 2.602663-116.65905-3.703462 5.427193-1.169065 11.409052-11.895451 10.700786-16.093846-4.974927-29.175429-54.024464-7.202124-21.802638 16.093846-0.375466 0.068267-0.930132 2.918396-2.559997 3.089062-52.0618 5.614926-111.189191-2.909863-164.078723 0.6144-0.042667-7.381324 0.0768-14.839448 0-22.220772-0.2048-20.659173-0.998399-43.272478 5.401593-63.103919 3.592529-11.118919 9.548788-12.151451 20.514107-10.948253-8.277323 14.173848-26.939699 50.235669-1.211731 54.83513 28.910896 5.171193 63.726852-14.975981 77.380167-40.209015 23.978636-3.370662 22.271971 8.430923 37.290619 18.175977 26.231433 17.023978 85.307624 20.52264 68.027646-23.355704 1.322665-6.562125 23.55197-7.867723 30.66876-10.214387 36.454353-12.040518 68.590845-34.875689 91.033484-64.503383 2.611197-3.438929 2.858663-9.762121 4.838393-11.827185 1.587198-1.655465 12.61225-6.527992 15.982913-8.302923 9.471988-0.1024 37.742885 36.386087 43.306611 45.798341 18.047977 30.498094 38.68155 78.472433 40.012749 113.663854z m-391.781897 2.030931c0-8.601589-6.971724-15.56478-15.56478-15.56478s-15.56478 6.971724-15.56478 15.56478 6.971724 15.56478 15.56478 15.56478 15.56478-6.971724 15.56478-15.56478z" fill="#FCFCFC" p-id="2326"></path><path d="M381.337111 1015.22643c-1.450665-30.062895 17.015445-57.488993 21.657572-83.967892 2.321064-13.243716-12.083184-17.595711-17.382378-6.186659-5.742926 12.364784-15.121047 64.80205-25.011168 67.558314-14.301848-0.665599-26.060767 5.324793-40.524748 4.223994-26.854366-2.039464-60.782855-15.880513-79.436698-35.327954l31.010094-1.390932c14.506648 18.534376 49.57007 12.953583 61.081521-6.485325 8.883189-14.993047 6.835191-22.894904 2.508797-38.570617-0.895999-3.242663-4.744527-6.365858-5.230927-9.634121-1.297065-8.763722 10.444787-30.677294 6.894925-42.052213 11.921051 3.379196 24.797835-5.179727 35.217021-3.857061 10.129054 1.279998 21.299173 23.287437 31.598893 31.479426 12.859717 10.239987 32.290092 19.037842 47.982872 24.234635-3.447462 11.844251-8.524789 23.048504-10.982386 35.302355-4.607994 22.971704-1.646931 45.986074-7.534924 68.368979-0.324266 0.059733-1.058132 3.643729-5.384526 3.711995-15.479447 0.273066-31.02716-0.213333-46.472474-0.008533-0.0768-2.449064 0.128-4.949327 0.008534-7.406924z" fill="#FCFDFC" p-id="2327"></path><path d="M762.733954 1015.22643c-1.979731-9.830387 1.220265-24.550368 0.162134-35.336488-1.169065-11.827185-5.000527-25.6853-6.877858-37.623418-1.612798-10.265587 0.384-13.25225 8.541855-19.242642l8.994122 3.626662c4.693327 12.66345 2.69653 25.548767 4.061862 38.502351 0.682666 6.459725 3.157329 11.793052 3.626662 20.44584 0.665599 12.236784-0.469333 24.772235 0 37.034619l-14.557848-0.264533c1.066665-4.718927-3.874128-6.741325-3.959462-7.142391z" fill="#52332B" p-id="2328"></path><path d="M633.138387 1018.929892c-2.56853-0.469333-8.541856-0.469333-11.110385 0-32.221825-23.29597 16.827712-45.260742 21.802638-16.093846 0.716799 4.198395-5.26506 14.916248-10.700786 16.093846z" fill="#593B34" p-id="2329"></path><path d="M703.563897 89.454819c27.972231-3.831462 54.997263-16.810645 81.288429 1.988264 18.167443 12.987717 33.023958 35.345021 28.99623 58.453258-8.422389 48.290071-62.924719 59.656457-100.590805 35.362088-10.077854-6.502392-19.498642-16.017046-17.416511-28.86823l-9.523187-3.669328c-11.630918 6.348792-21.811172 15.66718-34.542889 20.223974-35.814354 12.799984-94.182279 6.783991-125.934772-15.035714-6.613325-4.539728-10.794653-15.51358-20.420241-12.842651-5.230927 1.450665-5.051727 10.777586-7.483723 14.754115-9.540254 15.61598-41.702346 24.422369-59.152991 22.178105-18.15891-2.329597-42.478879-19.157309-48.392471-36.761553-17.186111-51.114601 27.246898-92.373215 77.9519-85.358824 11.067719 1.527465 20.974906 14.370115 32.913024 10.73492 7.722657-2.346664 13.12425-16.648512 18.781843-21.998905 36.983419-34.935422 97.058009-39.551949 140.28782-14.079982 19.899708 11.724785 38.70715 32.392492 43.238344 54.920463z" fill="#FCFCFC" p-id="2330"></path><path d="M684.875921 178.414704c2.59413 13.747182 17.484778 22.434105 29.678895 27.775965 7.022924 3.071996 23.782369 4.90666 25.642634 11.391985l-3.541329 75.40897-51.669267 11.289586 3.694929-81.476163-14.677315 0.110934-4.147194 79.197765-5.62346 5.478393c-9.122122-1.032532-16.955712 3.575462-25.378101 4.249594-42.760478 3.421862-89.779085-3.208529-131.430231-11.460252l3.515729-84.983357h-14.805314l-3.711996 81.467628-47.897538-15.044247c-1.262932-27.383432-0.247466-54.382864 3.575462-81.126296 24.789302-3.037863 47.547672-11.255452 64.98125-29.627695 8.388256 3.438929 15.069847 9.173322 23.731169 12.910917 33.339691 14.404248 77.166834 17.655444 112.21319 8.422389 13.107183-3.447462 23.534903-11.400519 35.85702-13.977582z" fill="#FEFEFE" p-id="2331"></path><path d="M259.139934 793.052849l-25.924233 3.711995c-5.828259-33.186091-16.947178-66.466048-46.865007-84.590825-9.941321-6.024526-22.527971-9.855987-32.247425-15.897579-49.425003-30.702894-73.582839-100.471338-47.581806-153.958203 21.367439-43.955144 82.713494-50.321002 119.125181-21.265039 32.793558 26.163166 46.088474 81.749228 40.831947 121.97531-2.303997 17.646911-14.796781 34.389289-20.437307 49.919936-12.987717 35.771687 6.596258 65.595649 13.09865 100.104405zM161.612593 519.636666c-14.702914 3.251196-32.674091 17.689577-38.724217 31.633027-18.858642 43.426078 2.065064 99.080406 40.072482 125.038772 12.731717 8.695456 42.658079 8.618656 55.347129 0 35.089022-23.833569 37.674618-79.394031 18.03091-114.107586-14.651715-25.8901-42.862878-49.59567-74.717771-42.564213z" fill="#DFAE7E" p-id="2332"></path><path d="M270.25032 937.470797c-13.405849-10.845853-27.298098-30.79676-32.537558-47.069806-2.909863-9.053855-8.507722-38.638884-8.499189-47.351406 0-7.790923 6.101326-15.41118 4.010661-24.072503 25.446367-15.74398 55.577529-4.770127 72.106574 18.611176 27.195698 38.468217 7.765323 86.314556-35.080488 99.882539z" fill="#F7EEDC" p-id="2333"></path><path d="M270.25032 937.470797c-0.3072 0.1024-0.384 3.063463-5.307727 3.771728-58.606858 8.473589-85.614823-88.917219-31.726892-122.265443 2.090664 8.661322-4.010662 16.281579-4.010662 24.072503 0 8.712522 5.589326 38.297551 8.499189 47.351406 5.23946 16.273046 19.140242 36.223954 32.537559 47.069806z" fill="#F3C181" p-id="2334"></path><path d="M762.733954 859.715163c-11.622385 24.558902-90.777484 61.738587-112.520388 55.108196-3.575462-1.092265-8.618656-8.405323-14.429849-11.485852-5.973326-3.174396-14.481048-4.991994-21.162639-6.613324l16.776512-7.278924c25.437834-3.524262 51.942333-5.819726 76.876701-11.997852 18.457576-4.573861 36.06182-13.141316 54.468197-17.732244z" fill="#4C7FB2" p-id="2335"></path><path d="M647.943702 952.276111c-24.840501 4.198395-69.640444-10.22292-50.039403-40.780747 5.589326-6.613325 21.922105 1.860264 27.741831 5.691726 5.879459 3.874128 27.878364 29.661829 22.297572 35.089021z" fill="#5086B2" p-id="2336"></path><path d="M525.746525 915.250025l18.278377 16.657046c-15.76958 16.691179-28.475697 32.725291-53.486865 31.470893-5.333326-0.264533-6.604792 1.450665-5.597859-5.606393 1.937064-13.602116 18.790376-27.707698 25.9925-38.826617l6.894924 0.3584 0.520533 10.751986h3.686395c-0.733866-5.734393 1.416532-9.915721 3.711995-14.805315z" fill="#5F85A4" p-id="2337"></path><path d="M481.313516 885.62233l7.313057 3.959462-3.148796 8.482122 6.937591 7.927457-3.686395 1.851731c-28.049031-4.053328-57.676726-14.276248-77.755634-35.182889 2.602663-4.744527 10.897053-0.887466 14.882114-0.068266 18.51731 3.822928 36.787153 9.855987 55.475129 13.030383z" fill="#5D84A8" p-id="2338"></path><path d="M547.958763 893.037787c15.249047 1.399465 36.62502-7.159457 31.581827 14.899181-3.481596 15.223447-8.678389 18.090643-24.379702 13.081583l-7.202125-27.980764z" fill="#638CB3" p-id="2339"></path><path d="M525.746525 896.732716c4.872527-0.981332 11.741852-13.064517 18.54291-5.529593l-3.737595 27.741831-3.780262-7.347191-9.181855-0.042666c-1.919998 0.529066-1.331198 2.61973-1.834664 3.694928-2.295464 4.889594-4.445861 9.070922-3.711996 14.805315h-3.686395l-0.520533-10.751986-6.894924-0.3584c1.791998-9.343988-2.406397-6.340259-8.524789-7.995723-2.218664-0.597333-2.38933-3.063463-2.585597-3.114663 4.539728-12.014918 16.870378-9.292788 25.924234-11.110385z" fill="#3C1E15" p-id="2340"></path><path d="M481.313516 885.62233l44.450076 3.703462-0.017067 7.406924c-9.045322 1.817598-21.375973-0.904532-25.924233 11.110386-0.639999-0.162133-4.85546 0.904532-11.110386 0l3.686395-1.851731-6.937591-7.927457 3.148796-8.482122-7.313057-3.959462z" fill="#4F6B8A" p-id="2341"></path><path d="M322.08172 926.360411c3.114663 19.071976-16.170646 32.298625-33.314091 25.907167l33.314091-25.907167z" fill="#D7A77B" p-id="2342"></path><path d="M344.302491 844.884249l-9.267188 3.268263c-4.915194-4.147195-10.547186-7.688523-9.241588-14.361582 2.87573-2.87573 21.324773 8.823455 18.508776 11.093319z" fill="#DACEC7" p-id="2343"></path><path d="M481.279382 1002.452047m-15.56478 0a15.56478 15.56478 0 1 0 31.12956 0 15.56478 15.56478 0 1 0-31.12956 0Z" fill="#54342B" p-id="2344"></path><path d="M161.612593 519.636666c31.854892-7.031458 60.066056 16.674112 74.71777 42.564213 19.643708 34.713555 17.058111 90.274017-18.03091 114.107586-12.680517 8.618656-42.615412 8.695456-55.347129 0-37.998885-25.958367-58.922591-81.604162-40.072482-125.038772 6.050126-13.943449 24.021303-28.38183 38.724217-31.633027z" fill="#CF925D" p-id="2345"></path><path d="M285.055634 596.794967c-1.988264-14.975981-13.687449-46.506607-22.724237-60.586588-4.812794-7.50079-18.321043-16.290112-17.467711-25.779167 1.476265-16.409579 19.438908-42.905545 21.623439-59.955123 3.464529-27.016499-1.800531-60.509789 0.136533-88.729487 2.423464-35.336488 14.156782-111.052657 33.757823-140.279286 2.59413-3.865595 14.796781-17.535977 17.911444-19.114642 27.955164-14.242115 88.848953 30.489561 110.933191 48.529004-0.529066 14.967447-8.046923 27.127432 0.921599 41.63408 11.707718 6.092792 23.611703 13.209583 36.21542 17.459178 64.008451 21.606372 197.290413 28.757296 260.394332 4.59946 9.198922-3.524262 16.955712-8.388256 24.874635-14.003182 0.3584 2.41493-0.520533 5.26506 1.655465 7.483724l55.807928 40.584481c9.855987 6.314659 16.443712 24.900235 25.8645 29.687429 7.236257 3.677862 5.478393-6.109859 5.538126-9.241588 0.469333-24.132236 0.708266-53.870864-4.403194-77.072968-13.798382-62.69432-62.045787-34.03089-84.471358 4.85546-0.3584-11.588252 3.131729-18.013844 3.865595-27.613831 0.913065-12.014918-1.356798-24.729568 0.2048-36.829819 35.404755-27.374898 75.263903-48.102338 100.343337 2.602663 15.684247 31.718359 26.922632 94.916145 29.055963 130.175833 1.698131 28.091697-3.618129 62.045787-0.1024 88.968419 2.355197 18.00531 18.05651 48.554604 24.115169 68.462846 13.013317 42.760478 21.845305 85.70869 16.554646 129.7065-6.075726-7.193591-7.347191-17.723711-13.055984-25.821834-9.642654-13.670382-25.8901-24.703968-42.487412-26.0181-2.909863-6.195192-14.549315-3.942395-20.360507-3.677862-24.413835 1.109332-38.647417 6.673058-61.098588 14.788248-4.002128 1.442131-6.698658 3.447462-7.406924 3.703462-9.198922 3.302396-18.679443 8.635722-25.924233 11.110386-17.937044 6.126925-36.565286 8.729589-55.543396 7.406924-35.788754-7.790923-37.964751-19.677841-65.382316-36.454354-33.72369-20.62504-64.767917-25.284234-102.297469-10.879986-37.640485 14.446915-55.406862 52.121533-102.638801 47.325806-14.916248-1.510398-34.457556-8.763722-48.136472-14.813847-31.470893-13.909315-41.156214-20.104508-77.7471-24.072503-5.179727-0.563199-15.197847-6.161059-18.525843 1.851731z m25.924234-294.382555v75.912436c18.611176-15.180781 34.414889-33.604224 53.614864-48.213272 13.363183-10.17172 28.74023-18.44051 42.666612-27.707697 1.160532-4.676261-3.071996-6.323192-5.563726-9.250122-16.639979-19.541308-58.137525-62.796719-79.138032-27.298098-6.937591 11.716252-5.870926 24.985568-11.579718 36.556753zM439.346636 419.668795c-30.660227 6.732791-28.38183 45.755675-3.805862 61.82392 14.839448 9.693854 41.32688 16.511979 56.772194 5.964793 40.294348-27.511431-10.45332-77.124168-52.974865-67.788713z m244.479686 0.110933c-25.804767 4.531194-57.625526 31.778093-41.40368 58.495925 19.430375 32.008492 80.930029 9.454921 86.476689-24.823435 0.955732-5.922126-5.947726-21.196773-10.572786-25.156234-8.874655-7.60319-23.03997-10.53012-34.491689-8.516256zM492.415368 585.684582c4.940794-50.449002-79.530565-68.991911-107.460129-35.268222-6.732791 8.123723-6.690125 10.769053-3.618128 20.437307 10.470387 3.242663 16.981312-4.804261 24.703968-6.749858 20.351974-5.13706 39.978615-4.642127 58.094859 7.278924 10.060787 6.621858 13.141316 17.92851 28.27943 14.293315z m270.335653-11.110386c3.054929-9.617054 3.063463-12.433051-3.635195-20.454374-27.007965-32.341292-98.218541-18.321043-107.255329 25.617034l9.045322 9.642654c17.433578-18.602643 43.886877-31.07836 69.768443-25.318367 5.700259 1.271465 27.485831 14.719981 32.076759 10.521586z" fill="#F7C17E" p-id="2346"></path><path d="M699.783635 633.829587c0.315733 0.068267 0.605866 3.020796 5.333327 3.763195 6.382925 1.006932 13.943449-0.716799 20.582373-0.0512-5.649059 22.647438-5.759993 52.505533 0.674133 75.238303 2.815996 9.958387 31.470893 38.946083 41.113547 44.057544 14.651715 7.773857 43.494344 8.695456 59.989256 6.545058 13.141316-1.715198 48.136472-15.854913 57.437793-24.004236 2.679463-2.346664 8.081056-11.810118 11.127453-5.555193-32.733825 52.454333-77.9519 84.334825-135.952892 106.58973-136.106492 52.2154-328.251312 45.832475-448.946624-41.949813-19.942374-14.498115-35.438888-26.572766-44.595143-49.826069l4.386128-2.602663c1.151999 5.683193 4.565327 5.026127 8.618655 6.263458 14.429848 4.411728 29.457029 8.004256 44.211144 11.281052 16.110913-6.109859 35.746087-4.223995 51.336467-11.921051 2.303997-1.134932 26.495966-17.433578 27.673564-18.611176 1.288532-1.288532 18.269843-29.474096 18.764776-31.223427 2.87573-10.01812 0.870399-29.934895 2.082131-40.174881 1.092265-9.301321 3.729062-18.696509 5.853859-27.801565 47.240473 4.787194 64.998317-32.878891 102.638802-47.325806 37.529552-14.404248 68.573779-9.745054 102.297469 10.879986 27.417565 16.767978 29.593562 28.66343 65.382316 36.454354zM526.429191 612.265881c-7.202124 7.406924-5.043194 24.285835 1.245865 32.597291 6.715725 8.874655 29.747162 20.898107 40.721015 22.246372 21.631972 2.662397 55.509262-15.180781 57.488992-38.894884 1.766398-21.196773-40.388215-33.066624-57.454859-31.351426-8.200523 0.819199-36.718886 9.966921-41.99248 15.402647z m54.596197 84.778558c3.507195 10.922653 25.420767 33.783423 36.053287 36.147153 31.581826 7.014391 60.723122-20.872507 43.810077-51.208467-1.988264-3.558395-7.901857-5.930659-8.985589-9.753588-1.629865-5.759993 10.035187-23.662903-2.10773-27.281031-11.827185-3.524262-9.642654 7.47519-14.899181 14.711447-19.029309 26.1973-42.035146 14.865048-66.636715 18.51731-7.611724 1.126399-15.94878 10.42772-29.388762 11.357852-21.828239 1.501865-42.470345-14.310382-39.202083-37.026086-8.345589-1.314132-12.305051-7.944523-18.15891 1.860265-3.473062 32.520492 30.173828 57.309793 60.868189 53.444198 13.499716-1.698131 24.661302-13.567983 38.664483-10.769053z" fill="#FAF0DE" p-id="2347"></path><path d="M870.125817 600.498429c16.588779 1.314132 32.844758 12.347717 42.487412 26.0181 5.708793 8.098123 6.980258 18.628243 13.055983 25.821834-2.781863 23.108237-10.717853 55.432462-22.690104 75.451636-2.705063 4.531194-6.690125 5.623459-6.937591 6.015993-3.046396-6.246392-8.439456 3.208529-11.127453 5.555192-9.309855 8.149323-44.296476 22.289038-57.437793 24.004236-16.494912 2.150397-45.337542 1.228798-59.989256-6.545058-9.642654-5.11146-38.297551-34.099156-41.113547-44.057543-6.434125-22.732771-6.331725-52.582333-0.674133-75.238304-6.638925-0.665599-14.190915 1.058132-20.582373 0.0512-4.727461-0.742399-5.017594-3.694929-5.333327-3.763195 18.978109 1.322665 37.606352-1.279998 55.543396-7.406924 11.443185-1.314132 6.894924 2.397864 3.029329 8.584522-6.314659 10.103454-17.228778 29.977562-17.988243 41.565814-0.401066 6.143992 6.476792 28.450097 9.557321 34.858622 12.159984 25.258634 47.334339 34.08209 73.335372 32.895957 24.337035-10.862919 53.708731-11.144519 61.064455-42.589812 0.759466-3.225596 3.805862-22.886371 3.652262-24.695435-0.529066-6.195192-10.27412-34.978088-13.439983-42.086346-6.818125-15.317314-20.027708-29.550895-37.751418-30.762627-0.938665-6.101326 4.98346-3.558395 9.224522-3.694928 7.697057-0.256 16.571712-0.597333 24.098102 0z" fill="#FAE4CF" p-id="2348"></path><path d="M751.632102 296.857219c22.425571-38.88635 70.672976-67.558313 84.471358-4.85546 5.11146 23.202104 4.872527 52.949265 4.403195 77.072967-0.059733 3.131729 1.689598 12.910917-5.538127 9.241588-9.420788-4.787194-16.008513-23.37277-25.8645-29.687428l-55.807928-40.584481c-2.175997-2.218664-1.297065-5.068793-1.655465-7.483724-0.1792-1.177598 0.034133-2.49173 0-3.703462z" fill="#F9C7B9" p-id="2349"></path><path d="M381.337111 619.015739c-1.604265 14.293315 14.225048 17.271445 17.945577 24.644235 10.24852 20.334907-0.588799 56.533261-14.165316 73.557239-4.104528 5.145593-10.50452 9.523188-14.779714 14.839448-31.368493 6.681591-50.901268 14.131182-81.604162-0.059734-7.193591-3.327996-13.20105-9.395188-16.622912-16.708245-3.771728-8.06399 1.570131-17.681044-5.555193-22.212238 3.430396-8.823455 5.879459-17.85171 11.110386-25.924234 0.1024 0.315733 3.438929 0.989865 3.737595 5.358927 0.597333 8.763722-2.124797 20.539707 1.723731 28.057564 3.396262 6.638925 21.708772 21.00904 29.721562 22.118372 41.489013 5.717326 78.873499-20.386107 72.277241-64.878851-0.290133-1.937064-14.088515-25.361034-15.658647-26.914098-1.604265-1.587198-5.828259-1.826131-8.541856-4.309328-4.130128-3.771728-10.973853-13.269316-15.223447-14.515181-22.476771-6.562125-55.253262 14.293315-56.951393 38.391417l-3.686395-9.233055c1.356798-9.881587 1.314132-34.500222 0-44.43301 3.327996-8.01279 13.346116-2.41493 18.525842-1.851731 36.590886 3.959462 46.276207 10.154654 77.747101 24.072503z" fill="#FAD4BB" p-id="2350"></path><path d="M429.473582 633.829587c-2.124797 9.105055-4.753061 18.508776-5.853859 27.801564-1.203198 10.239987 0.802132 30.156761-2.082131 40.174882-0.503466 1.749331-17.484778 29.934895-18.764776 31.223426-1.177598 1.177598-25.369567 17.476244-27.673564 18.611176-15.59038 7.697057-35.225555 5.811193-51.336467 11.921052-14.754114-3.285329-29.781295-6.869325-44.211144-11.281052-4.053328-1.237332-7.466657-0.580266-8.618655-6.263459l-4.386128 2.602663c-0.119467-0.315733-2.33813-0.648533-2.969596-2.662396-3.891195-12.424517-5.947726-26.2229-3.711995-39.185017 1.066665-6.169592 5.350393-10.27412 6.681591-13.695982 7.133858 4.531194 1.783464 14.148249 5.555193 22.212238 3.421862 7.313057 9.429321 13.380249 16.622912 16.708245 30.694361 14.190915 50.227136 6.732791 81.604162 0.059734 4.275195-5.31626 10.675186-9.693854 14.779714-14.839448 13.576516-17.023978 24.422369-53.222332 14.165315-73.557239-3.711995-7.372791-19.549842-10.342387-17.945577-24.644235 13.678916 6.050126 33.220224 13.294916 48.136472 14.813848z" fill="#FAE3CC" p-id="2351"></path><path d="M285.055634 641.227977l3.686395 9.233055c1.689598-24.098102 34.474622-44.953542 56.951394-38.391417 4.249595 1.245865 11.093319 10.743453 15.223447 14.515181 2.713597 2.474663 6.937591 2.713597 8.541856 4.309328 1.570131 1.553065 15.368514 24.985568 15.658646 26.914098 6.596258 44.492743-30.779694 70.596176-72.27724 64.878851-8.01279-1.100799-26.3253-15.479447-29.721562-22.118372-3.848528-7.517857-1.126399-19.293842-1.723731-28.057564-0.298666-4.377594-3.643729-5.051727-3.737595-5.358927-1.271465-4.044795 7.005858-22.997304 7.406924-25.924233z m19.208509 54.869263c2.713597 2.85013 22.246371 11.511452 26.419166 11.153052 14.975981-1.279998 38.348751-25.591434 35.438888-41.27568-2.047997-11.025053-21.051706-40.166348-34.116223-39.005817-10.32532 0.913065-24.831968 13.20105-29.243696 22.715705-2.244264 4.838394-7.099724 21.956238-6.783991 26.623965 0.145066 2.21013 7.167991 18.628243 8.285856 19.797308z" fill="#F9C8AB" p-id="2352"></path><path d="M870.125817 600.498429c-7.52639-0.597333-16.401046-0.256-24.098103 0-4.241061 0.136533-10.17172-2.406397-9.224521 3.694929 17.723711 1.211732 30.933294 15.445314 37.751418 30.762627 3.165863 7.108258 12.910917 35.891154 13.439983 42.086346 0.1536 1.800531-2.90133 21.461306-3.652262 24.695435-7.355724 31.445293-36.72742 31.735426-61.064455 42.589812-26.001033 1.186132-61.175388-7.637324-73.335373-32.895958-3.080529-6.408525-9.958387-28.71463-9.557321-34.858622 0.759466-11.588252 11.673585-31.46236 17.988244-41.565813 3.865595-6.186659 8.413856-9.898654-3.02933-8.584522 7.244791-2.474663 16.716779-7.80799 25.924234-11.110386 8.908789 2.969596-1.092265 9.762121-3.165863 13.499716-3.771728 6.818125-13.27785 23.47517-14.754114 29.678895-0.819199 3.455996-3.199996 19.080509-3.13173 21.708772 0.0512 2.022397 9.745054 24.422369 11.886918 27.596765 6.075726 8.977055 26.461833 17.646911 37.051686 18.662376 5.828259 0.554666 37.435685-6.587725 42.521546-9.250121 4.164261-2.184531 15.189314-15.351447 16.785045-20.241041 4.181328-12.808517 0.366933-28.501297-3.746129-41.053814-6.724258-20.556774-15.709847-34.926889-37.896484-39.859149l-38.152485-4.428794c22.459705-8.11519 36.684753-13.678916 61.098588-14.788248 5.811193-0.264533 17.450644-2.51733 20.360508 3.677862z" fill="#F9D6BD" p-id="2353"></path><path d="M310.979868 302.412412c5.708793-11.562652 4.650661-24.831968 11.579718-36.556753 21.000506-35.498621 62.498053 7.75679 79.138032 27.298098 2.49173 2.92693 6.724258 4.573861 5.563726 9.250122-13.934915 9.267188-29.303429 17.535977-42.666612 27.707697-19.199975 14.609048-35.012222 33.032491-53.614864 48.213272v-75.912436z" fill="#F9C7B9" p-id="2354"></path><path d="M788.658188 611.608815l38.152484 4.428794c22.186638 4.93226 31.172227 19.310909 37.896485 39.859149 4.104528 12.552517 7.927456 28.245297 3.746128 41.053814-1.595731 4.898127-12.620784 18.065043-16.785045 20.241041-5.08586 2.662397-36.693286 9.804787-42.521545 9.250121-10.589853-1.015465-30.97596-9.676788-37.051686-18.662376-2.141864-3.165863-11.827185-25.565834-11.886918-27.596764-0.068267-2.61973 2.31253-18.244243 3.131729-21.708772 1.476265-6.203725 10.982386-22.860771 14.754115-29.678896 2.073597-3.746129 12.074651-10.53012 3.165862-13.499716 0.699732-0.256 3.404796-2.26133 7.406924-3.703462z m58.564191 84.514025c7.52639-7.70559 3.592529-34.798889-1.117865-43.835677-2.56853-4.923727-21.051706-20.744507-26.649566-21.759972-11.724785-2.116264-29.226629 10.27412-32.844757 21.623439-2.713597 8.516256-0.196266 16.981312-4.735994 24.968501 6.212259 26.828766 27.153032 35.677821 52.343399 26.3509 1.390932-0.511999 12.484251-6.818125 13.004783-7.347191z" fill="#F9CAAE" p-id="2355"></path><path d="M439.346636 419.668795c42.521545-9.335455 93.269214 40.277282 52.974866 67.788713-15.453847 10.547186-41.94128 3.737595-56.772194-5.964793-24.575968-16.068246-26.854366-55.091129 3.805861-61.82392z" fill="#F8EFDD" p-id="2356"></path><path d="M683.826322 419.779728c11.460252-2.013864 25.617034 0.913065 34.491689 8.516256 4.625061 3.959462 11.537052 19.234109 10.572787 25.156234-5.538126 34.278356-67.046314 56.831927-86.476689 24.823435-16.213313-26.726366 15.598913-53.964731 41.40368-58.495925z" fill="#F8EFDC" p-id="2357"></path><path d="M492.415368 585.684582c-15.138114 3.635195-18.218643-7.67999-28.27943-14.293315-18.116243-11.921051-37.742885-12.415984-58.094859-7.278924-7.722657 1.945598-14.233582 9.992521-24.703968 6.749858-3.080529-9.668254-3.114663-12.313584 3.618128-20.437307 27.929564-33.72369 112.400922-15.180781 107.460129 35.268221z" fill="#553329" p-id="2358"></path><path d="M762.751021 574.574196c-4.582394 4.198395-26.367966-9.250121-32.076759-10.521587-25.881567-5.759993-52.334866 6.715725-69.768443 25.318368l-9.045322-9.642654c9.028255-43.938077 80.23883-57.949792 107.255329-25.617034 6.698658 8.021323 6.690125 10.845853 3.635195 20.454374z" fill="#533228" p-id="2359"></path><path d="M581.025388 697.044439c-13.994649-2.79893-25.164768 9.070922-38.664484 10.769053-30.694361 3.857062-64.341251-20.923706-60.868189-53.444198 5.845326-9.804787 9.804787-3.174396 18.15891-1.860265-3.268262 22.715704 17.373844 38.527951 39.202083 37.026086 13.448516-0.921599 21.777039-10.22292 29.388763-11.357852 24.601568-3.652262 47.615939 7.67999 66.636714-18.51731 5.256527-7.244791 3.071996-18.244243 14.899181-14.711447 12.151451 3.626662 0.477866 21.521039 2.107731 27.281031 1.083732 3.831462 7.005858 6.195192 8.985588 9.753588 16.921578 30.335961-12.219718 58.214325-43.810077 51.208467-10.63252-2.36373-32.546092-25.224501-36.053287-36.147153z m63.214852-15.078381l-10.922653 5.759993 3.515729 20.155707c-13.713049 3.071996-12.748784-8.08959-20.710373-14.651714-3.080529 2.525863-20.087441 1.587198-16.307179 9.087988 5.410126 10.70932 26.897032 17.971177 38.203684 12.296518 15.112514-7.586124 9.992521-19.345042 6.220792-32.648492z" fill="#513028" p-id="2360"></path><path d="M526.429191 612.265881c5.282127-5.427193 33.80049-14.574915 41.99248-15.402647 17.075178-1.715198 59.221257 10.154654 57.454859 31.351426-1.979731 23.714103-35.848487 41.548747-57.488993 38.894884-10.973853-1.348265-34.00529-13.371716-40.721014-22.246372-6.289059-8.311456-8.447989-25.190368-1.245865-32.597291z" fill="#51332A" p-id="2361"></path><path d="M304.264143 696.09724c-1.109332-1.169065-8.132256-17.587177-8.285856-19.797308-0.315733-4.659194 4.539728-21.785572 6.783991-26.623966 4.403194-9.514654 18.918376-21.802639 29.243696-22.715704 13.064517-1.151999 32.068226 27.989297 34.116223 39.005817 2.909863 15.684247-20.462907 39.995682-35.438888 41.27568-4.172795 0.3584-23.697036-8.302923-26.419166-11.153052z" fill="#FABB9C" p-id="2362"></path><path d="M847.222379 696.12284c-0.520533 0.537599-11.613852 6.835191-13.004783 7.347191-25.190368 9.326921-46.131141 0.477866-52.343399-26.3509 4.539728-7.995723 2.022397-16.452246 4.735994-24.968501 3.618129-11.349319 21.119973-23.739703 32.844757-21.623439 5.597859 1.015465 24.081036 16.827712 26.649566 21.759972 4.710394 9.036788 8.635722 36.13862 1.117865 43.835677z" fill="#F9BB9D" p-id="2363"></path><path d="M644.24024 681.966058c3.771728 13.30345 8.900255 25.062368-6.220792 32.648492-11.306652 5.674659-32.793558-1.587198-38.203684-12.296518-3.780262-7.492257 13.22665-6.562125 16.307179-9.087988 7.96159 6.553592 6.997324 17.723711 20.710373 14.651714l-3.515729-20.155707 10.922653-5.759993z" fill="#E65A56" p-id="2364"></path></svg>