<?xml version="1.0" standalone="no"?><!DOCTYPE svg PUBLIC "-//W3C//DTD SVG 1.1//EN" "http://www.w3.org/Graphics/SVG/1.1/DTD/svg11.dtd"><svg t="1768660242344" class="icon" viewBox="0 0 1024 1024" version="1.1" xmlns="http://www.w3.org/2000/svg" p-id="4030" xmlns:xlink="http://www.w3.org/1999/xlink" width="256" height="256"><path d="M379.542724 75.008l-10.325333 3.447467v3.421866l13.764267 10.333867c-47.991467 10.257067-110.395733 35.456-152.6528 62.4896-6.058667 3.874133-31.547733 21.2992-32.836267 25.6768-1.792 6.0672 2.389333 27.170133 8.226133 28.868267l38.382934-27.008c102.357333-64.7424 246.007467-88.772267 363.554133-61.696 19.899733 4.5824 38.869333 12.032 57.582933 19.8656-0.366933-9.0112 5.7856-16.187733 3.054934-25.437867-0.733867-2.491733-11.306667-11.562667-13.371734-12.433067-1.518933-8.209067 6.485333-8.618667 10.325334-13.7728 15.931733 4.4544 50.8672 31.530667 65.399466 41.309867l3.438934 6.877867-15.573334 1.041066-1.6384 2.4064-30.976-17.2032-3.396266 23.970134c7.3728-0.1536 11.972267 6.980267 17.160533 10.4448l-10.2656 3.669333c2.013867 3.7632 2.781867 6.485333-0.059733 10.094933-16.494933-10.461867-24.2688-11.2128-41.309867-17.211733-0.298667-0.1024-1.6896-2.5344-4.872533-3.584-15.8464-5.239467-32.733867-8.302933-48.5632-13.755733l-27.886934 23.799466c-22.3744 1.621333-42.222933-4.522667-65.117866-3.157333-43.537067 2.5856-93.550933 10.1632-135.9104 22.4256-8.567467 2.4832-27.042133 11.869867-32.682667 12.305067-12.2368 0.9472-23.0144-13.934933-34.312533-17.544534-18.218667 6.493867-34.048 17.1776-49.9456 27.707734-14.378667 9.5232-47.607467 30.148267-56.644267 41.454933-6.775467 8.4736-10.692267 19.3024-15.6416 27.392-0.256 0.418133-4.1984 1.655467-6.4 5.5296-11.613867 20.4544-19.0976 42.112-23.978667 65.134933 7.099733 7.560533 16.529067 8.209067 23.552 17.0496 12.740267 16.017067 8.661333 30.4384 10.333867 48.187734 4.292267 45.431467 9.915733 91.895467 10.2656 137.7536 0.042667 5.649067-2.5344 16.068267 3.4304 18.944-0.1024 6.8352 0.384 13.841067 0 20.650666-0.187733 3.387733 0.418133 7.082667 0 10.325334-2.235733 17.4592-11.0848 24.226133-24.098133 34.423466-9.1136-0.392533-18.4064 0.273067-27.537067 0 12.3136 44.381867 39.236267 82.244267 75.7248 110.148267 36.9408 28.245333 94.532267 48.8192 140.1344 57.796267 153.386667 30.190933 354.5088-14.097067 458.820267-133.521067 1.032533-1.186133 4.693333-2.2016 6.954666-4.983467 27.613867-34.030933 40.6016-79.325867 44.680534-122.376533-0.6656-0.682667-11.434667 2.4576-13.764267 3.438933l0.494933-4.650666c8.3968-12.731733 9.821867-19.720533 23.594667-26.333867 1.348267-6.818133 11.835733-6.894933 13.431467-12.373333 1.365333-4.6848 0.452267-13.098667 0.3328-18.6112l13.687466-3.541334 0.085334-10.222933c0.093867 0.418133 4.770133 7.0656 5.162666 6.877867 18.244267-22.3232 21.256533-51.242667 18.935467-79.163734h1.792c5.8112 14.301867-7.415467 40.1664 15.419733 37.8624-4.650667 26.658133-6.6048 35.694933-24.260266 56.738134-6.306133 7.517867-13.277867 19.541333-18.756267 25.890133-3.6608 4.2496-13.2096 5.947733-15.086933 12.458667-3.063467 10.6496 3.396267 25.216-3.8656 35.712 14.830933-2.781867 27.912533-15.197867 43.0848-17.143467 57.258667-7.338667 104.337067 25.915733 93.943466 87.057067-8.32 48.930133-86.2464 100.241067-121.6 133.12-38.545067 35.84-70.9888 78.216533-109.994666 113.7408l-4.676267 11.306666 12.9024 82.875734-8.661333 8.832c-5.563733 1.237333-11.042133-6.570667-11.6992-6.7072l-13.303467-94.199467c12.433067-20.2752 31.726933-34.781867 47.7952-52.027733 36.5568-39.253333 73.5488-79.5648 113.527467-115.3792 18.525867-16.597333 41.5232-28.654933 58.581333-49.851734 18.807467-23.364267 27.374933-63.249067 3.336533-86.075733-15.197867-14.429867-43.613867-17.476267-63.0272-11.4688-9.463467 2.926933-39.7568 19.473067-45.312 26.9824-7.9872 10.811733-14.250667 36.864-22.434133 51.575467-36.130133 64.989867-117.563733 118.263467-185.8816 144.571733-93.738667 36.096-215.04 49.006933-313.2416 30.976-70.9632-13.0304-160.7168-49.809067-203.093333-110.148267-0.631467-0.896 0.264533-5.009067-1.792-6.673066l-22.2976-34.628267c0.452267 5.597867-1.134933 10.257067-3.908267 15.0272-2.517333 4.317867-14.498133 18.850133-18.372267 22.929067-4.224 4.445867-8.772267 7.466667-14.395733 9.864533l-8.1664-1.237333c-16.904533-11.255467-20.906667-48.170667-3.319467-58.5984 13.141333-7.790933 30.754133-6.058667 44.714667-1.757867l-8.448-27.690667-19.080533-6.724266 3.191466 15.0272-14.788266 12.253866c-18.295467-6.391467-16.187733-22.075733-2.2016-32.443733-12.228267-17.2288-36.548267-6.0672-49.962667 5.102933-14.4896 12.0576-21.640533 30.523733-18.2016 49.322667 7.825067 42.811733 50.3552 65.220267 81.9456 88.430933 55.68 40.900267 111.419733 81.860267 163.592533 127.274667 5.248 10.308267-3.1744 34.679467-5.188266 46.6176l-3.5072 46.4128c-4.4288 0.256-8.925867 3.754667-11.648 3.1744-12.3136-2.602667-5.956267-13.7472-5.640534-18.747733 0.7424-11.767467 2.2016-20.215467 3.456-30.958934 1.4848-12.706133 2.167467-26.436267 3.2-39.227733-2.090667-0.5888-4.7616-0.682667-6.391466-2.056533-20.488533-17.373867-41.0368-35.037867-62.293334-51.447467-42.496-32.810667-101.896533-66.594133-139.332266-101.623467-14.5664-13.627733-33.416533-40.430933-36.0192-60.3648-5.265067-40.328533 11.886933-75.8272 51.575466-87.7312-13.3632-14.267733-23.2192-28.689067-30.2336-47.2064C6.601924 499.362133 7.617391 445.704533 32.329924 407.68c13.832533-21.290667 34.619733-30.677333 50.730667-49.092267-2.184533-48.836267 34.176-90.129067 41.668267-133.888 0.938667-5.495467-0.878933-11.682133 0.136533-17.0752 8.6016-45.8496 22.784-97.809067 80.7424-91.204266 9.9072 1.1264 30.1312 11.195733 37.333333 9.873066 5.640533-1.041067 11.656533-8.192 17.083734-10.692266 38.2464-17.655467 78.429867-31.325867 119.5008-40.567467z m-55.074133 92.936533c6.016 0.861867 6.272 2.722133 12.526933 0.7424 36.625067-11.605333 78.148267-25.088 116.625067-28.202666 31.061333-2.517333 64.8704 1.5616 96.3328-0.0512 6.528-0.3328 10.990933 1.544533 15.453867-5.179734-4.471467-6.7328-8.9344-4.846933-15.453867-5.179733-74.359467-3.8144-148.625067 4.113067-218.5984 29.380267-5.8624 2.116267-8.311467 0.3328-6.8864 8.4992z m-110.1568-27.52c-43.665067-17.143467-64.938667 23.9104-65.390933 61.952l65.390933-61.952zM104.172058 353.834667l22.528-10.1632c6.434133-28.0832 15.172267-55.458133 29.636266-80.520534 5.9904-10.376533 28.023467-35.310933 30.122667-42.350933 1.757867-5.9136-3.7632-14.225067-8.285867-18.4064-23.364267 23.04-44.714667 53.1968-57.480533 83.6352-4.2496 10.129067-21.819733 61.559467-16.520533 67.805867z m22.664533 10.615466c-3.857067 1.732267-5.0176 4.130133-5.563733 8.209067-1.1776 8.866133-0.580267 25.1904-0.0512 34.670933 2.696533 47.829333 10.171733 96.597333 13.8496 144.494934 0.887467 11.511467-2.090667 52.488533 6.784 58.615466 6.826667 4.718933 23.842133 1.041067 29.457066-5.307733 10.180267-11.528533 2.346667-19.822933 1.7664-29.346133-3.1232-50.909867-6.5792-100.992-10.325333-151.466667-0.989867-13.354667 2.824533-51.933867-10.308267-58.530133l-25.608533-1.339734z m-22.6816 13.474134c-23.176533-0.725333-26.018133 8.098133-24.2432 29.4144 4.206933 50.312533 9.659733 101.137067 13.8496 151.3728 1.109333 13.3376-2.525867 26.615467 4.002133 39.022933l20.155734 7.3728-13.764267-227.191467z m-27.537067 203.093333L61.138458 405.469867C26.569924 435.780267 23.950191 496.324267 40.428058 536.32c7.722667 18.7392 19.7376 32.878933 36.189866 44.6976z" fill="#4D2B22" p-id="4031"></path><path d="M672.133658 787.549867c26.0096 60.407467 38.033067 123.409067 34.423466 189.320533-125.013333-0.1792-250.1888-0.196267-375.202133 0l0.068267-46.404267c4.864-13.934933 4.036267-30.190933 6.9376-44.6976 4.608-23.005867 14.9504-44.561067 20.5312-67.2512 98.2016 18.030933 219.502933 5.12 313.2416-30.976z" fill="#F9F0DB" p-id="4032"></path><path d="M947.512858 429.559467c-22.8352 2.304-9.608533-23.569067-15.419734-37.8624h-1.792c-2.517333-30.3872-19.1232-66.8416-42.965333-86.1184-2.8672-2.321067-16.913067-12.4928-18.9952-10.257067 10.939733 51.584 25.309867 102.562133 37.128533 153.9328 1.237333 5.384533-0.128 10.743467 0.725334 14.737067l-0.085334 10.222933-13.687466 3.541333c-0.0256-1.143467 0.1024-2.312533 0-3.438933-0.699733-7.534933-3.2512-9.582933-3.438934-10.325333-15.36-59.3408-26.120533-120.081067-42.897066-179.1232-1.809067-2.696533-3.925333-3.0208-6.912-3.413334-4.7872-0.64-15.0016-0.9984-19.029334 1.8176l23.364267 86.784 4.164267 25.096534c-6.152533-0.580267-12.014933-0.136533-17.211734 3.438933-9.2416-39.082667-18.3552-78.429867-29.141333-117.154133-9.821867-8.763733-19.131733-0.657067-28.7488 4.1728l-4.0704 11.460266 48.827733 216.200534c8.558933 13.525333 24.610133 15.5904 37.2224 5.802666 0.384-0.298667 2.696533 0.494933 3.3536-1.826133l0.290134-3.447467c0-4.667733-3.5584-4.753067-3.6352-5.051733-3.490133-13.3376-4.138667-29.201067-6.8864-41.309867l0.3328-6.468266 13.431466-7.296c0.2304 1.1008-0.2304 2.346667 0 3.438933 0.699733 3.3536-1.8432 10.001067 3.438934 10.325333l6.929066 41.301334h6.843734c-13.781333 6.621867-15.197867 13.610667-23.594667 26.333866l-0.494933 4.650667c-2.363733 0.9984-4.5312 2.4832-6.8864 3.438933-17.425067 1.450667-30.071467-0.477867-41.309867-13.7728-1.621333-1.92-2.7392-7.2192-6.8864-6.8864-7.569067-15.4368-7.355733-32.068267-11.076267-49.041066-0.392533-1.792-2.628267-2.312533-2.688-2.5856-12.450133-56.456533-23.330133-114.0736-37.828266-170.3936 3.268267-16.861867 8.797867-29.047467 23.978666-37.845334-7.031467-13.448533-14.685867-25.847467-23.944533-37.879466-0.964267-1.2544-3.012267-1.109333-3.515733-1.723734-16.853333-20.701867-31.8976-36.932267-55.074134-51.6352 2.8416-3.6096 2.0736-6.331733 0.059734-10.094933l10.2656-3.669333c6.920533 4.625067 15.658667 8.174933 22.434133 13.704533 28.1856 23.005867 52.48 56.430933 70.331733 88.0128l24.2688 1.544533c1.646933-6.033067-1.408-8.149333-3.3792-12.100266-22.1952-44.578133-56.541867-79.428267-96.443733-108.373334l1.6384-2.4064 15.573333-1.041066-3.438933-6.877867c0.750933 0.503467 4.130133-0.196267 6.775467 1.681067 7.4496 5.282133 15.744 12.6464 22.485333 18.961066l1.6896-5.128533c-18.978133-48.571733-48.9984-114.210133-106.6752-61.9776-1.6384 8.8832 5.905067 3.9168 10.3168 5.154133-3.84 5.154133-11.844267 5.563733-10.325333 13.7728-75.025067-31.726933-193.706667-27.050667-271.940267-10.325333l-13.764267-10.333867v-3.421866l10.325334-3.447467c63.138133-14.199467 126.455467-18.133333 191.104-10.385067 18.542933 2.218667 37.154133 3.626667 55.0656 10.427734 36.258133-19.003733 67.012267-49.3568 106.717866-17.314134 41.1392 33.186133 45.610667 88.772267 64.324267 131.882667 9.378133 21.597867 37.9136 44.885333 42.222933 71.3728 4.565333 6.5536 28.629333 10.333867 37.265067 14.370133 54.237867 25.352533 80.861867 99.140267 71.261867 154.205867z" fill="#4A2820" p-id="4033"></path><path d="M926.853658 711.825067c-39.978667 35.822933-76.970667 76.1344-113.527467 115.3792-16.068267 17.245867-35.362133 31.744-47.7952 52.027733l13.303467 94.199467c-0.605867-0.128-7.0656 3.447467-11.886934 3.592533-20.027733 0.605867-40.379733-0.128-60.398933-0.1536 3.6096-65.911467-8.413867-128.9216-34.423467-189.320533 68.317867-26.308267 149.751467-79.581867 185.8816-144.571734 9.873067 24.3456 31.7952 47.402667 53.316267 61.994667 4.8384 3.2768 9.224533 6.997333 15.522133 6.852267z" fill="#F8C37D" p-id="4034"></path><path d="M358.883524 818.5344c-5.5808 22.690133-15.9232 44.2368-20.5312 67.2512-2.909867 14.506667-2.0736 30.762667-6.9376 44.6976l-0.068266 46.404267c-24.721067 0.042667-51.319467-1.408-75.733334 0l3.5072-46.4128c2.013867-11.938133 10.436267-36.317867 5.188267-46.6176C212.135791 838.442667 156.396058 797.482667 100.716058 756.5824c22.357333-10.5216 39.389867-29.550933 55.074133-48.187733 42.376533 60.3392 132.130133 97.1264 203.093333 110.148266z" fill="#F9C37E" p-id="4035"></path><path d="M654.921924 102.545067c2.065067 0.8704 12.637867 9.941333 13.371734 12.433066 2.730667 9.250133-3.421867 16.418133-3.054934 25.437867-18.7136-7.8336-37.6832-15.274667-57.582933-19.8656-117.546667-27.0848-261.1968-3.0464-363.554133 61.696l-38.382934 27.008c-5.8368-1.698133-10.0096-22.801067-8.226133-28.868267 1.288533-4.369067 26.7776-21.802667 32.836267-25.6768 42.257067-27.0336 104.661333-52.232533 152.6528-62.4896 78.2336-16.7168 196.9152-21.4016 271.940266 10.325334z" fill="#807C7A" p-id="4036"></path><path d="M926.853658 711.825067c-6.306133 0.136533-10.683733-3.575467-15.522134-6.852267-21.5296-14.592-43.4432-37.640533-53.316266-61.994667 8.183467-14.72 14.4384-40.763733 22.434133-51.575466 5.546667-7.509333 35.84-24.055467 45.312-26.9824 19.413333-5.998933 47.829333-2.961067 63.0272 11.4688 24.0384 22.8352 15.4624 62.711467-3.336533 86.075733-17.058133 21.1968-40.055467 33.2544-58.581334 49.851733z m20.4032-125.994667c0-8.132267-6.596267-14.728533-14.728534-14.728533s-14.728533 6.596267-14.728533 14.728533 6.596267 14.728533 14.728533 14.728533 14.728533-6.596267 14.728534-14.728533z m16.136533 2.474667c-5.265067 1.544533-9.437867 10.231467-11.707733 15.086933l14.728533 15.6672c10.624-2.184533 16.964267-8.558933 19.131733-19.131733-2.3296-10.658133-12.296533-14.506667-22.161066-11.6224z m-54.903467 17.399466c-9.002667 1.988267-17.373867 12.0576-15.675733 21.188267 0.768 4.104533 17.979733 29.294933 21.896533 33.399467 26.820267 28.040533 45.738667-10.376533 34.619734-38.0672-5.393067-13.422933-27.409067-19.4816-40.849067-16.520534z m68.736 20.3264c-10.2656 3.652267-23.296 15.445333-12.578133 25.617067 12.0832 11.477333 31.274667-1.7664 22.536533-19.089067l-9.9584-6.528z" fill="#F6ECD9" p-id="4037"></path><path d="M126.836591 364.450133l25.608533 1.339734c13.1328 6.6048 9.3184 45.175467 10.308267 58.530133 3.746133 50.466133 7.202133 100.548267 10.325333 151.466667 0.5888 9.5232 8.413867 17.8176-1.7664 29.346133-5.6064 6.3488-22.621867 10.026667-29.457066 5.307733-8.874667-6.135467-5.896533-47.104-6.784-58.615466-3.677867-47.8976-11.144533-96.6656-13.8496-144.494934-0.5376-9.489067-1.134933-25.8048 0.0512-34.670933 0.546133-4.078933 1.706667-6.4768 5.563733-8.209067z" fill="#777370" p-id="4038"></path><path d="M100.716058 756.573867c-31.5904-23.210667-74.129067-45.6192-81.9456-88.430934-3.4304-18.798933 3.720533-37.256533 18.2016-49.322666 13.4144-11.170133 37.7344-22.3232 49.962666-5.102934-13.986133 10.368-16.1024 26.0608 2.2016 32.443734l14.788267-12.253867-3.191467-15.0272 19.080534 6.724267 8.448 27.690666c-13.960533-4.3008-31.581867-6.024533-44.714667 1.757867-17.5872 10.427733-13.576533 47.342933 3.319467 58.5984l8.1664 1.237333c5.623467-2.397867 10.171733-5.418667 14.395733-9.864533 3.874133-4.078933 15.863467-18.619733 18.372267-22.929067 2.781867-4.770133 4.369067-9.429333 3.908266-15.0272l22.2976 34.628267c2.056533 1.664 1.160533 5.777067 1.792 6.673067-15.684267 18.6368-32.725333 37.666133-55.074133 48.187733z m-34.9184-119.978667c-3.771733-3.780267-21.512533-6.6304-25.437867-0.631467-6.468267 9.898667 0.9216 27.6224 13.9008 27.758934 14.549333 0.1536 20.7104-17.928533 11.537067-27.136z m-14.958934 34.901333c-22.638933 2.986667-21.410133 25.975467-0.008533 30.1824 18.466133-5.802667 18.304-23.9104 0.008533-30.1824z" fill="#F5ECD9" p-id="4039"></path><path d="M888.991258 463.982933l0.392533 8.1664 3.0464 2.158934c0.1024 1.1264-0.0256 2.304 0 3.438933 0.119467 5.504 1.024 13.9264-0.3328 18.6112-1.595733 5.4784-12.0832 5.5552-13.431467 12.373333h-6.843733l-6.929067-41.309866-0.375466-8.183467-3.063467-2.1504c-0.2304-1.1008 0.2304-2.346667 0-3.438933l-13.7728-58.5216-4.164267-25.096534-23.364266-86.784c4.0192-2.807467 14.242133-2.449067 19.029333-1.8176 2.978133 0.401067 5.102933 0.7168 6.912 3.413334 16.776533 59.042133 27.537067 119.7824 42.897067 179.1232z" fill="#C1C7C5" p-id="4040"></path><path d="M104.154991 377.924267l13.764267 227.191466-20.155734-7.3728c-6.528-12.416-2.8928-25.685333-4.002133-39.022933-4.189867-50.235733-9.642667-101.0688-13.8496-151.3728-1.783467-21.316267 1.066667-30.139733 24.2432-29.4144z" fill="#C1C7C6" p-id="4041"></path><path d="M930.301124 391.697067c2.321067 27.9296-0.6912 56.840533-18.935466 79.163733-0.392533 0.1792-5.0688-6.459733-5.162667-6.877867-0.853333-3.9936 0.512-9.344-0.725333-14.737066-11.818667-51.370667-26.1888-102.3488-37.128534-153.9328 2.082133-2.235733 16.128 7.936 18.9952 10.257066 23.8336 19.2768 40.439467 55.739733 42.965334 86.1184z" fill="#C2C9C9" p-id="4042"></path><path d="M76.617924 581.0176c-16.452267-11.818667-28.4672-25.949867-36.189866-44.6976-16.477867-40.004267-13.858133-100.548267 20.7104-130.850133l15.479466 175.547733z" fill="#C3CACA" p-id="4043"></path><path d="M716.882458 140.416c39.901867 28.936533 74.248533 63.7952 96.443733 108.373333 1.9712 3.950933 5.034667 6.0672 3.3792 12.100267l-24.2688-1.544533c-17.851733-31.581867-42.146133-64.9984-70.331733-88.0128-6.784-5.538133-15.5136-9.088-22.434134-13.704534-5.188267-3.464533-9.787733-10.5984-17.160533-10.4448l3.396267-23.970133 30.976 17.2032z" fill="#C4CAC7" p-id="4044"></path><path d="M665.247258 88.7808c-4.411733-1.237333-11.9552 3.7376-10.3168-5.154133 57.6768-52.232533 87.697067 13.405867 106.6752 61.9776l-1.6896 5.128533c-6.741333-6.3232-15.035733-13.678933-22.485334-18.961067-2.653867-1.877333-6.033067-1.1776-6.775466-1.681066-14.5408-9.7792-49.467733-36.855467-65.399467-41.309867z" fill="#F4C282" p-id="4045"></path><path d="M104.172058 353.834667c-5.2992-6.2464 12.270933-57.685333 16.520533-67.805867 12.765867-30.4384 34.116267-60.5952 57.480533-83.6352 4.522667 4.189867 10.043733 12.4928 8.285867 18.4064-2.0992 7.04-24.132267 31.9744-30.122667 42.350933-14.464 25.053867-23.202133 52.437333-29.636266 80.520534l-22.528 10.1632z" fill="#C8CFCE" p-id="4046"></path><path d="M324.468591 167.944533c-1.425067-8.1664 1.024-6.382933 6.8864-8.4992 69.973333-25.2672 144.238933-33.186133 218.5984-29.380266 6.528 0.3328 10.990933-1.544533 15.453867 5.179733-4.471467 6.7328-8.9344 4.846933-15.453867 5.179733-31.453867 1.6128-65.271467-2.466133-96.3328 0.0512-38.4768 3.114667-80 16.597333-116.625067 28.202667-6.254933 1.979733-6.5024 0.119467-12.526933-0.7424z" fill="#EAE6DE" p-id="4047"></path><path d="M214.311791 140.424533l-65.390933 61.952c0.4608-38.0416 21.725867-79.095467 65.390933-61.952z" fill="#F3C180" p-id="4048"></path><path d="M830.469658 398.583467c5.4016 22.8352 12.305067 47.232 17.211733 68.846933 2.747733 12.1088 3.396267 27.972267 6.8864 41.309867v10.325333c-12.6208 9.787733-28.663467 7.722667-37.2224-5.802667l-48.827733-216.200533 4.0704-11.460267c9.617067-4.829867 18.926933-12.928 28.7488-4.1728 10.786133 38.724267 19.899733 78.071467 29.141333 117.154134z" fill="#777270" p-id="4049"></path><path d="M847.681391 395.136l13.7728 58.5216-13.431467 7.296-0.3328 6.468267c-4.906667-21.614933-11.810133-46.0032-17.211733-68.846934 5.1968-3.575467 11.0592-4.027733 17.211733-3.438933zM854.567791 519.057067v-10.325334c0.0768 0.298667 3.6352 0.384 3.6352 5.051734l-0.290133 3.447466c-0.648533 2.321067-2.9696 1.536-3.3536 1.826134zM864.893124 467.421867c-5.290667-0.324267-2.7392-6.980267-3.438933-10.325334l3.063467 2.1504 0.375466 8.183467zM892.430191 474.308267l-3.0464-2.158934-0.392533-8.1664c0.196267 0.7424 2.7392 2.7904 3.438933 10.325334z" fill="#4D2B22" p-id="4050"></path><path d="M908.489924 605.704533c13.44-2.961067 35.456 3.0976 40.849067 16.520534 11.118933 27.690667-7.799467 66.0992-34.619733 38.0672-3.925333-4.104533-21.137067-29.2864-21.896534-33.399467-1.698133-9.130667 6.673067-19.2 15.675734-21.188267z" fill="#542F27" p-id="4051"></path><path d="M963.393391 588.305067c9.864533-2.884267 19.831467 0.964267 22.161067 11.6224-2.167467 10.5728-8.507733 16.955733-19.131734 19.131733l-14.728533-15.6672c2.261333-4.855467 6.442667-13.5424 11.707733-15.086933z" fill="#553028" p-id="4052"></path><path d="M932.536858 585.8304m-14.728534 0a14.728533 14.728533 0 1 0 29.457067 0 14.728533 14.728533 0 1 0-29.457067 0Z" fill="#57352D" p-id="4053"></path><path d="M977.225924 626.030933l9.9584 6.528c8.738133 17.3312-10.4448 30.5664-22.536533 19.089067-10.717867-10.180267 2.312533-21.973333 12.578133-25.617067z" fill="#5A342C" p-id="4054"></path><path d="M65.797658 636.5952c9.1648 9.207467 3.003733 27.2896-11.537067 27.136-12.9792-0.136533-20.369067-17.860267-13.9008-27.758933 3.925333-6.007467 21.674667-3.157333 25.437867 0.631466z" fill="#5E372F" p-id="4055"></path><path d="M50.838724 671.496533c18.295467 6.272 18.4576 24.379733-0.008533 30.1824-21.4016-4.206933-22.6304-27.195733 0.008533-30.1824z" fill="#58362E" p-id="4056"></path><path d="M648.035524 154.180267c-6.263467 1.416533-24.746667 23.944533-20.6592 27.528533 28.288 11.3152 57.7536 25.429333 82.466134 43.1872 10.513067 7.552 19.780267 23.5008 34.568533 22.2208v-24.0896c0.503467 0.6144 2.551467 0.469333 3.515733 1.723733 9.250133 12.032 16.913067 24.430933 23.944534 37.879467-15.172267 8.789333-20.7104 20.983467-23.978667 37.845333 14.498133 56.32 25.3696 113.937067 37.828267 170.3936-31.1296 1.109333-60.014933 17.902933-87.2448 31.5136-7.6288 3.8144-19.089067 13.568-26.3424 16.682667-5.316267 2.286933-27.1616 9.685333-30.976 10.325333-41.233067 6.9632-74.948267-31.9488-112.520534-40.6528-21.051733-4.881067-42.641067-2.773333-63.1552 4.386134-44.023467 15.368533-54.229333 56.4736-106.589866 70.690133-10.6752-0.64-22.084267 0.981333-32.631467-0.068267-8.5248-0.853333-20.983467-4.5568-29.329067-6.818133-9.710933-2.628267-21.4528-8.1664-32.827733-10.205867-24.251733-4.334933-46.208-4.974933-70.4256-0.093866-0.128 5.700267 0.068267 11.477333-0.017067 17.186133-5.9648-2.8672-3.387733-13.2864-3.4304-18.944-0.349867-45.858133-5.973333-92.322133-10.2656-137.7536-1.672533-17.749333 2.4064-32.170667-10.333866-48.187733-7.031467-8.832-16.4608-9.480533-23.552-17.0496 4.881067-23.022933 12.3648-44.680533 23.978666-65.134934 2.2016-3.874133 6.144-5.111467 6.4-5.5296 1.0496 12.168533 5.213867 23.978667 7.022934 36.0192 0.443733 2.961067-1.9968 12.3136 5.0176 8.721067 8.2688-4.241067 18.781867-24.8576 25.762133-32.759467 12.0064-13.585067 29.482667-30.890667 43.025067-43.025066 4.0192-3.601067 13.815467-6.9376 15.351466-12.270934 3.140267-10.9312-16.571733-20.266667-23.8848-25.531733 15.8976-10.530133 31.7184-21.213867 49.9456-27.707733 11.298133 3.601067 22.075733 18.491733 34.312534 17.544533 5.640533-0.4352 24.1152-9.821867 32.682666-12.305067 42.368-12.270933 92.373333-19.84 135.9104-22.4256 22.894933-1.3568 42.743467 4.7872 65.117867 3.157334l27.886933-23.799467c15.829333 5.4528 32.7168 8.516267 48.5632 13.755733 3.182933 1.0496 4.573867 3.4816 4.872534 3.584z m-52.608 155.511466c-24.977067 3.566933-57.787733 28.0064-53.538133 55.492267 7.432533 48.145067 100.5824 28.194133 92.3648-30.293333-2.3296-16.5632-23.901867-27.3408-38.826667-25.207467z m-251.221333 30.890667c-39.9104 5.981867-52.206933 45.457067-17.536 67.848533 30.609067 19.771733 86.203733 12.654933 76.398933-31.650133-2.4832-11.221333-22.826667-28.074667-33.681066-31.7184-4.224-1.416533-21.5808-5.009067-25.181867-4.471467z m292.514133 58.7264c-19.822933 2.807467-41.8048 16.221867-54.152533 31.906133-5.256533 6.673067-20.881067 31.240533-10.3424 38.007467 13.806933 8.866133 27.810133-16.827733 38.033067-24.081067 14.088533-10.001067 36.181333-13.422933 53.1968-12.066133 7.185067 0.571733 17.681067 7.517867 26.0608 1.826133 2.312533-1.570133 6.818133-10.973867 6.818133-13.943466 0-23.355733-43.0592-23.9872-59.613867-21.640534z m-327.082666 37.802667c-15.5904 2.645333-41.992533 16.1024-36.4032 35.080533 6.3744 21.614933 46.941867-5.051733 63.274666-5.051733 17.3824 0 42.4192 12.689067 55.424 24.200533l11.349334-8.823467c5.9648-19.575467-32.648533-43.844267-49.621334-46.020266-10.555733-1.3568-33.578667-1.169067-44.023466 0.605866z" fill="#F9C37D" p-id="4057"></path><path d="M641.149124 529.3824c1.954133 6.596267 2.9952 11.8272 3.549867 18.833067 4.608 57.984 25.693867 100.983467 87.739733 111.906133 19.4816 3.4304 46.7968-1.117867 62.336 10.129067l21.922134-6.621867C712.385391 783.0528 511.263258 827.3408 357.876591 797.149867c-45.602133-8.977067-103.1936-29.550933-140.1344-57.796267l36.795733-13.124267c22.101333-0.315733 47.9488-7.2192 66.397867-19.6608 3.84-2.594133 23.816533-22.289067 25.864533-25.770666 3.84-6.510933 9.019733-26.257067 10.359467-34.304 0.597333-3.584-1.7408-6.203733-1.518933-8.610134 1.518933-16.452267 4.701867-26.513067-0.6912-44.3648-1.954133-6.4768-18.781867-15.086933-16.725334-26.2912 5.111467-0.443733 10.760533 0.802133 15.7184 0.0768 4.599467-0.674133 4.642133-3.438933 4.932267-3.524266 52.352-14.216533 62.557867-55.3216 106.589867-70.690134 20.514133-7.159467 42.103467-9.2672 63.1552-4.386133 37.572267 8.704 71.287467 47.624533 112.520533 40.6528z m-97.024-9.693867c-2.909867-3.0464-20.317867-10.2656-25.233066-10.897066-25.2928-3.242667-59.255467 2.8672-73.4464 26.257066-9.9328 16.366933 6.0672 33.024 21.188266 39.765334 19.498667 8.686933 42.871467 10.3168 60.8256-2.4832 8.695467-6.203733 25.3952-26.589867 23.739734-37.248-0.145067-0.955733-6.493867-14.7712-7.074134-15.3856z m64.597334 34.056534c-12.245333 3.669333-6.664533 19.754667-10.504534 27.3664-0.5888 1.169067-8.712533 9.309867-10.274133 10.376533-6.434133 4.411733-26.6496 9.412267-34.696533 10.2144-13.568 1.3568-37.376-8.814933-51.498667-6.920533-9.6256 1.288533-27.374933 13.533867-38.468267 16.622933-15.2576 4.2496-39.9104 6.468267-52.7872-4.5312-9.463467-8.0896-6.946133-46.788267-27.648-13.858133 6.254933 30.216533 23.108267 37.026133 50.798934 42.180266 16.938667 3.157333 10.717867 4.795733 23.287466 14.7456 26.769067 21.1712 63.496533 21.307733 91.195734 1.570134 12.177067-8.6784 16.119467-23.901867 24.157866-30.916267 5.504-4.804267 16.725333-5.4016 24.0384-10.385067 17.501867-11.912533 30.370133-31.982933 22.5536-53.367466-2.756267-3.6096-5.845333-4.3776-10.154666-3.080534z" fill="#F9F0DB" p-id="4058"></path><path d="M672.133658 519.057067l-3.3792 22.434133c-2.474667 23.8848 5.666133 49.962667 20.5312 68.846933 16.708267 21.230933 35.012267 23.645867 60.305066 29.1584 12.356267-5.0944 28.4672-3.712 40.7552-7.389866 6.075733-1.8176 17.902933-13.397333 23.168-18.295467 1.4848-1.3824 4.8384-1.194667 6.016-2.423467 1.757867-1.826133 2.167467-7.7056 4.48-11.008 3.413333-4.855467 7.697067-7.918933 10.658134-13.448533 7.4752-13.952 3.438933-21.845333 2.372266-36.6848l-6.570666-0.213333v-3.4304c4.932267-0.2304 10.299733 0.8704 15.086933-0.4352 1.800533-0.494933 1.92-2.926933 2.133333-3.012267 2.346667-0.964267 4.522667-2.449067 6.8864-3.438933 2.3296-0.981333 13.1072-4.1216 13.764267-3.438934-4.078933 43.050667-17.058133 88.3456-44.680533 122.376534-2.2528 2.781867-5.9136 3.797333-6.954667 4.983466l-21.922133 6.621867c-15.547733-11.255467-42.8544-6.7072-62.336-10.129067-62.045867-10.922667-83.131733-53.922133-87.739734-111.906133-0.554667-6.997333-1.604267-12.228267-3.549866-18.833067 3.8144-0.648533 25.659733-8.046933 30.976-10.325333z" fill="#F9E7CF" p-id="4059"></path><path d="M296.922991 556.919467c-10.641067-1.262933-7.176533 2.6112-1.774933 6.946133 19.285333 15.470933 31.684267 15.4624 38.912 43.6992 6.664533 26.001067-3.4304 46.702933-14.813867 69.7856-16.170667 15.786667-38.852267 29.704533-61.7728 31.197867-8.174933 0.529067-12.6464-2.4832-17.979733-2.926934-6.434133-0.5376-11.281067 5.998933-21.751467 1.032534-15.445333-7.338667-24.200533-25.531733-32.768-39.5008-1.706667-2.781867-5.8112-4.6848-6.912-6.8608-3.370667-6.673067-3.4048-23.3984-1.621333-31.0784-2.2784-0.059733-4.599467 0.1024-6.8864 0 13.0048-10.197333 21.853867-16.964267 24.098133-34.423467l3.6352-5.0432-0.273067-3.4048-3.362133-1.877333c0.384-6.8096-0.1024-13.815467 0-20.650667 0.085333-5.7088-0.110933-11.477333 0.017067-17.186133 24.2176-4.881067 46.173867-4.241067 70.4256 0.093866 11.3664 2.030933 23.1168 7.5776 32.827733 10.205867zM237.249391 564.369067c-6.0672 1.3312-31.863467 18.5856-34.986667 23.534933-7.313067 11.613867-4.736 29.559467-5.265066 42.939733-0.128 3.268267-3.362133 6.570667-2.858667 9.890134 1.365333 9.070933 22.1952 37.725867 30.404267 41.9072 5.0432 2.568533 39.825067 2.944 46.062933 1.143466 6.596267-1.902933 30.7456-21.0432 33.9456-28.014933 1.646933-3.575467 8.721067-25.9584 8.977067-28.8768 0.503467-5.819733-7.7056-29.764267-11.528534-35.473067-9.5744-14.301867-19.072-16.162133-33.655466-21.418666-3.217067-1.160533-5.333333-4.8896-8.072534-5.700267-5.230933-1.536-17.4592-1.160533-23.031466 0.059733z" fill="#FADABD" p-id="4060"></path><path d="M296.922991 556.919467c8.3456 2.261333 20.804267 5.9648 29.329067 6.818133 10.5472 1.0496 21.956267-0.571733 32.631466 0.068267-0.290133 0.0768-0.3328 2.8416-4.932266 3.524266-4.957867 0.725333-10.606933-0.520533-15.7184-0.0768-2.048 11.2128 14.7712 19.8144 16.725333 26.2912 5.384533 17.8432 2.2016 27.912533 0.6912 44.3648-0.221867 2.4064 2.107733 5.026133 1.518933 8.610134-1.3312 8.046933-6.519467 27.793067-10.359466 34.304-2.056533 3.4816-22.024533 23.176533-25.864534 25.770666-18.449067 12.4416-44.296533 19.345067-66.397866 19.6608l-36.795734 13.124267c-36.497067-27.904-63.4112-65.7664-75.7248-110.148267 9.130667 0.264533 18.414933-0.392533 27.537067 0 2.2784 0.093867 4.608-0.059733 6.8864 0-1.783467 7.68-1.749333 24.405333 1.621333 31.0784 1.1008 2.176 5.205333 4.078933 6.912 6.8608 8.567467 13.969067 17.322667 32.162133 32.768 39.5008 10.461867 4.974933 15.3088-1.570133 21.751467-1.032533 5.3248 0.443733 9.8048 3.456 17.979733 2.926933 22.929067-1.493333 45.610667-15.4112 61.7728-31.197866 11.392-23.082667 21.4784-43.793067 14.813867-69.7856-7.236267-28.228267-19.626667-28.228267-38.912-43.6992-5.393067-4.3264-8.8576-8.209067 1.774933-6.946134z" fill="#FAE6CC" p-id="4061"></path><path d="M248.735258 202.376533c7.313067 5.265067 27.025067 14.600533 23.8848 25.531734-1.527467 5.333333-11.323733 8.669867-15.351467 12.270933-13.550933 12.1344-31.0272 29.44-43.025067 43.025067-6.980267 7.901867-17.493333 28.5184-25.762133 32.759466-7.0144 3.592533-4.565333-5.76-5.0176-8.721066-1.809067-12.040533-5.973333-23.850667-7.022933-36.0192 4.949333-8.0896 8.866133-18.9184 15.6416-27.392 9.0368-11.306667 42.2656-31.931733 56.644266-41.454934z" fill="#F5C9B8" p-id="4062"></path><path d="M689.345391 171.392c23.185067 14.702933 38.229333 30.933333 55.074133 51.6352v24.0896c-14.7968 1.28-24.064-14.6688-34.568533-22.2208-24.712533-17.757867-54.186667-31.872-82.466133-43.1872-4.087467-3.584 14.395733-26.112 20.6592-27.528533 17.041067 5.998933 24.8064 6.749867 41.309866 17.211733z" fill="#F6C9B8" p-id="4063"></path><path d="M193.661124 594.7904c0.418133-3.242667-0.187733-6.9376 0-10.325333l3.362134 1.877333 0.273066 3.4048-3.6352 5.0432z" fill="#FBC8A8" p-id="4064"></path><path d="M785.720858 470.869333c0.059733 0.2816 2.295467 0.7936 2.688 2.5856 3.720533 16.981333 3.515733 33.604267 11.076266 49.041067-13.525333 1.083733-21.4528-13.141333-33.237333-16.674133-3.037867-0.913067-21.102933-4.317867-23.4496-4.155734-3.959467 0.264533-21.9136 9.454933-25.821867 12.322134-6.971733 5.102933-7.970133 10.692267-12.168533 15.470933-4.437333 5.051733-10.402133 1.9712-12.0064 15.4368-2.9184 24.533333 9.540267 49.169067 29.1072 63.7952 6.775467 5.060267 10.8032 1.988267 16.827733 3.805867 3.746133 1.134933 5.3248 6.690133 10.1888 5.9392 7.7312-1.2032 22.843733-5.009067 30.8992-7.176534 10.2656-2.773333 22.792533-10.7008 28.253867-19.9424 1.527467-2.5856 11.810133-30.097067 12.125867-32.674133 1.450667-11.741867-1.928533-12.125867-9.301334-18.286933-2.884267-2.414933-14.020267-6.314667-4.522666-10.965334 11.229867 13.294933 23.876267 15.223467 41.309866 13.7728-0.213333 0.085333-0.3328 2.525867-2.133333 3.012267-4.7872 1.3056-10.154667 0.2048-15.0784 0.4352v3.4304l6.562133 0.213333c1.066667 14.839467 5.102933 22.7328-2.372266 36.6848-2.961067 5.5296-7.253333 8.584533-10.658134 13.448534-2.321067 3.3024-2.730667 9.173333-4.48 11.008-1.1776 1.2288-4.5312 1.041067-6.016 2.423466-5.265067 4.898133-17.092267 16.477867-23.168 18.295467-12.288 3.6864-28.398933 2.304-40.7552 7.389867-25.301333-5.512533-43.5968-7.927467-60.305066-29.1584-14.865067-18.884267-23.005867-44.970667-20.5312-68.846934l3.3792-22.434133c7.261867-3.114667 18.7136-12.868267 26.3424-16.682667 27.2384-13.610667 56.1152-30.395733 87.2448-31.5136z" fill="#F9D7B9" p-id="4065"></path><path d="M799.493658 522.504533c4.1472-0.3328 5.265067 4.9664 6.8864 6.8864-9.4976 4.650667 1.6384 8.558933 4.522666 10.965334 7.3728 6.161067 10.752 6.536533 9.301334 18.286933-0.315733 2.577067-10.5984 30.088533-12.125867 32.674133-5.461333 9.2416-17.988267 17.169067-28.253867 19.9424-8.055467 2.176-23.159467 5.973333-30.8992 7.176534-4.864 0.759467-6.442667-4.804267-10.1888-5.9392-6.024533-1.8176-10.052267 1.2544-16.827733-3.805867-19.566933-14.626133-32.0256-39.261867-29.1072-63.7952 1.604267-13.4656 7.569067-10.376533 12.0064-15.4368 4.1984-4.778667 5.188267-10.368 12.168533-15.470933 3.908267-2.858667 21.8624-12.0576 25.821867-12.322134 2.3552-0.1536 20.411733 3.2512 23.4496 4.155734 11.784533 3.5328 19.720533 17.749333 33.237333 16.674133zM739.802991 526.506667c-15.428267 3.456-30.583467 22.698667-25.898667 38.562133 0.3584 1.194667 11.733333 19.618133 13.184 21.230933 12.458667 13.866667 32.290133 13.764267 48.256 6.698667 11.639467-5.1456 18.218667-19.319467 20.2496-31.633067 2.551467-15.496533-15.488-27.008-27.076266-33.732266-10.197333 1.655467-18.048-3.524267-28.714667-1.134934z" fill="#F9CAA9" p-id="4066"></path><path d="M344.206191 340.5824c3.601067-0.5376 20.949333 3.054933 25.181867 4.471467 10.8544 3.643733 31.197867 20.497067 33.681066 31.7184 9.8048 44.305067-45.781333 51.421867-76.398933 31.650133-34.6624-22.382933-22.3744-61.866667 17.536-67.848533zM595.427524 309.691733c14.9248-2.133333 36.497067 8.644267 38.826667 25.207467 8.2176 58.487467-84.9408 78.4384-92.3648 30.293333-4.241067-27.4944 28.561067-51.933867 53.538133-55.492266z" fill="#F8EEDA" p-id="4067"></path><path d="M636.720324 399.3088c16.554667-2.338133 59.6224-1.706667 59.613867 21.640533 0 2.9696-4.5056 12.373333-6.818133 13.943467-8.379733 5.691733-18.875733-1.2544-26.0608-1.826133-17.015467-1.3568-39.108267 2.065067-53.1968 12.066133-10.222933 7.253333-24.226133 32.9472-38.033067 24.081067-10.538667-6.766933 5.085867-31.3344 10.3424-38.007467 12.347733-15.684267 34.321067-29.098667 54.152533-31.906133z" fill="#512F26" p-id="4068"></path><path d="M309.637658 437.111467c10.453333-1.774933 33.467733-1.962667 44.023466-0.605867 16.9728 2.176 55.586133 26.4448 49.621334 46.020267l-11.349334 8.823466c-13.013333-11.511467-38.0416-24.200533-55.424-24.200533-16.324267 0-56.900267 26.666667-63.274666 5.051733-5.597867-18.978133 20.8128-32.4352 36.4032-35.080533z" fill="#522E25" p-id="4069"></path><path d="M608.722458 553.745067c4.309333-1.288533 7.3984-0.529067 10.154666 3.080533 7.816533 21.393067-5.0432 41.454933-22.5536 53.367467-7.3216 4.983467-18.5344 5.5808-24.0384 10.385066-8.0384 7.0144-11.9808 22.237867-24.157866 30.916267-27.6992 19.7376-64.426667 19.601067-91.195734-1.570133-12.5696-9.941333-6.3488-11.588267-23.287466-14.7456-27.6992-5.154133-44.544-11.963733-50.798934-42.180267 20.701867-32.930133 18.184533 5.768533 27.648 13.858133 12.868267 11.008 37.5296 8.789333 52.7872 4.5312 11.093333-3.089067 28.842667-15.3344 38.468267-16.622933 14.122667-1.885867 37.930667 8.277333 51.498667 6.920533 8.0384-0.802133 28.253867-5.794133 34.696533-10.2144 1.5616-1.066667 9.685333-9.207467 10.274133-10.376533 3.84-7.611733-1.7408-23.697067 10.504534-27.3664z m-60.5184 65.143466l-43.025067-3.456-39.586133 15.496534c19.9424 21.649067 58.504533 21.0432 77.44-1.723734 2.8928-3.4816 6.596267-4.394667 5.162666-10.3168z" fill="#512B23" p-id="4070"></path><path d="M544.125124 519.688533c0.5888 0.6144 6.929067 14.429867 7.074134 15.3856 1.664 10.658133-15.035733 31.044267-23.739734 37.248-17.954133 12.8-41.326933 11.170133-60.8256 2.4832-15.121067-6.7328-31.121067-23.389867-21.188266-39.765333 14.190933-23.389867 48.145067-29.508267 73.4464-26.257067 4.9152 0.631467 22.3232 7.850667 25.233066 10.897067z" fill="#4E2D25" p-id="4071"></path><path d="M237.249391 564.369067c5.572267-1.220267 17.800533-1.604267 23.031467-0.059734 2.7392 0.810667 4.855467 4.539733 8.072533 5.700267 14.583467 5.256533 24.072533 7.1168 33.655467 21.418667 3.822933 5.7088 12.023467 29.653333 11.528533 35.473066-0.247467 2.9184-7.330133 25.301333-8.977067 28.8768-3.2 6.971733-27.349333 26.112-33.9456 28.014934-6.237867 1.800533-41.019733 1.4336-46.062933-1.143467-8.209067-4.189867-29.047467-32.836267-30.404267-41.9072-0.503467-3.328 2.730667-6.621867 2.858667-9.890133 0.520533-13.380267-2.048-31.325867 5.265067-42.939734 3.114667-4.949333 28.919467-22.203733 34.986666-23.534933z m3.566933 27.665066c-3.8656 0.674133-8.704 3.362133-12.893866 4.317867-12.484267 24.149333-10.2912 60.526933 22.621866 63.863467 9.0112 0.913067 25.122133-7.1424 30.916267-13.7728 2.338133-2.670933 8.584533-19.029333 8.132267-21.879467-0.162133-1.041067-7.185067-17.732267-8.192-19.421867-8.3456-13.994667-25.8816-15.684267-40.593067-13.115733z" fill="#FBC8A8" p-id="4072"></path><path d="M739.802991 526.506667c10.666667-2.389333 18.517333 2.7904 28.714667 1.134933 11.588267 6.724267 29.627733 18.235733 27.076266 33.732267-2.030933 12.3136-8.6016 26.478933-20.2496 31.633066-15.965867 7.057067-35.797333 7.168-48.256-6.698666-1.450667-1.6128-12.8256-20.036267-13.184-21.230934-4.6848-15.863467 10.4704-35.106133 25.898667-38.562133z" fill="#FABB98" p-id="4073"></path><path d="M548.204058 618.888533c1.4336 5.922133-2.269867 6.8352-5.162667 10.3168-18.935467 22.766933-57.4976 23.3728-77.44 1.723734l39.586133-15.496534 43.025067 3.456z" fill="#F09578" p-id="4074"></path><path d="M240.816324 592.034133c14.711467-2.568533 32.247467-0.878933 40.593067 13.115734 1.006933 1.6896 8.029867 18.3808 8.192 19.421866 0.443733 2.850133-5.802667 19.208533-8.132267 21.879467-5.794133 6.6304-21.9136 14.685867-30.916266 13.7728-32.913067-3.345067-35.106133-39.722667-22.621867-63.863467 4.181333-0.955733 9.028267-3.643733 12.893867-4.317866z" fill="#FCBA98" p-id="4075"></path></svg>