<?xml version="1.0" standalone="no"?><!DOCTYPE svg PUBLIC "-//W3C//DTD SVG 1.1//EN" "http://www.w3.org/Graphics/SVG/1.1/DTD/svg11.dtd"><svg t="1768660264645" class="icon" viewBox="0 0 1024 1024" version="1.1" xmlns="http://www.w3.org/2000/svg" p-id="4991" xmlns:xlink="http://www.w3.org/1999/xlink" width="256" height="256"><path d="M877.549061 117.060017c-15.249034 7.270384-32.912996-1.041064-31.590332-18.952493 0.196266-2.602661 6.690119-21.324755 7.842116-22.527952 5.393055-5.640521 21.486887-8.584515 27.221275-16.98983 13.585038-19.933824-10.436244-31.052734-29.183937-25.651146-8.541848 2.457595-9.873046 19.319425-21.597821 20.915156-15.027168 2.039462-22.263419-8.200516-18.995159-22.579152 2.602661-11.443176 11.246909-19.618091 21.691687-24.311415 25.523146-11.460242 61.789735-10.265578 78.532099 15.010101 16.290099 24.575948 5.657588 45.772702-14.00317 63.692665-3.985058 3.635192-11.784508 5.674655-14.301836 10.470377-2.833061 5.410122-2.355195 14.779702-5.614922 20.932222z" fill="#4E2D24" p-id="4992"></path><path d="M863.767757 145.723422m-18.807426 0a18.807427 18.807427 0 1 0 37.614853 0 18.807427 18.807427 0 1 0-37.614853 0Z" fill="#512E25" p-id="4993"></path><path d="M899.163948 669.515372l-15.428233-4.147191-2.261329-2.935461c6.195187-17.672496 9.830379-41.582845 10.615444-60.159872 6.118387-2.943994 3.507193-13.678904 3.532793-19.473025 0.1792-45.806836-12.014908-94.267532-30.01167-136.302642-9.821846-22.946084-43.929506-75.827038-47.138032-94.421132-13.619171-78.864898-17.24583-161.364989-61.33747-232.396304-20.991955-33.817528-43.55404-40.166314-78.591832-19.387692-24.405281 14.472502-41.890044 35.80579-64.358263 52.428688l-35.566857 42.333776c-6.937585 2.099196-13.602104-3.071993-20.787156-3.455992-45.209504-2.423461-107.101638 4.846923-151.517543 15.129567-23.074084 5.341855-45.235103 14.455436-68.061722 20.676223-12.177041-0.017067-37.52952-21.137022-50.090559-28.023407-23.953016-13.141305-55.381215-28.219673-81.715026-35.071925-21.009022-5.469855-35.771657-7.423984-50.525759 11.460242-11.699175 14.975968-19.857024 51.73749-21.316221 70.698516-4.949323 64.417996 1.382397 135.543178 14.267703 198.33131-4.172791 20.095957-10.402111 40.098048-13.994637 60.287871-10.538644 59.195607-14.165303 107.374704-0.119466 164.436983 10.726377 43.596707 20.095957 65.373727 49.544427 99.088855 35.037792 40.115114 73.420643 63.112399 123.861069 77.857968-4.78719 11.443176-12.620773 15.317301-21.367421 23.176483l-3.404793-1.937062c0.827732-8.098116-4.616523-9.719446-10.572777-12.43304-42.632442-19.404759-75.00784-33.689528-106.28244-70.664383-79.078231-93.508067-71.039848-225.475786-38.89485-336.272349l-10.513045-53.15402c2.645328-11.443176-2.679461-22.485285-3.541325-31.854865-4.68479-51.097491-5.375989-147.122886 20.471423-191.726525 26.444744-45.627636 66.099059-33.646862 107.861103-18.013828 35.208458 13.175439 66.517191 33.911394 99.242455 51.916689 20.223957-7.304518 40.575913-15.197834 61.584935-20.010624 46.480968-10.649577 107.357638-15.923166 155.058869-15.129567 3.865592 0.068267 7.202118 1.160531 10.581311 2.83306 27.383408-30.301802 56.24308-62.6516 90.197141-85.751284 35.174325-23.927416 71.526247-31.138067 102.613114 3.387727 46.830833 52.010556 68.121455 165.921779 77.721435 233.710434 1.100798 7.79945-1.092264 16.145032 0.648532 24.123682 3.464526 15.8293 27.076209 49.356695 35.515657 67.114524 39.031383 82.056358 57.779077 167.048177 24.063949 253.746658z" fill="#4A281F" p-id="4994"></path><path d="M545.26177 634.119181c10.905577-2.815994 21.145555-4.573857 31.906065-8.789315 7.72265-3.029327 41.975377-26.41061 45.934836-10.547178 2.449061 9.804779-18.986626 21.529554-28.006341 23.176484-3.720525 39.108183-17.766362 89.531542-63.99133 91.716071-0.887465 4.744523 2.995194 8.098116 3.507193 12.390374 2.926927 24.439415-13.482638 36.940721-24.490615 56.149213 16.085299 20.326357 25.813278 43.135908 24.524748 69.478252 42.13751-4.73599 83.396089-14.404236 123.997602-26.419143l3.08906-3.985059c-8.081049-65.646793 54.860683-83.020623 101.119785-48.042564 3.029327 0.017067 44.108706-29.926336 49.672427-34.747659 10.751977-9.309847 20.735956-21.188221 30.011669-31.923132 15.180768-17.561563 30.933267-37.367387 38.928984-60.159871l2.261328 2.93546 15.428234 4.147191c-23.108217 59.417473-63.871864 98.969389-116.786951 132.727184l0.034134 3.473059c22.348752 23.47515 38.331652 52.189755 47.829231 83.131556 5.768521 18.798893 17.049564 69.281986 12.006374 86.485149-3.29386 11.255443-14.446903 2.099196-17.399429 2.065062-3.524259-32.272998-7.782383-68.915053-19.362092-99.319255-1.54453-4.053325-5.085856-6.092787-5.410122-6.852252-12.706106-29.277804-34.320993-65.706526-67.063324-76.262237-18.030895-5.811188-46.361501-5.589321-49.715094 17.877295-4.334924 30.327402 9.855979 56.678279 10.615444 86.698482 0.639999 25.369546-4.949323 49.459094-3.643725 76.185437 0.358399 7.364251 1.77493 12.526907 3.643725 19.370625-3.763192 0.785065-5.768521 5.230922-9.352513 6.673053-3.430393 0.836265-7.295984-3.285326-8.345582-3.14026l-3.06346-2.107729c-0.921598-1.612797 0.042667-3.720525-0.477866-4.966389-0.716798-9.352513 1.928529-19.720491-1.69813-28.31354h-1.843196c1.809063-28.407406 8.951448-66.235592-0.034133-93.747-1.211731-3.694925-1.126398-6.399986-5.256522-8.849048l-74.461708 21.077289-58.444675 8.789314c-15.539167 37.461253-28.936472 73.326777-52.223889 106.922439-1.083731 1.561597-0.119466 4.010658-0.674132 4.73599-1.689596 2.175995-10.248511 6.929052-12.834106 10.402111-5.555188 1.535997-10.717844-3.583992-11.938108-3.31946-1.587197-17.646896 13.090105-30.566335 20.69329-44.782837 14.651702-27.383408 24.755147-48.767896 32.392464-79.086765 1.783463-7.065585 6.22932-15.8037 6.980252-23.074084 2.713594-26.103411-13.87517-47.0527-31.675666-63.846264v-3.11466c10.581311-13.713037 36.829788-34.380727 31.3514-52.889487l-8.823448-8.900248c-9.036781-2.756261-22.391419 6.604786-29.533804 12.185574-14.711435 11.502909-29.439937 28.552472-44.671905 40.277248-13.755704 3.985058-13.380238-17.356763-18.414894-27.033543-9.207447-17.698096-33.501795-22.510885-36.232456-2.850127-1.501863 10.777577-0.657065 31.078334-0.0768 42.700709 0.307199 6.246387 3.515726 11.127443 3.848526 17.390896 0.460799 8.755181 1.59573 38.408451-0.1536 44.390305-0.767998 2.619728-27.605274 39.389783-31.778066 44.304973-5.896521 6.937585-26.265544 31.112467-33.715128 19.421825-9.779179-15.351434 28.202607-33.049529 26.572744-49.570028l-38.894851-7.074118c1.476264 10.367978-7.842117 19.925291-10.65811 28.305006l-9.002648-10.555711 1.484797-8.473582-3.097593-2.201595c0.477866-0.964265-0.554665-3.199993 0.221866-5.094389l3.319459-1.979729 3.404793 1.937062c8.746648-7.859183 16.588765-11.724775 21.367421-23.176483 16.076766 4.701857 32.94713 8.046916 49.527361 10.598377 6.630386-11.750375 0.682665-17.868762 0.0768-26.598343-1.54453-22.493819-6.263453-52.744421-3.541326-74.188642 3.071993-24.268748 25.745012-38.86925 49.663894-32.085265 16.597298 4.71039 19.899691 18.261294 29.90927 30.242069l40.69538-33.621262-0.034134-3.473059c-17.16903-14.097037-26.658076-34.141794-33.493261-55.005749-5.367455-7.688517-27.212742-8.601582-29.815403-10.871444-1.066664-0.930131-4.488524-10.350911-2.175996-13.832504 6.485319-9.779179 29.738603 2.423461 39.056984 3.490126 16.947164 1.945596 44.262306 1.006931 61.849468 0.085333 15.249034-0.793598 22.664485-3.788792 35.387657-7.074118z m-22.997284 28.313539c-18.158895 2.193062-39.790848-1.59573-58.393476 0 8.012783 36.514055 47.940164 64.964128 82.679291 41.975377 15.231968-10.077845 24.516214-33.160463 27.110342-50.764691 1.612797-10.99091-14.242103-0.708265-20.41169 0.844798-8.618648 2.167462-24.157815 7.125318-30.984467 7.944516z" fill="#502D23" p-id="4995"></path><path d="M506.332786 885.391178c-7.64585 30.310335-17.740762 51.703356-32.392464 79.086764-7.603184 14.20797-22.280486 27.135942-20.693289 44.782838-0.426666 0.093866-2.321062 4.189858-6.801052 5.486922-56.755079 16.409565-133.665848 14.899168-170.563903-37.008988-2.141862-1.066664-4.47999-0.093866-6.664519-0.324266 9.958379-8.797848 5.162656-17.14343 7.150918-26.470343 3.490126-16.332765 8.866114-39.423916 14.07997-54.92895 2.815994-8.371182 12.134374-17.928495 10.658111-28.305006l38.89485 7.074118c1.629863 16.520498-36.351922 34.21006-26.572743 49.570028 7.449584 11.690642 27.810074-12.475707 33.715128-19.421826 4.181324-4.91519 31.0186-41.685244 31.778065-44.304972 9.087981 1.766396 15.846366 8.729581 24.721014 12.43304 21.119955 8.831981 60.740137 17.954095 83.131556 15.8037 5.896521-0.563199 12.33064-5.521055 19.549825-3.464526z" fill="#F8C27C" p-id="4996"></path><path d="M669.131373 963.249145c-0.759465 11.921041-0.733865 17.928495 3.541325 28.31354 0.511999 1.245864-0.443732 3.353593 0.477866 4.966389l3.06346 2.107729c-57.60841 8.089583-122.162939 14.532236-182.305744 10.666644-6.579186-0.426666-13.397305 1.732263-15.871966-7.125318 0.554665-0.716798-0.409599-3.16586 0.674131-4.73599 23.29595-33.595662 36.684722-69.461185 52.223889-106.922439l58.444675-8.789314 74.461708-21.077289c4.130125 2.457595 4.053325 5.154122 5.256522 8.849048 8.985581 27.502875 1.843196 65.331061 0.034134 93.747z" fill="#F8EFDC" p-id="4997"></path><path d="M800.075093 871.234408c0.332799 0.759465 3.865592 2.807461 5.410122 6.852252 11.579709 30.395668 15.837833 67.046257 19.362092 99.319255-14.327436-0.1536-54.178018 11.716242-72.609978 14.097036-17.186097 2.218662-44.398839 0.708265-58.333743 3.601059-1.868796-6.843719-3.285326-12.006374-3.643725-19.370625-1.305597-26.71781 4.283724-50.815892 3.643725-76.185437 25.821812 0.605865 49.561494 1.877329 73.249977-9.915713l32.912997-18.397827z" fill="#F8C27C" p-id="4998"></path><path d="M290.45698 896.006622c-5.213856 15.505034-10.598377 38.587651-14.07997 54.928949-1.988262 9.326913 2.807461 17.672496-7.150918 26.470344-16.298632-1.732263-15.871966-5.546655-14.071436-22.929018 2.363728-22.775418 14.745569-59.596673 24.68688-79.701163l3.097594 2.201595-1.484797 8.473582 9.002647 10.555711z" fill="#4A281F" p-id="4999"></path><path d="M892.081297 602.272848c1.049598-24.849014 1.766396-38.306052-14.088503-58.461741-17.945562-22.826618-42.905508-28.322073-70.852116-26.470344-11.699175 0.776532-20.744489 3.362126-31.854865 7.074118-26.444744 8.849048-43.929506 22.527952-67.242523 35.387658-3.976525 2.193062-8.226116 5.853854-10.615445 7.074118-12.296507 6.297587-27.537008 9.028247-38.928983 14.15677-41.565778 5.546655-69.316119-28.21114-105.266976-38.058585-27.912474-7.64585-55.355615-6.17812-82.346491 4.386124-42.333776 16.571698-62.165201 71.509181-113.194425 72.601445-8.038383-0.605865-16.947164 0.895998-24.772214 0-0.605865-0.068267-4.010658-2.397862-10.615444-3.541326-11.793042-2.039462-20.20689-4.027725-31.854865-7.074118-16.861831-4.420257-30.481002-9.617046-49.544428-10.615444-52.966287-2.773327-95.982729 14.353036-106.171506 70.775315-14.037303-57.062278-10.410644-105.249909 0.119466-164.436982 3.592526-20.189824 9.821846-40.191914 13.994637-60.287872-12.893839-62.788133-19.225559-133.913314-14.267703-198.33131 1.459197-18.961026 9.617046-55.722548 21.316221-70.698516 14.745569-18.875693 29.516737-16.930097 50.525759-11.460242 26.325277 6.852252 57.76201 21.93062 81.715026 35.071925 12.56104 6.894919 37.913519 28.014874 50.090559 28.023407 22.826618-6.220787 44.987637-15.334367 68.061722-20.676222 44.415905-10.291178 106.30804-17.553029 151.517543-15.129568 7.185051 0.383999 13.858104 5.555188 20.787156 3.455993l35.566857-42.333777c22.468219-16.622898 39.952981-37.956186 64.358263-52.428688 35.037792-20.778622 57.599877-14.429836 78.591832 19.387692 44.091639 71.022782 47.726832 153.531406 61.33747 232.396304 3.208526 18.594094 37.316187 71.475048 47.138032 94.421132 17.996762 42.03511 30.190869 90.487274 30.01167 136.302643-0.0256 5.794121 2.585594 16.537565-3.532793 19.473025z m-134.485047-322.047312c2.252795-26.120478-15.581833-121.062142-38.835117-132.786917-37.546587-9.898646-58.914008 36.130056-74.342241 63.573198 17.604229 12.134374 39.321516 19.319425 57.779077 30.8394 12.219707 7.628784 22.724218 17.476229 34.329526 25.838879 3.31946 2.397862 18.91836 14.967435 21.077289 12.53544z m-566.245192 77.8665c0.520532-6.07572 5.435722-12.723173 9.019715-17.544496 20.787156-27.989274 49.126295-54.178018 75.929438-76.262237 1.228797-4.138658-10.666644-14.694369-14.071437-17.757829-11.869841-10.683711-43.263908-32.494864-58.615342-33.663928-12.765839-0.972798-23.42395 12.322107-25.838878 23.697016-6.963185 32.776463-2.269862 72.123579 3.029327 105.540042 0.563199 3.566926 2.372262 7.202118 3.430393 10.828776 1.49333 5.145589-2.193062 6.118387 7.116784 5.162656zM607.86217 348.159257c-50.704958 8.823448-74.094775 78.540632-17.604229 87.304347 9.949845 1.54453 35.080458-8.968514 43.315107-15.607433 20.701823-16.691164 28.552472-54.365751 1.262931-68.189721-8.140783-4.121591-18.022362-5.068789-26.982342-3.515726z m-261.878908 35.387658c-12.100241 2.099196-28.637806 11.596775-32.69113 23.901816-18.94396 57.574277 107.886703 86.766748 97.484592 12.56104-3.404793-24.268748-43.118841-40.226048-64.793462-36.471389z m297.266566 53.111353c-3.199993 0.128-16.614365 3.174393-20.300757 4.411724-14.899168 5.009056-28.08314 19.080493-33.570062 33.672462-5.777054 15.385567-5.777054 27.332208 0 42.709242 16.725298 44.526838 74.436108 53.811085 102.664315 13.943437 11.921041-16.836231 13.841037-37.495387 7.364251-56.720946-3.959458-11.750375-21.870887-29.67887-33.621262-33.621261-3.848525-1.297064-19.199959-4.53119-22.527952-4.403191z m-331.553426 55.901748c-3.11466 3.11466-6.35732 3.677859-10.129045 9.34398-8.388249 12.603706-10.205845 33.749261-6.980252 48.46923 0.699732 3.182927 12.245307 24.302881 14.318903 26.376477 3.06346 3.06346 24.601548 14.242103 29.34607 14.899168 65.680927 9.105047 94.634465-71.824913 44.14284-107.844036-18.107695-12.919439-45.48257-12.851173-63.547598-0.008534-4.164258 2.96106-4.991989 6.621853-7.133852 8.763715z" fill="#F9C37D" p-id="5000"></path><path d="M658.515928 581.04196c9.224514 20.420223 7.910383 43.280974 14.890635 64.733729 8.721048 26.79461 29.380204 50.295359 55.842015 60.944937 6.621853 2.662394 40.652713 14.890635 44.89377 15.249034 8.866114 0.750932 28.842605-9.813312 38.306052-9.873046 2.798927-0.017067 5.512522 2.346662 7.867717 2.440528 7.458117 0.290133 18.466094-2.457595 22.220752 8.063983-9.275714 10.726377-19.259692 22.613285-30.011669 31.923132-5.563721 4.821323-46.6431 34.764726-49.672427 34.747659-46.259101-34.978059-109.1923-17.604229-101.119785 48.042564l-3.08906 3.985059c-40.601513 12.006374-81.860092 21.67462-123.997602 26.419143 1.288531-26.342344-8.439449-49.160428-24.524748-69.478252 11.007977-19.217026 27.417542-31.709799 24.490615-56.149213-0.511999-4.292258-4.394657-7.64585-3.507193-12.390374 46.224968-2.184529 60.270805-52.607888 63.99133-91.716071 9.019714-1.64693 30.455402-13.371705 28.006341-23.176484-3.959458-15.863433-38.212185 7.517851-45.934836 10.547178-10.76051 4.223991-21.000489 5.973321-31.906065 8.789314l-8.422382-0.392532-2.201595-3.148793c27.92954-13.252238 49.203095-50.107626 11.647975-66.508658-16.332765-7.133851-41.813244-5.529588-58.675075 0.017066-22.698618 7.458117-47.291632 27.741807-28.987671 52.258022 7.944516 10.632511 37.939119 21.273555 51.242557 21.307688v3.541326c-17.578629 0.921598-44.902304 1.860263-61.849468-0.085333-9.31838-1.075198-32.571664-13.269305-39.056983-3.490126-2.312528 3.481593 1.117864 12.902372 2.175995 13.832504 2.602661 2.278395 24.447948 3.182927 29.815403 10.871443 6.835185 20.855422 16.315699 40.908713 33.493262 55.005749l0.034133 3.47306-40.69538 33.621261c-10.009579-11.980774-13.303438-25.531679-29.909269-30.242069-23.918882-6.783986-46.583367 7.816517-49.663894 32.085265-2.713594 21.444221 1.996796 51.703356 3.541325 74.188642 0.597332 8.729581 6.545053 14.839435-0.076799 26.598343-16.580231-2.559995-33.450595-5.905054-49.527361-10.598377-50.440426-14.745569-88.823277-37.742853-123.861069-77.857967l26.53861 10.623977c34.448993 5.307722 64.059597 5.853854 96.315527-9.864512 14.00317-6.826652 29.892203-19.848491 37.171121-33.604195 2.90986-5.503988 16.341298-35.541258 16.921564-39.705516 4.403191-31.871932-7.244785-41.642578-17.672496-67.259589-3.686392-9.062381 12.373307-2.321062 14.139704-8.823448 51.029224-1.092264 70.860649-56.029747 113.194425-72.601445 26.990876-10.564244 54.434017-12.040508 82.346491-4.386124 35.950857 9.847446 63.701197 43.60524 105.266975 38.058585z" fill="#F8F0DB" p-id="5001"></path><path d="M240.912553 598.731523l5.299188 7.074118c-19.140226-0.136533-34.090594 11.554109-50.892691 18.107695 0.401066 13.97757-11.921041 23.705549-16.486365 34.815925-8.234649 20.070357 1.826129 60.262271 14.387169 77.926234 18.517294 26.026611 62.617466 25.079413 90.325141 16.187699 9.855979-3.16586 19.242626-12.962106 30.114069-15.889033 1.809063-1.46773 11.050643-14.771168 11.622375-16.691164 1.211731-4.061858 0.017067-8.789315 1.271464-12.885306 2.269862-7.406918 9.028247-22.647418 8.814915-29.115671-0.110933-3.362126-4.599457-7.193585-5.452788-11.09331-1.211731-5.580788 0.401066-11.485842-1.032532-16.639964-0.341333-1.237331-12.006374-20.147157-13.533837-21.853821-7.057052-7.859183-20.838356-8.038383-24.900214-19.336492 11.647975 3.054927 20.053291 5.034656 31.854865 7.074119l2.210129 3.148793 8.405315 0.392532c7.82505 0.895998 16.733831-0.605865 24.772214 0-1.757863 6.502386-17.826095-0.238933-14.139703 8.823448 10.427711 25.617012 22.067153 35.387658 17.672496 67.25959-0.571732 4.164258-14.00317 34.192994-16.921564 39.705515-7.278918 13.755704-23.167951 26.777543-37.171121 33.604195-32.255931 15.718366-61.866535 15.180768-96.315528 9.864513l-26.53861-10.623978c-29.457004-33.715128-38.818051-55.492148-49.544427-99.088855 10.188778-56.42228 53.20522-73.557176 106.171506-70.775316z" fill="#FAE2C9" p-id="5002"></path><path d="M892.081297 602.272848c-0.785065 18.577027-4.420257 42.495909-10.615444 60.159872-7.995716 22.792485-23.748216 42.606842-38.928984 60.159872-3.754659-10.530111-14.762635-7.77385-22.220752-8.063983-2.363728-0.093866-5.068789-2.457595-7.867717-2.440528-9.47198 0.068267-29.448471 10.623977-38.306052 9.873045-4.241058-0.358399-38.271918-12.58664-44.89377-15.249034-26.46181-10.641044-47.120966-34.141794-55.842015-60.944936-6.980252-21.452754-5.666121-44.313505-14.890635-64.733729 11.391976-5.128522 26.632477-7.859183 38.928984-14.15677 8.610115 3.06346-0.529066 9.625579-3.677859 12.245308-4.181324 3.481593-11.212776 4.778656-13.576504 11.187176-4.351991 42.956708 17.689562 94.933131 62.233467 106.760305 29.849536 7.92745 82.261158 10.342378 103.713912-15.121034 24.328481-28.859672 35.421791-60.970537 24.149282-98.593923-2.577061-8.601582-15.385567-18.397827-20.744489-25.267146-10.973843-14.07997-14.856502-25.233013-31.760999-31.991399-6.271987-2.508795-12.603706 1.245864-10.632511-8.772248 27.946607-1.851729 52.906554 3.643726 70.852116 26.470344 15.846366 20.164224 15.129568 33.612728 14.088503 58.461742z" fill="#F7E9D3" p-id="5003"></path><path d="M506.332786 885.391178c-7.210651-2.056529-13.644771 2.901327-19.549824 3.464526-22.391419 2.150395-62.011601-6.971718-83.131556-15.8037-8.874648-3.711992-15.641567-10.675177-24.721014-12.43304 1.74933-5.981854 0.614399-35.635124 0.153599-44.390305-0.332799-6.263453-3.532792-11.135976-3.848525-17.390897-0.580265-11.622375-1.425064-31.923132 0.0768-42.700708 2.739194-19.660758 27.033542-14.847968 36.232456 2.850127 5.034656 9.685313 4.65919 31.027134 18.414894 27.033542 15.231968-11.716242 29.960469-28.765805 44.671905-40.277247 7.142385-5.580788 20.497023-14.941835 29.533803-12.185574l8.823448 8.900247c5.478388 18.508761-20.770089 39.17645-31.351399 52.889488v3.11466c17.800495 16.793564 34.397793 37.742853 31.675665 63.846263-0.759465 7.270384-5.205322 16.008499-6.980252 23.074085z" fill="#F8EEDA" p-id="5004"></path><path d="M800.075093 871.234408l-32.912996 18.397827c-23.688483 11.793042-47.428165 10.521578-73.249977 9.915713-0.759465-30.020203-14.950368-56.37108-10.615444-86.698482 3.353593-23.458083 31.684199-23.688483 49.715094-17.877295 32.750863 10.555711 54.365751 46.984433 67.063323 76.262237z" fill="#F7EFDB" p-id="5005"></path><path d="M522.264486 662.43272c6.826652-0.827732 22.365819-5.777054 30.984467-7.944516 6.169587-1.553063 22.024486-11.835708 20.41169-0.844798-2.585594 17.604229-11.869841 40.686847-27.110342 50.764691-34.739126 22.980218-74.666507-5.469855-82.679291-41.975377 18.602627-1.59573 40.234581 2.193062 58.393476 0z" fill="#F38D70" p-id="5006"></path><path d="M545.26177 634.119181c-12.723173 3.285326-20.138624 6.28052-35.387658 7.074118v-3.541326c8.635715 0.0256 17.04103-3.413326 24.772214-7.074118l2.201595 3.148793 8.422382 0.392533z" fill="#CBB7A3" p-id="5007"></path><path d="M672.672698 991.562685c-4.275191-10.385045-4.300791-16.392498-3.541325-28.31354h1.843196c3.626659 8.593048 0.972798 18.961026 1.698129 28.31354z" fill="#F0EDE2" p-id="5008"></path><path d="M775.302879 524.414881l47.914565 21.094355c7.961583 4.590924 11.793042 19.507158 16.520498 24.183415 2.346662 2.321062 7.261851 2.193062 11.596775 7.884784 8.814915 11.579709 9.250114 26.777543 12.629307 40.524713-5.137056 8.337049-5.742921 18.508761-8.891715 26.786076-4.701857 12.373307-21.887953 22.843685-30.131136 33.570062-19.029293 4.497057-38.741251 7.116785-58.410542 5.137056-19.473025-1.962662-39.543382-10.342378-51.464423-26.393544-4.087458-5.503988-17.655429-36.812721-17.604229-42.521509 0.034133-4.744523 5.529588-25.941278 7.790916-31.138067 1.979729-4.539724 6.399986-8.098116 8.337049-12.893839 2.713594-6.724252 4.625057-12.501307-5.529588-10.837311 23.313017-12.859706 40.79778-26.547143 67.242523-35.387657z m12.390374 33.143396c-2.602661-0.017067-6.399986 2.201595-10.444778 2.397862-15.709833 0.759465-30.225002-2.184529-40.38818 12.740239-8.285849 12.168507-9.736513 31.180733-7.645851 45.58497 0.887465 6.161054 17.11783 29.70447 22.929018 33.689528 10.93971 7.509317 29.644737 8.541848 42.555643 6.869318 23.842082-3.080527 45.448436-33.988194 40.166314-57.753476-1.553063-6.988785-28.177007-35.438858-34.790326-39.500716-2.278395-1.399464-9.966912-4.010658-12.38184-4.027725z" fill="#F9D7B9" p-id="5009"></path><path d="M643.249828 436.658268c3.327993-0.136533 18.679427 3.106127 22.527952 4.403191 11.750375 3.942392 29.661803 21.870887 33.621261 33.621262 6.476786 19.225559 4.55679 39.884715-7.364251 56.720945-28.228206 39.867648-85.939017 30.583401-102.664314-13.943437-5.777054-15.377034-5.777054-27.332208 0-42.709242 5.486922-14.600502 18.670894-28.663406 33.570062-33.672461 3.694925-1.245864 17.100764-4.283724 20.300756-4.411724z m-7.227718 34.739126c0-10.163178-8.243182-18.406361-18.406361-18.40636s-18.406361 8.243182-18.406361 18.40636 8.243182 18.406361 18.406361 18.406361 18.406361-8.243182 18.406361-18.406361z" fill="#512F27" p-id="5010"></path><path d="M311.696402 492.560016c2.150395-2.141862 2.969594-5.802654 7.133851-8.763715 18.065028-12.842639 45.439903-12.910906 63.547598 0.008534 50.500159 36.019123 21.538087 116.940551-44.142839 107.844036-4.73599-0.657065-26.274077-11.827175-29.346071-14.899168-2.073596-2.073596-13.627704-23.193551-14.318903-26.376477-3.21706-14.719969-1.407997-35.865523 6.980252-48.46923 3.771725-5.666121 7.014385-6.22932 10.129045-9.34398-3.737592 10.035179-7.415451 27.579674 5.751454 31.4026 26.146078 7.586117 36.08739-22.05862 13.311972-34.59406l-19.063426 3.19146z" fill="#512F26" p-id="5011"></path><path d="M290.45698 609.346967c4.061858 11.298109 17.843162 11.477309 24.900214 19.336492 1.527463 1.706663 13.192505 20.616489 13.533838 21.85382 1.433597 5.145589-0.1792 11.059176 1.032531 16.639964 0.853332 3.908258 5.341855 7.731184 5.452788 11.09331 0.213333 6.468253-6.545053 21.708754-8.814914 29.115671-1.254397 4.087458-0.059733 8.823448-1.271464 12.885306-0.571732 1.919996-9.813312 15.223434-11.622375 16.691164-10.871443 2.926927-20.25809 12.731706-30.11407 15.889033-27.707674 8.891714-71.807847 9.830379-90.32514-16.187699-12.569573-17.655429-22.630352-57.855877-14.38717-77.926233 4.565324-11.110376 16.887431-20.838356 16.486365-34.815926 16.802097-6.553586 31.752466-18.244228 50.892692-18.107695l-5.299189-7.074118c19.063426 0.998398 32.682597 6.195187 49.544428 10.615444z m-50.679358 14.523702c-8.396782 1.587197-23.24475 10.589844-28.782872 17.493296-19.874091 24.755147-19.362092 53.580686-1.902929 79.445164 20.829822 16.605831 43.374841 23.441017 68.266521 11.690642 14.506636-6.852252 20.701823-17.868762 30.370068-29.789803 3.225593-23.185017 5.085856-51.60949-17.365296-66.713458-6.468253-4.351991-16.017032-6.545053-23.65435-8.200516-4.121591-0.895998-24.738081-4.334924-26.931142-3.925325z" fill="#FAD5B7" p-id="5012"></path><path d="M191.351058 358.092036c-9.309847 0.964265-5.623455-0.017067-7.116784-5.162656-1.058131-3.626659-2.867194-7.261851-3.430393-10.828776-5.299189-33.424995-9.992512-72.763578-3.029327-105.540042 2.414928-11.374909 13.073039-24.669814 25.838878-23.697016 15.351434 1.169064 46.7455 22.980218 58.615342 33.663928 3.404793 3.06346 15.300234 13.619171 14.071437 17.757829-26.803143 22.092753-55.150816 48.272964-75.929438 76.262237-3.583992 4.821323-8.499182 11.468776-9.019715 17.544496zM757.59625 280.225536c-2.158929 2.431995-17.757829-10.137578-21.077288-12.53544-11.596775-8.362649-22.101286-18.210094-34.329527-25.838879-18.457561-11.519975-40.166314-18.705027-57.779076-30.8394 15.4197-27.451675 36.795655-73.471843 74.342241-63.573198 23.261817 11.724775 41.087912 106.666439 38.835117 132.786917z" fill="#F8C8B6" p-id="5013"></path><path d="M807.149211 517.340763c-1.971196 10.018112 4.360524 6.271987 10.632511 8.772248 16.904497 6.758386 20.787156 17.911428 31.760999 31.991398 5.350389 6.869319 18.167428 16.665564 20.744489 25.267146 11.272509 37.623386 0.1792 69.734251-24.149282 98.593923-21.452754 25.454879-73.864376 23.039951-103.713912 15.121035-44.543905-11.827175-66.585458-63.803597-62.233467-106.760306 2.355195-6.40852 9.39518-7.714117 13.576504-11.187176 3.148793-2.619728 12.287974-9.181847 3.677859-12.245307 2.389328-1.220264 6.638919-4.881056 10.615444-7.074118 10.154645-1.663996 8.243182 4.121591 5.529588 10.83731-1.937063 4.804256-6.365853 8.354116-8.337049 12.893839-2.261329 5.196789-7.756783 26.393544-7.790916 31.138067-0.042667 5.708788 13.525304 37.017521 17.604229 42.521509 11.921041 16.051166 31.991398 24.430881 51.464423 26.393544 19.669291 1.979729 39.372716-0.639999 58.410542-5.137056 8.243182-10.726377 25.429279-21.196755 30.131136-33.570061 3.148793-8.277316 3.754659-18.449027 8.891715-26.786077-3.379193-13.747171-3.814392-28.945005-12.629307-40.524713-4.334924-5.691721-9.250114-5.563721-11.596775-7.884783-4.727457-4.667723-8.558915-19.583958-16.520498-24.183415l-47.914565-21.094355c11.110376-3.711992 20.147157-6.30612 31.854866-7.074119z" fill="#FAE4CA" p-id="5014"></path><path d="M345.983262 383.546915c21.67462-3.754659 61.388669 12.194107 64.793462 36.471389 10.402111 74.205708-116.420018 45.013237-97.484592-12.56104 4.044791-12.30504 20.590889-21.811153 32.69113-23.901816z" fill="#F8EED9" p-id="5015"></path><path d="M607.86217 348.159257c8.959981-1.561597 18.84156-0.614399 26.982342 3.515726 27.281008 13.815437 19.430359 51.490023-1.26293 68.189721-8.234649 6.638919-33.365262 17.151963-43.315108 15.607434-56.490546-8.763715-33.109263-78.480899 17.604229-87.304347z" fill="#F8EEDA" p-id="5016"></path><path d="M332.92729 619.970944l-8.405316-0.392532-2.210128-3.148794c6.604786 1.143464 10.009579 3.473059 10.615444 3.541326z" fill="#FAD5B7" p-id="5017"></path><path d="M534.646326 630.586388c-7.731184 3.669326-16.136499 7.099718-24.772214 7.074118-13.294905-0.034133-43.298041-10.675177-51.242557-21.307688-18.303961-24.516214 6.289053-44.791371 28.987671-52.258021 16.861831-5.546655 42.34231-7.150918 58.675075-0.017067 37.55512 16.401032 16.273032 53.25642-11.647975 66.508658z" fill="#523027" p-id="5018"></path><path d="M787.693253 557.558277c2.414928 0.017067 10.103445 2.628261 12.38184 4.027725 6.613319 4.061858 33.237262 32.511931 34.790326 39.500716 5.282122 23.765283-16.324232 54.67295-40.166314 57.753476-12.910906 1.67253-31.615933 0.639999-42.555643-6.869318-5.811188-3.993591-22.041553-27.528475-22.929018-33.689528-2.082129-14.404236-0.631465-33.416462 7.645851-45.58497 10.163178-14.924768 24.678347-11.972241 40.38818-12.740239 4.044791-0.196266 7.842117-2.414928 10.444778-2.397862z" fill="#FAC09D" p-id="5019"></path><path d="M617.615749 471.397394m-18.406361 0a18.406361 18.406361 0 1 0 36.812722 0 18.406361 18.406361 0 1 0-36.812722 0Z" fill="#F0E9DE" p-id="5020"></path><path d="M311.696402 492.560016l19.063426-3.19146c22.766885 12.53544 12.834106 42.180177-13.311972 34.59406-13.166905-3.822925-9.489046-21.367421-5.751454-31.4026z" fill="#F3ECDF" p-id="5021"></path><path d="M239.777622 623.870669c2.193062-0.418132 22.809551 3.029327 26.931142 3.925325 7.637317 1.64693 17.186097 3.848525 23.65435 8.200516 22.451152 15.103968 20.590889 43.52844 17.365296 66.713458-9.668246 11.921041-15.863433 22.946084-30.370068 29.789803-24.89168 11.750375-47.436699 4.91519-68.266521-11.690642-17.459163-25.864478-17.971162-54.681483 1.902929-79.445164 5.538122-6.903452 20.394623-15.897566 28.782872-17.493296z m39.500716 80.469162c3.430393-3.430393 8.243182-20.215424 7.67145-25.890078-2.363728-23.27035-22.510885-33.373795-44.356172-30.250602-8.533315 1.220264-21.72582 17.689562-22.920485 26.623943-1.757863 13.124239 6.169587 33.561528 20.061824 36.556722 9.770646 2.107729 32.571664-0.093866 39.534849-7.048519z" fill="#FAC7A5" p-id="5022"></path><path d="M279.278338 704.339831c-6.963185 6.954652-29.764203 9.156247-39.534849 7.048518-13.892237-3.003727-21.819687-23.441017-20.061824-36.556722 1.194664-8.934381 14.378636-25.403679 22.920484-26.623943 21.845287-3.123193 41.98391 6.980252 44.356172 30.250602 0.580265 5.666121-4.241058 22.459685-7.67145 25.890078z" fill="#FBB994" p-id="5023"></path></svg>