<?xml version="1.0" standalone="no"?><!DOCTYPE svg PUBLIC "-//W3C//DTD SVG 1.1//EN" "http://www.w3.org/Graphics/SVG/1.1/DTD/svg11.dtd"><svg t="1768660244734" class="icon" viewBox="0 0 1024 1024" version="1.1" xmlns="http://www.w3.org/2000/svg" p-id="4230" xmlns:xlink="http://www.w3.org/1999/xlink" width="256" height="256"><path d="M978.594133 251.938133l8.849067 40.695467L1024 303.530667c-7.9872 9.8304-27.1616 5.819733-35.2 14.327466-9.591467 10.146133-5.358933 34.773333-18.440533 41.3952-4.036267-22.749867-5.205333-39.3728-28.706134-47.658666-9.0112-3.182933-19.524267 2.414933-16.7168-10.120534 31.786667 0.930133 40.712533-14.72 45.559467-43.306666 0.904533-5.3248 1.979733-13.7984 8.106667-6.229334z" fill="#F8CA41" p-id="4231"></path><path d="M49.911467 239.556267l8.849066 40.695466 36.5568 10.897067c-7.005867 8.064-16.836267 5.725867-26.2656 10.88-10.461867 5.717333-15.624533 15.863467-18.312533 27.0848-2.193067 9.130667 4.0704 20.6592-9.0624 17.774933-1.5616-30.848-5.666133-41.2928-35.310933-49.4336-6.2464-1.7152-6.9888 2.2272-5.973334-8.354133 25.941333 0.4608 34.773333-7.3472 40.490667-31.752533 2.133333-9.122133-4.0704-20.6848 9.045333-17.783467z" fill="#F9CE44" p-id="4232"></path><path d="M91.1872 144.6144l1.826133 12.603733 14.677334 5.981867-16.366934 6.331733c-1.288533 8.5504 4.829867 19.089067-8.379733 16.392534 1.152-10.026667-1.783467-16.878933-12.398933-16.554667v-8.209067l8.285866-1.885866 4.206934-12.074667 8.1408-2.594133z" fill="#F7CC51" p-id="4233"></path><path d="M268.672 1007.274667c-6.8608-0.085333-13.789867 0.068267-20.642133 0l12.100266-71.688534c-46.011733-41.506133-39.6288-98.551467-11.485866-148.5312 3.1488-5.589333 9.361067-7.7312 7.6544-15.035733-4.0192 0.213333-7.7568-1.3312-11.2128-3.2256-59.3664-32.503467-112.3584-73.028267-139.511467-137.0624-32.366933-76.3392-22.4768-149.981867-0.0512-227.191467 6.254933-21.521067 24.507733-57.856 26.871467-76.3136 3.848533-30.011733-1.834667-67.473067 0.1536-98.909866 2.7904-44.142933 13.713067-113.450667 30.805333-154.9312 12.612267-30.583467 40.9088-63.470933 77.713067-56.925867 53.7344 9.557333 108.8256 61.892267 153.454933 90.1888 77.2352-13.6704 157.661867-10.888533 234.743467-0.733867 39.150933-27.665067 84.548267-68.864 130.363733-84.266666 67.208533-22.587733 95.479467 37.060267 110.651733 92.014933 7.876267 28.544 15.803733 73.053867 17.6896 102.007467 2.218667 33.9712-4.3008 74.717867-0.110933 107.426133 2.705067 21.137067 23.927467 64 31.0016 88.695467 20.872533 72.840533 29.7728 142.8992-0.0512 214.8096-26.146133 63.0272-83.157333 116.0704-146.542933 140.3392 1.783467 21.4784 18.491733 38.843733 23.927466 60.5696 7.0656 28.2112 3.5072 63.6928-13.764266 87.850666-3.5072 4.906667-17.3056 15.3088-17.467734 18.525867l15.505067 72.3712c-8.226133 0.059733-16.5376-0.0512-24.763733 0.008533l-10.231467-57.8816-4.1472-3.694933c-11.844267 6.109867-29.627733 4.369067-43.409067 3.7888l12.398934-4.130133-4.1472-12.373334 16.520533-4.138666c69.0176-7.850667 65.6896-101.341867 28.970667-142.498134-7.381333-8.2688-7.918933-3.037867-16.5888-1.962666 0.0768-1.186133-6.0416-15.684267-4.130134-20.6336 45.636267-15.931733 106.760533-54.306133 136.285867-92.782934 4.258133-5.546667 8.072533-11.332267 8.174933-18.6624 14.523733-11.8016 21.9136-29.4912 27.997867-48.366933 6.5024-20.189867 6.894933-34.807467 9.156267-54.826667 5.6832-50.4064-3.438933-91.562667-18.4576-140.450133-6.946133-22.621867-24.0896-54.920533-26.88-76.305067-3.575467-27.434667 1.672533-61.8496-0.1536-90.6496-2.884267-45.610667-16.6912-142.037333-43.357867-179.524266-26.274133-36.932267-58.9312-19.259733-91.502933-0.904534-33.425067 18.833067-65.979733 45.073067-94.609067 70.485334-3.908267 1.024-7.842133 0.9216-11.818667 0.469333-20.590933-2.312533-45.4144-10.606933-66.210133-12.288-56.516267-4.5824-117.888 1.450667-173.243733 12.578133-8.644267-0.605867-17.4592-15.2064-24.712534-21.000533-26.171733-20.923733-100.4544-73.1648-132.189866-72.7296-31.658667 0.4352-46.3872 47.496533-53.742934 72.704-5.725867 19.618133-11.4176 44.040533-14.2592 64.162133-5.614933 39.8336-6.971733 84.736-4.283733 123.8272 2.517333 36.5568-13.892267 59.0848-23.842133 91.5712-19.131733 62.498133-30.848 105.565867-21.486934 170.4448 7.031467 48.7424 12.834133 64.341333 41.275734 103.185067 34.722133 47.419733 81.655467 76.373333 136.209066 99.063467-3.694933 3.669333-6.8096 13.320533-9.326933 15.684266-1.4592 1.373867-5.4528 0.341333-6.528 1.450667-2.0736 2.1504-0.017067 6.101333-0.657067 7.6288-7.133867 16.8704-22.417067 38.135467-24.695466 55.790933-8.072533 62.626133 28.6208 91.946667 88.917333 84.608 5.213867-0.631467 5.597867-4.113067 5.947733-4.189866 6.4256-1.416533 13.9264-1.792 20.6336-4.130134-0.682667 4.9152 5.5296 12.893867 4.130134 16.512-0.0768 0.2048-3.336533-0.2816-3.780267 2.286934-2.2272 12.868267-2.4832 23.918933-12.7232 34.858666-1.6896-10.0608 4.4288-22.212267-6.152533-28.680533-2.952533 3.037867-6.2976 3.694933-10.350934 3.908267-18.013867 0.9728-36.497067 1.1264-53.6576-4.130134l-12.381866 61.917867z" fill="#4F2D24" p-id="4234"></path><path d="M912.5632 549.12c-11.127467-15.377067-16.750933-31.607467-33.1264-43.229867-12.970667-9.207467-19.6864-7.842133-32.913067-10.427733-0.3584-0.068267-0.964267-3.6608-5.9648-4.189867-18.798933-1.9968-41.787733 3.370667-60.074666 8.32-20.1472 5.4528-32.904533 14.216533-49.527467 20.6336-8.456533 3.268267-26.299733 10.5984-33.024 12.381867-2.235733 0.597333-5.614933-0.384-8.251733 0-2.935467 0.426667-6.6304-0.836267-9.8048 0.452267l-2.577067 3.669333c-5.435733 0.2304-11.067733 0.187733-16.512 0-1.373867-0.042667-2.756267 0.085333-4.130133 0l-2.568534-3.677867c-3.089067-1.416533-7.261867 0.1792-9.821866-0.452266-28.654933-7.0912-44.6208-27.153067-68.744534-40.6272-23.662933-13.2096-50.542933-19.857067-77.952-17.3312-57.386667 5.290667-85.384533 58.948267-138.103466 62.088533-4.096 0.247467-8.2688-0.162133-12.381867 0l-2.944-3.3792c-8.849067-0.5888-17.553067-2.261333-25.949867-4.881067-7.9872-2.491733-16.9472-5.3504-24.763733-8.251733-21.4528-7.970133-39.415467-22.570667-66.039467-24.763733-13.994667-1.152-31.069867-0.366933-45.405866 0-1.373867 0.034133-2.7648-0.085333-4.130134 0-3.131733 0.196267-6.408533-0.759467-9.489066 0.605866l-2.8928 3.524267c-27.170133 3.003733-50.781867 35.899733-53.6576 61.909333-9.361067-64.878933 2.3552-107.946667 21.486933-170.4448 9.949867-32.494933 26.359467-55.0144 23.842133-91.5712-2.696533-39.0912-1.3312-84.002133 4.283734-123.8272 2.8416-20.130133 8.533333-44.544 14.2592-64.162133 7.355733-25.207467 22.084267-72.2688 53.742933-72.704 31.735467-0.4352 106.018133 51.805867 132.189867 72.7296 7.253333 5.794133 16.0768 20.394667 24.712533 21.000533 55.355733-11.127467 116.727467-17.160533 173.243733-12.578133 20.795733 1.681067 45.6192 9.975467 66.210134 12.288 3.976533 0.443733 7.918933 0.554667 11.818666-0.469333 28.629333-25.412267 61.175467-51.652267 94.609067-70.485334 32.571733-18.346667 65.2288-36.0192 91.502933 0.904534 26.666667 37.486933 40.4736 133.9136 43.357867 179.524266 1.8176 28.8-3.4304 63.214933 0.1536 90.6496 2.7904 21.384533 19.933867 53.691733 26.88 76.305067 15.010133 48.896 24.1408 90.043733 18.4576 140.450133zM206.762667 243.6864c7.0912 1.698133 8.200533-2.7136 12.381866-6.186667 11.5968-9.6512 21.4016-23.057067 33.194667-32.8448 20.471467-16.989867 45.277867-28.808533 65.792-45.824 0.810667-3.131733-4.0192-10.973867-6.2208-14.097066-6.3488-9.0368-31.8976-30.293333-41.745067-36.676267-42.3424-27.451733-54.306133 10.632533-60.0576 46.122667-0.4096 2.551467-3.3536 4.096-3.3536 4.906666v84.616534z m606.737066 0v-84.616533c0-1.834667-8.541867-30.805333-10.180266-35.2256-2.935467-7.944533-8.260267-16.904533-14.481067-22.664534-21.7856-11.1616-58.436267 19.319467-72.1664 35.370667-2.688 3.140267-15.325867 20.0704-14.626133 22.510933 22.980267 15.342933 47.223467 29.2864 68.189866 47.402667 10.709333 9.258667 20.027733 22.007467 30.8736 31.035733 4.181333 3.4816 5.290667 7.8848 12.381867 6.186667z m-446.941866 50.082133c-61.952 9.6256-36.872533 78.805333 19.805866 86.0416 39.816533 5.085867 64.1024-31.086933 37.111467-61.8496-8.430933-9.608533-44.544-26.120533-56.9088-24.192z m264.081066 4.386134c-12.023467 2.107733-33.4848 15.786667-39.4496 26.589866-16.938667 30.702933 9.693867 60.151467 41.984 54.3488 39.278933-7.057067 74.8288-41.1648 41.540267-77.115733-10.052267-6.656-32.0256-5.9392-44.0832-3.822933zM248.388267 400.1792c-1.501867-1.416533-2.346667-21.2224-6.545067-24.405333l-8.004267 20.881066-14.72 3.882667c-3.0208 11.511467 9.198933 7.389867 14.446934 16.529067 2.986667 5.205333 1.8432 12.552533 8.277333 16.477866 1.4848 0.657067 6.135467-14.5408 10.1376-18.7392 3.515733-3.6864 7.125333-6.493867 12.561067-6.033066-0.494933-9.378133-14.498133-7.031467-16.1536-8.6016z m544.469333 4.497067c-22.536533-1.211733-16.964267-15.172267-26.8288-28.9024l-8.029867 20.846933-14.677333 3.925333c0.904533 14.421333 21.9904 14.6688 20.667733 33.024 13.9776 3.0976 5.1456-9.122133 10.094934-16.725333l18.773333-12.16z m-376.209067 45.9776l-98.474666-44.16c-11.374933 3.8144-16.3584 11.511467-10.410667 23.0656l59.963733 30.8224c-18.961067 14.020267-88.832 15.394133-57.796266 49.749333l5.4272 1.3056c30.9504-11.2128 65.416533-18.824533 95.0528-33.134933 10.641067-5.137067 12.2368-17.928533 6.2464-27.639467z m293.461334-41.659734c-7.1424-0.298667-14.7456-1.083733-21.819734 0.469334-7.850667 1.723733-48.6656 22.0928-59.272533 27.400533-19.438933 9.736533-39.492267 17.1008-25.4208 41.4976 29.866667 5.888 64.3584 27.989333 93.021867 32.930133 17.8688 3.080533 29.943467-14.7968 17.8688-26.1888-11.656533-10.999467-57.5232-14.728533-61.952-24.721066 11.741867-9.864533 62.4128-20.3776 62.122666-37.111467l-4.548266-14.267733z" fill="#F6C17E" p-id="4235"></path><path d="M644.2752 532.616533l2.8928 3.524267c3.080533 1.365333 6.357333 0.401067 9.489067 0.605867 1.365333 0.085333 2.756267-0.042667 4.130133 0-1.783467 15.735467 7.688533 26.24-0.196267 41.070933l-20.437333 2.261333 14.933333 14.045867 11.400534-3.319467c7.9872 1.442133 18.466133 28.253867 21.358933 36.522667 3.626667 10.402133 0.597333 17.834667 8.149333 28.996267 3.089067 4.573867 31.2064 27.690667 36.1472 29.892266 5.5552 2.474667 20.5312 6.016 26.3936 6.528 4.2752 0.375467 7.867733-3.2256 11.630934-3.0976 3.9424 0.136533 7.415467 3.037867 11.869866 2.909867 19.712-0.5632 58.274133-8.157867 72.704-21.717333 3.848533-3.618133 4.5824-8.874667 8.2944-12.356267 3.2-3.003733 9.429333-3.754667 12.3904-6.1696-0.1024 7.330133-3.9168 13.115733-8.174933 18.6624-29.525333 38.4768-90.658133 76.8512-136.285867 92.782933-8.098133 2.824533-17.134933 3.5584-24.7552 8.251734l-1.860266-78.634667c-14.600533-12.6208-34.133333-6.9888-51.805867-8.055467 38.8608-32.375467 3.9936-111.9488-43.2128-107.357866-13.277867 1.288533-39.1424 16.017067-49.723733 24.738133-11.434667 9.4208-25.642667 35.720533-36.974934 37.316267-29.457067 4.1472-25.122133-3.063467-39.227733-18.747734-23.150933-25.7536-55.569067-53.486933-92.074667-38.272-12.8768 5.367467-20.3776 18.235733-31.829333 28.032-2.0736 1.774933-6.280533 1.4848-7.7568 6.656-5.5552 23.7824-4.898133 32.785067 1.595733 55.278934 1.536 5.3248-1.2288 5.1456-4.189866 8.209066l-24.200534-3.831466c-9.096533 7.799467-24.2944 18.184533-35.447466 22.596266-10.4448 4.130133-63.957333 16.2304-71.936 13.7984-4.608-1.399467-6.920533-7.7568-10.8032-9.8304-18.722133-10.001067-16.810667-5.213867-32.9984-22.715733 12.228267-2.517333 22.024533 9.693867 31.616 11.7248 5.188267 1.092267 28.552533 4.744533 32.3584 4.744533 8.098133 0 33.536-7.714133 42.0864-11.528533 9.1136-4.0704 37.845333-22.9888 44.740266-29.559467 20.753067-19.771733 11.042133-57.045333 39.261867-68.514133l-4.317867-51.328c52.718933-3.131733 80.7168-56.797867 138.103467-62.088533 27.409067-2.525867 54.289067 4.1216 77.952 17.3312 24.132267 13.474133 40.0896 33.536 68.744533 40.6272z m-141.525333-36.3008c-100.906667 12.398933-30.114133 103.825067 34.304 75.5968 30.2336-13.252267 50.653867-48.913067 13.585066-67.421866-10.990933-5.486933-25.156267-3.908267-36.5312-9.0624l-11.357866 0.887466z" fill="#F8F0DF" p-id="4236"></path><path d="M846.523733 495.4624c13.218133 2.5856 19.9424 1.220267 32.913067 10.427733 16.375467 11.6224 22.007467 27.8528 33.1264 43.229867-2.2528 20.010667-2.653867 34.628267-9.156267 54.826667-6.075733 18.875733-13.4656 36.565333-27.997866 48.366933-2.9696 2.4064-9.1904 3.165867-12.3904 6.1696-3.703467 3.4816-4.437333 8.746667-8.2944 12.356267-14.429867 13.559467-53.000533 21.154133-72.704 21.717333-4.445867 0.128-7.927467-2.773333-11.869867-2.909867-3.7632-0.128-7.355733 3.473067-11.630933 3.0976-5.870933-0.512-20.8384-4.053333-26.3936-6.528-4.9408-2.2016-33.0496-25.326933-36.1472-29.892266-7.552-11.1616-4.514133-18.602667-8.149334-28.996267-2.884267-8.2688-13.371733-35.089067-21.358933-36.522667l-11.400533 3.319467-14.933334-14.045867 20.437334-2.261333c7.893333-14.839467-1.5872-25.335467 0.196266-41.070933 5.435733 0.187733 11.076267 0.2304 16.512 0 3.2512-0.136533 6.5792 0.622933 9.8048-0.452267l2.577067-3.677867c2.645333-0.384 6.016 0.597333 8.251733 0l-8.32 26.9568c3.524267 22.4 1.681067 41.8816 10.333867 63.8976 3.874133 9.856 18.4064 34.133333 26.922667 39.1168 5.8368 3.413333 15.018667 4.599467 21.8368 7.057067 3.8656 1.390933 6.391467 5.8624 9.6768 6.8352 28.433067 8.3968 62.3616-7.1168 88.0384-18.082133 13.141333-11.426133 25.1648-24.0128 28.202666-41.966934 2.261333-13.354667 2.8672-56.098133 0.119467-68.6848-2.747733-12.578133-17.885867-19.490133-22.050133-31.726933l-22.664534-16.4352 16.503467-4.113067z" fill="#F8E9D6" p-id="4237"></path><path d="M359.4752 611.037867l-4.053333 35.0208 16.426666 39.2704c-16.878933 2.261333-54.664533-8.456533-57.873066 14.3616-1.6384 11.6736 2.594133 69.7088 0.085333 72.32-7.8336-1.851733-17.390933-5.188267-24.763733-8.251734-54.5536-22.6816-101.486933-51.6352-136.209067-99.063466l4.130133-4.130134c1.595733 2.551467 3.5328 3.310933 4.130134 4.130134 4.9152 6.784 4.625067 8.123733 12.381866 16.512 16.187733 17.501867 14.2848 12.7232 32.9984 22.715733 3.882667 2.0736 6.1952 8.4224 10.8032 9.8304 7.978667 2.423467 61.4912-9.668267 71.936-13.7984 11.153067-4.4032 26.350933-14.7968 35.447467-22.596267l24.200533 3.831467c2.961067-3.072 5.725867-2.884267 4.189867-8.209067-6.5024-22.5024-7.159467-31.505067-1.595733-55.278933 1.467733-5.1712 5.6832-4.881067 7.7568-6.656z" fill="#F8F1E2" p-id="4238"></path><path d="M165.486933 499.592533c2.696533-0.298667 5.538133 0.196267 8.251734 0-6.263467 13.525333-5.0944 7.005867-11.485867 13.2864-1.792 1.757867-1.681067 6.289067-4.9408 9.386667-3.7376 3.549867-9.403733 4.078933-14.464 10.427733-18.875733 23.68-6.852267 50.090667-2.210133 76.356267 4.9664 28.0832 0.503467 25.847467 16.580266 51.524267l-4.130133 4.130133c-28.4416-38.843733-34.244267-54.4512-41.275733-103.185067 2.875733-26.0096 26.487467-58.9056 53.6576-61.909333z" fill="#F9E9D6" p-id="4239"></path><path d="M359.4752 611.037867c11.460267-9.796267 18.961067-22.664533 31.829333-28.032 36.5056-15.223467 68.923733 12.5184 92.074667 38.272 14.1056 15.6928 9.7792 22.903467 39.227733 18.747733 11.332267-1.595733 25.540267-27.895467 36.974934-37.316267 10.589867-8.7296 36.445867-23.4496 49.723733-24.738133 47.2064-4.590933 82.082133 74.9824 43.2128 107.357867 17.672533 1.066667 37.1968-4.573867 51.805867 8.055466l1.860266 78.634667c7.620267-4.693333 16.657067-5.4272 24.7552-8.251733-1.911467 4.949333 4.1984 19.447467 4.130134 20.6336-0.145067 2.321067-5.307733 7.125333-4.1472 8.174933 11.8784-0.955733 35.003733 18.039467 20.727466 26.973867-12.544 7.850667-24.516267-8.482133-37.213866-14.506667-85.188267-40.430933-135.5264 83.9424-38.306134 118.954667 3.438933 1.237333 6.971733 0.1536 9.412267 0.7424 0.349867 0.085333 0.759467 3.5584 5.947733 4.189866 8.055467 0.989867 23.0144 0.8704 31.197867-0.059733l-16.520533 4.138667 4.1472 12.373333-12.398934 4.130133c-1.373867-0.059733-2.7648 0.093867-4.130133 0-6.621867-0.469333-10.461867-0.273067-16.503467-4.130133l-3.968 31.1296-319.982933 1.774933-2.133333-4.010666c10.24-10.939733 10.504533-21.9904 12.7232-34.858667 0.443733-2.568533 3.703467-2.082133 3.780266-2.286933v20.642133l99.063467-0.017067c2.013867-1.646933-4.130133-5.2224-4.130133-6.178133V788.539733h-70.1696c49.629867 47.232 40.029867 123.204267-24.763734 148.590934 1.399467-3.618133-4.8128-11.588267-4.130133-16.512 10.683733-12.9536 28.8-20.497067 35.242667-36.992 21.777067-55.765333-30.208-106.504533-84.770134-78.574934-13.124267 6.715733-21.333333 16.699733-35.0464 20.650667-12.373333-10.129067-5.947733-21.102933 3.950934-29.064533 3.9936-3.208533 8.7808-2.781867 10.453333-6.024534l-20.6336-2.065066c0.648533-1.527467-1.408-5.4784 0.657067-7.6288 1.0752-1.117867 5.060267-0.0768 6.528-1.450667 2.517333-2.363733 5.632-12.0064 9.326933-15.684267 7.364267 3.063467 16.930133 6.391467 24.763733 8.251734 2.5088-2.6112-1.732267-60.6464-0.085333-72.32 3.208533-22.818133 40.994133-12.100267 57.873067-14.3616l-16.426667-39.2704 4.053333-35.0208z m119.697067 41.2672c1.629867-7.6288-4.164267-9.796267-8.251734-14.4384-19.012267-21.5808-58.717867-60.023467-84.522666-26.743467-23.671467 30.532267-6.997333 60.552533 25.352533 73.531733l50.9184-1.3824c-11.451733-9.3952-29.312-9.028267-42.504533-15.2832-19.2-9.1136-35.575467-29.2352-12.6976-44.049066 7.6288-0.836267 16.059733-1.5104 23.569066 0.1536 17.5104 3.874133 30.225067 24.823467 48.136534 28.2112z m82.56 33.024c23.4752-1.578667 58.410667 6.459733 76.3136-12.416 16.401067-17.297067 15.044267-50.670933-4.010667-66.0736-32.708267-26.4448-70.920533 17.9456-88.814933 43.426133 5.205333 7.2448 11.4944-4.5824 16.674133-8.0896 17.1264-11.5968 33.066667-23.125333 55.031467-18.218667 32.887467 27.357867-20.573867 47.744-45.1072 53.009067-7.3984 1.5872-11.9552-3.899733-10.094934 8.379733z m-107.323734-24.772267c-8.064-10.504533-23.534933-21.188267-37.1456-20.616533 6.365867 13.610667 23.509333 17.774933 37.1456 20.616533z m151.031467-24.021333l-32.2304 16.017066 3.421867 6.877867L608.861867 643.413333l-3.421867-6.877866z m-73.0624 24.482133c-24.081067-9.0368-46.557867-5.026133-44.9536 24.311467h49.544533l-4.590933-24.311467z m-69.7088 44.9536H334.72v61.909333h127.9488v-61.909333z m78.421333 0h-57.787733v251.776h57.787733V705.9712z m144.4608 0H557.602133v61.909333h127.9488v-61.909333z m-53.6576 82.542933h-74.2912v169.224534h99.063467l-1.851733-20.855467c-60.834133-29.056-69.179733-101.290667-22.920534-148.3776z" fill="#58352A" p-id="4240"></path><path d="M334.711467 949.486933l-8.3712 57.6768c-19.165867 0.034133-38.5024 0.349867-57.6768 0.1024l12.381866-61.917866c17.160533 5.265067 35.643733 5.111467 53.6576 4.130133z" fill="#F1BC7A" p-id="4241"></path><path d="M755.720533 1007.274667c-19.208533 0.136533-38.570667-0.1024-57.787733 0.008533l-4.1216-57.796267c1.365333 0.093867 2.756267-0.059733 4.130133 0 13.781333 0.580267 31.556267 2.312533 43.409067-3.7888l4.1472 3.694934 10.231467 57.8816z" fill="#F4BE7C" p-id="4242"></path><path d="M363.605333 920.6016c-6.7072 2.338133-14.216533 2.7136-20.6336 4.130133-7.6288-18.773333-18.653867-36.778667-23.893333-56.593066-5.4528-20.599467-5.486933-41.924267-5.000533-63.104 54.562133-27.9296 106.5472 22.8096 84.770133 78.574933-6.442667 16.494933-24.558933 24.0384-35.242667 36.992z" fill="#F8F0E2" p-id="4243"></path><path d="M272.802133 788.514133l20.6336 2.065067c-1.672533 3.242667-6.468267 2.816-10.453333 6.024533-9.898667 7.9616-16.324267 18.935467-3.950933 29.064534 13.7216-3.950933 21.922133-13.934933 35.0464-20.650667-0.4864 21.179733-0.452267 42.504533 5.000533 63.104 5.239467 19.8144 16.264533 37.819733 23.893333 56.593067-0.3584 0.0768-0.7424 3.5584-5.947733 4.189866-60.288 7.338667-96.989867-21.981867-88.917333-84.608 2.2784-17.655467 17.570133-38.920533 24.695466-55.790933z" fill="#F5C282" p-id="4244"></path><path d="M722.696533 928.853333c-8.183467 0.930133-23.1424 1.0496-31.197866 0.059734-5.188267-0.64-5.597867-4.104533-5.947734-4.189867 13.994667-38.869333 30.865067-77.047467 28.893867-119.697067 12.689067 6.024533 24.669867 22.365867 37.213867 14.506667 14.276267-8.9344-8.840533-27.9296-20.727467-26.973867-1.160533-1.0496 4.010667-5.853867 4.1472-8.174933 8.669867-1.0752 9.207467-6.306133 16.5888 1.962667 36.718933 41.147733 40.046933 134.647467-28.970667 142.498133z" fill="#F3C282" p-id="4245"></path><path d="M483.3024 705.9712h57.787733v251.776h-57.787733z" fill="#E54E44" p-id="4246"></path><path d="M631.893333 788.514133c-46.2592 47.086933-37.9136 119.3216 22.920534 148.3776l1.851733 20.855467H557.602133V788.522667h74.2912z" fill="#F7D347" p-id="4247"></path><path d="M367.735467 937.105067c64.7936-25.386667 74.3936-101.358933 24.763733-148.590934h70.1696v163.037867c0 0.955733 6.144 4.5312 4.130133 6.178133l-99.063466 0.017067v-20.642133z" fill="#F7D44D" p-id="4248"></path><path d="M714.4448 805.026133c1.979733 42.6496-14.8992 80.827733-28.893867 119.697067-2.440533-0.5888-5.973333 0.494933-9.412266-0.7424-97.220267-35.012267-46.890667-159.3856 38.306133-118.954667z" fill="#F9F1E3" p-id="4249"></path><path d="M557.602133 705.9712h127.9488v61.909333H557.602133z" fill="#F8D44A" p-id="4250"></path><path d="M334.711467 705.9712h127.9488v61.909333H334.711467z" fill="#F7D34A" p-id="4251"></path><path d="M561.732267 685.329067c-1.860267-12.279467 2.696533-6.792533 10.094933-8.379734 24.5248-5.265067 77.994667-25.6512 45.1072-53.009066-21.9648-4.906667-37.896533 6.621867-55.031467 18.218666-5.179733 3.5072-11.477333 15.3344-16.674133 8.0896 17.8944-25.480533 56.106667-69.8624 88.814933-43.426133 19.0464 15.402667 20.411733 48.776533 4.010667 66.0736-17.902933 18.884267-52.8384 10.837333-76.3136 12.416z" fill="#E54541" p-id="4252"></path><path d="M479.172267 652.305067c-17.911467-3.3792-30.626133-24.337067-48.136534-28.2112-7.509333-1.664-15.940267-0.989867-23.569066-0.1536-22.8864 14.813867-6.5024 34.935467 12.6976 44.049066 13.192533 6.263467 31.0528 5.888 42.504533 15.2832l-50.9184 1.3824c-32.349867-12.987733-49.024-42.999467-25.352533-73.531733 25.8048-33.288533 65.5104 5.162667 84.522666 26.743467 4.087467 4.642133 9.8816 6.8096 8.251734 14.4384z" fill="#E04B45" p-id="4253"></path><path d="M532.3776 661.0176l4.590933 24.311467H487.424c-1.604267-29.3376 20.872533-33.348267 44.9536-24.311467z" fill="#E14141" p-id="4254"></path><path d="M454.408533 660.5568c-13.636267-2.8416-30.788267-7.0144-37.1456-20.616533 13.610667-0.571733 29.0816 10.112 37.1456 20.616533z" fill="#B94D3C" p-id="4255"></path><path d="M573.21216 652.509867l32.234667-16.01536 3.416746 6.877866-32.234666 16.014507z" fill="#C75F3D" p-id="4256"></path><path d="M846.523733 495.4624l-16.503466 4.113067 22.664533 16.4352c4.1728 12.228267 19.3024 19.1488 22.050133 31.726933 2.747733 12.5952 2.141867 55.330133-0.119466 68.6848-3.037867 17.954133-15.061333 30.532267-28.202667 41.966933-25.6768 10.965333-59.5968 26.478933-88.0384 18.082134-3.285333-0.9728-5.8112-5.435733-9.6768-6.8352-6.818133-2.4576-16-3.6352-21.8368-7.057067-8.516267-4.983467-23.048533-29.2608-26.922667-39.1168-8.644267-22.024533-6.8096-41.4976-10.333866-63.8976l8.32-26.9568c6.715733-1.783467 24.558933-9.1136 33.024-12.381867 8.644267 2.193067-0.0256 12.245333-2.0736 16.503467-5.435733 11.281067-13.44 22.536533-14.592 34.9184-4.027733 43.2128 20.138667 76.458667 64.221866 80.5632 16.836267 1.570133 48.1024-5.888 59.904-18.3296 2.952533-3.114667 13.320533-18.8928 14.523734-22.621867 1.262933-3.908267 5.469867-27.656533 5.230933-30.481066-0.725333-8.695467-17.911467-42.308267-23.953067-50.321067-11.042133-14.660267-21.4528-19.592533-39.150933-22.792533-7.5776-1.373867-16.887467 5.546667-14.592-8.081067 18.295467-4.949333 41.275733-10.308267 60.074667-8.32 4.992 0.529067 5.6064 4.1216 5.9648 4.189867z" fill="#FADDC7" p-id="4257"></path><path d="M780.484267 499.592533c-2.295467 13.627733 7.005867 6.7072 14.592 8.081067 17.698133 3.2 28.1088 8.132267 39.150933 22.792533 6.033067 8.0128 23.227733 41.617067 23.953067 50.321067 0.2304 2.824533-3.968 26.564267-5.230934 30.481067-1.211733 3.729067-11.579733 19.5072-14.523733 22.621866-11.8016 12.4416-43.067733 19.899733-59.904 18.3296-44.0832-4.104533-68.241067-37.3504-64.221867-80.5632 1.152-12.373333 9.156267-23.637333 14.592-34.9184 2.048-4.258133 10.717867-14.3104 2.0736-16.503466 16.622933-6.417067 29.380267-15.189333 49.527467-20.6336z m-1.2544 33.706667c-33.339733 5.2736-50.2784 58.897067-23.424 79.709867 23.133867 17.928533 50.773333 11.997867 68.130133-10.120534l4.753067-27.025066c-7.995733-20.565333-24.6272-46.498133-49.4592-42.564267z" fill="#F9CBB0" p-id="4258"></path><path d="M293.435733 520.234667c-1.442133 17.536 10.811733 29.892267 12.552534 47.300266s-0.2304 38.621867-8.951467 53.2992c-11.938133 20.078933-52.232533 35.968-75.178667 30.830934-5.1712-1.160533-36.360533-14.788267-39.8848-17.902934-14.165333-12.5184-19.208533-52.036267-16.580266-70.272 1.4336-10.001067 24.072533-39.108267 33.2032-45.218133 12.270933-8.209067 26.769067-7.790933 39.125333-14.5408l-10.325333-8.251733c26.624 2.193067 44.586667 16.7936 66.039466 24.763733z m-67.4304 13.064533c-15.300267 3.4304-33.723733 27.204267-35.669333 42.7008-4.949333 39.441067 28.603733 54.152533 63.197867 46.72 17.245867-3.703467 30.737067-36.864 25.4976-53.077333-7.082667-21.947733-28.740267-41.796267-53.026134-36.343467z" fill="#F9CCB1" p-id="4259"></path><path d="M227.396267 495.4624l10.325333 8.251733c-12.347733 6.749867-26.8544 6.331733-39.125333 14.5408-9.130667 6.109867-31.7696 35.217067-33.2032 45.218134-2.619733 18.235733 2.414933 57.7536 16.580266 70.272 3.524267 3.114667 34.7136 16.7424 39.8848 17.902933 22.946133 5.137067 63.240533-10.752 75.178667-30.830933 8.7296-14.677333 10.632533-36.5056 8.951467-53.2992s-13.994667-29.764267-12.552534-47.300267c7.816533 2.901333 16.776533 5.76 24.763734 8.251733-2.688 11.9296 9.514667 17.851733 11.6992 27.485867 1.621333 7.168-1.851733 36.48-4.036267 44.16-0.938667 3.3024-5.5808 5.819733-6.826667 9.685333-2.5344 7.842133-4.010667 20.394667-6.9632 26.052267-1.749333 3.345067-21.2736 21.777067-25.361066 24.174933-8.704 5.111467-40.174933 18.005333-48.878934 17.0496-4.113067-0.452267-8.0896-3.2768-12.612266-4.027733-14.498133-2.423467-27.972267-3.191467-41.335467-12.322133-13.474133-9.207467-31.854933-31.598933-34.858667-47.6928-1.501867-8.055467-3.6864-24.354133-4.352-32.776534-2.7904-34.961067 14.173867-45.482667 33.143467-70.391466 4.2752-5.614933 11.1616-5.623467 4.1728-14.4128 14.327467-0.366933 31.4112-1.152 45.405867 0z" fill="#FADCC4" p-id="4260"></path><path d="M206.762667 243.6864v-84.616533c0-0.810667 2.935467-2.3552 3.3536-4.906667 5.751467-35.490133 17.7152-73.5744 60.0576-46.122667 9.847467 6.382933 35.396267 27.648 41.745066 36.676267 2.2016 3.131733 7.022933 10.965333 6.2208 14.097067-20.514133 17.015467-45.320533 28.834133-65.792 45.824-11.793067 9.787733-21.597867 23.1936-33.194666 32.8448-4.181333 3.4816-5.290667 7.8848-12.381867 6.186666z" fill="#FAC5B6" p-id="4261"></path><path d="M813.499733 243.6864c-7.0912 1.698133-8.200533-2.7136-12.381866-6.186667-10.845867-9.028267-20.164267-21.777067-30.8736-31.035733-20.957867-18.1248-45.201067-32.068267-68.189867-47.402667-0.699733-2.440533 11.9296-19.362133 14.626133-22.510933 13.738667-16.042667 50.3808-46.532267 72.1664-35.370667 6.212267 5.768533 11.5456 14.728533 14.481067 22.664534 1.629867 4.420267 10.180267 33.390933 10.180267 35.2256v84.616533z" fill="#F9C5B6" p-id="4262"></path><path d="M366.557867 293.768533c12.3648-1.92 48.477867 14.583467 56.9088 24.192 26.990933 30.762667 2.705067 66.926933-37.111467 61.8496-56.6784-7.236267-81.757867-76.416-19.805867-86.0416z" fill="#F8F0DD" p-id="4263"></path><path d="M630.638933 298.154667c12.066133-2.116267 34.030933-2.833067 44.0832 3.822933 33.28 35.950933-2.269867 70.058667-41.540266 77.115733-32.290133 5.802667-58.922667-23.645867-41.984-54.3488 5.956267-10.8032 27.426133-24.482133 39.4496-26.589866z" fill="#F8EFDC" p-id="4264"></path><path d="M710.109867 408.994133l4.548266 14.267734c0.290133 16.733867-50.3808 27.246933-62.122666 37.111466 4.4288 9.992533 50.295467 13.7216 61.952 24.721067 12.074667 11.392 0 29.269333-17.8688 26.1888-28.672-4.9408-63.163733-27.0336-93.021867-32.930133-14.071467-24.388267 5.981867-31.761067 25.4208-41.4976 10.606933-5.307733 51.413333-25.6768 59.272533-27.400534 7.074133-1.553067 14.677333-0.768 21.819734-0.469333z" fill="#533128" p-id="4265"></path><path d="M416.648533 450.653867c5.9904 9.710933 4.394667 22.5024-6.2464 27.639466-29.636267 14.3104-64.1024 21.930667-95.0528 33.134934l-5.4272-1.3056c-31.0272-34.3552 38.843733-35.729067 57.796267-49.749334l-59.963733-30.8224c-5.956267-11.554133-0.964267-19.2512 10.410666-23.0656l98.474667 44.16z" fill="#523128" p-id="4266"></path><path d="M318.199467 528.4864c8.3968 2.619733 17.1008 4.292267 25.949866 4.881067l2.944 3.3792-0.110933 30.865066c-8.465067 20.898133-10.555733 54.0928-22.690133 72.226134-6.997333 10.453333-50.696533 42.24-62.4896 44.8256-9.796267 2.1504-22.1696 0.384-32.5376 0.503466-4.9664 0.059733-9.5488 3.0464-12.270934 2.986667-12.3392-0.290133-39.936-25.301333-55.637333-23.4496-0.5888-0.8192-2.5344-1.578667-4.130133-4.130133-16.0768-25.668267-11.6224-23.432533-16.580267-51.524267-4.642133-26.2656-16.6656-52.676267 2.210133-76.356267 5.060267-6.3488 10.7264-6.869333 14.464-10.427733 3.259733-3.0976 3.1488-7.6288 4.9408-9.386667 6.391467-6.272 5.213867 0.238933 11.485867-13.2864 0.298667-0.64 3.976533-1.672533 4.130133-4.130133 1.365333-0.085333 2.756267 0.034133 4.130134 0 6.980267 8.789333 0.1024 8.797867-4.1728 14.4128-18.9696 24.9088-35.933867 35.4304-33.143467 70.391467 0.674133 8.4224 2.858667 24.7296 4.352 32.776533 3.003733 16.093867 21.384533 38.485333 34.858667 47.6928 13.3632 9.130667 26.837333 9.898667 41.335466 12.322133 4.522667 0.759467 8.4992 3.584 12.612267 4.027734 8.704 0.9472 40.174933-11.946667 48.878933-17.0496 4.087467-2.397867 23.611733-20.829867 25.361067-24.174934 2.961067-5.6576 4.4288-18.210133 6.9632-26.052266 1.245867-3.8656 5.888-6.382933 6.826667-9.685334 2.184533-7.671467 5.6576-36.992 4.036266-44.16-2.184533-9.634133-14.3872-15.556267-11.6992-27.485866z" fill="#FAE7D3" p-id="4267"></path><path d="M359.4752 536.738133l4.317867 51.328c-28.2112 11.4688-18.500267 48.750933-39.261867 68.514134-6.894933 6.570667-35.626667 25.489067-44.740267 29.559466-8.5504 3.822933-33.988267 11.528533-42.0864 11.528534-3.797333 0-27.1616-3.652267-32.3584-4.744534-9.591467-2.0224-19.387733-14.242133-31.616-11.7248-7.7568-8.388267-7.466667-9.728-12.381866-16.512 15.701333-1.851733 43.298133 23.159467 55.637333 23.4496 2.7136 0.068267 7.304533-2.926933 12.270933-2.986666 10.376533-0.128 22.741333 1.646933 32.5376-0.503467 11.793067-2.5856 55.5008-34.372267 62.4896-44.8256 12.1344-18.133333 14.216533-51.328 22.690134-72.226133l0.110933-30.865067c4.113067-0.162133 8.285867 0.247467 12.381867 0z" fill="#F9E9D6" p-id="4268"></path><path d="M792.8576 404.676267l-18.773333 12.16c-4.949333 7.6032 3.882667 19.822933-10.094934 16.725333 1.322667-18.3552-19.7632-18.602667-20.667733-33.024l14.677333-3.925333 8.029867-20.846934c9.864533 13.730133 4.292267 27.690667 26.8288 28.9024z" fill="#F4B246" p-id="4269"></path><path d="M248.388267 400.1792c1.664 1.570133 15.658667-0.776533 16.1536 8.6016-5.435733-0.4608-9.045333 2.346667-12.561067 6.033067-4.002133 4.1984-8.6528 19.4048-10.1376 18.7392-6.434133-3.933867-5.282133-11.272533-8.277333-16.477867-5.248-9.1392-17.476267-5.0176-14.446934-16.529067l14.72-3.882666 8.004267-20.881067c4.189867 3.182933 5.0432 22.9888 6.545067 24.405333z" fill="#F2B347" p-id="4270"></path><path d="M689.681067 532.616533l-2.577067 3.677867c-3.2256 1.0752-6.562133 0.315733-9.8048 0.452267l2.577067-3.669334c3.1744-1.288533 6.869333-0.0256 9.8048-0.452266zM656.657067 536.738133c-3.131733-0.2048-6.408533 0.759467-9.489067-0.605866l-2.8928-3.524267c2.56 0.631467 6.724267-0.964267 9.821867 0.452267l2.568533 3.677866z" fill="#FADDC7" p-id="4271"></path><path d="M177.8688 495.4624c-0.145067 2.449067-3.831467 3.490133-4.130133 4.130133-2.7136 0.196267-5.563733-0.298667-8.251734 0l2.8928-3.524266c3.080533-1.365333 6.357333-0.4096 9.489067-0.605867z" fill="#FADCC4" p-id="4272"></path><path d="M502.749867 496.315733l11.357866-0.887466c11.374933 5.154133 25.540267 3.575467 36.5312 9.0624 37.0688 18.5088 16.648533 54.1696-13.585066 67.421866-64.418133 28.2368-135.210667-63.197867-34.304-75.5968z" fill="#51322A" p-id="4273"></path><path d="M779.229867 533.2992c24.832-3.933867 41.472 21.998933 49.4592 42.564267l-4.753067 27.025066c-17.3568 22.1184-44.996267 28.049067-68.130133 10.120534-26.8544-20.8128-9.915733-74.436267 23.424-79.709867zM226.005333 533.2992c24.285867-5.4528 45.943467 14.395733 53.026134 36.343467 5.230933 16.213333-8.251733 49.373867-25.4976 53.077333-34.594133 7.432533-68.1472-7.278933-63.197867-46.72 1.9456-15.505067 20.369067-39.2704 35.669333-42.7008z" fill="#F9BB9D" p-id="4274"></path></svg>