<?xml version="1.0" standalone="no"?><!DOCTYPE svg PUBLIC "-//W3C//DTD SVG 1.1//EN" "http://www.w3.org/Graphics/SVG/1.1/DTD/svg11.dtd"><svg t="1768660267074" class="icon" viewBox="0 0 1024 1024" version="1.1" xmlns="http://www.w3.org/2000/svg" p-id="5178" xmlns:xlink="http://www.w3.org/1999/xlink" width="256" height="256"><path d="M138.376533 958.967467c-6.016-0.0768-12.091733 0.059733-18.0992 0-1.2544-1.186133 2.8672-29.0048 3.754667-34.2528 2.7648-16.4608 13.525333-46.318933 10.146133-61.0816-1.6896-7.389867-8.994133-16.384-10.2144-25.949867-2.926933-22.903467 1.578667-52.360533 8.849067-74.2656 2.679467-8.072533 25.9072-52.1728 23.671467-54.135467-15.633067-5.546667-33.826133-13.755733-48.290134-22.289066C2.3296 624.5888-17.8688 514.824533 13.431467 401.5872c6.0928-22.0416 24.7552-58.8544 27.178666-77.764267 3.524267-27.511467-1.826133-61.917867-0.093866-90.564266 1.6384-27.144533 8.174933-62.72 15.5136-89.429334 13.056-47.573333 35.131733-95.2576 93.2608-73.301333 38.766933 14.6432 75.665067 44.125867 107.178666 70.365867l35.7888-6.912c12.544 2.935467 25.975467-2.978133 36.181334-3.618134 40.5504-2.568533 83.165867 3.6352 122.8544 10.973867 26.811733-15.0016 49.3056-38.306133 76.663466-53.905067 46.0544-26.257067 85.7088-36.497067 114.2016 18.56 23.2192 44.859733 28.2368 117.341867 31.9488 167.082667 1.262933 16.955733-5.546667 32.5376-3.703466 47.1552 3.362133 26.632533 28.194133 73.856 35.2768 105.821867 11.170133 50.389333 11.6736 101.563733-7.185067 150.365866-23.7056 61.3632-73.284267 104.746667-133.111467 129.2544 28.586667 39.313067 47.573333 85.0944 39.108267 134.997334-2.235733 13.184-19.754667 35.618133-19.874133 40.439466-0.256 10.197333 7.6032 31.778133 9.591466 43.613867 0.878933 5.248 5.000533 33.066667 3.754667 34.2528-6.007467 0.068267-12.091733-0.0768-18.0992 0l-10.862933-65.134933c-2.449067-2.705067-23.722667 10.914133-28.808534 12.8-3.6096 1.3312-15.197867 4.9152-18.235733 5.2992-19.694933 2.4832-49.5616-0.520533-66.449067-11.357867-30.011733-19.268267-41.088-54.664533-26.888533-87.406933 10.794667-24.874667 32.981333-32.9472 57.147733-38.749867l15.957334-0.392533 2.133333-3.2256c1.2032 0.0512 2.414933-0.042667 3.618133 0l39.620267 7.432533 0.187733 14.276267c-15.889067 1.527467-29.371733-5.358933-45.533866-3.7888-7.2448 0.708267-8.251733 3.694933-8.7552 3.7888-4.420267 0.861867-8.669867-0.5376-14.609067 1.646933-13.653333 5.009067-32.1792 18.6112-35.456 33.322667-10.3424 46.378667 28.2112 69.7344 70.016 66.2784 3.933867-0.324267 6.6816-3.0976 9.002667-3.541334 3.3792-0.648533 7.739733 0.7424 11.9552-0.597333 24.1152-7.697067 45.9264-27.997867 52.420266-52.6336 3.933867-14.8992 3.490133-27.6736 0.631467-42.5216-5.632-29.2608-22.050133-59.1616-41.437867-81.186133l-56.132266 21.341866c-46.993067 7.722667-93.303467 16.298667-141.098667 14.4896-2.525867 20.0448-3.908267 40.123733-11.5968 58.965334-1.4336 3.524267-5.614933 6.058667-6.1696 8.465066-0.827733 3.6352 8.0896 19.490133 6.818133 31.982934-3.822933 37.546667-38.417067 62.865067-74.205866 66.944-16.290133 1.860267-51.4048 0.989867-66.858667-3.5328-11.682133-3.421867-25.685333-15.035733-36.155733-19.933867-3.8656-1.809067-6.690133-2.295467-10.88-1.783467l-10.862934 68.7616z m-115.797333-427.008c1.860267 41.992533 28.381867 81.2032 57.898667 108.561066 1.339733 1.245867 2.346667 4.881067 5.230933 7.313067 32.426667 27.281067 80.571733 48.682667 121.403733 57.813333 1.860267-34.722133 40.226133-31.5392 67.114667-29.090133 32.512 2.961067 65.032533 19.6352 70.587733 54.263467 13.687467-0.1792 27.665067 0.9472 41.3696 0.093866 98.261333-6.135467 242.705067-49.322667 288.477867-145.7664 11.682133-24.618667 14.190933-45.047467 17.373867-71.278933 6.2208-51.2-6.408533-93.4912-22.485334-142.165333-3.959467-11.9808-15.8208-33.4592-17.322666-44.194134-5.410133-38.715733 2.389333-84.599467-3.6864-126.583466-3.677867-25.437867-16.3584-79.1808-30.779734-99.490134-21.376-30.1056-46.8992-14.762667-72.9856-0.7936-29.815467 15.957333-58.333867 38.9888-82.952533 61.917867-9.070933-1.749333-19.7376-5.546667-28.5952-6.8608-44.288-6.5792-92.637867-9.309867-137.361067-3.6096-13.730133 1.749333-29.448533 7.637333-43.5712 9.6256-13.201067-4.352-20.317867-17.544533-30.848-25.838933-17.604267-13.858133-48.443733-34.551467-68.522666-43.656534-28.279467-12.834133-47.377067-12.7488-63.249067 16.512-19.208533 35.396267-28.5184 103.287467-30.839467 142.856534-1.467733 24.968533 3.191467 56.0896-0.0768 79.5392-2.6624 19.106133-21.9392 57.864533-28.074666 80.4864-9.787733 36.113067-12.0576 63.0784-11.7248 100.437333 0.0512 5.947733-2.670933 16.896 3.6096 19.9168z m300.3392 264.1664c14.933333-41.813333 11.613867-94.421333-41.668267-101.265067-5.572267-0.7168-28.544-3.2256-31.837866-2.952533-5.290667 0.443733-14.327467 4.0448-20.736 4.539733l-7.005867 29.184-0.068267 52.394667c24.0128-5.973333 54.229333-6.4512 77.064534 4.352 4.488533 2.1248 21.5296 16.810667 24.2432 13.738666z m-72.362667 101.3248c40.285867-1.979733 84.7872-30.907733 63.172267-75.835734-12.023467-24.994133-41.352533-30.626133-66.7904-29.1072-12.151467 0.725333-22.869333 3.217067-34.4576 7.3728l-10.9312-7.364266c-2.474667-4.053333 5.794133-9.966933 5.632-16.238934-0.093867-3.7376-3.464533-7.287467-3.805867-11.093333-0.768-8.6528 7.893333-25.941333 3.575467-37.623467l-30.2848-7.168c-9.002667 2.7136-27.6224 52.778667-30.301867 63.829334-10.069333 41.617067-4.949333 79.744 35.584 100.420266 20.7616 10.589867 45.431467 13.952 68.608 12.817067z" fill="#4E2B23" p-id="5179"></path><path d="M489.386667 734.609067l9.216 3.438933 8.8832 32.7424c-1.2032-0.042667-2.414933 0.0512-3.618134 0-5.2736-0.238933-10.683733-0.349867-15.957333 0.392533-3.080533 0.5888-1.9456 3.182933-2.133333 3.2256-24.1664 5.802667-46.353067 13.866667-57.147734 38.749867-14.199467 32.7424-3.1232 68.138667 26.888534 87.406933 16.878933 10.837333 46.754133 13.841067 66.449066 11.357867v43.426133c-11.8016-0.725333-29.0304 3.618133-37.998933 3.618134H281.3184c-27.093333 0-58.530133-4.693333-88.661333-3.618134-0.750933-13.960533 0.725333-27.869867 1.083733-41.7024l2.5344-1.723733c15.453867 4.522667 50.568533 5.393067 66.858667 3.5328 35.7888-4.078933 70.3744-29.397333 74.205866-66.944 1.271467-12.4928-7.645867-28.356267-6.818133-31.982933 0.554667-2.4064 4.727467-4.9408 6.1696-8.465067 7.688533-18.833067 9.079467-38.920533 11.5968-58.965333 47.7952 1.809067 94.1056-6.766933 141.098667-14.4896z" fill="#F8EFDF" p-id="5180"></path><path d="M196.2752 911.9232l-2.5344 1.723733c-0.3584 13.832533-1.834667 27.741867-1.083733 41.7024-16.170667 0.571733-35.515733 3.848533-54.280534 3.618134l10.862934-68.7616c4.1984-0.512 7.0144-0.0256 10.88 1.783466 10.4704 4.898133 24.4736 16.512 36.155733 19.933867z" fill="#F3C17F" p-id="5181"></path><path d="M521.9584 911.9232c3.037867-0.384 14.626133-3.968 18.235733-5.2992 5.077333-1.877333 26.359467-15.496533 28.808534-12.8l10.862933 65.134933c-20.352 0.256-38.801067-2.449067-57.898667-3.618133v-43.426133z" fill="#F6C17E" p-id="5182"></path><path d="M692.036267 513.8688c-6.818133-4.923733-7.995733-14.882133-12.757334-21.623467-4.804267-6.8096-18.414933-17.774933-25.984-21.205333-2.986667-1.3568-6.4256-0.042667-8.2944-0.597333-5.12-1.527467-5.521067-2.926933-14.472533-3.618134l-2.1248-3.2256a61.124267 61.124267 0 0 0-17.467733 0l-2.1248 3.2256c-1.2032 0.068267-2.423467-0.1024-3.618134 0-25.156267 2.065067-39.842133 10.24-61.5168 18.090667-24.8064 8.9856-44.347733 18.602667-72.3712 14.472533-31.104-8.2432-42.999467-26.197333-68.676266-38.075733-19.003733-8.789333-42.743467-11.076267-63.556267-9.1136-37.316267 3.515733-58.5216 37.879467-95.744 47.189333-1.954133 0.4864-5.410133-0.170667-8.584533 0.418134s-2.082133 3.165867-2.269867 3.208533c-3.037867 0.5888-11.383467 0.5632-14.472533 0-0.341333-0.059733-0.853333-2.7648-2.500267-3.029333-9.2672-1.467733-13.192533-0.469333-22.826667-4.206934-27.758933-10.7776-53.742933-26.922667-84.881066-29.1072l-34.5344 3.771734c-31.249067 4.420267-52.0704 29.738667-50.6624 61.5168-6.280533-3.0208-3.5584-13.969067-3.6096-19.9168-0.3328-37.358933 1.937067-64.315733 11.7248-100.437334 6.135467-22.6304 25.412267-61.380267 28.074666-80.4864 3.268267-23.4496-1.390933-54.570667 0.0768-79.5392 2.321067-39.569067 11.630933-107.460267 30.839467-142.856533 15.880533-29.2608 34.9696-29.346133 63.249067-16.512 20.0704 9.105067 50.9184 29.806933 68.522666 43.656533 10.530133 8.2944 17.655467 21.4784 30.848 25.838934 14.122667-1.988267 29.841067-7.876267 43.5712-9.6256 44.7232-5.700267 93.073067-2.9696 137.361067 3.6096 8.8576 1.314133 19.524267 5.111467 28.5952 6.8608 24.618667-22.929067 53.137067-45.960533 82.952533-61.917867 26.094933-13.960533 51.6096-29.312 72.9856 0.7936 14.421333 20.317867 27.101867 74.0608 30.779734 99.490133 6.075733 41.984-1.723733 87.867733 3.6864 126.583467 1.501867 10.734933 13.3632 32.221867 17.322666 44.194133 16.0768 48.674133 28.706133 90.965333 22.485334 142.165334zM102.186667 253.320533c6.2208 1.4848 7.1936-2.3808 10.8544-5.4272 8.260267-6.869333 15.2832-16.6656 23.4496-23.594666 18.542933-15.726933 39.4752-28.2112 59.7504-41.540267-3.012267-3.285333-4.394667-7.415467-7.108267-10.965333-5.6832-7.432533-38.3744-35.601067-45.9264-37.290667-30.574933-6.852267-34.321067 24.541867-38.084267 47.5648-0.366933 2.235733-2.935467 3.592533-2.935466 4.3008v66.944z m506.624 0v-66.944c0-0.708267-2.577067-2.065067-2.935467-4.3008-2.2016-13.568-8.1664-46.216533-24.149333-48.315733-21.444267-2.816-55.3216 31.726933-66.986667 48.989867 17.604267 12.4672 37.461333 22.519467 54.109867 36.343466 10.3424 8.584533 18.935467 20.334933 29.1072 28.8 3.6608 3.0464 4.6336 6.912 10.8544 5.4272z m-377.463467 44.142934c-35.438933 6.101333-30.4384 48.1536-3.857067 63.9488 13.141333 7.816533 43.656533 12.765867 55.645867 2.295466 13.815467-12.066133 11.136-31.300267 1.698133-45.166933-9.582933-14.071467-36.9408-23.936-53.495466-21.077333z m231.586133-0.017067c-25.224533 4.4288-56.311467 31.0528-40.465066 57.173333 14.5408 23.9616 50.3296 15.138133 68.795733 0.085334 28.484267-23.227733 9.489067-63.906133-28.330667-57.258667zM279.355733 436.616533c0-29.038933-23.543467-52.5824-52.5824-52.5824s-52.5824 23.543467-52.5824 52.5824 23.543467 52.5824 52.5824 52.5824 52.5824-23.543467 52.5824-52.5824z m257.536 0.196267c0-29.090133-23.5776-52.667733-52.667733-52.667733s-52.667733 23.5776-52.667733 52.667733 23.5776 52.667733 52.667733 52.667733 52.667733-23.5776 52.667733-52.667733z" fill="#F7C27E" p-id="5183"></path><path d="M471.296 499.387733c0.3072 0.085333 0.349867 3.0208 5.188267 3.694934 8.465067 1.1776 18.602667-0.955733 27.374933-0.068267-20.497067 50.440533 5.256533 101.896533 56.8576 118.638933 25.7536 8.354133 58.205867 9.224533 77.1072-11.8272 9.7024-10.811733 26.112-31.445333 31.752533-44.245333 13.1328-29.7728-7.697067-56.6784-21.5808-81.8688-1.339733-2.440533-9.002667-12.552533-3.003733-13.2864 1.877333 0.5632 5.316267-0.750933 8.2944 0.597333 7.569067 3.4304 21.179733 14.395733 25.984 21.205334 4.7616 6.741333 5.9392 16.699733 12.757333 21.623466-3.182933 26.231467-5.691733 46.660267-17.373866 71.278934-45.7728 96.443733-190.216533 139.630933-288.477867 145.7664-13.696 0.853333-27.682133-0.2816-41.3696-0.093867-5.5552-34.628267-38.075733-51.3024-70.587733-54.263467-26.888533-2.449067-65.262933-5.640533-67.114667 29.090134-40.823467-9.130667-88.977067-30.532267-121.403733-57.813334-2.884267-2.432-3.8912-6.0672-5.230934-7.313066 8.96-8.149333 24.1664-5.649067 34.312534-7.304534 21.4272-3.490133 65.2032-9.984 79.812266-25.147733 3.549867-3.6864 4.309333-8.413867 6.084267-10.197333 1.450667-1.4592 5.2736-1.245867 8.2176-4.462934 1.3312-1.4592 1.1264-4.693333 2.781867-6.417066 1.143467-1.194667 4.411733-0.375467 5.495466-1.365334 5.981867-5.486933 9.301333-38.869333 7.9616-48.145066l-7.150933-34.466134c3.089067 0.5632 11.434667 0.5888 14.472533 0l8.6016-0.401066 2.261334-3.217067c37.2224-9.309867 58.436267-43.6736 95.744-47.189333 20.8128-1.962667 44.552533 0.324267 63.556266 9.1136 25.6768 11.8784 37.572267 29.832533 68.676267 38.075733z m-135.108267-28.356266c-6.144 1.348267-23.253333 11.946667-26.0096 17.416533-7.7824 15.445333 4.283733 29.294933 16.4608 37.9904 22.877867 16.3328 58.0864 10.606933 73.992534-12.672 25.045333-36.6592-37.137067-48.7168-64.443734-42.734933z m-35.037866 60.945066l-14.404267-0.0256c-7.2704 43.6992 39.995733 53.922133 71.074133 32.8704 15.0528 9.096533 31.837867 13.824 49.544534 9.966934 26.077867-5.6832 30.7712-47.6928 15.086933-42.820267-6.493867 2.013867-6.340267 17.962667-9.608533 21.1712-0.64 0.631467-15.249067 7.168-16.392534 7.389867-10.837333 2.0736-28.4416-11.537067-39.185066-14.267734-16.529067 11.690667-32.725333 15.547733-51.9168 6.894934l-4.1984-21.1712z" fill="#F9EFDE" p-id="5184"></path><path d="M250.555733 897.450667c-23.176533 1.134933-47.8464-2.2272-68.608-12.817067-40.533333-20.676267-45.653333-58.8032-35.584-100.420267 2.679467-11.050667 21.2992-61.115733 30.301867-63.829333l30.2848 7.168c4.317867 11.682133-4.343467 28.970667-3.575467 37.623467 0.3328 3.805867 3.712 7.355733 3.805867 11.093333 0.162133 6.272-8.106667 12.1856-5.632 16.238933l10.9312 7.364267c11.588267-4.1472 22.306133-6.647467 34.4576-7.3728-9.710933 34.3552-11.8272 71.808 3.618133 104.942933z" fill="#F5C17F" p-id="5185"></path><path d="M521.9584 890.2144c0.913067-31.556267-5.546667-62.208-14.3872-92.475733l-14.557867-5.230934c0.503467-0.093867 1.5104-3.089067 8.7552-3.7888 16.162133-1.570133 29.6448 5.307733 45.533867 3.7888l-0.187733-14.276266-39.620267-7.432534-8.8832-32.7424-9.216-3.438933 56.132267-21.341867c19.396267 22.024533 35.805867 51.925333 41.437866 81.186134 2.858667 14.856533 3.293867 27.630933-0.631466 42.5216-6.493867 24.635733-28.305067 44.945067-52.420267 52.6336-4.215467 1.348267-8.576-0.042667-11.9552 0.597333z" fill="#F5C281" p-id="5186"></path><path d="M73.2416 470.442667l21.7088 1.809066c-9.207467 9.949867-23.739733 15.172267-29.738667 28.168534-6.638933 14.3872-8.618667 35.4816-13.175466 50.909866 7.799467 16.128 24.644267 50.7392 41.685333 56.064 9.309867 2.909867 29.533867 5.188267 39.1424 4.096 9.173333-1.041067 43.144533-13.482667 49.066667-19.669333 3.106133-3.242667 16.298667-28.791467 17.373866-33.288533 3.268267-13.661867 1.416533-28.475733 0-42.257067l-6.656-20.48c9.634133 3.7376 13.568 2.730667 22.826667 4.206933 1.655467 0.264533 2.158933 2.9696 2.500267 3.029334l7.150933 34.466133c1.339733 9.284267-1.988267 42.658133-7.9616 48.145067-1.0752 0.989867-4.352 0.170667-5.495467 1.365333-1.655467 1.723733-1.450667 4.957867-2.781866 6.417067-2.935467 3.217067-6.766933 3.003733-8.2176 4.462933-1.7664 1.783467-2.525867 6.519467-6.084267 10.197333-14.609067 15.163733-58.385067 21.6576-79.812267 25.147734-10.146133 1.655467-25.352533-0.8448-34.312533 7.304533-29.525333-27.357867-56.0384-66.568533-57.898667-108.561067-1.408-31.778133 19.413333-57.096533 50.6624-61.5168z" fill="#F9E6D1" p-id="5187"></path><path d="M322.9184 796.125867c-2.7136 3.072-19.7632-11.6224-24.2432-13.738667-22.843733-10.8032-53.051733-10.325333-77.064533-4.352l0.068266-52.394667 7.005867-29.184c6.408533-0.494933 15.445333-4.096 20.736-4.539733 3.293867-0.2816 26.2656 2.235733 31.837867 2.952533 53.282133 6.8352 56.593067 59.451733 41.668266 101.265067z" fill="#F7EFDE" p-id="5188"></path><path d="M250.555733 897.450667c-15.445333-33.134933-13.329067-70.587733-3.618133-104.942934 25.437867-1.518933 54.766933 4.113067 66.7904 29.1072 21.614933 44.936533-22.8864 73.856-63.172267 75.835734zM493.0048 792.507733l14.557867 5.230934c8.840533 30.2592 15.300267 60.919467 14.3872 92.475733-2.321067 0.443733-5.0688 3.217067-9.002667 3.541333-41.8048 3.456-80.3584-19.899733-70.016-66.2784 3.285333-14.72 21.8112-28.322133 35.456-33.322666 5.9392-2.176 10.197333-0.776533 14.609067-1.646934z" fill="#F7EEDC" p-id="5189"></path><path d="M503.867733 770.7904l-2.133333 3.2256-15.957333 0.392533c0.187733-0.042667-0.9472-2.6368 2.133333-3.2256 5.2736-0.7424 10.683733-0.631467 15.957333-0.392533z" fill="#F5C281" p-id="5190"></path><path d="M192.657067 495.7696l6.656 20.48c1.408 13.789867 3.259733 28.5952 0 42.257067-1.0752 4.497067-14.267733 30.045867-17.373867 33.288533-5.930667 6.1952-39.893333 18.628267-49.066667 19.669333-9.6 1.092267-29.832533-1.194667-39.1424-4.096-17.041067-5.316267-33.8944-39.927467-41.685333-56.064 4.5568-15.428267 6.536533-36.522667 13.175467-50.909866 5.998933-12.996267 20.5312-18.210133 29.738666-28.168534l-21.7088-1.809066 34.5344-3.771734c31.138133 2.184533 57.122133 18.3296 84.881067 29.1072z m-29.704534 82.474667c1.553067-1.570133 13.1584-17.015467 14.728534-19.652267 8.081067-13.550933 5.973333-36.795733-4.957867-48.315733-23.552-11.997867-27.9808-28.987733-57.856-25.344-13.038933 1.5872-10.333867 6.784-13.397333 9.924266-1.749333 1.792-5.905067 1.911467-8.379734 4.369067-23.995733 23.825067-26.308267 50.005333-3.421866 76.014933 7.159467 8.1408 21.563733 14.4128 32.384 14.848 9.1648 0.366933 34.850133-5.700267 40.9088-11.844266z" fill="#F9D6BB" p-id="5191"></path><path d="M630.519467 466.824533c8.96 0.6912 9.361067 2.090667 14.472533 3.618134-6.007467 0.733867 1.655467 10.845867 3.003733 13.2864 13.883733 25.1904 34.7136 52.087467 21.5808 81.8688-5.640533 12.8-22.0416 33.425067-31.752533 44.245333-18.8928 21.051733-51.3536 20.181333-77.1072 11.8272-51.601067-16.7424-77.354667-68.1984-56.8576-118.638933-8.772267-0.887467-18.909867 1.245867-27.374933 0.068266-4.8384-0.674133-4.881067-3.618133-5.188267-3.694933 28.023467 4.1216 47.5648-5.486933 72.3712-14.472533 7.210667 1.450667-3.797333 9.1904-5.4272 10.8544-3.464533 3.541333-8.004267 7.074133-10.760533 10.948266-38.442667 53.9136 41.838933 125.559467 92.100266 92.100267 6.459733-4.3008 24.738133-23.6032 27.374934-30.532267 3.1744-8.3456 3.7888-18.705067 9.0112-27.2896-0.017067-6.0416-22.1184-45.6704-27.409067-52.317866-7.296-9.1648-16.631467-13.2352-23.364267-21.870934 1.194667-0.1024 2.414933 0.068267 3.618134 0 6.792533-0.366933 15.0016-0.520533 21.7088 0z" fill="#FAE1C9" p-id="5192"></path><path d="M536.891733 436.8128c0 29.090133-23.5776 52.667733-52.667733 52.667733s-52.667733-23.5776-52.667733-52.667733 23.5776-52.667733 52.667733-52.667733 52.667733 23.5776 52.667733 52.667733z m-59.4688-21.563733c0-8.9088-7.2192-16.119467-16.119466-16.119467s-16.119467 7.2192-16.119467 16.119467 7.2192 16.119467 16.119467 16.119466 16.119467-7.2192 16.119466-16.119466z" fill="#533128" p-id="5193"></path><path d="M279.355733 436.616533c0 29.038933-23.543467 52.5824-52.5824 52.5824s-52.5824-23.543467-52.5824-52.5824 23.543467-52.5824 52.5824-52.5824 52.5824 23.543467 52.5824 52.5824z m-13.764266-21.4784c0-8.823467-7.150933-15.965867-15.965867-15.965866s-15.965867 7.150933-15.965867 15.965866 7.150933 15.965867 15.965867 15.965867 15.965867-7.150933 15.965867-15.965867z" fill="#523028" p-id="5194"></path><path d="M102.186667 253.320533v-66.944c0-0.708267 2.577067-2.065067 2.935466-4.3008 3.7632-23.031467 7.509333-54.4256 38.084267-47.5648 7.552 1.6896 40.2432 29.858133 45.9264 37.290667 2.7136 3.549867 4.096 7.68 7.108267 10.965333-20.2752 13.329067-41.207467 25.8048-59.7504 41.540267-8.1664 6.929067-15.189333 16.725333-23.4496 23.594667-3.6608 3.0464-4.6336 6.912-10.8544 5.4272z" fill="#F9C8B9" p-id="5195"></path><path d="M608.810667 253.320533c-6.2208 1.4848-7.1936-2.3808-10.8544-5.4272-10.1632-8.456533-18.7648-20.215467-29.1072-28.8-16.648533-13.815467-36.5056-23.876267-54.109867-36.343466 11.665067-17.262933 45.5424-51.805867 66.986667-48.989867 15.982933 2.0992 21.947733 34.7392 24.149333 48.315733 0.3584 2.235733 2.935467 3.592533 2.935467 4.3008v66.944z" fill="#F9C7B7" p-id="5196"></path><path d="M605.184 466.824533c6.7328 8.6272 16.068267 12.706133 23.364267 21.870934 5.290667 6.638933 27.392 46.276267 27.409066 52.317866-5.230933 8.576-5.845333 18.944-9.0112 27.2896-2.6368 6.929067-20.906667 26.222933-27.374933 30.532267-50.2528 33.4592-130.542933-38.186667-92.100267-92.100267 2.7648-3.874133 7.296-7.406933 10.760534-10.948266 1.629867-1.664 12.637867-9.403733 5.4272-10.8544 21.674667-7.850667 36.360533-16.0256 61.5168-18.090667z m-26.564267 15.044267c-7.022933 1.536-36.369067 29.013333-40.3456 35.643733-12.782933 21.316267-1.954133 45.7216 16.4096 59.52 39.3472 29.568 73.6 6.596267 83.191467-36.1728l-0.529067-6.5792c-12.629333-21.0176-28.253867-59.0848-58.7264-52.411733z" fill="#F9D4B8" p-id="5197"></path><path d="M231.3472 297.463467c16.554667-2.850133 43.912533 7.005867 53.495467 21.077333 9.437867 13.866667 12.117333 33.1008-1.698134 45.166933-11.989333 10.4704-42.504533 5.521067-55.645866-2.295466-26.581333-15.803733-31.581867-57.847467 3.857066-63.9488z" fill="#F8EFDD" p-id="5198"></path><path d="M462.933333 297.4464c37.8112-6.647467 56.814933 34.030933 28.330667 57.258667-18.4576 15.0528-54.254933 23.867733-68.795733-0.085334-15.8464-26.112 15.240533-52.736 40.465066-57.173333z" fill="#F8EEDC" p-id="5199"></path><path d="M630.519467 466.824533c-6.715733-0.520533-14.916267-0.366933-21.7088 0l2.1248-3.2256a61.124267 61.124267 0 0 1 17.467733 0l2.1248 3.2256z" fill="#F9D4B8" p-id="5200"></path><path d="M243.319467 499.387733l-2.261334 3.217067-8.6016 0.401067c0.196267-0.034133-0.955733-2.6112 2.269867-3.208534s6.6304 0.0768 8.584533-0.418133z" fill="#F9E6D1" p-id="5201"></path><path d="M336.187733 471.031467c27.306667-5.981867 89.4976 6.075733 64.443734 42.734933-15.906133 23.278933-51.114667 29.0048-73.992534 12.672-12.1856-8.695467-24.251733-22.545067-16.4608-37.9904 2.756267-5.469867 19.8656-16.068267 26.0096-17.416533z" fill="#502F28" p-id="5202"></path><path d="M301.149867 531.976533l4.1984 21.1712c19.191467 8.6528 35.387733 4.795733 51.9168-6.894933 10.752 2.730667 28.347733 16.349867 39.185066 14.267733 1.134933-0.221867 15.744-6.7584 16.392534-7.389866 3.268267-3.208533 3.106133-19.157333 9.608533-21.1712 15.6928-4.864 10.990933 37.137067-15.086933 42.820266-17.706667 3.857067-34.500267-0.878933-49.544534-9.966933-31.0784 21.060267-78.344533 10.8288-71.074133-32.8704l14.404267 0.0256z" fill="#4E2D25" p-id="5203"></path><path d="M853.853867 181.725867c77.474133-9.335467 150.7328 40.977067 166.7328 117.5808 19.131733 91.630933-44.228267 167.936-134.877867 178.414933-14.941867 1.723733-26.845867 2.6624-42.8032-0.733867-7.057067-1.501867-20.676267-9.198933-26.0608-9.147733-3.643733 0.034133-32.810667 16.3072-41.4208 19.0208-7.2704 2.295467-15.889067 4.096-23.492267 5.213867l-5.742933-9.002667 17.774933-46.464c-2.798933-9.9584-12.014933-14.7968-17.1264-22.766933-59.562667-92.8768-3.694933-218.7776 107.0336-232.123734z m-82.2016 285.090133c5.4528 4.718933 35.182933-16.904533 45.2352-16.896 16.008533 0.017067 38.920533 15.496533 65.066666 13.201067 137.710933-12.091733 172.7232-200.686933 44.2112-253.943467-120.635733-49.9968-236.040533 81.143467-167.082666 192.4096 3.976533 6.417067 21.9392 24.072533 22.997333 27.656533 3.421867 11.52-5.486933 27.221333-10.436267 37.572267z" fill="#4C2921" p-id="5204"></path><path d="M771.652267 466.816c4.949333-10.350933 13.858133-26.052267 10.436266-37.572267-1.066667-3.584-19.0208-21.230933-22.997333-27.656533-68.957867-111.266133 46.446933-242.4064 167.082667-192.4096 128.512 53.256533 93.499733 241.851733-44.2112 253.943467-26.146133 2.295467-49.058133-13.184-65.066667-13.201067-10.052267-0.017067-39.7824 21.614933-45.2352 16.896z m115.268266-216.593067c-6.6304-6.6304-23.611733-3.908267-31.863466-0.349866l-0.1024 81.169066c6.792533 15.650133-3.515733 41.745067 23.210666 34.210134 8.209067-2.312533 4.616533-13.559467 5.742934-19.584 4.488533-24.132267 2.158933-41.5744 3.6096-65.143467 0.469333-7.645867 8.157867-21.546667-0.597334-30.301867z m-27.895466 130.2784c-6.126933 14.651733-9.1648 30.0032 9.1648 35.242667 29.457067-1.553067 30.5664-32.392533 2.978133-39.492267l-12.142933 4.241067z" fill="#FBFBFB" p-id="5205"></path><path d="M886.920533 250.222933c8.7552 8.7552 1.066667 22.656 0.597334 30.301867-1.450667 23.569067 0.878933 41.019733-3.6096 65.143467-1.117867 6.024533 2.474667 17.271467-5.742934 19.584-26.7264 7.534933-16.418133-18.56-23.210666-34.210134l0.1024-81.169066c8.251733-3.5584 25.233067-6.280533 31.863466 0.349866z" fill="#E24637" p-id="5206"></path><path d="M859.025067 380.501333l12.142933-4.241066c27.588267 7.099733 26.478933 37.9392-2.978133 39.492266-18.3296-5.248-15.291733-20.590933-9.1648-35.242666z" fill="#E0453B" p-id="5207"></path><path d="M162.952533 578.244267c-6.058667 6.144-31.744 12.2112-40.9088 11.844266-10.820267-0.4352-25.216-6.7072-32.384-14.848-22.8864-26.018133-20.573867-52.189867 3.421867-76.014933 2.4832-2.466133 6.638933-2.5856 8.379733-4.369067 3.063467-3.140267 0.3584-8.337067 13.397334-9.924266 29.866667-3.643733 34.304 13.346133 57.856 25.344 10.9312 11.511467 13.038933 34.7648 4.957866 48.315733-1.570133 2.6368-13.175467 18.082133-14.728533 19.652267zM125.781333 504.149333c-15.522133-0.418133-30.933333 14.9504-34.619733 29.696 4.053333 27.7504 29.3632 50.0992 56.405333 30.8224 11.118933-7.927467 17.006933-27.733333 10.8032-40.0384-2.773333-5.495467-27.221333-20.343467-32.580266-20.48z" fill="#F9C7A9" p-id="5208"></path><path d="M461.294933 415.249067m-16.119466 0a16.119467 16.119467 0 1 0 32.238933 0 16.119467 16.119467 0 1 0-32.238933 0Z" fill="#E2DCD4" p-id="5209"></path><path d="M249.6256 415.138133m-15.965867 0a15.965867 15.965867 0 1 0 31.931734 0 15.965867 15.965867 0 1 0-31.931734 0Z" fill="#EDEAE4" p-id="5210"></path><path d="M578.619733 481.8688c30.472533-6.673067 46.097067 31.394133 58.7264 52.411733l0.529067 6.5792c-9.591467 42.769067-43.844267 65.7408-83.191467 36.1728-18.372267-13.806933-29.192533-38.203733-16.4096-59.52 3.976533-6.621867 33.322667-34.107733 40.3456-35.643733z m7.313067 18.056533c-26.641067 2.312533-52.4288 48.392533-19.524267 65.3824 12.091733 6.2464 19.345067 6.877867 31.624534 1.092267 23.022933-10.837333 24.328533-31.104 10.922666-50.884267-3.524267-5.1968-16.674133-16.1536-23.031466-15.598933z" fill="#F9C9AB" p-id="5211"></path><path d="M125.781333 504.149333c5.358933 0.145067 29.815467 14.993067 32.580267 20.48 6.212267 12.305067 0.315733 32.110933-10.8032 40.0384-27.0336 19.285333-52.352-3.072-56.405333-30.8224 3.6864-14.754133 19.0976-30.114133 34.619733-29.696z" fill="#F9BA9A" p-id="5212"></path><path d="M585.9328 499.925333c6.3488-0.554667 19.5072 10.402133 23.031467 15.598934 13.405867 19.780267 12.100267 40.046933-10.922667 50.884266-12.279467 5.777067-19.5328 5.154133-31.624533-1.092266-32.904533-16.9984-7.1168-63.069867 19.524266-65.3824z" fill="#F9BD9D" p-id="5213"></path></svg>