<?xml version="1.0" standalone="no"?><!DOCTYPE svg PUBLIC "-//W3C//DTD SVG 1.1//EN" "http://www.w3.org/Graphics/SVG/1.1/DTD/svg11.dtd"><svg t="1768660271205" class="icon" viewBox="0 0 1024 1024" version="1.1" xmlns="http://www.w3.org/2000/svg" p-id="5568" xmlns:xlink="http://www.w3.org/1999/xlink" width="256" height="256"><path d="M275.610188 1023.812194c-7.73185-0.059672-15.540422 0.051148-23.272272-0.008525l15.506323-89.184801c-5.165933-1.90952-9.172514 3.870187-9.692517 3.870188h-62.050866c-5.319376 0-40.568769-13.929264-48.547834-17.381744-39.469091-17.083382-89.432015-52.733433-85.39986-101.076676 1.832798-22.027674 16.793544-40.798935 37.661867-47.627173 15.983703-5.23413 12.045319-2.73641 27.014589-11.77253 36.417269-21.985051 81.589345 21.806033 86.900196 57.473134l1.952143 0.298362c24.644739 3.45248 51.804247-24.286704 67.67713-40.858607-21.499146-13.528606-45.120928-23.800799-65.759085-38.940563-110.641323-81.205736-110.019025-203.670737-72.007648-323.757363 4.918718-15.548946 19.538479-42.674356 21.422424-56.14329 4.339043-31.089368-2.310178-72.135517-0.170492-104.878666 1.082629-16.588953 5.038063-41.097297 8.055786-57.873792 10.297767-57.140673 33.766105-140.886752 108.510163-112.661663 40.730738 15.386978 82.262792 46.842906 114.835447 75.187339 14.38107 4.202648 45.052731-6.282661 61.394469-7.433488 29.38444-2.071488 75.767015-2.224931 105.049158 0 17.24535 1.30427 36.434318 9.649894 54.23377 8.004639 9.027595-1.338369 15.796161-13.733198 23.08473-19.547003 25.275562-20.169302 78.426703-55.563614 109.40525-61.223976 51.940641-9.496451 74.80373 46.74061 85.578877 87.454298 7.851195 29.648704 14.483366 70.04698 16.375837 99.968472 1.866897 29.537883-3.469529 64.736128 0.144919 92.935643 2.02034 15.753538 16.853216 42.341895 22.368659 59.075766 24.891953 75.468652 35.633002 151.772719 3.878712 227.139076-22.198167 52.673761-77.753256 103.565871-129.838816 126.249942-3.529202 1.534435-6.998731-1.116728-4.841996 6.18889 4.935767 16.759445 46.493395 46.016015 65.537444 40.815984 3.844613-18.421751 14.551563-38.156296 29.188373-50.320959 18.046666-14.994845 36.766779-19.120771 57.754447-7.194798 4.918718 2.796082 8.337099 9.334483 12.650568 10.621703 10.46826 3.128543 14.585662-0.750168 26.707702 8.200706 42.145828 31.140516 23.016532 84.010343-11.64466 112.61904-47.209465 38.966137-112.755435 56.066568-172.649567 42.597634l15.514848 89.20185c-6.436104 0.059672-12.957455-0.085246-19.402084 0l-36.979896-182.367658 7.893819-7.646604c13.09385-0.068197 22.385709 68.836481 29.512309 81.00967l47.91701 8.217754c34.465126-3.5633 54.054752-11.542365 83.515914-27.185082 19.15487-10.169897 36.8776-17.339121 49.877678-37.380553 15.480749-23.877521 18.191585-60.397086-14.96927-67.32762 0.707545 15.386978-5.038063 34.396929-21.976526 38.139247-42.154353 9.308909-48.564883-38.6422-9.05317-45.91372 3.622973-7.62103-8.396772-11.823678-12.931881-11.133182-23.89457 3.657071-44.873713 38.071049-41.361561 61.564962-8.123983-0.264264-18.225684 7.774473-25.207366 7.774473-12.718765 0-43.850756-18.404701-54.361639-27.091311-10.664327-8.814479-18.668965-20.339795-27.372624-30.918875l-67.574834 23.093254c-94.043846 19.6152-193.176903 23.570634-286.990585 0-21.644065-5.438721-44.029774-13.119423-64.045632-22.777842-29.086077 27.10836-51.113751 60.90004-96.234679 53.082943-8.072836-1.398041-9.794813-5.370524-14.236152-10.911541-2.872804-26.358192-19.785693-46.706511-45.103878-53.88426l-9.189564 9.266285c3.137068 6.930534 16.154196 7.569882 18.805359 10.280718 4.620356 4.714127 6.402006 24.005391 2.617065 30.56084-26.366716 27.031639-58.487566 2.949526-52.460644-31.123466-9.914158-1.704928-13.844018 2.659688-18.847983 10.22957-27.065737 41.003526 17.96142 77.165056 51.054079 95.37369 3.946909 2.173784 8.277427 1.926569 10.459735 2.983625 16.017802 7.740375 33.706433 17.168628 52.45212 19.299788 14.594186 1.662305 60.439709 2.276079 69.825339-7.552832 8.771856-9.181039 12.463026-56.151814 21.669639-71.410923 1.977717-3.281987 4.680028-7.629554 9.206613-6.248562l9.223662 12.821061c-17.799452 57.728873-31.566748 117.128576-38.27564 177.1932zM143.759556 566.192383c0.23869 3.844613-0.323936 7.808572 0 11.636136 0.758693 8.874152 3.742318 10.979738 3.878712 11.636135 4.577733 22.360135 6.589548 26.528685 15.514848 46.536019 36.306449 81.418852 113.062322 122.686642 196.791351 146.427769 174.686956 49.545217 461.975903 16.316164 512.919161-192.972312 2.301653-9.445303 2.591491-13.213194 3.878712-23.272272 5.847904-45.615357-3.887237-87.863481-17.339121-131.969977-5.771182-18.91618-23.093254-51.787198-25.318185-67.753851-3.171167-22.71817 1.159351-53.202288-0.076722-77.488992-1.534435-30.134608-5.864953-70.251571-12.454502-100.01962-6.035446-27.261804-25.275562-91.93826-59.21216-92.04908-6.742992-0.025574-31.873635 10.94564-39.537288 14.781728-34.678242 17.330596-67.165651 45.274372-96.652387 70.106653l-69.44173-11.107608c-53.5177-1.30427-106.651791-0.571151-158.89932 11.823678-34.703816-23.476863-66.952535-54.506558-105.526538-73.158475-35.6671-17.24535-56.058043-18.234208-75.664719 19.700447-16.435509 31.788389-27.653937 100.837986-30.109034 136.650005-2.105586 30.714284 3.682645 67.481063-0.144919 96.814355-3.068871 23.528011-22.0021 61.769553-29.128701 87.215608-11.559414 41.26779-16.103048 73.729625-13.468933 116.455129z m-15.506323 228.809905l0.153444 13.417786 9.522024 5.975774 5.82233-9.675468-15.497798-9.709567z m763.986906 0c-9.632845-1.611157-12.01122 8.575789-15.506323 15.497799l11.661709-1.900995 3.844614-3.912811v-9.683993z" fill="#4D2A21" p-id="5569"></path><path d="M655.681334 806.638424c19.726021 70.780099 34.737915 143.452669 34.899883 217.182294-120.487284 0.136394-239.602102 0.323936-360.669062 0 5.029539-6.734467 3.69117-13.665 3.895761-21.320128 1.278696-47.260613 9.325958-100.266835 20.271598-146.487442 3.972483-16.76797 10.34039-32.760198 14.61976-49.374724 93.813681 23.570634 192.946738 19.6152 286.990585 0z" fill="#F9F0DE" p-id="5570"></path><path d="M830.197797 833.780883c2.727885 18.259782 21.52472 40.031717 34.908407 52.341299 4.62888 4.253796 7.740375 10.59613 15.506323 9.709567-29.461161 15.642717-49.050788 23.630307-83.515913 27.185082l-47.917011-8.217754c-7.1266-12.173188-16.41846-81.069342-29.512309-81.009669l-7.893818 7.646603 36.979895 182.367658c-19.333887 0.247215-38.838267-0.025574-58.172154 0-0.161968-73.729625-15.173862-146.402195-34.899883-217.182294l67.574834-23.093254c8.703659 10.57908 16.708298 22.104396 27.372624 30.918875 10.510883 8.68661 41.642874 27.091311 54.36164 27.091311 6.981681 0 17.083382-8.030212 25.207365-7.774473z" fill="#F5BF7B" p-id="5571"></path><path d="M368.69075 806.638424c-4.270845 16.614526-10.647277 32.606754-14.619761 49.374724-10.94564 46.220607-18.992902 99.226828-20.271598 146.487442-0.204591 7.655128 1.142302 14.585662-3.895761 21.320128-18.055191-0.051148-36.246776 0.12787-54.293442 0 6.708893-60.064625 20.476189-119.455803 38.275641-177.1932l-9.223663-12.821061c-4.526585-1.380992-7.228896 2.966575-9.206612 6.248562-9.198088 15.259108-12.889258 62.229884-21.669639 71.410923-9.38563 9.820387-55.231153 9.206613-69.82534 7.552832-18.745687-2.13116-36.425794-11.559414-52.45212-19.299788 6.137742-8.703659 15.94108-12.61647 23.340469-21.260456 12.684667-14.832876 21.482097-32.632328 19.325363-52.426546 4.441338 5.532492 6.171841 9.5135 14.236151 10.911541 45.120928 7.817096 67.148602-25.966058 96.234679-53.082943 20.015858 9.658419 42.401567 17.339121 64.045633 22.777842z" fill="#F6C17E" p-id="5572"></path><path d="M194.174287 826.023459c2.156734 19.794218-6.640696 37.593669-19.325363 52.426546-7.399389 8.652511-17.202727 12.556797-23.340469 21.260456-2.182308-1.048531-6.504302-0.809841-10.459735-2.983624-33.092659-18.20011-78.119816-54.370164-51.054079-95.373691 5.003965-7.578406 8.933824-11.934498 18.847983-10.22957-6.026922 34.072993 26.093928 58.16363 52.460645 31.123467 3.784941-6.555449 2.003291-25.846713-2.617065-30.56084-2.659688-2.710836-15.668291-3.350184-18.80536-10.280718l9.189564-9.266286c25.309661 7.177748 42.22255 27.526068 45.103879 53.88426z" fill="#F5EEDE" p-id="5573"></path><path d="M830.197797 833.780883c-3.512152-23.493912 17.466991-57.90789 41.361561-61.564962 4.543634-0.699021 16.554854 3.512152 12.931881 11.133182-39.511714 7.262995-33.109708 55.222628 9.05317 45.91372 16.938463-3.742318 22.684071-22.752268 21.976526-38.139247 33.160856 6.930534 30.45002 43.450098 14.969271 67.32762-13.000078 20.049957-30.722808 27.210656-49.877679 37.380553-7.765949 0.895087-10.877443-5.455771-15.506323-9.709567-13.392212-12.309582-32.180522-34.081517-34.908407-52.341299z" fill="#F6F0E0" p-id="5574"></path><path d="M128.253233 795.002288l15.497798 9.709567-5.82233 9.675468-9.530549-5.967249-0.144919-13.417786z" fill="#DDD4CC" p-id="5575"></path><path d="M892.240139 795.002288v9.683993l-3.844614 3.912811-11.661709 1.900995c3.495103-6.930534 5.882003-17.108956 15.506323-15.497799z" fill="#D5C8BE" p-id="5576"></path><path d="M531.588126 15.474961c-32.649377 1.159351-76.679151 35.726773-56.211487 69.774191 15.949604 26.537209 78.631294 21.447998 67.344669-16.938462-5.10626-17.347646-33.143807-19.171919-38.267116-0.47738l9.683993 5.839379 4.006581-7.987589 13.434835 0.204591-1.739026 15.70239c-16.384361 14.773204-33.135282 3.904286-40.406802-14.38107 2.233456-26.221798 32.615279-35.292016 53.75639-22.632924 19.598151 11.729907 22.36866 44.703221 5.992823 60.226593-35.999562 34.115616-101.571105 6.640696-95.083852-44.694696 3.409857-26.963441 34.584471-54.907217 60.721022-59.484949 12.778438-2.241981 18.191585 1.287221 16.776495 14.832877z" fill="#4E2E25" p-id="5577"></path><path d="M876.733816 566.192383h-3.878712c-9.112842-10.57908-12.983029-24.960151-23.272272-34.899883-9.445303-9.129891-25.91491-13.912215-38.778595-15.514848-2.753459-6.095119-15.992228-4.620356-21.50767-4.032155-35.897266 3.784941-59.587245 20.135203-90.957926 31.183139-21.28603 7.49316-39.273024 9.428254-62.050867 7.757424-37.295307-9.888584-46.237656-32.410687-77.506041-44.652073-27.142459-10.630228-50.423255-12.514174-78.742115-4.944292-34.754964 9.283335-51.693427 38.923514-91.955309 49.596365-27.440821 2.634114-48.505211-2.011815-73.687002-11.636136-23.65588-9.03612-43.202884-20.731928-69.80829-23.272272-2.540343-0.23869-5.191507 0.136394-7.757424 0l-2.276079-3.45248a65.588593 65.588593 0 0 0-18.720113 0l-2.276079 3.45248c-15.889932 1.287221-34.482175 6.069545-46.493396 17.50109-9.283335 8.831529-12.062368 26.110977-23.314895 32.922165-2.634114-42.716979 1.90952-75.187339 13.468934-116.455129 7.1266-25.446055 26.059829-63.687597 29.128701-87.215608 3.827564-29.333292-1.960668-66.100071 0.144918-96.814355 2.455097-35.820544 13.68205-104.861616 30.109035-136.650005 19.6152-37.94318 39.997618-36.945797 75.664719-19.700446 38.582528 18.651916 70.822722 49.681611 105.526538 73.158474 52.247528-12.394829 105.390144-13.119423 158.89932-11.823678l69.44173 11.107608c29.478211-24.832281 61.96562-52.776056 96.652387-70.106653 7.663653-3.827564 32.794296-14.798778 39.537288-14.781728 33.936598 0.11082 53.176714 64.778752 59.21216 92.04908 6.589548 29.768048 10.920066 69.876487 12.454502 100.01962 1.236073 24.278179-3.094445 54.770822 0.076721 77.488992 2.233456 15.966654 19.547003 48.837672 25.318186 67.753852 13.451884 44.106496 23.187025 86.354619 17.339121 131.969976z m-643.780935-362.61268c-3.45248 23.903095 2.531819 54.728199 0 79.500807 17.347646-6.393481 27.031639-23.579159 40.645491-34.976604 14.227627-11.917449 38.574003-30.978548 55.145907-38.045476 3.989532-1.704928 6.282661 1.270172 5.131834-6.529875-1.057056-7.169224-24.363426-29.086077-31.27691-34.686767-25.011298-20.237499-45.334044-30.952974-59.996427 5.60069-2.506245 6.240038-8.874152 23.800799-9.64137 29.137225z m554.579085 79.492283l-0.076722-52.273103c-5.541017-19.316838-6.529875-67.361718-26.963441-77.736207-25.940484-13.170571-60.18397 35.735298-77.650961 50.508502 0.025574 4.552159 44.771418 30.526742 52.409497 36.775304 13.298441 10.868918 25.352284 28.770665 38.625151 38.940563 4.952817 3.793466 7.135125 4.773799 13.656476 3.784941zM434.006554 398.811045c2.412474-2.412474 8.541691-19.50438 7.84267-23.792275-6.512826-39.622534-71.078462-64.684981-91.989408-27.398198-19.188968 34.226436 35.863167 65.963677 66.696796 58.930847 1.849847-0.417707 16.776495-7.075453 17.458466-7.748899z m193.313297-68.435823c-29.427063 5.12331-52.597039 27.338526-44.839615 58.86265 20.390943 31.16609 65.204984 19.257165 84.913956-7.186273 22.095871-29.648704-8.064311-57.251493-40.074341-51.676377zM325.445243 469.863933c-4.961341-4.876095-12.829586-1.935094-18.737163-0.579676-4.910194 31.217238 32.606754 55.53804 60.192495 58.155105 21.379801 2.028865 81.751313-29.205422 65.844332-54.395738-8.840053-13.997462-24.039489 10.451211-31.012647 15.659767-15.531897 11.602037-46.706511 11.610562-62.212834 0-8.038737-6.018397-10.800721-15.625668-14.074183-18.839458z m276.75249 37.33793c2.565917 2.565917 21.686688 12.821061 26.196223 14.525989 15.693865 5.924626 31.86511 6.009872 47.917011 1.108204 20.663731-6.316759 61.863324-44.234365 28.029021-57.413462-17.466991 25.156217-34.149714 35.300541-66.108595 30.961499-17.910272-2.429523-29.998214-30.586414-42.648782-27.133935-4.790849 1.30427-6.367907 8.618413-5.933151 13.562705 0.323936 3.69117 10.203996 22.053248 12.548273 24.397524z" fill="#F8C27D" p-id="5578"></path><path d="M636.287774 550.677535c0.332461 0.085246 0.375084 3.239364 5.566591 3.963958 9.078743 1.261647 19.939137-1.022957 29.341817-0.076721-15.429601 23.868997-16.230918 64.872523-1.90952 89.159226 3.009198 5.10626 12.718765 12.386304 17.59486 17.424368 2.642639 2.73641 2.796082 7.194798 4.509536 8.942349 2.165259 2.207882 36.459892 18.592243 40.534671 19.572577 18.285356 4.381666 53.048845 4.441338 69.961733-2.472146 38.198919-15.617143 58.845601-55.154431 55.606237-95.961891-1.06558-13.451884-10.067602-26.375241-11.704333-38.667774-0.733119-5.541017-2.463621-18.481423 3.801991-21.277506 10.289242 9.939732 14.15943 24.329327 23.272271 34.899883v23.272272c-50.951783 209.279951-338.232205 242.517529-512.919161 192.972312-83.72903-23.749652-160.484903-65.008917-196.791351-146.427769 1.43214-7.714801 10.152848 4.185599 11.627611 5.830855 10.698425 11.9004 24.568017 25.744418 28.958207 40.850082l4.347568 3.409857c28.710993 3.230839 55.589188 8.243328 84.249033-0.400658 3.682645-1.108203 5.805281-5.455771 9.078743-6.42758 4.594782-1.363943 9.897109 0.179017 14.39812-1.116728 5.933151-1.704928 42.853373-41.182544 44.490104-48.590457-1.866897-10.493834 4.841996-21.678164 4.833472-30.390347 0-7.36529-10.110225-42.57206-8.08136-44.592401 8.200705-0.801316 17.526663 1.176401 25.45458 0.076722 5.191507-0.71607 5.23413-3.870187 5.566591-3.963958 40.261882-10.681376 57.200345-40.31303 91.955309-49.596365 28.318859-7.569882 51.599656-5.685936 78.742114 4.944292 31.268385 12.241385 40.210734 34.772013 77.506042 44.652073z m-58.768879 73.098802c-20.595534 11.431544-36.170054 12.266959-51.855395-7.066928l-5.626263-25.045397c3.588874-7.075453 12.173188-5.694461 18.217159-9.104317 20.493238-11.559414 40.926804-34.098566 16.512231-53.125567-26.213273-20.442091-77.344073-17.049283-96.490419 11.994171-1.585583 25.21589 20.015858 40.20221 42.410092 46.007491l3.281987 3.887236c-6.742992 12.769913 1.184925 23.255222-12.96598 33.203479-27.023114 19.001426-54.898692-3.836089-48.63308-35.070375-17.935846-1.866897-21.52472 3.375758-18.66044 20.621108 7.101026 42.768127 59.220685 54.617379 86.533636 22.274888 24.883429 29.418538 84.973628 25.08802 91.119895-17.680106 1.466238-10.195471 1.380992-29.427063-13.554181-25.198841-9.462352 2.676737-3.205265 27.193607-10.297767 34.311682z" fill="#FAF0DD" p-id="5579"></path><path d="M213.559322 515.769128c7.169224-0.579676 15.992228-0.383609 23.272271 0 2.565917 0.136394 5.217081-0.23869 7.757424 0l-34.737915 21.499146c-13.392212 10.203996-20.996192 24.303753-25.531301 40.398276-5.327901 18.924704-3.247888 37.525472 7.996114 54.353115 11.457118 17.151579 33.578563 32.760198 54.284917 34.891358 12.539748 1.287221 39.494665-5.293802 51.181949-10.681376 9.266285-4.27937 13.332539-14.824352 23.65588-17.049283l15.779112-29.154274c-3.461004-9.453828 1.440664-17.8506 0.571151-26.315569-1.312795-12.889258-12.61647-22.044723-19.63225-30.987072-1.619682-2.071488-10.664327-12.573846-3.767891-13.68205 25.181791 9.62432 46.246181 14.27025 73.687002 11.636136-0.332461 0.085246-0.375084 3.247888-5.566591 3.963958-7.936441 1.099679-17.253875-0.878038-25.45458-0.076721-2.037389 2.02034 8.072836 37.22711 8.08136 44.5924 0 8.720708-6.700368 19.896514-4.833472 30.390347-1.636731 7.407914-38.556954 46.877004-44.490104 48.590457-4.501011 1.295746-9.803338-0.247215-14.39812 1.116728-3.273462 0.971809-5.396098 5.319376-9.078743 6.42758-28.659845 8.643987-55.546565 3.631497-84.249033 0.400658l-4.347568-3.409856c-4.39019-15.09714-18.268307-28.949683-28.958207-40.850083-1.474763-1.636731-10.195471-13.537131-11.627611-5.830855-8.9253-20.015858-10.937115-24.184408-15.514848-46.536018l-0.426232-9.215138-3.45248-2.420998c-0.323936-3.827564 0.23869-7.791522 0-11.636136 11.252527-6.802664 14.023035-24.082113 23.314895-32.922166 12.01122-11.42302 30.603463-16.213868 46.493395-17.501089z" fill="#FAE5CF" p-id="5580"></path><path d="M872.855104 589.45613v-23.272272h3.878712c-1.287221 10.059077-1.577059 13.826969-3.878712 23.272272z" fill="#F9E8D2" p-id="5581"></path><path d="M147.629743 589.45613c-0.136394-0.656397-3.120019-2.761984-3.878712-11.636136l3.45248 2.420998 0.426232 9.215138z" fill="#F8C27D" p-id="5582"></path><path d="M810.804237 515.769128c12.872209 1.602633 29.333292 6.384957 38.778595 15.514847-6.265612 2.787558-4.543634 15.736488-3.80199 21.277506 1.636731 12.292533 10.638753 25.207365 11.704333 38.667774 3.239364 40.807459-17.398794 80.344747-55.606237 95.961891-16.912889 6.913484-51.676377 6.853812-69.961734 2.472146-4.074779-0.980334-38.369412-17.364695-40.534671-19.572577-1.721978-1.747552-1.866897-6.205939-4.509535-8.942349-4.876095-5.038063-14.585662-12.318107-17.594861-17.424368-14.329923-24.286704-13.520082-65.29023 1.90952-89.159226-9.40268-0.95476-20.263073 1.329844-29.341816 0.076721-5.191507-0.71607-5.23413-3.878712-5.566591-3.963958 22.777842 1.67083 40.764836-0.255739 62.050866-7.757424 12.130565-1.355418 9.078743 3.068871 1.133777 6.828238-9.931207 4.697078-15.821735 26.230322-16.810593 37.610719-2.659688 30.577889 7.152174 55.77673 33.66381 71.376824 32.487409 19.120771 81.938855 18.396177 106.19146-12.96598 21.933903-28.361483 17.978469-59.57872 5.882003-91.350059-6.350858-16.674199-20.237499-28.634271-36.971371-34.780538-0.971809-6.521351 15.446651-4.356092 19.385035-3.870187z" fill="#F9E8D2" p-id="5583"></path><path d="M810.804237 515.769128c-3.938384-0.485905-20.356844-2.659688-19.385035 3.870187 16.733871 6.146267 30.620513 18.106339 36.971371 34.780538 12.104991 31.771339 16.0519 62.988577-5.882003 91.350059-24.252605 31.362156-73.704051 32.086751-106.19146 12.96598-26.511635-15.600094-36.323498-40.798935-33.66381-71.376824 0.988858-11.380397 6.879386-32.913641 16.810593-37.610719 7.944966-3.759367 10.996788-8.175131-1.133777-6.828238 31.370681-11.047936 55.069185-27.398198 90.957926-31.183139 5.515443-0.579676 18.754212-2.054439 21.507671 4.032156z m-55.435744 16.316164c-17.270924 2.3869-33.484792 11.951548-43.356327 26.451963-8.132508 11.943023-5.396098 26.946392-9.956782 40.449424 4.739701 22.181117 17.37322 38.795644 38.804169 46.842906 18.106339 6.802664 37.431701 5.967249 54.395738-4.04068 25.232939-14.892549 29.307718-50.559649 17.313547-75.426029-9.27481-19.231591-35.965463-37.201536-57.20887-34.26906z" fill="#F9D8BE" p-id="5584"></path><path d="M314.397307 539.041399c-6.896435 1.108203 2.14821 11.610562 3.767892 13.68205 7.01578 8.942349 18.319455 18.097814 19.632249 30.987072 0.860989 8.464969-4.04068 16.861741-0.571151 26.315569l-15.779111 29.154274c-10.323341 2.224931-14.389595 12.769913-23.655881 17.049283-11.687284 5.396098-38.6422 11.977121-51.181948 10.681376-20.69783-2.13116-42.827799-17.739779-54.284918-34.891358-11.252527-16.836167-13.324015-35.436935-7.996113-54.353115 4.535109-16.103048 12.130565-30.194281 25.531301-40.398276l34.737915-21.499146c26.605406 2.540343 46.15241 14.227627 69.80829 23.272271z m-16.333213 92.253672c4.27937-4.236747 16.043376-33.757581 16.478132-40.065816 0.860989-12.437452-13.55418-35.09595-23.519486-42.393043-3.316086-2.429523-22.462431-13.503032-25.079496-13.844018-12.190238-1.594108-33.638236 7.450537-42.759602 15.617144-31.055269 27.781807-27.969349 64.011534 5.984298 87.224133 10.937115 7.467586 34.908407 8.158082 47.737993 5.285278 2.267555-0.502954 19.717496-10.408587 21.141112-11.823678z" fill="#F9D4B8" p-id="5585"></path><path d="M787.531966 283.071986c-6.521351 0.988858-8.703659 0-13.656476-3.784941-13.272867-10.169897-25.32671-28.071645-38.625151-38.940563-7.638079-6.248562-52.383923-32.223145-52.409497-36.775304 17.466991-14.781729 51.710476-63.687597 77.650961-50.508502 20.433566 10.374489 21.422424 58.419369 26.963441 77.736207l0.076722 52.273103z" fill="#F8C6B6" p-id="5586"></path><path d="M232.952881 203.579703c0.767218-5.336426 7.14365-22.897187 9.64137-29.137225 14.662384-36.553663 34.985129-25.838189 59.996428-5.60069 6.922009 5.60069 30.219855 27.517543 31.27691 34.686767 1.150827 7.800047-1.142302 4.824947-5.131835 6.529875-16.571903 7.066928-40.91828 26.128027-55.145906 38.045476-13.613853 11.40597-23.297846 28.583123-40.645491 34.976604 2.531819-24.772609-3.45248-55.597713 0-79.500807z" fill="#F9C7B8" p-id="5587"></path><path d="M434.006554 398.811045c-0.673447 0.673447-15.608619 7.322667-17.458466 7.748899-30.833629 7.032829-85.885764-24.704411-66.696796-58.930847 20.910946-37.286782 85.476581-12.224336 91.989407 27.398198 0.707545 4.27937-5.430197 21.379801-7.84267 23.792274z" fill="#F8EFDD" p-id="5588"></path><path d="M627.319851 330.375222c32.001505-5.575116 62.170211 22.027674 40.074341 51.676377-19.708971 26.443438-64.523012 38.352363-84.913956 7.186273-7.757424-31.532649 15.412552-53.739341 44.839615-58.86265z" fill="#F8EFDC" p-id="5589"></path><path d="M602.197733 507.201863c-2.344276-2.344276-12.224336-20.69783-12.548273-24.397524-0.434757-4.944292 1.142302-12.258435 5.933151-13.562705 12.659093-3.45248 24.73851 24.704411 42.648782 27.133934 31.958881 4.339043 48.641605-5.796756 66.108595-30.961498 33.834303 13.179096-7.36529 51.105226-28.029021 57.413461-16.0519 4.901669-32.223145 4.816423-47.917011-1.108203-4.509535-1.704928-23.630307-11.960072-26.196223-14.52599z" fill="#55342B" p-id="5590"></path><path d="M325.445243 469.863933c3.273462 3.21379 6.035446 12.821061 14.074183 18.839458 15.506323 11.610562 46.680937 11.610562 62.212834 0 6.973157-5.208556 22.172593-29.657228 31.012647-15.659767 15.906981 25.190316-44.464531 56.424603-65.844332 54.395738-27.58574-2.617065-65.102688-26.929343-60.192495-58.155105 5.907577-1.355418 13.775821-4.287895 18.737163 0.579676z" fill="#553229" p-id="5591"></path><path d="M236.831593 515.769128c-7.271519-0.383609-16.103048-0.579676-23.272271 0l2.276079-3.45248a65.588593 65.588593 0 0 1 18.720113 0l2.276079 3.45248z" fill="#F9D4B8" p-id="5592"></path><path d="M577.518895 623.776337c7.101026-7.109551 0.84394-31.62642 10.297767-34.311683 14.935172-4.228222 15.020419 15.003369 13.55418 25.198841-6.146267 42.768127-66.236465 47.10717-91.119894 17.680107-27.312952 32.34249-79.432611 20.493238-86.533637-22.274889-2.86428-17.24535 0.724595-22.488005 18.660441-20.621108-6.257087 31.234287 21.609966 54.063277 48.63308 35.070376 14.150905-9.948257 6.222988-20.433566 12.96598-33.203479l-3.281987-3.887237c-22.402758-5.796756-43.995675-20.791601-42.410092-46.007491 19.13782-29.034929 70.268621-32.436261 96.490418-11.99417 24.406049 19.035525 3.981008 41.566152-16.512231 53.125566-6.043971 3.409857-14.61976 2.02034-18.217159 9.104317l5.626264 25.045397c15.685341 19.342412 31.259861 18.498472 51.855395 7.066928z" fill="#523027" p-id="5593"></path><path d="M755.368493 532.085292c21.243407-2.932477 47.925535 15.045992 57.20887 34.269059 11.994171 24.86638 7.910867 60.53348-17.313547 75.426029-16.964037 10.016454-36.289399 10.843344-54.395738 4.04068-21.430949-8.047262-34.064468-24.661788-38.804169-46.842906 4.560683-13.503032 1.824273-28.497877 9.956781-40.449424 9.871535-14.500415 26.085403-24.073588 43.356328-26.451963z m31.455927 30.944449c-8.021688-7.672177-35.939889-11.678759-45.922244-6.632171-20.237499 10.221045-18.327979 45.606833-1.986241 60.345938 26.204748 23.638831 64.147928 4.680028 60.345938-29.171324-0.400658-3.5633-10.425637-22.60735-12.445977-24.542443z" fill="#F9CBAE" p-id="5594"></path><path d="M298.064094 631.295071c-1.423615 1.415091-18.873557 11.312199-21.141111 11.823678-12.829586 2.86428-36.809402 2.182308-47.737993-5.285278-33.953648-23.204074-37.039568-59.433801-5.984299-87.224133 9.121367-8.158082 30.569365-17.211251 42.759603-15.617144 2.617065 0.340986 21.754885 11.40597 25.079495 13.844018 9.965306 7.305618 24.37195 29.955591 23.519486 42.393043-0.434757 6.308235-12.198762 35.829069-16.478132 40.065816z m-19.257166-11.516791c8.524642-14.969271 17.586336-27.47492 10.46826-45.922244-15.11419-15.09714-27.636888-25.957534-48.539309-13.451885-20.271598 12.130565-23.19555 33.604137-9.62432 52.221955 12.207287 16.750921 29.921492 14.295824 47.686845 7.152174z" fill="#F9C7A8" p-id="5595"></path><path d="M786.82442 563.029741c2.02034 1.926569 12.045319 20.970618 12.445977 24.542443 3.793466 33.851352-34.14119 52.810155-60.345938 29.171324-16.350263-14.74763-18.251258-50.124893 1.986242-60.345938 9.982355-5.046588 37.900557-1.040006 45.922244 6.632171z" fill="#FABD9D" p-id="5596"></path><path d="M278.806928 619.77828c-17.765353 7.14365-35.479558 9.598746-47.686845-7.152174-13.571229-18.617817-10.647277-40.091389 9.624321-52.221955 20.902421-12.505649 33.42512-1.645256 48.539309 13.451885 7.118076 18.447324-1.943618 30.952974-10.46826 45.922244z" fill="#FABB9A" p-id="5597"></path></svg>